<svg width="260" height="456" viewBox="0 0 260 456" fill="none" xmlns="http://www.w3.org/2000/svg">
<g clip-path="url(#clip0_212_553)">
<rect width="260" height="456" fill="white"/>
<rect width="260" height="48" fill="#08415C"/>
<path d="M83.4785 14.7871C84.2324 14.9629 84.7617 15.1758 85.0664 15.4258C85.5039 15.7812 85.7227 16.2422 85.7227 16.8086C85.7227 17.4062 85.4824 17.9004 85.002 18.291C84.4121 18.7637 83.5547 19 82.4297 19H78.3926V18.7832C78.7598 18.7832 79.0078 18.75 79.1367 18.6836C79.2695 18.6133 79.3613 18.5234 79.4121 18.4141C79.4668 18.3047 79.4941 18.0352 79.4941 17.6055V12.4492C79.4941 12.0195 79.4668 11.75 79.4121 11.6406C79.3613 11.5273 79.2695 11.4375 79.1367 11.3711C79.0039 11.3047 78.7559 11.2715 78.3926 11.2715V11.0547H82.2012C83.1113 11.0547 83.7559 11.1367 84.1348 11.3008C84.5137 11.4609 84.8125 11.7031 85.0312 12.0273C85.25 12.3477 85.3594 12.6895 85.3594 13.0527C85.3594 13.4355 85.2207 13.7773 84.9434 14.0781C84.666 14.375 84.1777 14.6113 83.4785 14.7871ZM81.3457 14.6289C81.9004 14.6289 82.3086 14.5664 82.5703 14.4414C82.8359 14.3164 83.0391 14.1406 83.1797 13.9141C83.3203 13.6875 83.3906 13.3984 83.3906 13.0469C83.3906 12.6953 83.3203 12.4082 83.1797 12.1855C83.043 11.959 82.8457 11.7871 82.5879 11.6699C82.3301 11.5527 81.916 11.4961 81.3457 11.5V14.6289ZM81.3457 15.0859V17.6348L81.3398 17.9277C81.3398 18.1387 81.3926 18.2988 81.498 18.4082C81.6074 18.5137 81.7676 18.5664 81.9785 18.5664C82.291 18.5664 82.5781 18.498 82.8398 18.3613C83.1055 18.2207 83.3086 18.0195 83.4492 17.7578C83.5898 17.4922 83.6602 17.1973 83.6602 16.873C83.6602 16.502 83.5742 16.1699 83.4023 15.877C83.2305 15.5801 82.9941 15.373 82.6934 15.2559C82.3926 15.1387 81.9434 15.082 81.3457 15.0859ZM89.5723 18.1914C88.9043 18.7812 88.3047 19.0762 87.7734 19.0762C87.4609 19.0762 87.2012 18.9746 86.9941 18.7715C86.7871 18.5645 86.6836 18.3066 86.6836 17.998C86.6836 17.5801 86.8633 17.2051 87.2227 16.873C87.582 16.5371 88.3652 16.0918 89.5723 15.5371V14.9863C89.5723 14.5723 89.5488 14.3125 89.502 14.207C89.459 14.0977 89.375 14.0039 89.25 13.9258C89.125 13.8438 88.9844 13.8027 88.8281 13.8027C88.5742 13.8027 88.3652 13.8594 88.2012 13.9727C88.0996 14.043 88.0488 14.125 88.0488 14.2188C88.0488 14.3008 88.1035 14.4023 88.2129 14.5234C88.3613 14.6914 88.4355 14.8535 88.4355 15.0098C88.4355 15.2012 88.3633 15.3652 88.2188 15.502C88.0781 15.6348 87.8926 15.7012 87.6621 15.7012C87.416 15.7012 87.209 15.627 87.041 15.4785C86.877 15.3301 86.7949 15.1562 86.7949 14.957C86.7949 14.6758 86.9062 14.4082 87.1289 14.1543C87.3516 13.8965 87.6621 13.6992 88.0605 13.5625C88.459 13.4258 88.873 13.3574 89.3027 13.3574C89.8223 13.3574 90.2324 13.4688 90.5332 13.6914C90.8379 13.9102 91.0352 14.1484 91.125 14.4062C91.1797 14.5703 91.207 14.9473 91.207 15.5371V17.6641C91.207 17.9141 91.2168 18.0723 91.2363 18.1387C91.2559 18.2012 91.2852 18.248 91.3242 18.2793C91.3633 18.3105 91.4082 18.3262 91.459 18.3262C91.5605 18.3262 91.6641 18.2539 91.7695 18.1094L91.9453 18.25C91.75 18.5391 91.5469 18.75 91.3359 18.8828C91.1289 19.0117 90.8926 19.0762 90.627 19.0762C90.3145 19.0762 90.0703 19.0039 89.8945 18.8594C89.7188 18.7109 89.6113 18.4883 89.5723 18.1914ZM89.5723 17.7637V15.9297C89.0996 16.207 88.748 16.5039 88.5176 16.8203C88.3652 17.0312 88.2891 17.2441 88.2891 17.459C88.2891 17.6387 88.3535 17.7969 88.4824 17.9336C88.5801 18.0391 88.7168 18.0918 88.8926 18.0918C89.0879 18.0918 89.3145 17.9824 89.5723 17.7637ZM95.0625 19.2227L93.293 15.1621C93.0273 14.5488 92.8301 14.1719 92.7012 14.0312C92.5762 13.8906 92.4238 13.793 92.2441 13.7383V13.5215H95.1562V13.7383C94.9648 13.7461 94.8301 13.7832 94.752 13.8496C94.6738 13.916 94.6348 13.9961 94.6348 14.0898C94.6348 14.2383 94.7324 14.5312 94.9277 14.9688L95.8652 17.1133L96.5039 15.4551C96.7344 14.8652 96.8496 14.4551 96.8496 14.2246C96.8496 14.0801 96.8008 13.9648 96.7031 13.8789C96.6094 13.793 96.4414 13.7461 96.1992 13.7383V13.5215H98.0332V13.7383C97.8535 13.7578 97.707 13.8281 97.5938 13.9492C97.4805 14.0664 97.291 14.4707 97.0254 15.1621L95.4609 19.2227C95.0664 20.2383 94.7734 20.8633 94.582 21.0977C94.3125 21.4258 93.9746 21.5898 93.5684 21.5898C93.2441 21.5898 92.9805 21.4961 92.7773 21.3086C92.5781 21.125 92.4785 20.9023 92.4785 20.6406C92.4785 20.4141 92.5469 20.2266 92.6836 20.0781C92.8242 19.9297 92.9961 19.8555 93.1992 19.8555C93.3945 19.8555 93.5508 19.918 93.668 20.043C93.7891 20.168 93.8516 20.3613 93.8555 20.623C93.8594 20.7715 93.877 20.8672 93.9082 20.9102C93.9395 20.9531 93.9844 20.9746 94.043 20.9746C94.1367 20.9746 94.2363 20.918 94.3418 20.8047C94.498 20.6406 94.6816 20.2656 94.8926 19.6797L95.0625 19.2227ZM101.021 19.1641L99.1758 14.916C98.9531 14.4043 98.7793 14.0801 98.6543 13.9434C98.5645 13.8418 98.4316 13.7734 98.2559 13.7383V13.5215H101.168V13.7383C100.984 13.7383 100.859 13.7715 100.793 13.8379C100.699 13.9238 100.652 14.0254 100.652 14.1426C100.652 14.2871 100.738 14.5586 100.91 14.957L101.812 17.0137L102.533 15.2383C102.74 14.7305 102.844 14.3711 102.844 14.1602C102.844 14.0391 102.799 13.9414 102.709 13.8672C102.623 13.7891 102.469 13.7461 102.246 13.7383V13.5215H104.039V13.7383C103.867 13.7617 103.727 13.8262 103.617 13.9316C103.508 14.0371 103.344 14.3477 103.125 14.8633L101.297 19.1641H101.021ZM105.867 10.8672C106.121 10.8672 106.336 10.957 106.512 11.1367C106.688 11.3125 106.775 11.5254 106.775 11.7754C106.775 12.0254 106.686 12.2383 106.506 12.4141C106.33 12.5898 106.117 12.6777 105.867 12.6777C105.617 12.6777 105.404 12.5898 105.229 12.4141C105.053 12.2383 104.965 12.0254 104.965 11.7754C104.965 11.5254 105.053 11.3125 105.229 11.1367C105.404 10.957 105.617 10.8672 105.867 10.8672ZM106.688 13.5215V17.8633C106.688 18.25 106.732 18.498 106.822 18.6074C106.912 18.7129 107.088 18.7734 107.35 18.7891V19H104.391V18.7891C104.633 18.7812 104.812 18.7109 104.93 18.5781C105.008 18.4883 105.047 18.25 105.047 17.8633V14.6641C105.047 14.2773 105.002 14.0312 104.912 13.9258C104.822 13.8164 104.648 13.7539 104.391 13.7383V13.5215H106.688ZM112.529 16.0645H109.523C109.559 16.791 109.752 17.3652 110.104 17.7871C110.373 18.1113 110.697 18.2734 111.076 18.2734C111.311 18.2734 111.523 18.209 111.715 18.0801C111.906 17.9473 112.111 17.7109 112.33 17.3711L112.529 17.5C112.232 18.1055 111.904 18.5352 111.545 18.7891C111.186 19.0391 110.77 19.1641 110.297 19.1641C109.484 19.1641 108.869 18.8516 108.451 18.2266C108.115 17.7227 107.947 17.0977 107.947 16.3516C107.947 15.4375 108.193 14.7109 108.686 14.1719C109.182 13.6289 109.762 13.3574 110.426 13.3574C110.98 13.3574 111.461 13.5859 111.867 14.043C112.277 14.4961 112.498 15.1699 112.529 16.0645ZM111.088 15.6719C111.088 15.043 111.053 14.6113 110.982 14.377C110.916 14.1426 110.811 13.9648 110.666 13.8438C110.584 13.7734 110.475 13.7383 110.338 13.7383C110.135 13.7383 109.969 13.8379 109.84 14.0371C109.609 14.3848 109.494 14.8613 109.494 15.4668V15.6719H111.088ZM118.652 19.1641L117.152 15.1445L115.682 19.1641H115.377L113.918 15.1914C113.699 14.5859 113.514 14.1914 113.361 14.0078C113.264 13.8828 113.115 13.793 112.916 13.7383V13.5215H115.682V13.7383C115.494 13.7383 115.365 13.7656 115.295 13.8203C115.225 13.875 115.189 13.9375 115.189 14.0078C115.189 14.0742 115.252 14.2734 115.377 14.6055L116.18 16.7441L116.953 14.6055L116.895 14.4648C116.777 14.1719 116.674 13.9863 116.584 13.9082C116.498 13.8262 116.363 13.7695 116.18 13.7383V13.5215H118.986V13.7383C118.768 13.75 118.629 13.7812 118.57 13.832C118.512 13.8789 118.482 13.9473 118.482 14.0371C118.482 14.123 118.539 14.3125 118.652 14.6055L119.426 16.7441L120.129 14.7754C120.23 14.4941 120.281 14.3027 120.281 14.2012C120.281 14.0488 120.244 13.9375 120.17 13.8672C120.096 13.7969 119.951 13.7539 119.736 13.7383V13.5215H121.359V13.7383C121.18 13.7617 121.037 13.8262 120.932 13.9316C120.826 14.0332 120.689 14.3262 120.521 14.8105L118.986 19.1641H118.652ZM127.729 15.4023V17.6055C127.729 18.0352 127.754 18.3066 127.805 18.4199C127.859 18.5293 127.953 18.6172 128.086 18.6836C128.223 18.75 128.471 18.7832 128.83 18.7832V19H124.793V18.7832C125.16 18.7832 125.408 18.75 125.537 18.6836C125.67 18.6133 125.762 18.5234 125.812 18.4141C125.867 18.3047 125.895 18.0352 125.895 17.6055V12.4492C125.895 12.0195 125.867 11.75 125.812 11.6406C125.762 11.5273 125.67 11.4375 125.537 11.3711C125.404 11.3047 125.156 11.2715 124.793 11.2715V11.0547H128.256C129.396 11.0547 130.215 11.2578 130.711 11.6641C131.207 12.0703 131.455 12.5781 131.455 13.1875C131.455 13.7031 131.295 14.1445 130.975 14.5117C130.654 14.8789 130.213 15.1289 129.65 15.2617C129.271 15.3555 128.631 15.4023 127.729 15.4023ZM127.729 11.5117V14.9453C127.857 14.9531 127.955 14.957 128.021 14.957C128.498 14.957 128.865 14.8164 129.123 14.5352C129.381 14.25 129.51 13.8105 129.51 13.2168C129.51 12.627 129.381 12.1953 129.123 11.9219C128.865 11.6484 128.48 11.5117 127.969 11.5117H127.729ZM134.373 11.0547V17.8633C134.373 18.25 134.418 18.498 134.508 18.6074C134.598 18.7129 134.773 18.7734 135.035 18.7891V19H132.076V18.7891C132.318 18.7812 132.498 18.7109 132.615 18.5781C132.693 18.4883 132.732 18.25 132.732 17.8633V12.1914C132.732 11.8086 132.688 11.5645 132.598 11.459C132.508 11.3496 132.334 11.2871 132.076 11.2715V11.0547H134.373ZM138.592 18.1914C137.924 18.7812 137.324 19.0762 136.793 19.0762C136.48 19.0762 136.221 18.9746 136.014 18.7715C135.807 18.5645 135.703 18.3066 135.703 17.998C135.703 17.5801 135.883 17.2051 136.242 16.873C136.602 16.5371 137.385 16.0918 138.592 15.5371V14.9863C138.592 14.5723 138.568 14.3125 138.521 14.207C138.479 14.0977 138.395 14.0039 138.27 13.9258C138.145 13.8438 138.004 13.8027 137.848 13.8027C137.594 13.8027 137.385 13.8594 137.221 13.9727C137.119 14.043 137.068 14.125 137.068 14.2188C137.068 14.3008 137.123 14.4023 137.232 14.5234C137.381 14.6914 137.455 14.8535 137.455 15.0098C137.455 15.2012 137.383 15.3652 137.238 15.502C137.098 15.6348 136.912 15.7012 136.682 15.7012C136.436 15.7012 136.229 15.627 136.061 15.4785C135.896 15.3301 135.814 15.1562 135.814 14.957C135.814 14.6758 135.926 14.4082 136.148 14.1543C136.371 13.8965 136.682 13.6992 137.08 13.5625C137.479 13.4258 137.893 13.3574 138.322 13.3574C138.842 13.3574 139.252 13.4688 139.553 13.6914C139.857 13.9102 140.055 14.1484 140.145 14.4062C140.199 14.5703 140.227 14.9473 140.227 15.5371V17.6641C140.227 17.9141 140.236 18.0723 140.256 18.1387C140.275 18.2012 140.305 18.248 140.344 18.2793C140.383 18.3105 140.428 18.3262 140.479 18.3262C140.58 18.3262 140.684 18.2539 140.789 18.1094L140.965 18.25C140.77 18.5391 140.566 18.75 140.355 18.8828C140.148 19.0117 139.912 19.0762 139.646 19.0762C139.334 19.0762 139.09 19.0039 138.914 18.8594C138.738 18.7109 138.631 18.4883 138.592 18.1914ZM138.592 17.7637V15.9297C138.119 16.207 137.768 16.5039 137.537 16.8203C137.385 17.0312 137.309 17.2441 137.309 17.459C137.309 17.6387 137.373 17.7969 137.502 17.9336C137.6 18.0391 137.736 18.0918 137.912 18.0918C138.107 18.0918 138.334 17.9824 138.592 17.7637ZM146.039 17.5879L146.221 17.7285C145.963 18.2129 145.641 18.5742 145.254 18.8125C144.871 19.0469 144.463 19.1641 144.029 19.1641C143.299 19.1641 142.715 18.8887 142.277 18.3379C141.84 17.7871 141.621 17.125 141.621 16.3516C141.621 15.6055 141.82 14.9492 142.219 14.3828C142.699 13.6992 143.361 13.3574 144.205 13.3574C144.771 13.3574 145.221 13.5 145.553 13.7852C145.889 14.0703 146.057 14.3887 146.057 14.7402C146.057 14.9629 145.988 15.1406 145.852 15.2734C145.719 15.4062 145.543 15.4727 145.324 15.4727C145.094 15.4727 144.902 15.3965 144.75 15.2441C144.602 15.0918 144.51 14.8203 144.475 14.4297C144.451 14.1836 144.395 14.0117 144.305 13.9141C144.215 13.8164 144.109 13.7676 143.988 13.7676C143.801 13.7676 143.641 13.8672 143.508 14.0664C143.305 14.3672 143.203 14.8281 143.203 15.4492C143.203 15.9648 143.285 16.459 143.449 16.9316C143.613 17.4004 143.838 17.75 144.123 17.9805C144.338 18.1484 144.592 18.2324 144.885 18.2324C145.076 18.2324 145.258 18.1875 145.43 18.0977C145.602 18.0078 145.805 17.8379 146.039 17.5879ZM151.541 16.0645H148.535C148.57 16.791 148.764 17.3652 149.115 17.7871C149.385 18.1113 149.709 18.2734 150.088 18.2734C150.322 18.2734 150.535 18.209 150.727 18.0801C150.918 17.9473 151.123 17.7109 151.342 17.3711L151.541 17.5C151.244 18.1055 150.916 18.5352 150.557 18.7891C150.197 19.0391 149.781 19.1641 149.309 19.1641C148.496 19.1641 147.881 18.8516 147.463 18.2266C147.127 17.7227 146.959 17.0977 146.959 16.3516C146.959 15.4375 147.205 14.7109 147.697 14.1719C148.193 13.6289 148.773 13.3574 149.438 13.3574C149.992 13.3574 150.473 13.5859 150.879 14.043C151.289 14.4961 151.51 15.1699 151.541 16.0645ZM150.1 15.6719C150.1 15.043 150.064 14.6113 149.994 14.377C149.928 14.1426 149.822 13.9648 149.678 13.8438C149.596 13.7734 149.486 13.7383 149.35 13.7383C149.146 13.7383 148.98 13.8379 148.852 14.0371C148.621 14.3848 148.506 14.8613 148.506 15.4668V15.6719H150.1ZM162.838 10.873V13.627H162.609C162.438 12.9082 162.117 12.3574 161.648 11.9746C161.18 11.5918 160.648 11.4004 160.055 11.4004C159.559 11.4004 159.104 11.543 158.689 11.8281C158.275 12.1133 157.973 12.4863 157.781 12.9473C157.535 13.5371 157.412 14.1934 157.412 14.916C157.412 15.627 157.502 16.2754 157.682 16.8613C157.861 17.4434 158.143 17.8848 158.525 18.1855C158.908 18.4824 159.404 18.6309 160.014 18.6309C160.514 18.6309 160.971 18.5215 161.385 18.3027C161.803 18.084 162.242 17.707 162.703 17.1719V17.8574C162.258 18.3223 161.793 18.6602 161.309 18.8711C160.828 19.0781 160.266 19.1816 159.621 19.1816C158.773 19.1816 158.02 19.0117 157.359 18.6719C156.703 18.332 156.195 17.8438 155.836 17.207C155.48 16.5703 155.303 15.8926 155.303 15.1738C155.303 14.416 155.5 13.6973 155.895 13.0176C156.293 12.3379 156.828 11.8105 157.5 11.4355C158.176 11.0605 158.893 10.873 159.65 10.873C160.209 10.873 160.799 10.9941 161.42 11.2363C161.779 11.377 162.008 11.4473 162.105 11.4473C162.23 11.4473 162.338 11.4023 162.428 11.3125C162.521 11.2188 162.582 11.0723 162.609 10.873H162.838ZM166.488 13.3574C166.965 13.3574 167.408 13.4805 167.818 13.7266C168.229 13.9727 168.539 14.3223 168.75 14.7754C168.965 15.2285 169.072 15.7246 169.072 16.2637C169.072 17.041 168.875 17.6914 168.48 18.2148C168.004 18.8477 167.346 19.1641 166.506 19.1641C165.682 19.1641 165.047 18.875 164.602 18.2969C164.156 17.7188 163.934 17.0488 163.934 16.2871C163.934 15.502 164.16 14.8184 164.613 14.2363C165.07 13.6504 165.695 13.3574 166.488 13.3574ZM166.512 13.7734C166.312 13.7734 166.141 13.8496 165.996 14.002C165.855 14.1504 165.762 14.4473 165.715 14.8926C165.672 15.334 165.65 15.9492 165.65 16.7383C165.65 17.1562 165.678 17.5469 165.732 17.9102C165.775 18.1875 165.867 18.3984 166.008 18.543C166.148 18.6875 166.309 18.7598 166.488 18.7598C166.664 18.7598 166.811 18.7109 166.928 18.6133C167.08 18.4805 167.182 18.2949 167.232 18.0566C167.311 17.6855 167.35 16.9355 167.35 15.8066C167.35 15.1426 167.312 14.6875 167.238 14.4414C167.164 14.1914 167.055 14.0098 166.91 13.8965C166.809 13.8145 166.676 13.7734 166.512 13.7734ZM172.143 13.5215V14.2305C172.424 13.9258 172.693 13.7051 172.951 13.5684C173.209 13.4277 173.486 13.3574 173.783 13.3574C174.139 13.3574 174.434 13.457 174.668 13.6562C174.902 13.8516 175.059 14.0957 175.137 14.3887C175.199 14.6113 175.23 15.0391 175.23 15.6719V17.8047C175.23 18.2266 175.268 18.4902 175.342 18.5957C175.42 18.6973 175.58 18.7617 175.822 18.7891V19H173.051V18.7891C173.258 18.7617 173.406 18.6758 173.496 18.5312C173.559 18.4336 173.59 18.1914 173.59 17.8047V15.3672C173.59 14.918 173.572 14.6348 173.537 14.5176C173.502 14.4004 173.441 14.3105 173.355 14.248C173.273 14.1816 173.182 14.1484 173.08 14.1484C172.744 14.1484 172.432 14.3887 172.143 14.8691V17.8047C172.143 18.2148 172.18 18.4746 172.254 18.584C172.332 18.6934 172.475 18.7617 172.682 18.7891V19H169.91V18.7891C170.141 18.7656 170.305 18.6914 170.402 18.5664C170.469 18.4805 170.502 18.2266 170.502 17.8047V14.7109C170.502 14.2969 170.463 14.0391 170.385 13.9375C170.311 13.8359 170.152 13.7695 169.91 13.7383V13.5215H172.143ZM181.91 11.0547V17.3594C181.91 17.7852 181.922 18.0371 181.945 18.1152C181.977 18.2441 182.035 18.3398 182.121 18.4023C182.211 18.4648 182.365 18.5039 182.584 18.5195V18.7129L180.27 19.1641V18.2969C179.992 18.6328 179.744 18.8613 179.525 18.9824C179.311 19.1035 179.066 19.1641 178.793 19.1641C178.094 19.1641 177.541 18.8516 177.135 18.2266C176.807 17.7188 176.643 17.0957 176.643 16.3574C176.643 15.7676 176.744 15.2402 176.947 14.7754C177.15 14.3066 177.428 13.9531 177.779 13.7148C178.135 13.4766 178.516 13.3574 178.922 13.3574C179.184 13.3574 179.416 13.4082 179.619 13.5098C179.822 13.6113 180.039 13.7891 180.27 14.043V12.3906C180.27 11.9727 180.252 11.7207 180.217 11.6348C180.17 11.5215 180.1 11.4375 180.006 11.3828C179.912 11.3281 179.736 11.3008 179.479 11.3008V11.0547H181.91ZM180.27 14.7695C179.98 14.2148 179.627 13.9375 179.209 13.9375C179.064 13.9375 178.945 13.9766 178.852 14.0547C178.707 14.1758 178.588 14.3887 178.494 14.6934C178.404 14.998 178.359 15.4648 178.359 16.0938C178.359 16.7852 178.41 17.2969 178.512 17.6289C178.613 17.9609 178.752 18.2012 178.928 18.3496C179.018 18.4238 179.141 18.4609 179.297 18.4609C179.641 18.4609 179.965 18.1914 180.27 17.6523V14.7695ZM185.848 13.3574C186.324 13.3574 186.768 13.4805 187.178 13.7266C187.588 13.9727 187.898 14.3223 188.109 14.7754C188.324 15.2285 188.432 15.7246 188.432 16.2637C188.432 17.041 188.234 17.6914 187.84 18.2148C187.363 18.8477 186.705 19.1641 185.865 19.1641C185.041 19.1641 184.406 18.875 183.961 18.2969C183.516 17.7188 183.293 17.0488 183.293 16.2871C183.293 15.502 183.52 14.8184 183.973 14.2363C184.43 13.6504 185.055 13.3574 185.848 13.3574ZM185.871 13.7734C185.672 13.7734 185.5 13.8496 185.355 14.002C185.215 14.1504 185.121 14.4473 185.074 14.8926C185.031 15.334 185.01 15.9492 185.01 16.7383C185.01 17.1562 185.037 17.5469 185.092 17.9102C185.135 18.1875 185.227 18.3984 185.367 18.543C185.508 18.6875 185.668 18.7598 185.848 18.7598C186.023 18.7598 186.17 18.7109 186.287 18.6133C186.439 18.4805 186.541 18.2949 186.592 18.0566C186.67 17.6855 186.709 16.9355 186.709 15.8066C186.709 15.1426 186.672 14.6875 186.598 14.4414C186.523 14.1914 186.414 14.0098 186.27 13.8965C186.168 13.8145 186.035 13.7734 185.871 13.7734Z" fill="white"/>
<path d="M118.295 33.7402H121.986V31.4668C121.986 31.0605 121.961 30.793 121.91 30.6641C121.871 30.5664 121.789 30.4824 121.664 30.4121C121.496 30.3184 121.318 30.2715 121.131 30.2715H120.85V30.0547H124.248V30.2715H123.967C123.779 30.2715 123.602 30.3164 123.434 30.4062C123.309 30.4688 123.223 30.5645 123.176 30.6934C123.133 30.8184 123.111 31.0762 123.111 31.4668V36.5938C123.111 36.9961 123.137 37.2617 123.188 37.3906C123.227 37.4883 123.307 37.5723 123.428 37.6426C123.6 37.7363 123.779 37.7832 123.967 37.7832H124.248V38H120.85V37.7832H121.131C121.455 37.7832 121.691 37.6875 121.84 37.4961C121.938 37.3711 121.986 37.0703 121.986 36.5938V34.1738H118.295V36.5938C118.295 36.9961 118.32 37.2617 118.371 37.3906C118.41 37.4883 118.492 37.5723 118.617 37.6426C118.785 37.7363 118.963 37.7832 119.15 37.7832H119.438V38H116.033V37.7832H116.314C116.643 37.7832 116.881 37.6875 117.029 37.4961C117.123 37.3711 117.17 37.0703 117.17 36.5938V31.4668C117.17 31.0605 117.145 30.793 117.094 30.6641C117.055 30.5664 116.975 30.4824 116.854 30.4121C116.682 30.3184 116.502 30.2715 116.314 30.2715H116.033V30.0547H119.438V30.2715H119.15C118.963 30.2715 118.785 30.3164 118.617 30.4062C118.496 30.4688 118.412 30.5645 118.365 30.6934C118.318 30.8184 118.295 31.0762 118.295 31.4668V33.7402ZM127.5 32.4746C128.312 32.4746 128.965 32.7832 129.457 33.4004C129.875 33.9277 130.084 34.5332 130.084 35.2168C130.084 35.6973 129.969 36.1836 129.738 36.6758C129.508 37.168 129.189 37.5391 128.783 37.7891C128.381 38.0391 127.932 38.1641 127.436 38.1641C126.627 38.1641 125.984 37.8418 125.508 37.1973C125.105 36.6543 124.904 36.0449 124.904 35.3691C124.904 34.877 125.025 34.3887 125.268 33.9043C125.514 33.416 125.836 33.0566 126.234 32.8262C126.633 32.5918 127.055 32.4746 127.5 32.4746ZM127.318 32.8555C127.111 32.8555 126.902 32.918 126.691 33.043C126.484 33.1641 126.316 33.3789 126.188 33.6875C126.059 33.9961 125.994 34.3926 125.994 34.877C125.994 35.6582 126.148 36.332 126.457 36.8984C126.77 37.4648 127.18 37.748 127.688 37.748C128.066 37.748 128.379 37.5918 128.625 37.2793C128.871 36.9668 128.994 36.4297 128.994 35.668C128.994 34.7148 128.789 33.9648 128.379 33.418C128.102 33.043 127.748 32.8555 127.318 32.8555ZM132.469 33.6172C132.859 33.2266 133.09 33.002 133.16 32.9434C133.336 32.7949 133.525 32.6797 133.729 32.5977C133.932 32.5156 134.133 32.4746 134.332 32.4746C134.668 32.4746 134.957 32.5723 135.199 32.7676C135.441 32.9629 135.604 33.2461 135.686 33.6172C136.088 33.1484 136.428 32.8418 136.705 32.6973C136.982 32.5488 137.268 32.4746 137.561 32.4746C137.846 32.4746 138.098 32.5488 138.316 32.6973C138.539 32.8418 138.715 33.0801 138.844 33.4121C138.93 33.6387 138.973 33.9941 138.973 34.4785V36.7871C138.973 37.123 138.998 37.3535 139.049 37.4785C139.088 37.5645 139.16 37.6387 139.266 37.7012C139.371 37.7598 139.543 37.7891 139.781 37.7891V38H137.133V37.7891H137.244C137.475 37.7891 137.654 37.7441 137.783 37.6543C137.873 37.5918 137.938 37.4922 137.977 37.3555C137.992 37.2891 138 37.0996 138 36.7871V34.4785C138 34.041 137.947 33.7324 137.842 33.5527C137.689 33.3027 137.445 33.1777 137.109 33.1777C136.902 33.1777 136.693 33.2305 136.482 33.3359C136.275 33.4375 136.023 33.6289 135.727 33.9102L135.715 33.9746L135.727 34.2266V36.7871C135.727 37.1543 135.746 37.3828 135.785 37.4727C135.828 37.5625 135.906 37.6387 136.02 37.7012C136.133 37.7598 136.326 37.7891 136.6 37.7891V38H133.887V37.7891C134.184 37.7891 134.387 37.7539 134.496 37.6836C134.609 37.6133 134.688 37.5078 134.73 37.3672C134.75 37.3008 134.76 37.1074 134.76 36.7871V34.4785C134.76 34.041 134.695 33.7266 134.566 33.5352C134.395 33.2852 134.154 33.1602 133.846 33.1602C133.635 33.1602 133.426 33.2168 133.219 33.3301C132.895 33.502 132.645 33.6953 132.469 33.9102V36.7871C132.469 37.1387 132.492 37.3672 132.539 37.4727C132.59 37.5781 132.662 37.6582 132.756 37.7129C132.854 37.7637 133.049 37.7891 133.342 37.7891V38H130.688V37.7891C130.934 37.7891 131.105 37.7637 131.203 37.7129C131.301 37.6582 131.375 37.5742 131.426 37.4609C131.477 37.3438 131.502 37.1191 131.502 36.7871V34.7363C131.502 34.1465 131.484 33.7656 131.449 33.5938C131.422 33.4648 131.379 33.377 131.32 33.3301C131.262 33.2793 131.182 33.2539 131.08 33.2539C130.971 33.2539 130.84 33.2832 130.688 33.3418L130.6 33.1309L132.217 32.4746H132.469V33.6172ZM141.117 34.6543C141.113 35.4512 141.307 36.0762 141.697 36.5293C142.088 36.9824 142.547 37.209 143.074 37.209C143.426 37.209 143.73 37.1133 143.988 36.9219C144.25 36.7266 144.469 36.3945 144.645 35.9258L144.826 36.043C144.744 36.5781 144.506 37.0664 144.111 37.5078C143.717 37.9453 143.223 38.1641 142.629 38.1641C141.984 38.1641 141.432 37.9141 140.971 37.4141C140.514 36.9102 140.285 36.2344 140.285 35.3867C140.285 34.4688 140.52 33.7539 140.988 33.2422C141.461 32.7266 142.053 32.4688 142.764 32.4688C143.365 32.4688 143.859 32.668 144.246 33.0664C144.633 33.4609 144.826 33.9902 144.826 34.6543H141.117ZM141.117 34.3145H143.602C143.582 33.9707 143.541 33.7285 143.479 33.5879C143.381 33.3691 143.234 33.1973 143.039 33.0723C142.848 32.9473 142.646 32.8848 142.436 32.8848C142.111 32.8848 141.82 33.0117 141.562 33.2656C141.309 33.5156 141.16 33.8652 141.117 34.3145Z" fill="white"/>
<rect x="9.15235" y="14.4155" width="22.8" height="4.8" transform="rotate(0.324455 9.15235 14.4155)" fill="white" stroke="black" stroke-width="0.2"/>
<rect x="9.07306" y="28.4153" width="22.8" height="4.8" transform="rotate(0.324455 9.07306 28.4153)" fill="white" stroke="black" stroke-width="0.2"/>
<rect x="9.11271" y="21.4154" width="22.8" height="4.8" transform="rotate(0.324455 9.11271 21.4154)" fill="white" stroke="black" stroke-width="0.2"/>
<path d="M95.8613 89.5186L95.9365 92.6084H95.6562C95.5241 91.8337 95.1982 91.2116 94.6787 90.7422C94.1637 90.2682 93.6055 90.0312 93.0039 90.0312C92.5391 90.0312 92.1699 90.1566 91.8965 90.4072C91.6276 90.6533 91.4932 90.9382 91.4932 91.2617C91.4932 91.4668 91.541 91.6491 91.6367 91.8086C91.7689 92.0228 91.9808 92.2347 92.2725 92.4443C92.4867 92.5947 92.9811 92.8613 93.7559 93.2441C94.8405 93.7773 95.5719 94.2809 95.9502 94.7549C96.3239 95.2288 96.5107 95.7712 96.5107 96.3818C96.5107 97.1566 96.2077 97.8242 95.6016 98.3848C95 98.9408 94.2344 99.2188 93.3047 99.2188C93.013 99.2188 92.7373 99.1891 92.4775 99.1299C92.2178 99.0706 91.8919 98.959 91.5 98.7949C91.2812 98.7038 91.1012 98.6582 90.96 98.6582C90.8415 98.6582 90.7161 98.7038 90.584 98.7949C90.4518 98.8861 90.3447 99.0251 90.2627 99.2119H90.0098V95.7119H90.2627C90.4632 96.6963 90.8483 97.4482 91.418 97.9678C91.9922 98.4827 92.6097 98.7402 93.2705 98.7402C93.7809 98.7402 94.1865 98.6012 94.4873 98.3232C94.7926 98.0452 94.9453 97.7217 94.9453 97.3525C94.9453 97.1338 94.8861 96.9219 94.7676 96.7168C94.6536 96.5117 94.4782 96.318 94.2412 96.1357C94.0042 95.9489 93.585 95.7074 92.9834 95.4111C92.1403 94.9964 91.5342 94.6432 91.165 94.3516C90.7959 94.0599 90.5111 93.734 90.3105 93.374C90.1146 93.014 90.0166 92.6175 90.0166 92.1846C90.0166 91.4463 90.2878 90.8174 90.8301 90.2979C91.3724 89.7783 92.056 89.5186 92.8809 89.5186C93.1816 89.5186 93.4733 89.555 93.7559 89.6279C93.9701 89.6826 94.2298 89.7852 94.5352 89.9355C94.8451 90.0814 95.0615 90.1543 95.1846 90.1543C95.3031 90.1543 95.3965 90.1178 95.4648 90.0449C95.5332 89.972 95.597 89.7965 95.6562 89.5186H95.8613ZM102.964 95.5752H99.457C99.498 96.4229 99.7236 97.0928 100.134 97.585C100.448 97.9632 100.826 98.1523 101.269 98.1523C101.542 98.1523 101.79 98.0771 102.014 97.9268C102.237 97.7718 102.476 97.4961 102.731 97.0996L102.964 97.25C102.618 97.9564 102.235 98.4577 101.815 98.7539C101.396 99.0456 100.911 99.1914 100.359 99.1914C99.4115 99.1914 98.6937 98.8268 98.2061 98.0977C97.8141 97.5098 97.6182 96.7806 97.6182 95.9102C97.6182 94.8438 97.9053 93.9961 98.4795 93.3672C99.0583 92.7337 99.735 92.417 100.51 92.417C101.157 92.417 101.717 92.6836 102.191 93.2168C102.67 93.7454 102.927 94.5316 102.964 95.5752ZM101.282 95.1172C101.282 94.3835 101.241 93.8799 101.159 93.6064C101.082 93.333 100.959 93.1257 100.79 92.9844C100.694 92.9023 100.567 92.8613 100.407 92.8613C100.17 92.8613 99.9766 92.9775 99.8262 93.21C99.5573 93.6156 99.4229 94.1715 99.4229 94.8779V95.1172H101.282ZM106.272 89.7305V97.6738C106.272 98.125 106.325 98.4144 106.43 98.542C106.535 98.665 106.74 98.7357 107.045 98.7539V99H103.593V98.7539C103.875 98.7448 104.085 98.6628 104.222 98.5078C104.313 98.403 104.358 98.125 104.358 97.6738V91.0566C104.358 90.61 104.306 90.3252 104.201 90.2021C104.096 90.0745 103.894 90.0016 103.593 89.9834V89.7305H106.272ZM113.081 95.5752H109.574C109.615 96.4229 109.841 97.0928 110.251 97.585C110.565 97.9632 110.944 98.1523 111.386 98.1523C111.659 98.1523 111.908 98.0771 112.131 97.9268C112.354 97.7718 112.593 97.4961 112.849 97.0996L113.081 97.25C112.735 97.9564 112.352 98.4577 111.933 98.7539C111.513 99.0456 111.028 99.1914 110.477 99.1914C109.529 99.1914 108.811 98.8268 108.323 98.0977C107.931 97.5098 107.735 96.7806 107.735 95.9102C107.735 94.8438 108.022 93.9961 108.597 93.3672C109.175 92.7337 109.852 92.417 110.627 92.417C111.274 92.417 111.835 92.6836 112.309 93.2168C112.787 93.7454 113.045 94.5316 113.081 95.5752ZM111.399 95.1172C111.399 94.3835 111.358 93.8799 111.276 93.6064C111.199 93.333 111.076 93.1257 110.907 92.9844C110.812 92.9023 110.684 92.8613 110.524 92.8613C110.287 92.8613 110.094 92.9775 109.943 93.21C109.674 93.6156 109.54 94.1715 109.54 94.8779V95.1172H111.399ZM119.104 97.3525L119.315 97.5166C119.015 98.0817 118.639 98.5033 118.188 98.7812C117.741 99.0547 117.265 99.1914 116.759 99.1914C115.907 99.1914 115.225 98.8701 114.715 98.2275C114.204 97.585 113.949 96.8125 113.949 95.9102C113.949 95.0397 114.182 94.2741 114.646 93.6133C115.207 92.8158 115.979 92.417 116.964 92.417C117.625 92.417 118.149 92.5833 118.536 92.916C118.928 93.2487 119.124 93.6201 119.124 94.0303C119.124 94.29 119.044 94.4974 118.885 94.6523C118.73 94.8073 118.525 94.8848 118.27 94.8848C118.001 94.8848 117.777 94.7959 117.6 94.6182C117.426 94.4404 117.319 94.1237 117.278 93.668C117.251 93.3809 117.185 93.1803 117.08 93.0664C116.975 92.9525 116.852 92.8955 116.711 92.8955C116.492 92.8955 116.305 93.0117 116.15 93.2441C115.913 93.5951 115.795 94.1328 115.795 94.8574C115.795 95.459 115.891 96.0355 116.082 96.5869C116.273 97.1338 116.535 97.5417 116.868 97.8105C117.119 98.0065 117.415 98.1045 117.757 98.1045C117.98 98.1045 118.192 98.0521 118.393 97.9473C118.593 97.8424 118.83 97.6442 119.104 97.3525ZM122.645 90.2705V92.6084H124.162V93.2852H122.645V97.2295C122.645 97.5986 122.66 97.8379 122.692 97.9473C122.729 98.0521 122.79 98.1387 122.877 98.207C122.964 98.2708 123.043 98.3027 123.116 98.3027C123.412 98.3027 123.693 98.0771 123.957 97.626L124.162 97.7764C123.793 98.6514 123.194 99.0889 122.364 99.0889C121.959 99.0889 121.615 98.9772 121.332 98.7539C121.054 98.526 120.876 98.2731 120.799 97.9951C120.753 97.8402 120.73 97.4209 120.73 96.7373V93.2852H119.896V93.0459C120.471 92.6403 120.958 92.2142 121.359 91.7676C121.765 91.321 122.118 90.8219 122.419 90.2705H122.645ZM131.798 98.0566C131.019 98.7448 130.319 99.0889 129.699 99.0889C129.335 99.0889 129.032 98.9704 128.79 98.7334C128.549 98.4919 128.428 98.1911 128.428 97.8311C128.428 97.3434 128.637 96.9059 129.057 96.5186C129.476 96.1266 130.39 95.6071 131.798 94.96V94.3174C131.798 93.8343 131.771 93.5312 131.716 93.4082C131.666 93.2806 131.568 93.1712 131.422 93.0801C131.276 92.9844 131.112 92.9365 130.93 92.9365C130.633 92.9365 130.39 93.0026 130.198 93.1348C130.08 93.2168 130.021 93.3125 130.021 93.4219C130.021 93.5176 130.084 93.6361 130.212 93.7773C130.385 93.9733 130.472 94.1624 130.472 94.3447C130.472 94.568 130.387 94.7594 130.219 94.9189C130.055 95.0739 129.838 95.1514 129.569 95.1514C129.282 95.1514 129.041 95.0648 128.845 94.8916C128.653 94.7184 128.558 94.5156 128.558 94.2832C128.558 93.9551 128.688 93.6429 128.947 93.3467C129.207 93.0459 129.569 92.8158 130.034 92.6562C130.499 92.4967 130.982 92.417 131.483 92.417C132.09 92.417 132.568 92.5469 132.919 92.8066C133.274 93.0618 133.505 93.3398 133.609 93.6406C133.673 93.832 133.705 94.2718 133.705 94.96V97.4414C133.705 97.7331 133.716 97.9176 133.739 97.9951C133.762 98.068 133.796 98.1227 133.842 98.1592C133.887 98.1956 133.94 98.2139 133.999 98.2139C134.118 98.2139 134.238 98.1296 134.361 97.9609L134.566 98.125C134.339 98.4622 134.102 98.7083 133.855 98.8633C133.614 99.0137 133.338 99.0889 133.028 99.0889C132.664 99.0889 132.379 99.0046 132.174 98.8359C131.969 98.6628 131.843 98.403 131.798 98.0566ZM131.798 97.5576V95.418C131.246 95.7415 130.836 96.0879 130.567 96.457C130.39 96.7031 130.301 96.9515 130.301 97.2021C130.301 97.4118 130.376 97.5964 130.526 97.7559C130.64 97.8789 130.8 97.9404 131.005 97.9404C131.233 97.9404 131.497 97.8128 131.798 97.5576ZM142.147 90.2637V94.0713H142.414C142.824 94.0713 143.159 94.0098 143.419 93.8867C143.679 93.7637 143.897 93.5563 144.075 93.2646C144.257 92.973 144.376 92.5788 144.431 92.082H144.67V96.7373H144.431C144.344 95.8577 144.107 95.279 143.72 95.001C143.337 94.7184 142.902 94.5771 142.414 94.5771H142.147V97.4141C142.147 97.888 142.173 98.1842 142.223 98.3027C142.277 98.4212 142.38 98.526 142.53 98.6172C142.685 98.7038 142.893 98.7471 143.152 98.7471H143.46V99H138.613V98.7471H138.921C139.19 98.7471 139.406 98.6992 139.57 98.6035C139.689 98.5397 139.78 98.4303 139.844 98.2754C139.894 98.166 139.919 97.8789 139.919 97.4141V91.3164C139.919 90.8424 139.894 90.5462 139.844 90.4277C139.794 90.3092 139.691 90.2067 139.536 90.1201C139.386 90.029 139.181 89.9834 138.921 89.9834H138.613V89.7305H146.434V92.3896H146.153C146.09 91.7653 145.925 91.3027 145.661 91.002C145.401 90.7012 145.023 90.4893 144.526 90.3662C144.253 90.2979 143.747 90.2637 143.009 90.2637H142.147ZM149.831 89.7305V97.6738C149.831 98.125 149.883 98.4144 149.988 98.542C150.093 98.665 150.298 98.7357 150.604 98.7539V99H147.151V98.7539C147.434 98.7448 147.644 98.6628 147.78 98.5078C147.871 98.403 147.917 98.125 147.917 97.6738V91.0566C147.917 90.61 147.865 90.3252 147.76 90.2021C147.655 90.0745 147.452 90.0016 147.151 89.9834V89.7305H149.831ZM154.24 92.417C154.796 92.417 155.313 92.5605 155.792 92.8477C156.271 93.1348 156.633 93.5426 156.879 94.0713C157.13 94.5999 157.255 95.1787 157.255 95.8076C157.255 96.7145 157.025 97.4733 156.564 98.084C156.008 98.8223 155.241 99.1914 154.261 99.1914C153.299 99.1914 152.559 98.8542 152.039 98.1797C151.52 97.5052 151.26 96.7236 151.26 95.835C151.26 94.9189 151.524 94.1214 152.053 93.4424C152.586 92.7588 153.315 92.417 154.24 92.417ZM154.268 92.9023C154.035 92.9023 153.835 92.9912 153.666 93.1689C153.502 93.3421 153.393 93.6885 153.338 94.208C153.288 94.723 153.263 95.4408 153.263 96.3613C153.263 96.849 153.295 97.3047 153.358 97.7285C153.409 98.0521 153.516 98.2982 153.68 98.4668C153.844 98.6354 154.031 98.7197 154.24 98.7197C154.445 98.7197 154.616 98.6628 154.753 98.5488C154.931 98.3939 155.049 98.1774 155.108 97.8994C155.2 97.4665 155.245 96.5915 155.245 95.2744C155.245 94.4997 155.202 93.9688 155.115 93.6816C155.029 93.39 154.901 93.1781 154.732 93.0459C154.614 92.9502 154.459 92.9023 154.268 92.9023ZM161.24 92.417C161.796 92.417 162.313 92.5605 162.792 92.8477C163.271 93.1348 163.633 93.5426 163.879 94.0713C164.13 94.5999 164.255 95.1787 164.255 95.8076C164.255 96.7145 164.025 97.4733 163.564 98.084C163.008 98.8223 162.241 99.1914 161.261 99.1914C160.299 99.1914 159.559 98.8542 159.039 98.1797C158.52 97.5052 158.26 96.7236 158.26 95.835C158.26 94.9189 158.524 94.1214 159.053 93.4424C159.586 92.7588 160.315 92.417 161.24 92.417ZM161.268 92.9023C161.035 92.9023 160.835 92.9912 160.666 93.1689C160.502 93.3421 160.393 93.6885 160.338 94.208C160.288 94.723 160.263 95.4408 160.263 96.3613C160.263 96.849 160.295 97.3047 160.358 97.7285C160.409 98.0521 160.516 98.2982 160.68 98.4668C160.844 98.6354 161.031 98.7197 161.24 98.7197C161.445 98.7197 161.616 98.6628 161.753 98.5488C161.931 98.3939 162.049 98.1774 162.108 97.8994C162.2 97.4665 162.245 96.5915 162.245 95.2744C162.245 94.4997 162.202 93.9688 162.115 93.6816C162.029 93.39 161.901 93.1781 161.732 93.0459C161.614 92.9502 161.459 92.9023 161.268 92.9023ZM167.878 92.6084V94.0576C168.302 93.3968 168.673 92.9593 168.992 92.7451C169.311 92.5264 169.619 92.417 169.915 92.417C170.17 92.417 170.373 92.4967 170.523 92.6562C170.678 92.8112 170.756 93.0322 170.756 93.3193C170.756 93.6247 170.681 93.8617 170.53 94.0303C170.384 94.1989 170.207 94.2832 169.997 94.2832C169.756 94.2832 169.546 94.2057 169.368 94.0508C169.19 93.8958 169.086 93.8092 169.054 93.791C169.008 93.7637 168.956 93.75 168.896 93.75C168.764 93.75 168.639 93.8001 168.521 93.9004C168.334 94.0553 168.192 94.2764 168.097 94.5635C167.951 95.0055 167.878 95.4932 167.878 96.0264V97.4961L167.885 97.8789C167.885 98.1387 167.901 98.305 167.933 98.3779C167.987 98.501 168.067 98.5921 168.172 98.6514C168.281 98.7061 168.464 98.7402 168.719 98.7539V99H165.267V98.7539C165.545 98.7311 165.731 98.6559 165.827 98.5283C165.927 98.3962 165.978 98.0521 165.978 97.4961V93.9619C165.978 93.5973 165.959 93.3649 165.923 93.2646C165.877 93.137 165.811 93.0436 165.725 92.9844C165.638 92.9251 165.485 92.8841 165.267 92.8613V92.6084H167.878Z" fill="black"/>
<path d="M64.0225 123.862V127.246H65.5903C65.95 127.246 66.2124 127.167 66.3774 127.011C66.5467 126.85 66.6589 126.535 66.7139 126.065H66.9487V128.979H66.7139C66.7096 128.644 66.6652 128.399 66.5806 128.242C66.5002 128.086 66.3859 127.969 66.2378 127.893C66.0939 127.813 65.8781 127.772 65.5903 127.772H64.0225V130.477C64.0225 130.912 64.05 131.2 64.105 131.34C64.1473 131.446 64.2362 131.537 64.3716 131.613C64.5578 131.714 64.7524 131.765 64.9556 131.765H65.2666V132H61.5723V131.765H61.877C62.2324 131.765 62.4906 131.661 62.6514 131.454C62.7529 131.319 62.8037 130.993 62.8037 130.477V124.916C62.8037 124.48 62.7762 124.192 62.7212 124.053C62.6789 123.947 62.5921 123.856 62.4609 123.78C62.279 123.678 62.0843 123.627 61.877 123.627H61.5723V123.393H67.9771L68.0596 125.284H67.8374C67.7274 124.882 67.5983 124.588 67.4502 124.402C67.3063 124.211 67.1265 124.074 66.9106 123.989C66.6991 123.905 66.369 123.862 65.9204 123.862H64.0225ZM71.0049 122.974V130.686C71.0049 131.05 71.0303 131.291 71.0811 131.41C71.1361 131.528 71.2186 131.619 71.3286 131.683C71.4386 131.742 71.6439 131.771 71.9443 131.771V132H69.0942V131.771C69.3608 131.771 69.5428 131.744 69.6401 131.689C69.7375 131.634 69.8136 131.543 69.8687 131.416C69.9237 131.289 69.9512 131.046 69.9512 130.686V125.405C69.9512 124.749 69.9364 124.347 69.9067 124.199C69.8771 124.046 69.8285 123.943 69.7607 123.888C69.6973 123.833 69.6147 123.805 69.5132 123.805C69.4032 123.805 69.2635 123.839 69.0942 123.907L68.9863 123.685L70.7192 122.974H71.0049ZM75.4673 126.014C76.3475 126.014 77.0542 126.348 77.5874 127.017C78.0402 127.588 78.2666 128.244 78.2666 128.985C78.2666 129.505 78.1418 130.032 77.8921 130.565C77.6424 131.099 77.2975 131.501 76.8574 131.771C76.4215 132.042 75.9349 132.178 75.3975 132.178C74.5215 132.178 73.8254 131.829 73.3091 131.13C72.8732 130.542 72.6553 129.882 72.6553 129.15C72.6553 128.617 72.7865 128.088 73.0488 127.563C73.3154 127.034 73.6646 126.645 74.0962 126.395C74.5278 126.141 74.9849 126.014 75.4673 126.014ZM75.2705 126.427C75.0462 126.427 74.8198 126.494 74.5913 126.63C74.367 126.761 74.1851 126.994 74.0454 127.328C73.9058 127.662 73.8359 128.092 73.8359 128.617C73.8359 129.463 74.0031 130.193 74.3374 130.807C74.6759 131.42 75.1203 131.727 75.6704 131.727C76.0809 131.727 76.4194 131.558 76.686 131.219C76.9526 130.881 77.0859 130.299 77.0859 129.474C77.0859 128.441 76.8638 127.629 76.4194 127.036C76.119 126.63 75.736 126.427 75.2705 126.427ZM81.9673 126.014C82.8475 126.014 83.5542 126.348 84.0874 127.017C84.5402 127.588 84.7666 128.244 84.7666 128.985C84.7666 129.505 84.6418 130.032 84.3921 130.565C84.1424 131.099 83.7975 131.501 83.3574 131.771C82.9215 132.042 82.4349 132.178 81.8975 132.178C81.0215 132.178 80.3254 131.829 79.8091 131.13C79.3732 130.542 79.1553 129.882 79.1553 129.15C79.1553 128.617 79.2865 128.088 79.5488 127.563C79.8154 127.034 80.1646 126.645 80.5962 126.395C81.0278 126.141 81.4849 126.014 81.9673 126.014ZM81.7705 126.427C81.5462 126.427 81.3198 126.494 81.0913 126.63C80.867 126.761 80.6851 126.994 80.5454 127.328C80.4058 127.662 80.3359 128.092 80.3359 128.617C80.3359 129.463 80.5031 130.193 80.8374 130.807C81.1759 131.42 81.6203 131.727 82.1704 131.727C82.5809 131.727 82.9194 131.558 83.186 131.219C83.4526 130.881 83.5859 130.299 83.5859 129.474C83.5859 128.441 83.3638 127.629 82.9194 127.036C82.619 126.63 82.236 126.427 81.7705 126.427ZM87.3247 126.014V127.322C87.8114 126.45 88.3107 126.014 88.8228 126.014C89.0555 126.014 89.248 126.086 89.4004 126.23C89.5527 126.37 89.6289 126.533 89.6289 126.719C89.6289 126.884 89.5739 127.023 89.4639 127.138C89.3538 127.252 89.2227 127.309 89.0703 127.309C88.9222 127.309 88.755 127.237 88.5688 127.093C88.3869 126.945 88.2515 126.871 88.1626 126.871C88.0864 126.871 88.0039 126.913 87.915 126.998C87.7246 127.172 87.5278 127.457 87.3247 127.855V130.642C87.3247 130.963 87.3649 131.207 87.4453 131.372C87.5003 131.486 87.5977 131.581 87.7373 131.657C87.877 131.733 88.078 131.771 88.3403 131.771V132H85.3633V131.771C85.6595 131.771 85.8796 131.725 86.0234 131.632C86.1292 131.564 86.2033 131.456 86.2456 131.308C86.2668 131.236 86.2773 131.031 86.2773 130.692V128.439C86.2773 127.762 86.2625 127.36 86.2329 127.233C86.2075 127.102 86.1567 127.007 86.0806 126.947C86.0086 126.888 85.9176 126.858 85.8076 126.858C85.6764 126.858 85.5283 126.89 85.3633 126.954L85.2998 126.725L87.0581 126.014H87.3247ZM93.7104 126.014V127.995H93.501C93.3402 127.373 93.1328 126.949 92.8789 126.725C92.6292 126.501 92.3097 126.389 91.9204 126.389C91.6242 126.389 91.3851 126.467 91.2031 126.624C91.0212 126.78 90.9302 126.954 90.9302 127.144C90.9302 127.381 90.9979 127.584 91.1333 127.753C91.2645 127.927 91.5311 128.111 91.9331 128.306L92.8599 128.756C93.7189 129.175 94.1484 129.728 94.1484 130.413C94.1484 130.942 93.9474 131.369 93.5454 131.695C93.1476 132.017 92.7012 132.178 92.2061 132.178C91.8506 132.178 91.4443 132.114 90.9873 131.987C90.8477 131.945 90.7334 131.924 90.6445 131.924C90.5472 131.924 90.471 131.979 90.416 132.089H90.2065V130.013H90.416C90.5345 130.606 90.7609 131.052 91.0952 131.353C91.4295 131.653 91.804 131.803 92.2188 131.803C92.5107 131.803 92.7477 131.719 92.9297 131.549C93.1159 131.376 93.209 131.168 93.209 130.927C93.209 130.635 93.1053 130.39 92.8979 130.191C92.6948 129.992 92.2865 129.74 91.6729 129.436C91.0592 129.131 90.6572 128.856 90.4668 128.61C90.2764 128.369 90.1812 128.064 90.1812 127.696C90.1812 127.218 90.3441 126.818 90.6699 126.497C91 126.175 91.4253 126.014 91.9458 126.014C92.1743 126.014 92.4515 126.063 92.7773 126.16C92.9932 126.224 93.137 126.255 93.209 126.255C93.2767 126.255 93.3296 126.241 93.3677 126.211C93.4058 126.181 93.4502 126.116 93.501 126.014H93.7104ZM97.938 126.186H100.648V126.42H100.515C100.325 126.42 100.181 126.463 100.083 126.547C99.9904 126.628 99.9438 126.729 99.9438 126.852C99.9438 127.017 100.014 127.246 100.153 127.538L101.569 130.47L102.87 127.258C102.942 127.085 102.978 126.913 102.978 126.744C102.978 126.668 102.963 126.611 102.934 126.573C102.9 126.526 102.847 126.49 102.775 126.465C102.703 126.435 102.576 126.42 102.394 126.42V126.186H104.286V126.42C104.129 126.437 104.008 126.471 103.924 126.522C103.839 126.573 103.746 126.668 103.645 126.808C103.606 126.867 103.535 127.03 103.429 127.296L101.061 133.098C100.833 133.661 100.532 134.086 100.16 134.374C99.7915 134.662 99.436 134.806 99.0933 134.806C98.8436 134.806 98.6383 134.734 98.4775 134.59C98.3167 134.446 98.2363 134.281 98.2363 134.095C98.2363 133.917 98.2935 133.773 98.4077 133.663C98.5262 133.557 98.687 133.504 98.8901 133.504C99.0298 133.504 99.2202 133.551 99.4614 133.644C99.6307 133.708 99.7365 133.739 99.7788 133.739C99.9058 133.739 100.043 133.674 100.191 133.542C100.344 133.411 100.496 133.157 100.648 132.781L101.061 131.771L98.9727 127.385C98.9092 127.254 98.8076 127.091 98.668 126.896C98.5622 126.748 98.4754 126.649 98.4077 126.598C98.3104 126.53 98.1538 126.471 97.938 126.42V126.186ZM107.612 126.014C108.492 126.014 109.199 126.348 109.732 127.017C110.185 127.588 110.411 128.244 110.411 128.985C110.411 129.505 110.286 130.032 110.037 130.565C109.787 131.099 109.442 131.501 109.002 131.771C108.566 132.042 108.079 132.178 107.542 132.178C106.666 132.178 105.97 131.829 105.454 131.13C105.018 130.542 104.8 129.882 104.8 129.15C104.8 128.617 104.931 128.088 105.193 127.563C105.46 127.034 105.809 126.645 106.241 126.395C106.672 126.141 107.129 126.014 107.612 126.014ZM107.415 126.427C107.191 126.427 106.964 126.494 106.736 126.63C106.512 126.761 106.33 126.994 106.19 127.328C106.05 127.662 105.98 128.092 105.98 128.617C105.98 129.463 106.148 130.193 106.482 130.807C106.82 131.42 107.265 131.727 107.815 131.727C108.225 131.727 108.564 131.558 108.831 131.219C109.097 130.881 109.23 130.299 109.23 129.474C109.23 128.441 109.008 127.629 108.564 127.036C108.264 126.63 107.881 126.427 107.415 126.427ZM116.365 126.186V129.708C116.365 130.381 116.38 130.794 116.41 130.946C116.444 131.094 116.494 131.198 116.562 131.257C116.634 131.317 116.716 131.346 116.81 131.346C116.941 131.346 117.089 131.31 117.254 131.238L117.343 131.46L115.604 132.178H115.318V130.946C114.819 131.488 114.438 131.829 114.175 131.968C113.913 132.108 113.636 132.178 113.344 132.178C113.018 132.178 112.734 132.085 112.493 131.898C112.256 131.708 112.091 131.465 111.998 131.168C111.905 130.872 111.858 130.453 111.858 129.912V127.315C111.858 127.04 111.829 126.85 111.77 126.744C111.71 126.638 111.621 126.558 111.503 126.503C111.389 126.444 111.179 126.416 110.875 126.42V126.186H112.912V130.077C112.912 130.618 113.005 130.974 113.191 131.143C113.382 131.312 113.61 131.397 113.877 131.397C114.059 131.397 114.264 131.34 114.493 131.226C114.725 131.111 115 130.893 115.318 130.572V127.277C115.318 126.947 115.257 126.725 115.134 126.611C115.015 126.492 114.766 126.429 114.385 126.42V126.186H116.365ZM122.726 122.974V127.227C123.195 126.71 123.568 126.38 123.843 126.236C124.118 126.088 124.393 126.014 124.668 126.014C124.998 126.014 125.282 126.105 125.519 126.287C125.756 126.469 125.931 126.755 126.045 127.144C126.126 127.415 126.166 127.91 126.166 128.629V130.686C126.166 131.054 126.196 131.306 126.255 131.441C126.297 131.543 126.369 131.623 126.471 131.683C126.572 131.742 126.758 131.771 127.029 131.771V132H124.173V131.771H124.306C124.577 131.771 124.765 131.731 124.871 131.651C124.977 131.566 125.051 131.444 125.093 131.283C125.106 131.215 125.112 131.016 125.112 130.686V128.629C125.112 127.995 125.078 127.578 125.011 127.379C124.947 127.18 124.844 127.032 124.7 126.935C124.556 126.833 124.382 126.782 124.179 126.782C123.972 126.782 123.756 126.837 123.532 126.947C123.307 127.057 123.039 127.279 122.726 127.614V130.686C122.726 131.084 122.747 131.331 122.789 131.429C122.836 131.526 122.918 131.609 123.037 131.676C123.159 131.74 123.369 131.771 123.665 131.771V132H120.783V131.771C121.041 131.771 121.244 131.731 121.393 131.651C121.477 131.609 121.545 131.528 121.596 131.41C121.646 131.291 121.672 131.05 121.672 130.686V125.424C121.672 124.759 121.655 124.351 121.621 124.199C121.591 124.046 121.543 123.943 121.475 123.888C121.412 123.833 121.325 123.805 121.215 123.805C121.126 123.805 120.982 123.839 120.783 123.907L120.694 123.685L122.434 122.974H122.726ZM130.812 131.162C130.216 131.623 129.841 131.89 129.689 131.962C129.46 132.068 129.217 132.121 128.959 132.121C128.557 132.121 128.225 131.983 127.962 131.708C127.704 131.433 127.575 131.071 127.575 130.623C127.575 130.339 127.639 130.094 127.766 129.886C127.939 129.598 128.24 129.328 128.667 129.074C129.099 128.82 129.814 128.511 130.812 128.147V127.918C130.812 127.339 130.719 126.941 130.533 126.725C130.351 126.509 130.085 126.401 129.733 126.401C129.467 126.401 129.255 126.473 129.099 126.617C128.938 126.761 128.857 126.926 128.857 127.112L128.87 127.48C128.87 127.675 128.819 127.825 128.718 127.931C128.62 128.037 128.491 128.09 128.331 128.09C128.174 128.09 128.045 128.035 127.943 127.925C127.846 127.815 127.797 127.665 127.797 127.474C127.797 127.11 127.984 126.776 128.356 126.471C128.728 126.167 129.251 126.014 129.924 126.014C130.44 126.014 130.863 126.101 131.193 126.274C131.443 126.406 131.627 126.611 131.746 126.89C131.822 127.072 131.86 127.444 131.86 128.007V129.981C131.86 130.536 131.87 130.876 131.892 131.003C131.913 131.126 131.947 131.209 131.993 131.251C132.044 131.293 132.101 131.314 132.165 131.314C132.232 131.314 132.292 131.3 132.342 131.27C132.431 131.215 132.603 131.061 132.856 130.807V131.162C132.382 131.797 131.93 132.114 131.498 132.114C131.291 132.114 131.126 132.042 131.003 131.898C130.88 131.755 130.817 131.509 130.812 131.162ZM130.812 130.75V128.534C130.174 128.788 129.761 128.968 129.575 129.074C129.24 129.26 129.001 129.455 128.857 129.658C128.714 129.861 128.642 130.083 128.642 130.324C128.642 130.629 128.733 130.883 128.915 131.086C129.097 131.285 129.306 131.384 129.543 131.384C129.865 131.384 130.288 131.173 130.812 130.75ZM132.996 126.186H135.732V126.42H135.554C135.389 126.42 135.262 126.461 135.173 126.541C135.089 126.621 135.046 126.729 135.046 126.865C135.046 127.013 135.091 127.188 135.18 127.392L136.532 130.604L137.89 127.271C137.987 127.034 138.036 126.854 138.036 126.731C138.036 126.672 138.019 126.624 137.985 126.585C137.939 126.522 137.88 126.48 137.808 126.458C137.736 126.433 137.59 126.42 137.37 126.42V126.186H139.268V126.42C139.048 126.437 138.895 126.482 138.811 126.554C138.662 126.681 138.529 126.892 138.411 127.188L136.348 132.178H136.087L134.012 127.271C133.919 127.042 133.83 126.88 133.745 126.782C133.66 126.681 133.553 126.596 133.421 126.528C133.349 126.49 133.208 126.454 132.996 126.42V126.186ZM140.772 128.375C140.768 129.239 140.977 129.916 141.4 130.407C141.824 130.898 142.321 131.143 142.892 131.143C143.273 131.143 143.603 131.039 143.882 130.832C144.166 130.62 144.403 130.261 144.593 129.753L144.79 129.88C144.701 130.46 144.443 130.989 144.016 131.467C143.588 131.941 143.053 132.178 142.41 132.178C141.711 132.178 141.113 131.907 140.613 131.365C140.118 130.819 139.871 130.087 139.871 129.169C139.871 128.174 140.125 127.4 140.632 126.846C141.144 126.287 141.785 126.008 142.556 126.008C143.207 126.008 143.743 126.224 144.162 126.655C144.581 127.083 144.79 127.656 144.79 128.375H140.772ZM140.772 128.007H143.463C143.442 127.635 143.398 127.373 143.33 127.22C143.224 126.983 143.066 126.797 142.854 126.662C142.647 126.526 142.429 126.458 142.2 126.458C141.849 126.458 141.534 126.596 141.254 126.871C140.979 127.142 140.819 127.521 140.772 128.007ZM152.115 131.162C151.519 131.623 151.144 131.89 150.992 131.962C150.763 132.068 150.52 132.121 150.262 132.121C149.86 132.121 149.528 131.983 149.265 131.708C149.007 131.433 148.878 131.071 148.878 130.623C148.878 130.339 148.941 130.094 149.068 129.886C149.242 129.598 149.542 129.328 149.97 129.074C150.401 128.82 151.117 128.511 152.115 128.147V127.918C152.115 127.339 152.022 126.941 151.836 126.725C151.654 126.509 151.387 126.401 151.036 126.401C150.77 126.401 150.558 126.473 150.401 126.617C150.241 126.761 150.16 126.926 150.16 127.112L150.173 127.48C150.173 127.675 150.122 127.825 150.021 127.931C149.923 128.037 149.794 128.09 149.633 128.09C149.477 128.09 149.348 128.035 149.246 127.925C149.149 127.815 149.1 127.665 149.1 127.474C149.1 127.11 149.286 126.776 149.659 126.471C150.031 126.167 150.554 126.014 151.227 126.014C151.743 126.014 152.166 126.101 152.496 126.274C152.746 126.406 152.93 126.611 153.048 126.89C153.125 127.072 153.163 127.444 153.163 128.007V129.981C153.163 130.536 153.173 130.876 153.194 131.003C153.215 131.126 153.249 131.209 153.296 131.251C153.347 131.293 153.404 131.314 153.467 131.314C153.535 131.314 153.594 131.3 153.645 131.27C153.734 131.215 153.905 131.061 154.159 130.807V131.162C153.685 131.797 153.232 132.114 152.801 132.114C152.593 132.114 152.428 132.042 152.306 131.898C152.183 131.755 152.119 131.509 152.115 131.162ZM152.115 130.75V128.534C151.476 128.788 151.064 128.968 150.877 129.074C150.543 129.26 150.304 129.455 150.16 129.658C150.016 129.861 149.944 130.083 149.944 130.324C149.944 130.629 150.035 130.883 150.217 131.086C150.399 131.285 150.609 131.384 150.846 131.384C151.167 131.384 151.59 131.173 152.115 130.75ZM159.536 129.791C159.379 130.557 159.072 131.147 158.615 131.562C158.158 131.972 157.653 132.178 157.098 132.178C156.438 132.178 155.862 131.901 155.372 131.346C154.881 130.792 154.635 130.043 154.635 129.099C154.635 128.185 154.906 127.442 155.448 126.871C155.994 126.3 156.647 126.014 157.409 126.014C157.98 126.014 158.45 126.167 158.818 126.471C159.187 126.772 159.371 127.085 159.371 127.411C159.371 127.571 159.318 127.703 159.212 127.804C159.11 127.902 158.966 127.95 158.78 127.95C158.531 127.95 158.342 127.87 158.215 127.709C158.143 127.62 158.095 127.451 158.069 127.201C158.048 126.951 157.964 126.761 157.815 126.63C157.667 126.503 157.462 126.439 157.2 126.439C156.777 126.439 156.436 126.596 156.178 126.909C155.835 127.324 155.664 127.872 155.664 128.553C155.664 129.247 155.833 129.861 156.171 130.394C156.514 130.923 156.975 131.188 157.555 131.188C157.97 131.188 158.342 131.046 158.672 130.762C158.905 130.568 159.132 130.214 159.352 129.702L159.536 129.791ZM165.312 129.791C165.155 130.557 164.849 131.147 164.392 131.562C163.935 131.972 163.429 132.178 162.875 132.178C162.214 132.178 161.639 131.901 161.148 131.346C160.657 130.792 160.412 130.043 160.412 129.099C160.412 128.185 160.682 127.442 161.224 126.871C161.77 126.3 162.424 126.014 163.186 126.014C163.757 126.014 164.227 126.167 164.595 126.471C164.963 126.772 165.147 127.085 165.147 127.411C165.147 127.571 165.094 127.703 164.988 127.804C164.887 127.902 164.743 127.95 164.557 127.95C164.307 127.95 164.119 127.87 163.992 127.709C163.92 127.62 163.871 127.451 163.846 127.201C163.825 126.951 163.74 126.761 163.592 126.63C163.444 126.503 163.238 126.439 162.976 126.439C162.553 126.439 162.212 126.596 161.954 126.909C161.611 127.324 161.44 127.872 161.44 128.553C161.44 129.247 161.609 129.861 161.948 130.394C162.291 130.923 162.752 131.188 163.332 131.188C163.746 131.188 164.119 131.046 164.449 130.762C164.681 130.568 164.908 130.214 165.128 129.702L165.312 129.791ZM167.127 128.375C167.123 129.239 167.333 129.916 167.756 130.407C168.179 130.898 168.676 131.143 169.248 131.143C169.628 131.143 169.958 131.039 170.238 130.832C170.521 130.62 170.758 130.261 170.949 129.753L171.146 129.88C171.057 130.46 170.799 130.989 170.371 131.467C169.944 131.941 169.408 132.178 168.765 132.178C168.067 132.178 167.468 131.907 166.969 131.365C166.474 130.819 166.226 130.087 166.226 129.169C166.226 128.174 166.48 127.4 166.988 126.846C167.5 126.287 168.141 126.008 168.911 126.008C169.563 126.008 170.098 126.224 170.517 126.655C170.936 127.083 171.146 127.656 171.146 128.375H167.127ZM167.127 128.007H169.819C169.798 127.635 169.753 127.373 169.686 127.22C169.58 126.983 169.421 126.797 169.209 126.662C169.002 126.526 168.784 126.458 168.556 126.458C168.204 126.458 167.889 126.596 167.61 126.871C167.335 127.142 167.174 127.521 167.127 128.007ZM175.684 126.014V127.995H175.475C175.314 127.373 175.106 126.949 174.853 126.725C174.603 126.501 174.283 126.389 173.894 126.389C173.598 126.389 173.359 126.467 173.177 126.624C172.995 126.78 172.904 126.954 172.904 127.144C172.904 127.381 172.972 127.584 173.107 127.753C173.238 127.927 173.505 128.111 173.907 128.306L174.833 128.756C175.693 129.175 176.122 129.728 176.122 130.413C176.122 130.942 175.921 131.369 175.519 131.695C175.121 132.017 174.675 132.178 174.18 132.178C173.824 132.178 173.418 132.114 172.961 131.987C172.821 131.945 172.707 131.924 172.618 131.924C172.521 131.924 172.445 131.979 172.39 132.089H172.18V130.013H172.39C172.508 130.606 172.735 131.052 173.069 131.353C173.403 131.653 173.778 131.803 174.192 131.803C174.484 131.803 174.721 131.719 174.903 131.549C175.09 131.376 175.183 131.168 175.183 130.927C175.183 130.635 175.079 130.39 174.872 130.191C174.668 129.992 174.26 129.74 173.646 129.436C173.033 129.131 172.631 128.856 172.44 128.61C172.25 128.369 172.155 128.064 172.155 127.696C172.155 127.218 172.318 126.818 172.644 126.497C172.974 126.175 173.399 126.014 173.919 126.014C174.148 126.014 174.425 126.063 174.751 126.16C174.967 126.224 175.111 126.255 175.183 126.255C175.25 126.255 175.303 126.241 175.341 126.211C175.379 126.181 175.424 126.116 175.475 126.014H175.684ZM180.75 126.014V127.995H180.54C180.379 127.373 180.172 126.949 179.918 126.725C179.668 126.501 179.349 126.389 178.959 126.389C178.663 126.389 178.424 126.467 178.242 126.624C178.06 126.78 177.969 126.954 177.969 127.144C177.969 127.381 178.037 127.584 178.172 127.753C178.304 127.927 178.57 128.111 178.972 128.306L179.899 128.756C180.758 129.175 181.188 129.728 181.188 130.413C181.188 130.942 180.986 131.369 180.584 131.695C180.187 132.017 179.74 132.178 179.245 132.178C178.89 132.178 178.483 132.114 178.026 131.987C177.887 131.945 177.772 131.924 177.684 131.924C177.586 131.924 177.51 131.979 177.455 132.089H177.246V130.013H177.455C177.574 130.606 177.8 131.052 178.134 131.353C178.469 131.653 178.843 131.803 179.258 131.803C179.55 131.803 179.787 131.719 179.969 131.549C180.155 131.376 180.248 131.168 180.248 130.927C180.248 130.635 180.144 130.39 179.937 130.191C179.734 129.992 179.326 129.74 178.712 129.436C178.098 129.131 177.696 128.856 177.506 128.61C177.315 128.369 177.22 128.064 177.22 127.696C177.22 127.218 177.383 126.818 177.709 126.497C178.039 126.175 178.464 126.014 178.985 126.014C179.213 126.014 179.491 126.063 179.816 126.16C180.032 126.224 180.176 126.255 180.248 126.255C180.316 126.255 180.369 126.241 180.407 126.211C180.445 126.181 180.489 126.116 180.54 126.014H180.75ZM186.996 124.275V126.186H188.354V126.63H186.996V130.4C186.996 130.777 187.049 131.031 187.154 131.162C187.264 131.293 187.404 131.359 187.573 131.359C187.713 131.359 187.848 131.317 187.979 131.232C188.111 131.143 188.212 131.014 188.284 130.845H188.532C188.384 131.259 188.174 131.573 187.903 131.784C187.632 131.992 187.353 132.095 187.065 132.095C186.871 132.095 186.68 132.042 186.494 131.937C186.308 131.826 186.17 131.672 186.082 131.473C185.993 131.27 185.948 130.959 185.948 130.54V126.63H185.028V126.42C185.261 126.327 185.498 126.171 185.739 125.951C185.984 125.726 186.202 125.462 186.393 125.157C186.49 124.996 186.625 124.702 186.799 124.275H186.996ZM191.769 126.014C192.649 126.014 193.356 126.348 193.889 127.017C194.342 127.588 194.568 128.244 194.568 128.985C194.568 129.505 194.444 130.032 194.194 130.565C193.944 131.099 193.599 131.501 193.159 131.771C192.723 132.042 192.237 132.178 191.699 132.178C190.823 132.178 190.127 131.829 189.611 131.13C189.175 130.542 188.957 129.882 188.957 129.15C188.957 128.617 189.088 128.088 189.351 127.563C189.617 127.034 189.966 126.645 190.398 126.395C190.83 126.141 191.287 126.014 191.769 126.014ZM191.572 126.427C191.348 126.427 191.122 126.494 190.893 126.63C190.669 126.761 190.487 126.994 190.347 127.328C190.208 127.662 190.138 128.092 190.138 128.617C190.138 129.463 190.305 130.193 190.639 130.807C190.978 131.42 191.422 131.727 191.972 131.727C192.383 131.727 192.721 131.558 192.988 131.219C193.254 130.881 193.388 130.299 193.388 129.474C193.388 128.441 193.166 127.629 192.721 127.036C192.421 126.63 192.038 126.427 191.572 126.427ZM196.854 126.008C197.048 126.008 197.213 126.078 197.349 126.217C197.488 126.353 197.558 126.518 197.558 126.712C197.558 126.907 197.488 127.074 197.349 127.214C197.213 127.349 197.048 127.417 196.854 127.417C196.659 127.417 196.492 127.349 196.352 127.214C196.217 127.074 196.149 126.907 196.149 126.712C196.149 126.518 196.217 126.353 196.352 126.217C196.492 126.078 196.659 126.008 196.854 126.008ZM196.841 130.762C197.04 130.762 197.207 130.832 197.342 130.972C197.482 131.111 197.552 131.278 197.552 131.473C197.552 131.668 197.482 131.835 197.342 131.975C197.203 132.11 197.035 132.178 196.841 132.178C196.646 132.178 196.479 132.11 196.339 131.975C196.204 131.835 196.136 131.668 196.136 131.473C196.136 131.278 196.204 131.111 196.339 130.972C196.479 130.832 196.646 130.762 196.841 130.762Z" fill="black"/>
<path d="M96.5 217.5C96.5 235.173 82.1731 249.5 64.5 249.5C46.8269 249.5 32.5 235.173 32.5 217.5C32.5 199.827 46.8269 185.5 64.5 185.5C82.1731 185.5 96.5 199.827 96.5 217.5Z" fill="white" stroke="black"/>
<path d="M76.1157 213.684C76.1157 216.036 75.3477 217.908 73.8117 219.3C72.2997 220.668 70.2237 221.352 67.5837 221.352H60.3117V231H56.9637V206.232H67.4037C70.1637 206.232 72.2997 206.88 73.8117 208.176C75.3477 209.472 76.1157 211.308 76.1157 213.684ZM72.7317 213.72C72.7317 210.528 70.8117 208.932 66.9717 208.932H60.3117V218.688H67.1157C70.8597 218.688 72.7317 217.032 72.7317 213.72Z" fill="black"/>
<path d="M54.0418 264.228C54.0418 265.012 53.7858 265.636 53.2738 266.1C52.7698 266.556 52.0778 266.784 51.1978 266.784H48.7738V270H47.6578V261.744H51.1378C52.0578 261.744 52.7698 261.96 53.2738 262.392C53.7858 262.824 54.0418 263.436 54.0418 264.228ZM52.9138 264.24C52.9138 263.176 52.2738 262.644 50.9938 262.644H48.7738V265.896H51.0418C52.2898 265.896 52.9138 265.344 52.9138 264.24ZM57.09 270.12C56.45 270.12 55.97 269.952 55.65 269.616C55.33 269.28 55.17 268.82 55.17 268.236C55.17 267.58 55.386 267.076 55.818 266.724C56.25 266.372 56.946 266.184 57.906 266.16L59.334 266.136V265.788C59.334 265.268 59.222 264.9 58.998 264.684C58.782 264.46 58.438 264.348 57.966 264.348C57.494 264.348 57.15 264.428 56.934 264.588C56.726 264.748 56.598 265.004 56.55 265.356L55.446 265.248C55.63 264.112 56.478 263.544 57.99 263.544C58.79 263.544 59.39 263.728 59.79 264.096C60.198 264.456 60.402 264.984 60.402 265.68V268.404C60.402 268.716 60.442 268.952 60.522 269.112C60.602 269.272 60.758 269.352 60.99 269.352C61.094 269.352 61.21 269.336 61.338 269.304V269.964C61.066 270.028 60.794 270.06 60.522 270.06C60.13 270.06 59.846 269.96 59.67 269.76C59.494 269.552 59.394 269.228 59.37 268.788H59.334C59.062 269.268 58.746 269.612 58.386 269.82C58.034 270.02 57.602 270.12 57.09 270.12ZM57.33 269.328C57.714 269.328 58.054 269.24 58.35 269.064C58.654 268.888 58.894 268.648 59.07 268.344C59.246 268.032 59.334 267.716 59.334 267.396V266.868L58.17 266.892C57.674 266.9 57.298 266.952 57.042 267.048C56.794 267.144 56.598 267.288 56.454 267.48C56.318 267.672 56.25 267.928 56.25 268.248C56.25 268.592 56.342 268.86 56.526 269.052C56.718 269.236 56.986 269.328 57.33 269.328ZM62.162 270V265.14C62.162 264.692 62.15 264.2 62.126 263.664H63.122C63.154 264.384 63.17 264.816 63.17 264.96H63.194C63.362 264.416 63.554 264.044 63.77 263.844C63.994 263.644 64.302 263.544 64.694 263.544C64.838 263.544 64.982 263.564 65.126 263.604V264.564C64.982 264.524 64.794 264.504 64.562 264.504C64.122 264.504 63.786 264.696 63.554 265.08C63.33 265.456 63.218 265.996 63.218 266.7V270H62.162ZM70.1061 270L67.9581 267.108L67.1901 267.744V270H66.1341V261.3H67.1901V266.736L69.9741 263.664H71.2101L68.6301 266.388L71.3421 270H70.1061ZM72.1221 262.308V261.3H73.1781V262.308H72.1221ZM72.1221 270V263.664H73.1781V270H72.1221ZM78.8142 270V265.98C78.8142 265.564 78.7742 265.24 78.6942 265.008C78.6142 264.776 78.4822 264.612 78.2982 264.516C78.1222 264.412 77.8622 264.36 77.5182 264.36C77.0062 264.36 76.6022 264.536 76.3062 264.888C76.0182 265.232 75.8742 265.712 75.8742 266.328V270H74.8182V265.008C74.8182 264.272 74.8062 263.824 74.7822 263.664H75.7782C75.7782 263.68 75.7782 263.732 75.7782 263.82C75.7862 263.908 75.7942 264.008 75.8022 264.12C75.8102 264.224 75.8182 264.432 75.8262 264.744H75.8382C76.0862 264.304 76.3662 263.996 76.6782 263.82C76.9982 263.636 77.3942 263.544 77.8662 263.544C78.5622 263.544 79.0702 263.716 79.3902 264.06C79.7182 264.404 79.8822 264.976 79.8822 265.776V270H78.8142ZM83.8622 272.496C83.1662 272.496 82.6142 272.36 82.2062 272.088C81.7982 271.816 81.5342 271.428 81.4142 270.924L82.4702 270.768C82.5422 271.064 82.6982 271.292 82.9382 271.452C83.1782 271.612 83.4942 271.692 83.8862 271.692C84.9342 271.692 85.4582 271.076 85.4582 269.844V268.824H85.4462C85.2462 269.232 84.9742 269.54 84.6302 269.748C84.2862 269.948 83.8782 270.048 83.4062 270.048C82.6302 270.048 82.0582 269.792 81.6902 269.28C81.3302 268.76 81.1502 267.948 81.1502 266.844C81.1502 265.724 81.3462 264.896 81.7382 264.36C82.1302 263.824 82.7262 263.556 83.5262 263.556C83.9742 263.556 84.3622 263.66 84.6902 263.868C85.0262 264.076 85.2822 264.368 85.4582 264.744H85.4702C85.4702 264.624 85.4782 264.42 85.4942 264.132C85.5102 263.844 85.5262 263.688 85.5422 263.664H86.5502C86.5262 263.872 86.5142 264.308 86.5142 264.972V269.82C86.5142 271.604 85.6302 272.496 83.8622 272.496ZM85.4582 266.832C85.4582 266.312 85.3862 265.868 85.2422 265.5C85.1062 265.124 84.9102 264.84 84.6542 264.648C84.3982 264.448 84.1102 264.348 83.7902 264.348C83.2462 264.348 82.8502 264.544 82.6022 264.936C82.3622 265.32 82.2422 265.952 82.2422 266.832C82.2422 267.696 82.3542 268.32 82.5782 268.704C82.8102 269.08 83.2062 269.268 83.7662 269.268C84.1022 269.268 84.3982 269.172 84.6542 268.98C84.9102 268.78 85.1062 268.5 85.2422 268.14C85.3862 267.772 85.4582 267.336 85.4582 266.832Z" fill="black"/>
<circle cx="193" cy="347" r="31.5" fill="white" stroke="black"/>
<path d="M201.394 350.9C201.394 353.516 200.686 355.58 199.27 357.092C197.854 358.604 195.898 359.36 193.402 359.36C190.618 359.36 188.482 358.328 186.994 356.264C185.53 354.176 184.798 351.152 184.798 347.192C184.798 342.896 185.566 339.608 187.102 337.328C188.638 335.024 190.822 333.872 193.654 333.872C197.398 333.872 199.75 335.552 200.71 338.912L197.686 339.452C197.086 337.436 195.73 336.428 193.618 336.428C191.818 336.428 190.414 337.268 189.406 338.948C188.422 340.628 187.93 343.064 187.93 346.256C188.506 345.2 189.31 344.396 190.342 343.844C191.398 343.268 192.598 342.98 193.942 342.98C196.246 342.98 198.058 343.7 199.378 345.14C200.722 346.556 201.394 348.476 201.394 350.9ZM198.19 351.044C198.19 349.244 197.746 347.864 196.858 346.904C195.994 345.92 194.77 345.428 193.186 345.428C191.722 345.428 190.534 345.86 189.622 346.724C188.71 347.588 188.254 348.776 188.254 350.288C188.254 352.184 188.722 353.744 189.658 354.968C190.618 356.192 191.83 356.804 193.294 356.804C194.83 356.804 196.03 356.3 196.894 355.292C197.758 354.26 198.19 352.844 198.19 351.044Z" fill="black"/>
<path d="M178.232 396.3C178.232 397.172 177.996 397.86 177.524 398.364C177.052 398.868 176.4 399.12 175.568 399.12C174.64 399.12 173.928 398.776 173.432 398.088C172.944 397.392 172.7 396.384 172.7 395.064C172.7 393.632 172.956 392.536 173.468 391.776C173.98 391.008 174.708 390.624 175.652 390.624C176.9 390.624 177.684 391.184 178.004 392.304L176.996 392.484C176.796 391.812 176.344 391.476 175.64 391.476C175.04 391.476 174.572 391.756 174.236 392.316C173.908 392.876 173.744 393.688 173.744 394.752C173.936 394.4 174.204 394.132 174.548 393.948C174.9 393.756 175.3 393.66 175.748 393.66C176.516 393.66 177.12 393.9 177.56 394.38C178.008 394.852 178.232 395.492 178.232 396.3ZM177.164 396.348C177.164 395.748 177.016 395.288 176.72 394.968C176.432 394.64 176.024 394.476 175.496 394.476C175.008 394.476 174.612 394.62 174.308 394.908C174.004 395.196 173.852 395.592 173.852 396.096C173.852 396.728 174.008 397.248 174.32 397.656C174.64 398.064 175.044 398.268 175.532 398.268C176.044 398.268 176.444 398.1 176.732 397.764C177.02 397.42 177.164 396.948 177.164 396.348ZM182.008 398.952C181.664 399.048 181.312 399.096 180.952 399.096C180.104 399.096 179.68 398.616 179.68 397.656V393.432H178.948V392.664H179.716L180.028 391.248H180.736V392.664H181.912V393.432H180.736V397.428C180.736 397.732 180.784 397.948 180.88 398.076C180.984 398.196 181.16 398.256 181.408 398.256C181.544 398.256 181.744 398.228 182.008 398.172V398.952ZM183.944 393.744C184.176 393.328 184.448 393.024 184.76 392.832C185.08 392.64 185.484 392.544 185.972 392.544C186.66 392.544 187.168 392.716 187.496 393.06C187.824 393.396 187.988 393.968 187.988 394.776V399H186.92V394.98C186.92 394.532 186.88 394.2 186.8 393.984C186.72 393.768 186.584 393.612 186.392 393.516C186.208 393.412 185.952 393.36 185.624 393.36C185.128 393.36 184.728 393.532 184.424 393.876C184.128 394.22 183.98 394.68 183.98 395.256V399H182.924V390.3H183.98V392.568C183.98 392.808 183.972 393.056 183.956 393.312C183.94 393.56 183.932 393.704 183.932 393.744H183.944ZM194.684 391.656V394.728H199.292V395.652H194.684V399H193.568V390.744H199.436V391.656H194.684ZM200.712 399V390.3H201.768V399H200.712ZM208.724 395.82C208.724 396.932 208.48 397.76 207.992 398.304C207.504 398.848 206.796 399.12 205.868 399.12C204.94 399.12 204.24 398.84 203.768 398.28C203.296 397.712 203.06 396.892 203.06 395.82C203.06 393.636 204.008 392.544 205.904 392.544C206.872 392.544 207.584 392.812 208.04 393.348C208.496 393.876 208.724 394.7 208.724 395.82ZM207.62 395.82C207.62 394.948 207.488 394.316 207.224 393.924C206.968 393.524 206.532 393.324 205.916 393.324C205.3 393.324 204.852 393.528 204.572 393.936C204.3 394.336 204.164 394.964 204.164 395.82C204.164 396.66 204.3 397.292 204.572 397.716C204.844 398.132 205.272 398.34 205.856 398.34C206.488 398.34 206.94 398.136 207.212 397.728C207.484 397.32 207.62 396.684 207.62 395.82ZM215.392 395.82C215.392 396.932 215.148 397.76 214.66 398.304C214.172 398.848 213.464 399.12 212.536 399.12C211.608 399.12 210.908 398.84 210.436 398.28C209.964 397.712 209.728 396.892 209.728 395.82C209.728 393.636 210.676 392.544 212.572 392.544C213.54 392.544 214.252 392.812 214.708 393.348C215.164 393.876 215.392 394.7 215.392 395.82ZM214.288 395.82C214.288 394.948 214.156 394.316 213.892 393.924C213.636 393.524 213.2 393.324 212.584 393.324C211.968 393.324 211.52 393.528 211.24 393.936C210.968 394.336 210.832 394.964 210.832 395.82C210.832 396.66 210.968 397.292 211.24 397.716C211.512 398.132 211.94 398.34 212.524 398.34C213.156 398.34 213.608 398.136 213.88 397.728C214.152 397.32 214.288 396.684 214.288 395.82ZM216.732 399V394.14C216.732 393.692 216.72 393.2 216.696 392.664H217.692C217.724 393.384 217.74 393.816 217.74 393.96H217.764C217.932 393.416 218.124 393.044 218.34 392.844C218.564 392.644 218.872 392.544 219.264 392.544C219.408 392.544 219.552 392.564 219.696 392.604V393.564C219.552 393.524 219.364 393.504 219.132 393.504C218.692 393.504 218.356 393.696 218.124 394.08C217.9 394.456 217.788 394.996 217.788 395.7V399H216.732Z" fill="black"/>
<circle cx="66" cy="347" r="31.5" fill="white" stroke="black"/>
<path d="M74.4957 359L71.6517 351.764H60.3837L57.5397 359H54.0477L64.1637 334.232H67.9797L77.9157 359H74.4957ZM66.0357 336.752L65.8557 337.256C65.5677 338.24 65.1357 339.488 64.5597 341L61.3917 349.136H70.6437L67.4757 340.964C67.1397 340.148 66.8157 339.236 66.5037 338.228L66.0357 336.752Z" fill="black"/>
<path d="M50.5077 399L49.5597 396.588H45.8037L44.8557 399H43.6917L47.0637 390.744H48.3357L51.6477 399H50.5077ZM47.6877 391.584L47.6277 391.752C47.5317 392.08 47.3877 392.496 47.1957 393L46.1397 395.712H49.2237L48.1677 392.988C48.0557 392.716 47.9477 392.412 47.8437 392.076L47.6877 391.584ZM56.1719 399V394.98C56.1719 394.364 56.0879 393.94 55.9199 393.708C55.7519 393.476 55.4479 393.36 55.0079 393.36C54.5599 393.36 54.2039 393.532 53.9399 393.876C53.6759 394.22 53.5439 394.704 53.5439 395.328V399H52.4999V394.008C52.4999 393.272 52.4879 392.824 52.4639 392.664H53.4599C53.4599 392.68 53.4599 392.732 53.4599 392.82C53.4679 392.908 53.4759 393.008 53.4839 393.12C53.4919 393.224 53.4999 393.432 53.5079 393.744H53.5199C53.7519 393.296 54.0119 392.984 54.2999 392.808C54.5959 392.632 54.9559 392.544 55.3799 392.544C55.8599 392.544 56.2399 392.64 56.5199 392.832C56.7999 393.024 56.9919 393.328 57.0959 393.744H57.1199C57.3359 393.32 57.5999 393.016 57.9119 392.832C58.2239 392.64 58.5999 392.544 59.0399 392.544C59.6799 392.544 60.1439 392.72 60.4319 393.072C60.7279 393.416 60.8759 393.984 60.8759 394.776V399H59.8319V394.98C59.8319 394.364 59.7479 393.94 59.5799 393.708C59.4119 393.476 59.1079 393.36 58.6679 393.36C58.2039 393.36 57.8439 393.532 57.5879 393.876C57.3399 394.212 57.2159 394.696 57.2159 395.328V399H56.1719ZM63.276 396.048C63.276 396.776 63.424 397.34 63.72 397.74C64.024 398.132 64.468 398.328 65.052 398.328C65.508 398.328 65.872 398.236 66.144 398.052C66.424 397.868 66.612 397.636 66.708 397.356L67.632 397.62C67.256 398.62 66.396 399.12 65.052 399.12C64.116 399.12 63.4 398.84 62.904 398.28C62.416 397.72 62.172 396.888 62.172 395.784C62.172 394.744 62.416 393.944 62.904 393.384C63.4 392.824 64.1 392.544 65.004 392.544C66.868 392.544 67.8 393.668 67.8 395.916V396.048H63.276ZM66.708 395.244C66.652 394.58 66.484 394.096 66.204 393.792C65.924 393.48 65.52 393.324 64.992 393.324C64.48 393.324 64.072 393.496 63.768 393.84C63.472 394.176 63.312 394.644 63.288 395.244H66.708ZM73.1599 399V394.98C73.1599 394.564 73.1199 394.24 73.0399 394.008C72.9599 393.776 72.8279 393.612 72.6439 393.516C72.4679 393.412 72.2079 393.36 71.8639 393.36C71.3519 393.36 70.9479 393.536 70.6519 393.888C70.3639 394.232 70.2199 394.712 70.2199 395.328V399H69.1639V394.008C69.1639 393.272 69.1519 392.824 69.1279 392.664H70.1239C70.1239 392.68 70.1239 392.732 70.1239 392.82C70.1319 392.908 70.1399 393.008 70.1479 393.12C70.1559 393.224 70.1639 393.432 70.1719 393.744H70.1839C70.4319 393.304 70.7119 392.996 71.0239 392.82C71.3439 392.636 71.7399 392.544 72.2119 392.544C72.9079 392.544 73.4159 392.716 73.7359 393.06C74.0639 393.404 74.2279 393.976 74.2279 394.776V399H73.1599ZM75.7959 391.308V390.3H76.8519V391.308H75.7959ZM75.7959 399V392.664H76.8519V399H75.7959ZM80.9041 398.952C80.5601 399.048 80.2081 399.096 79.8481 399.096C79.0001 399.096 78.5761 398.616 78.5761 397.656V393.432H77.8441V392.664H78.6121L78.9241 391.248H79.6321V392.664H80.8081V393.432H79.6321V397.428C79.6321 397.732 79.6801 397.948 79.7761 398.076C79.8801 398.196 80.0561 398.256 80.3041 398.256C80.4401 398.256 80.6401 398.228 80.9041 398.172V398.952ZM81.7842 391.308V390.3H82.8402V391.308H81.7842ZM81.7842 399V392.664H82.8402V399H81.7842ZM85.2603 396.048C85.2603 396.776 85.4083 397.34 85.7043 397.74C86.0083 398.132 86.4523 398.328 87.0363 398.328C87.4923 398.328 87.8563 398.236 88.1283 398.052C88.4083 397.868 88.5963 397.636 88.6923 397.356L89.6163 397.62C89.2403 398.62 88.3803 399.12 87.0363 399.12C86.1003 399.12 85.3843 398.84 84.8883 398.28C84.4003 397.72 84.1563 396.888 84.1563 395.784C84.1563 394.744 84.4003 393.944 84.8883 393.384C85.3843 392.824 86.0843 392.544 86.9883 392.544C88.8523 392.544 89.7843 393.668 89.7843 395.916V396.048H85.2603ZM88.6923 395.244C88.6363 394.58 88.4683 394.096 88.1883 393.792C87.9083 393.48 87.5043 393.324 86.9763 393.324C86.4643 393.324 86.0563 393.496 85.7523 393.84C85.4563 394.176 85.2963 394.644 85.2723 395.244H88.6923ZM95.8763 397.248C95.8763 397.848 95.6483 398.312 95.1923 398.64C94.7443 398.96 94.1163 399.12 93.3083 399.12C92.5163 399.12 91.9043 398.992 91.4723 398.736C91.0483 398.472 90.7723 398.064 90.6443 397.512L91.5803 397.332C91.6683 397.668 91.8523 397.916 92.1323 398.076C92.4123 398.236 92.8043 398.316 93.3083 398.316C93.8443 398.316 94.2363 398.236 94.4843 398.076C94.7323 397.908 94.8563 397.66 94.8563 397.332C94.8563 397.084 94.7683 396.884 94.5923 396.732C94.4243 396.572 94.1483 396.44 93.7643 396.336L93.0083 396.132C92.4003 395.98 91.9683 395.828 91.7123 395.676C91.4563 395.524 91.2563 395.34 91.1123 395.124C90.9683 394.908 90.8963 394.644 90.8963 394.332C90.8963 393.756 91.1003 393.316 91.5083 393.012C91.9243 392.708 92.5283 392.556 93.3203 392.556C94.0163 392.556 94.5683 392.68 94.9763 392.928C95.3923 393.176 95.6563 393.572 95.7683 394.116L94.8203 394.236C94.7563 393.948 94.5963 393.732 94.3403 393.588C94.0843 393.436 93.7443 393.36 93.3203 393.36C92.8403 393.36 92.4843 393.432 92.2523 393.576C92.0283 393.72 91.9163 393.94 91.9163 394.236C91.9163 394.412 91.9643 394.56 92.0603 394.68C92.1563 394.792 92.2963 394.892 92.4803 394.98C92.6643 395.06 93.0523 395.172 93.6443 395.316C94.1963 395.452 94.5963 395.58 94.8443 395.7C95.0923 395.82 95.2883 395.952 95.4323 396.096C95.5763 396.24 95.6843 396.408 95.7563 396.6C95.8363 396.792 95.8763 397.008 95.8763 397.248Z" fill="black"/>
<circle cx="193" cy="218" r="31.5" fill="white" stroke="black"/>
<path d="M180.808 218.508C180.808 214.476 181.888 211.368 184.048 209.184C186.208 206.976 189.232 205.872 193.12 205.872C195.88 205.872 198.112 206.34 199.816 207.276C201.52 208.188 202.84 209.664 203.776 211.704L200.572 212.64C199.876 211.248 198.904 210.228 197.656 209.58C196.432 208.932 194.896 208.608 193.048 208.608C190.192 208.608 188.008 209.472 186.496 211.2C184.984 212.928 184.228 215.364 184.228 218.508C184.228 221.628 185.032 224.1 186.64 225.924C188.248 227.724 190.468 228.624 193.3 228.624C194.908 228.624 196.408 228.384 197.8 227.904C199.216 227.4 200.356 226.728 201.22 225.888V221.424H193.804V218.616H204.316V227.148C202.996 228.492 201.376 229.536 199.456 230.28C197.56 231 195.508 231.36 193.3 231.36C190.708 231.36 188.476 230.844 186.604 229.812C184.732 228.78 183.292 227.292 182.284 225.348C181.3 223.404 180.808 221.124 180.808 218.508Z" fill="black"/>
<path d="M176.602 267.836C176.602 266.492 176.962 265.456 177.682 264.728C178.402 263.992 179.41 263.624 180.706 263.624C181.626 263.624 182.37 263.78 182.938 264.092C183.506 264.396 183.946 264.888 184.258 265.568L183.19 265.88C182.958 265.416 182.634 265.076 182.218 264.86C181.81 264.644 181.298 264.536 180.682 264.536C179.73 264.536 179.002 264.824 178.498 265.4C177.994 265.976 177.742 266.788 177.742 267.836C177.742 268.876 178.01 269.7 178.546 270.308C179.082 270.908 179.822 271.208 180.766 271.208C181.302 271.208 181.802 271.128 182.266 270.968C182.738 270.8 183.118 270.576 183.406 270.296V268.808H180.934V267.872H184.438V270.716C183.998 271.164 183.458 271.512 182.818 271.76C182.186 272 181.502 272.12 180.766 272.12C179.902 272.12 179.158 271.948 178.534 271.604C177.91 271.26 177.43 270.764 177.094 270.116C176.766 269.468 176.602 268.708 176.602 267.836ZM186.158 272V267.14C186.158 266.692 186.146 266.2 186.122 265.664H187.118C187.15 266.384 187.166 266.816 187.166 266.96H187.19C187.358 266.416 187.55 266.044 187.766 265.844C187.99 265.644 188.298 265.544 188.69 265.544C188.834 265.544 188.978 265.564 189.122 265.604V266.564C188.978 266.524 188.79 266.504 188.558 266.504C188.118 266.504 187.782 266.696 187.55 267.08C187.326 267.456 187.214 267.996 187.214 268.7V272H186.158ZM195.482 268.82C195.482 269.932 195.238 270.76 194.75 271.304C194.262 271.848 193.554 272.12 192.626 272.12C191.698 272.12 190.998 271.84 190.526 271.28C190.054 270.712 189.818 269.892 189.818 268.82C189.818 266.636 190.766 265.544 192.662 265.544C193.63 265.544 194.342 265.812 194.798 266.348C195.254 266.876 195.482 267.7 195.482 268.82ZM194.378 268.82C194.378 267.948 194.246 267.316 193.982 266.924C193.726 266.524 193.29 266.324 192.674 266.324C192.058 266.324 191.61 266.528 191.33 266.936C191.058 267.336 190.922 267.964 190.922 268.82C190.922 269.66 191.058 270.292 191.33 270.716C191.602 271.132 192.03 271.34 192.614 271.34C193.246 271.34 193.698 271.136 193.97 270.728C194.242 270.32 194.378 269.684 194.378 268.82ZM197.818 265.664V269.684C197.818 270.1 197.858 270.424 197.938 270.656C198.026 270.888 198.158 271.056 198.334 271.16C198.518 271.256 198.782 271.304 199.126 271.304C199.638 271.304 200.038 271.132 200.326 270.788C200.622 270.436 200.77 269.952 200.77 269.336V265.664H201.826V270.644C201.826 271.38 201.838 271.832 201.862 272H200.866C200.858 271.984 200.85 271.932 200.842 271.844C200.842 271.756 200.838 271.656 200.83 271.544C200.83 271.432 200.826 271.224 200.818 270.92H200.794C200.554 271.352 200.274 271.66 199.954 271.844C199.642 272.028 199.246 272.12 198.766 272.12C198.078 272.12 197.57 271.948 197.242 271.604C196.922 271.252 196.762 270.68 196.762 269.888V265.664H197.818ZM207.486 272V267.98C207.486 267.564 207.446 267.24 207.366 267.008C207.286 266.776 207.154 266.612 206.97 266.516C206.794 266.412 206.534 266.36 206.19 266.36C205.678 266.36 205.274 266.536 204.978 266.888C204.69 267.232 204.546 267.712 204.546 268.328V272H203.49V267.008C203.49 266.272 203.478 265.824 203.454 265.664H204.45C204.45 265.68 204.45 265.732 204.45 265.82C204.458 265.908 204.466 266.008 204.474 266.12C204.482 266.224 204.49 266.432 204.498 266.744H204.51C204.758 266.304 205.038 265.996 205.35 265.82C205.67 265.636 206.066 265.544 206.538 265.544C207.234 265.544 207.742 265.716 208.062 266.06C208.39 266.404 208.554 266.976 208.554 267.776V272H207.486ZM214.13 270.98C213.93 271.388 213.67 271.68 213.35 271.856C213.03 272.032 212.63 272.12 212.15 272.12C211.35 272.12 210.762 271.852 210.386 271.316C210.01 270.772 209.822 269.952 209.822 268.856C209.822 266.648 210.598 265.544 212.15 265.544C212.63 265.544 213.03 265.632 213.35 265.808C213.67 265.984 213.93 266.264 214.13 266.648H214.142L214.13 265.94V263.3H215.186V270.692C215.186 271.356 215.198 271.792 215.222 272H214.214C214.198 271.936 214.182 271.792 214.166 271.568C214.158 271.344 214.154 271.148 214.154 270.98H214.13ZM210.926 268.82C210.926 269.708 211.042 270.344 211.274 270.728C211.514 271.112 211.898 271.304 212.426 271.304C213.026 271.304 213.458 271.096 213.722 270.68C213.994 270.264 214.13 269.62 214.13 268.748C214.13 267.916 213.994 267.304 213.722 266.912C213.458 266.52 213.03 266.324 212.438 266.324C211.902 266.324 211.514 266.52 211.274 266.912C211.042 267.304 210.926 267.94 210.926 268.82Z" fill="black"/>
<rect y="4" width="177" height="456" fill="#08415C"/>
<path d="M61.3438 225.467H68.082V227H59.459V212.781H61.3438V225.467ZM69.459 221.619C69.459 220.584 69.6608 219.653 70.0645 218.826C70.4746 217.999 71.041 217.361 71.7637 216.912C72.4928 216.463 73.3229 216.238 74.2539 216.238C75.6927 216.238 76.8548 216.736 77.7402 217.732C78.6322 218.729 79.0781 220.053 79.0781 221.707V221.834C79.0781 222.863 78.8796 223.787 78.4824 224.607C78.0918 225.421 77.5286 226.056 76.793 226.512C76.0638 226.967 75.224 227.195 74.2734 227.195C72.8411 227.195 71.679 226.697 70.7871 225.701C69.9017 224.705 69.459 223.387 69.459 221.746V221.619ZM71.2754 221.834C71.2754 223.006 71.5456 223.947 72.0859 224.656C72.6328 225.366 73.362 225.721 74.2734 225.721C75.1914 225.721 75.9206 225.363 76.4609 224.646C77.0013 223.924 77.2715 222.915 77.2715 221.619C77.2715 220.46 76.9948 219.523 76.4414 218.807C75.8945 218.084 75.1654 217.723 74.2539 217.723C73.362 217.723 72.6426 218.077 72.0957 218.787C71.5488 219.497 71.2754 220.512 71.2754 221.834ZM80.9141 221.629C80.9141 219.982 81.2949 218.673 82.0566 217.703C82.8184 216.727 83.8275 216.238 85.084 216.238C86.373 216.238 87.3789 216.694 88.1016 217.605L88.1895 216.434H89.8398V226.746C89.8398 228.113 89.4329 229.191 88.6191 229.979C87.8118 230.766 86.7246 231.16 85.3574 231.16C84.5957 231.16 83.8503 230.997 83.1211 230.672C82.3919 230.346 81.8353 229.9 81.4512 229.334L82.3887 228.25C83.1634 229.207 84.1107 229.686 85.2305 229.686C86.1094 229.686 86.793 229.438 87.2812 228.943C87.776 228.449 88.0234 227.752 88.0234 226.854V225.945C87.3008 226.779 86.3145 227.195 85.0645 227.195C83.8275 227.195 82.8249 226.697 82.0566 225.701C81.2949 224.705 80.9141 223.348 80.9141 221.629ZM82.7305 221.834C82.7305 223.025 82.9746 223.963 83.4629 224.646C83.9512 225.324 84.6348 225.662 85.5137 225.662C86.653 225.662 87.4896 225.145 88.0234 224.109V219.285C87.4701 218.276 86.64 217.771 85.5332 217.771C84.6543 217.771 83.9674 218.113 83.4727 218.797C82.9779 219.48 82.7305 220.493 82.7305 221.834ZM92.0957 221.619C92.0957 220.584 92.2975 219.653 92.7012 218.826C93.1113 217.999 93.6777 217.361 94.4004 216.912C95.1296 216.463 95.9596 216.238 96.8906 216.238C98.3294 216.238 99.4915 216.736 100.377 217.732C101.269 218.729 101.715 220.053 101.715 221.707V221.834C101.715 222.863 101.516 223.787 101.119 224.607C100.729 225.421 100.165 226.056 99.4297 226.512C98.7005 226.967 97.8607 227.195 96.9102 227.195C95.4779 227.195 94.3158 226.697 93.4238 225.701C92.5384 224.705 92.0957 223.387 92.0957 221.746V221.619ZM93.9121 221.834C93.9121 223.006 94.1823 223.947 94.7227 224.656C95.2695 225.366 95.9987 225.721 96.9102 225.721C97.8281 225.721 98.5573 225.363 99.0977 224.646C99.638 223.924 99.9082 222.915 99.9082 221.619C99.9082 220.46 99.6315 219.523 99.0781 218.807C98.5312 218.084 97.8021 217.723 96.8906 217.723C95.9987 217.723 95.2793 218.077 94.7324 218.787C94.1855 219.497 93.9121 220.512 93.9121 221.834ZM110.504 225.955C109.801 226.782 108.769 227.195 107.408 227.195C106.282 227.195 105.423 226.87 104.83 226.219C104.244 225.561 103.948 224.591 103.941 223.309V216.434H105.748V223.26C105.748 224.861 106.399 225.662 107.701 225.662C109.081 225.662 109.999 225.148 110.455 224.119V216.434H112.262V227H110.543L110.504 225.955ZM117.467 213.875V216.434H119.439V217.83H117.467V224.383C117.467 224.806 117.555 225.125 117.73 225.34C117.906 225.548 118.206 225.652 118.629 225.652C118.837 225.652 119.124 225.613 119.488 225.535V227C119.013 227.13 118.551 227.195 118.102 227.195C117.294 227.195 116.686 226.951 116.275 226.463C115.865 225.975 115.66 225.281 115.66 224.383V217.83H113.736V216.434H115.66V213.875H117.467Z" fill="white"/>
<path d="M58.3359 174.662C56.7279 174.2 55.556 173.633 54.8203 172.963C54.0911 172.286 53.7266 171.452 53.7266 170.463C53.7266 169.343 54.1725 168.419 55.0645 167.689C55.9629 166.954 57.1283 166.586 58.5605 166.586C59.5371 166.586 60.4062 166.775 61.168 167.152C61.9362 167.53 62.5286 168.051 62.9453 168.715C63.3685 169.379 63.5801 170.105 63.5801 170.893H61.6953C61.6953 170.033 61.4219 169.359 60.875 168.871C60.3281 168.376 59.5566 168.129 58.5605 168.129C57.6361 168.129 56.9134 168.334 56.3926 168.744C55.8783 169.148 55.6211 169.711 55.6211 170.434C55.6211 171.013 55.8652 171.505 56.3535 171.908C56.8483 172.305 57.6849 172.67 58.8633 173.002C60.0482 173.334 60.9727 173.702 61.6367 174.105C62.3073 174.503 62.8021 174.968 63.1211 175.502C63.4466 176.036 63.6094 176.664 63.6094 177.387C63.6094 178.539 63.1602 179.464 62.2617 180.16C61.3633 180.85 60.1621 181.195 58.6582 181.195C57.6816 181.195 56.7702 181.01 55.9238 180.639C55.0775 180.261 54.4232 179.747 53.9609 179.096C53.5052 178.445 53.2773 177.706 53.2773 176.879H55.1621C55.1621 177.738 55.4779 178.419 56.1094 178.92C56.7474 179.415 57.597 179.662 58.6582 179.662C59.6478 179.662 60.4062 179.46 60.9336 179.057C61.4609 178.653 61.7246 178.103 61.7246 177.406C61.7246 176.71 61.4805 176.173 60.9922 175.795C60.5039 175.411 59.6185 175.033 58.3359 174.662ZM70.123 181.195C68.6908 181.195 67.5254 180.727 66.627 179.789C65.7285 178.845 65.2793 177.585 65.2793 176.01V175.678C65.2793 174.63 65.4779 173.695 65.875 172.875C66.2786 172.048 66.8385 171.404 67.5547 170.941C68.2773 170.473 69.0586 170.238 69.8984 170.238C71.2721 170.238 72.3398 170.691 73.1016 171.596C73.8633 172.501 74.2441 173.796 74.2441 175.482V176.234H67.0859C67.112 177.276 67.4147 178.119 67.9941 178.764C68.5801 179.402 69.3223 179.721 70.2207 179.721C70.8587 179.721 71.3991 179.59 71.8418 179.33C72.2845 179.07 72.6719 178.725 73.0039 178.295L74.1074 179.154C73.222 180.515 71.8939 181.195 70.123 181.195ZM69.8984 171.723C69.1693 171.723 68.5573 171.99 68.0625 172.523C67.5677 173.051 67.2617 173.793 67.1445 174.75H72.4375V174.613C72.3854 173.695 72.138 172.986 71.6953 172.484C71.2526 171.977 70.6536 171.723 69.8984 171.723ZM78.7949 167.875V170.434H80.7676V171.83H78.7949V178.383C78.7949 178.806 78.8828 179.125 79.0586 179.34C79.2344 179.548 79.5339 179.652 79.957 179.652C80.1654 179.652 80.4518 179.613 80.8164 179.535V181C80.3411 181.13 79.8789 181.195 79.4297 181.195C78.6224 181.195 78.0137 180.951 77.6035 180.463C77.1934 179.975 76.9883 179.281 76.9883 178.383V171.83H75.0645V170.434H76.9883V167.875H78.7949ZM85.3379 167.875V170.434H87.3105V171.83H85.3379V178.383C85.3379 178.806 85.4258 179.125 85.6016 179.34C85.7773 179.548 86.0768 179.652 86.5 179.652C86.7083 179.652 86.9948 179.613 87.3594 179.535V181C86.8841 181.13 86.4219 181.195 85.9727 181.195C85.1654 181.195 84.5566 180.951 84.1465 180.463C83.7363 179.975 83.5312 179.281 83.5312 178.383V171.83H81.6074V170.434H83.5312V167.875H85.3379ZM91.3926 181H89.5859V170.434H91.3926V181ZM89.4395 167.631C89.4395 167.338 89.5273 167.09 89.7031 166.889C89.8854 166.687 90.1523 166.586 90.5039 166.586C90.8555 166.586 91.1224 166.687 91.3047 166.889C91.487 167.09 91.5781 167.338 91.5781 167.631C91.5781 167.924 91.487 168.168 91.3047 168.363C91.1224 168.559 90.8555 168.656 90.5039 168.656C90.1523 168.656 89.8854 168.559 89.7031 168.363C89.5273 168.168 89.4395 167.924 89.4395 167.631ZM96.002 170.434L96.0605 171.762C96.8678 170.746 97.9225 170.238 99.2246 170.238C101.458 170.238 102.584 171.498 102.604 174.018V181H100.797V174.008C100.79 173.246 100.615 172.683 100.27 172.318C99.931 171.954 99.4004 171.771 98.6777 171.771C98.0918 171.771 97.5775 171.928 97.1348 172.24C96.6921 172.553 96.347 172.963 96.0996 173.471V181H94.293V170.434H96.002ZM104.898 175.629C104.898 173.982 105.279 172.673 106.041 171.703C106.803 170.727 107.812 170.238 109.068 170.238C110.357 170.238 111.363 170.694 112.086 171.605L112.174 170.434H113.824V180.746C113.824 182.113 113.417 183.191 112.604 183.979C111.796 184.766 110.709 185.16 109.342 185.16C108.58 185.16 107.835 184.997 107.105 184.672C106.376 184.346 105.82 183.9 105.436 183.334L106.373 182.25C107.148 183.207 108.095 183.686 109.215 183.686C110.094 183.686 110.777 183.438 111.266 182.943C111.76 182.449 112.008 181.752 112.008 180.854V179.945C111.285 180.779 110.299 181.195 109.049 181.195C107.812 181.195 106.809 180.697 106.041 179.701C105.279 178.705 104.898 177.348 104.898 175.629ZM106.715 175.834C106.715 177.025 106.959 177.963 107.447 178.646C107.936 179.324 108.619 179.662 109.498 179.662C110.637 179.662 111.474 179.145 112.008 178.109V173.285C111.454 172.276 110.624 171.771 109.518 171.771C108.639 171.771 107.952 172.113 107.457 172.797C106.962 173.48 106.715 174.493 106.715 175.834ZM122.711 178.197C122.711 177.709 122.525 177.331 122.154 177.064C121.79 176.791 121.148 176.557 120.23 176.361C119.319 176.166 118.593 175.932 118.053 175.658C117.519 175.385 117.122 175.059 116.861 174.682C116.607 174.304 116.48 173.855 116.48 173.334C116.48 172.468 116.845 171.736 117.574 171.137C118.31 170.538 119.247 170.238 120.387 170.238C121.585 170.238 122.555 170.548 123.297 171.166C124.046 171.785 124.42 172.576 124.42 173.539H122.604C122.604 173.044 122.392 172.618 121.969 172.26C121.552 171.902 121.025 171.723 120.387 171.723C119.729 171.723 119.215 171.866 118.844 172.152C118.473 172.439 118.287 172.813 118.287 173.275C118.287 173.712 118.46 174.04 118.805 174.262C119.15 174.483 119.771 174.695 120.67 174.896C121.575 175.098 122.307 175.339 122.867 175.619C123.427 175.899 123.84 176.238 124.107 176.635C124.381 177.025 124.518 177.504 124.518 178.07C124.518 179.014 124.14 179.773 123.385 180.346C122.63 180.912 121.65 181.195 120.445 181.195C119.599 181.195 118.85 181.046 118.199 180.746C117.548 180.447 117.037 180.03 116.666 179.496C116.301 178.956 116.119 178.373 116.119 177.748H117.926C117.958 178.354 118.199 178.835 118.648 179.193C119.104 179.545 119.703 179.721 120.445 179.721C121.129 179.721 121.676 179.584 122.086 179.311C122.503 179.031 122.711 178.66 122.711 178.197Z" fill="white"/>
<path d="M70.582 125.721H64.6152V132H62.7402V117.781H71.5488V119.324H64.6152V124.188H70.582V125.721ZM75.4746 132H73.668V117H75.4746V132ZM77.8965 126.619C77.8965 125.584 78.0983 124.653 78.502 123.826C78.9121 122.999 79.4785 122.361 80.2012 121.912C80.9303 121.463 81.7604 121.238 82.6914 121.238C84.1302 121.238 85.2923 121.736 86.1777 122.732C87.0697 123.729 87.5156 125.053 87.5156 126.707V126.834C87.5156 127.863 87.3171 128.787 86.9199 129.607C86.5293 130.421 85.9661 131.056 85.2305 131.512C84.5013 131.967 83.6615 132.195 82.7109 132.195C81.2786 132.195 80.1165 131.697 79.2246 130.701C78.3392 129.705 77.8965 128.387 77.8965 126.746V126.619ZM79.7129 126.834C79.7129 128.006 79.9831 128.947 80.5234 129.656C81.0703 130.366 81.7995 130.721 82.7109 130.721C83.6289 130.721 84.3581 130.363 84.8984 129.646C85.4388 128.924 85.709 127.915 85.709 126.619C85.709 125.46 85.4323 124.523 84.8789 123.807C84.332 123.084 83.6029 122.723 82.6914 122.723C81.7995 122.723 81.0801 123.077 80.5332 123.787C79.9863 124.497 79.7129 125.512 79.7129 126.834ZM89.3027 126.619C89.3027 125.584 89.5046 124.653 89.9082 123.826C90.3184 122.999 90.8848 122.361 91.6074 121.912C92.3366 121.463 93.1667 121.238 94.0977 121.238C95.5365 121.238 96.6986 121.736 97.584 122.732C98.4759 123.729 98.9219 125.053 98.9219 126.707V126.834C98.9219 127.863 98.7233 128.787 98.3262 129.607C97.9355 130.421 97.3724 131.056 96.6367 131.512C95.9076 131.967 95.0677 132.195 94.1172 132.195C92.6849 132.195 91.5228 131.697 90.6309 130.701C89.7454 129.705 89.3027 128.387 89.3027 126.746V126.619ZM91.1191 126.834C91.1191 128.006 91.3893 128.947 91.9297 129.656C92.4766 130.366 93.2057 130.721 94.1172 130.721C95.0352 130.721 95.7643 130.363 96.3047 129.646C96.8451 128.924 97.1152 127.915 97.1152 126.619C97.1152 125.46 96.8385 124.523 96.2852 123.807C95.7383 123.084 95.0091 122.723 94.0977 122.723C93.2057 122.723 92.4863 123.077 91.9395 123.787C91.3926 124.497 91.1191 125.512 91.1191 126.834ZM106.295 123.055C106.021 123.009 105.725 122.986 105.406 122.986C104.221 122.986 103.417 123.491 102.994 124.5V132H101.188V121.434H102.945L102.975 122.654C103.567 121.71 104.407 121.238 105.494 121.238C105.846 121.238 106.113 121.284 106.295 121.375V123.055ZM114.117 129.197C114.117 128.709 113.932 128.331 113.561 128.064C113.196 127.791 112.555 127.557 111.637 127.361C110.725 127.166 109.999 126.932 109.459 126.658C108.925 126.385 108.528 126.059 108.268 125.682C108.014 125.304 107.887 124.855 107.887 124.334C107.887 123.468 108.251 122.736 108.98 122.137C109.716 121.538 110.654 121.238 111.793 121.238C112.991 121.238 113.961 121.548 114.703 122.166C115.452 122.785 115.826 123.576 115.826 124.539H114.01C114.01 124.044 113.798 123.618 113.375 123.26C112.958 122.902 112.431 122.723 111.793 122.723C111.135 122.723 110.621 122.866 110.25 123.152C109.879 123.439 109.693 123.813 109.693 124.275C109.693 124.712 109.866 125.04 110.211 125.262C110.556 125.483 111.178 125.695 112.076 125.896C112.981 126.098 113.714 126.339 114.273 126.619C114.833 126.899 115.247 127.238 115.514 127.635C115.787 128.025 115.924 128.504 115.924 129.07C115.924 130.014 115.546 130.773 114.791 131.346C114.036 131.912 113.056 132.195 111.852 132.195C111.005 132.195 110.257 132.046 109.605 131.746C108.954 131.447 108.443 131.03 108.072 130.496C107.708 129.956 107.525 129.373 107.525 128.748H109.332C109.365 129.354 109.605 129.835 110.055 130.193C110.51 130.545 111.109 130.721 111.852 130.721C112.535 130.721 113.082 130.584 113.492 130.311C113.909 130.031 114.117 129.66 114.117 129.197Z" fill="white"/>
<line x1="177" y1="52.5" y2="52.5" stroke="black"/>
<line x1="177" y1="148.5" y2="148.5" stroke="black"/>
<line x1="177" y1="100.5" y2="100.5" stroke="black"/>
<line x1="177" y1="196.5" y2="196.5" stroke="black"/>
<line x1="177" y1="244.5" y2="244.5" stroke="black"/>
<path d="M68.0039 22.7812L72.6523 34.3828L77.3008 22.7812H79.7324V37H77.8574V31.4629L78.0332 25.4863L73.3652 37H71.9297L67.2715 25.5156L67.457 31.4629V37H65.582V22.7812H68.0039ZM87.1445 37.1953C85.7122 37.1953 84.5469 36.7266 83.6484 35.7891C82.75 34.8451 82.3008 33.5853 82.3008 32.0098V31.6777C82.3008 30.6296 82.4993 29.6953 82.8965 28.875C83.3001 28.0482 83.86 27.4036 84.5762 26.9414C85.2988 26.4727 86.0801 26.2383 86.9199 26.2383C88.2936 26.2383 89.3613 26.6908 90.123 27.5957C90.8848 28.5007 91.2656 29.7962 91.2656 31.4824V32.2344H84.1074C84.1335 33.276 84.4362 34.1191 85.0156 34.7637C85.6016 35.4017 86.3438 35.7207 87.2422 35.7207C87.8802 35.7207 88.4206 35.5905 88.8633 35.3301C89.306 35.0697 89.6934 34.7246 90.0254 34.2949L91.1289 35.1543C90.2435 36.515 88.9154 37.1953 87.1445 37.1953ZM86.9199 27.7227C86.1908 27.7227 85.5788 27.9896 85.084 28.5234C84.5892 29.0508 84.2832 29.793 84.166 30.75H89.459V30.6133C89.4069 29.6953 89.1595 28.9857 88.7168 28.4844C88.2741 27.9766 87.6751 27.7227 86.9199 27.7227ZM95.0742 26.4336L95.1328 27.7617C95.9401 26.7461 96.9948 26.2383 98.2969 26.2383C100.53 26.2383 101.656 27.498 101.676 30.0176V37H99.8691V30.0078C99.8626 29.2461 99.6868 28.6829 99.3418 28.3184C99.0033 27.9538 98.4727 27.7715 97.75 27.7715C97.1641 27.7715 96.6497 27.9277 96.207 28.2402C95.7643 28.5527 95.4193 28.9629 95.1719 29.4707V37H93.3652V26.4336H95.0742ZM110.924 35.9551C110.221 36.7819 109.189 37.1953 107.828 37.1953C106.702 37.1953 105.842 36.8698 105.25 36.2188C104.664 35.5612 104.368 34.5911 104.361 33.3086V26.4336H106.168V33.2598C106.168 34.8613 106.819 35.6621 108.121 35.6621C109.501 35.6621 110.419 35.1478 110.875 34.1191V26.4336H112.682V37H110.963L110.924 35.9551Z" fill="white"/>
<path d="M74.6738 85H72.7891V78.4277H65.6211V85H63.7461V70.7812H65.6211V76.8945H72.7891V70.7812H74.6738V85ZM77.2422 79.6191C77.2422 78.584 77.444 77.653 77.8477 76.8262C78.2578 75.9993 78.8242 75.3613 79.5469 74.9121C80.276 74.4629 81.1061 74.2383 82.0371 74.2383C83.4759 74.2383 84.638 74.7363 85.5234 75.7324C86.4154 76.7285 86.8613 78.0534 86.8613 79.707V79.834C86.8613 80.8626 86.6628 81.7871 86.2656 82.6074C85.875 83.4212 85.3118 84.056 84.5762 84.5117C83.847 84.9674 83.0072 85.1953 82.0566 85.1953C80.6243 85.1953 79.4622 84.6973 78.5703 83.7012C77.6849 82.7051 77.2422 81.3867 77.2422 79.7461V79.6191ZM79.0586 79.834C79.0586 81.0059 79.3288 81.9466 79.8691 82.6562C80.416 83.3659 81.1452 83.7207 82.0566 83.7207C82.9746 83.7207 83.7038 83.3626 84.2441 82.6465C84.7845 81.9238 85.0547 80.9147 85.0547 79.6191C85.0547 78.4603 84.778 77.5228 84.2246 76.8066C83.6777 76.084 82.9486 75.7227 82.0371 75.7227C81.1452 75.7227 80.4258 76.0775 79.8789 76.7871C79.332 77.4967 79.0586 78.5124 79.0586 79.834ZM90.8262 74.4336L90.875 75.6055C91.6497 74.694 92.6947 74.2383 94.0098 74.2383C95.4876 74.2383 96.4935 74.8047 97.0273 75.9375C97.3789 75.4297 97.8346 75.0195 98.3945 74.707C98.9609 74.3945 99.6283 74.2383 100.396 74.2383C102.714 74.2383 103.893 75.4655 103.932 77.9199V85H102.125V78.0273C102.125 77.2721 101.952 76.709 101.607 76.3379C101.262 75.9603 100.683 75.7715 99.8691 75.7715C99.1986 75.7715 98.6419 75.9733 98.1992 76.377C97.7565 76.7741 97.4993 77.3112 97.4277 77.9883V85H95.6113V78.0762C95.6113 76.5397 94.8594 75.7715 93.3555 75.7715C92.1706 75.7715 91.36 76.276 90.9238 77.2852V85H89.1172V74.4336H90.8262ZM111.051 85.1953C109.618 85.1953 108.453 84.7266 107.555 83.7891C106.656 82.8451 106.207 81.5853 106.207 80.0098V79.6777C106.207 78.6296 106.406 77.6953 106.803 76.875C107.206 76.0482 107.766 75.4036 108.482 74.9414C109.205 74.4727 109.986 74.2383 110.826 74.2383C112.2 74.2383 113.268 74.6908 114.029 75.5957C114.791 76.5007 115.172 77.7962 115.172 79.4824V80.2344H108.014C108.04 81.276 108.342 82.1191 108.922 82.7637C109.508 83.4017 110.25 83.7207 111.148 83.7207C111.786 83.7207 112.327 83.5905 112.77 83.3301C113.212 83.0697 113.6 82.7246 113.932 82.2949L115.035 83.1543C114.15 84.515 112.822 85.1953 111.051 85.1953ZM110.826 75.7227C110.097 75.7227 109.485 75.9896 108.99 76.5234C108.495 77.0508 108.189 77.793 108.072 78.75H113.365V78.6133C113.313 77.6953 113.066 76.9857 112.623 76.4844C112.18 75.9766 111.581 75.7227 110.826 75.7227Z" fill="white"/>
</g>
<defs>
<clipPath id="clip0_212_553">
<rect width="260" height="456" fill="white"/>
</clipPath>
</defs>
</svg>
