<svg width="941" height="307" viewBox="0 0 941 307" fill="none" xmlns="http://www.w3.org/2000/svg">
<rect x="371" width="197" height="70" fill="#1D7AAE"/>
<path d="M409.786 44V26.5455H411.899V34.3182H421.206V26.5455H423.32V44H421.206V36.1932H411.899V44H409.786ZM432.597 44.2727C431.415 44.2727 430.378 43.9915 429.486 43.429C428.599 42.8665 427.906 42.0795 427.406 41.0682C426.912 40.0568 426.665 38.875 426.665 37.5227C426.665 36.1591 426.912 34.9687 427.406 33.9517C427.906 32.9347 428.599 32.1449 429.486 31.5824C430.378 31.0199 431.415 30.7386 432.597 30.7386C433.778 30.7386 434.813 31.0199 435.699 31.5824C436.591 32.1449 437.284 32.9347 437.778 33.9517C438.278 34.9687 438.528 36.1591 438.528 37.5227C438.528 38.875 438.278 40.0568 437.778 41.0682C437.284 42.0795 436.591 42.8665 435.699 43.429C434.813 43.9915 433.778 44.2727 432.597 44.2727ZM432.597 42.4659C433.494 42.4659 434.233 42.2358 434.812 41.7756C435.392 41.3153 435.821 40.7102 436.099 39.9602C436.378 39.2102 436.517 38.3977 436.517 37.5227C436.517 36.6477 436.378 35.8324 436.099 35.0767C435.821 34.321 435.392 33.7102 434.812 33.2443C434.233 32.7784 433.494 32.5455 432.597 32.5455C431.699 32.5455 430.96 32.7784 430.381 33.2443C429.801 33.7102 429.372 34.321 429.094 35.0767C428.815 35.8324 428.676 36.6477 428.676 37.5227C428.676 38.3977 428.815 39.2102 429.094 39.9602C429.372 40.7102 429.801 41.3153 430.381 41.7756C430.96 42.2358 431.699 42.4659 432.597 42.4659ZM441.599 44V30.9091H443.542V32.9545H443.712C443.985 32.2557 444.425 31.7131 445.033 31.3267C445.641 30.9347 446.371 30.7386 447.224 30.7386C448.087 30.7386 448.806 30.9347 449.38 31.3267C449.96 31.7131 450.411 32.2557 450.735 32.9545H450.871C451.207 32.2784 451.71 31.7415 452.38 31.3438C453.05 30.9403 453.854 30.7386 454.792 30.7386C455.962 30.7386 456.92 31.1051 457.664 31.8381C458.408 32.5653 458.781 33.6989 458.781 35.2386V44H456.769V35.2386C456.769 34.2727 456.505 33.5824 455.977 33.1676C455.448 32.7528 454.826 32.5455 454.11 32.5455C453.19 32.5455 452.477 32.8239 451.971 33.3807C451.465 33.9318 451.212 34.6307 451.212 35.4773V44H449.167V35.0341C449.167 34.2898 448.925 33.6903 448.442 33.2358C447.96 32.7756 447.337 32.5455 446.576 32.5455C446.053 32.5455 445.565 32.6847 445.11 32.9631C444.661 33.2415 444.298 33.6278 444.019 34.1222C443.746 34.6108 443.61 35.1761 443.61 35.8182V44H441.599ZM467.947 44.2727C466.685 44.2727 465.597 43.9943 464.683 43.4375C463.773 42.875 463.072 42.0909 462.577 41.0852C462.089 40.0739 461.844 38.8977 461.844 37.5568C461.844 36.2159 462.089 35.0341 462.577 34.0114C463.072 32.983 463.759 32.1818 464.64 31.608C465.526 31.0284 466.56 30.7386 467.742 30.7386C468.424 30.7386 469.097 30.8523 469.762 31.0795C470.427 31.3068 471.032 31.6761 471.577 32.1875C472.123 32.6932 472.558 33.3636 472.881 34.1989C473.205 35.0341 473.367 36.0625 473.367 37.2841V38.1364H463.276V36.3977H471.322C471.322 35.6591 471.174 35 470.879 34.4205C470.589 33.8409 470.174 33.3835 469.634 33.0483C469.1 32.7131 468.469 32.5455 467.742 32.5455C466.941 32.5455 466.248 32.7443 465.663 33.142C465.083 33.5341 464.637 34.0455 464.325 34.6761C464.012 35.3068 463.856 35.983 463.856 36.7045V37.8636C463.856 38.8523 464.026 39.6903 464.367 40.3778C464.714 41.0597 465.194 41.5795 465.808 41.9375C466.421 42.2898 467.134 42.4659 467.947 42.4659C468.475 42.4659 468.952 42.392 469.379 42.2443C469.81 42.0909 470.183 41.8636 470.495 41.5625C470.808 41.2557 471.049 40.875 471.219 40.4205L473.163 40.9659C472.958 41.625 472.614 42.2045 472.131 42.7045C471.648 43.1989 471.052 43.5852 470.342 43.8636C469.631 44.1364 468.833 44.2727 467.947 44.2727ZM476.427 48.9091V30.9091H478.37V32.9886H478.609C478.756 32.7614 478.961 32.4716 479.222 32.1193C479.489 31.7614 479.87 31.4432 480.364 31.1648C480.864 30.8807 481.54 30.7386 482.393 30.7386C483.495 30.7386 484.467 31.0142 485.308 31.5653C486.148 32.1165 486.805 32.8977 487.276 33.9091C487.748 34.9205 487.984 36.1136 487.984 37.4886C487.984 38.875 487.748 40.0767 487.276 41.0938C486.805 42.1051 486.151 42.8892 485.316 43.446C484.481 43.9972 483.518 44.2727 482.427 44.2727C481.586 44.2727 480.913 44.1335 480.407 43.8551C479.901 43.571 479.512 43.25 479.239 42.892C478.967 42.5284 478.756 42.2273 478.609 41.9886H478.438V48.9091H476.427ZM478.404 37.4545C478.404 38.4432 478.549 39.3153 478.839 40.071C479.129 40.821 479.552 41.4091 480.109 41.8352C480.665 42.2557 481.347 42.4659 482.154 42.4659C482.995 42.4659 483.697 42.2443 484.259 41.8011C484.827 41.3523 485.254 40.75 485.538 39.9943C485.827 39.233 485.972 38.3864 485.972 37.4545C485.972 36.5341 485.83 35.7045 485.546 34.9659C485.268 34.2216 484.844 33.6335 484.276 33.2017C483.714 32.7642 483.006 32.5455 482.154 32.5455C481.336 32.5455 480.648 32.7528 480.092 33.1676C479.535 33.5767 479.114 34.1506 478.83 34.8892C478.546 35.6222 478.404 36.4773 478.404 37.4545ZM494.904 44.3068C494.075 44.3068 493.322 44.1506 492.646 43.8381C491.969 43.5199 491.433 43.0625 491.035 42.4659C490.637 41.8636 490.438 41.1364 490.438 40.2841C490.438 39.5341 490.586 38.9261 490.881 38.4602C491.177 37.9886 491.572 37.6193 492.066 37.3523C492.56 37.0852 493.106 36.8864 493.702 36.7557C494.305 36.6193 494.91 36.5114 495.518 36.4318C496.313 36.3295 496.958 36.2528 497.452 36.2017C497.952 36.1449 498.316 36.0511 498.543 35.9205C498.776 35.7898 498.893 35.5625 498.893 35.2386V35.1705C498.893 34.3295 498.663 33.6761 498.202 33.2102C497.748 32.7443 497.058 32.5114 496.131 32.5114C495.171 32.5114 494.418 32.7216 493.873 33.142C493.327 33.5625 492.944 34.0114 492.722 34.4886L490.813 33.8068C491.154 33.0114 491.609 32.392 492.177 31.9489C492.751 31.5 493.376 31.1875 494.052 31.0114C494.734 30.8295 495.404 30.7386 496.063 30.7386C496.484 30.7386 496.967 30.7898 497.512 30.892C498.063 30.9886 498.594 31.1903 499.106 31.4972C499.623 31.804 500.052 32.267 500.393 32.8864C500.734 33.5057 500.904 34.3352 500.904 35.375V44H498.893V42.2273H498.79C498.654 42.5114 498.427 42.8153 498.109 43.1392C497.79 43.4631 497.367 43.7386 496.839 43.9659C496.31 44.1932 495.665 44.3068 494.904 44.3068ZM495.211 42.5C496.006 42.5 496.677 42.3438 497.222 42.0312C497.773 41.7188 498.188 41.3153 498.467 40.821C498.751 40.3267 498.893 39.8068 498.893 39.2614V37.4205C498.808 37.5227 498.62 37.6165 498.33 37.7017C498.046 37.7812 497.717 37.8523 497.342 37.9148C496.972 37.9716 496.612 38.0227 496.259 38.0682C495.913 38.108 495.631 38.142 495.415 38.1705C494.893 38.2386 494.404 38.3494 493.95 38.5028C493.501 38.6506 493.137 38.875 492.859 39.1761C492.586 39.4716 492.45 39.875 492.45 40.3864C492.45 41.0852 492.708 41.6136 493.225 41.9716C493.748 42.3239 494.41 42.5 495.211 42.5ZM509.859 49.1818C508.888 49.1818 508.053 49.0568 507.354 48.8068C506.655 48.5625 506.072 48.2386 505.607 47.8352C505.146 47.4375 504.78 47.0114 504.507 46.5568L506.109 45.4318C506.291 45.6705 506.521 45.9432 506.8 46.25C507.078 46.5625 507.459 46.8324 507.942 47.0597C508.43 47.2926 509.07 47.4091 509.859 47.4091C510.916 47.4091 511.788 47.1534 512.476 46.642C513.163 46.1307 513.507 45.3295 513.507 44.2386V41.5795H513.337C513.189 41.8182 512.979 42.1136 512.706 42.4659C512.439 42.8125 512.053 43.1222 511.547 43.3949C511.047 43.6619 510.371 43.7955 509.518 43.7955C508.462 43.7955 507.513 43.5455 506.672 43.0455C505.837 42.5455 505.175 41.8182 504.686 40.8636C504.203 39.9091 503.962 38.75 503.962 37.3864C503.962 36.0455 504.197 34.8778 504.669 33.8835C505.141 32.8835 505.797 32.1108 506.638 31.5653C507.479 31.0142 508.45 30.7386 509.553 30.7386C510.405 30.7386 511.081 30.8807 511.581 31.1648C512.087 31.4432 512.473 31.7614 512.74 32.1193C513.013 32.4716 513.223 32.7614 513.371 32.9886H513.575V30.9091H515.518V44.375C515.518 45.5 515.263 46.4148 514.751 47.1193C514.246 47.8295 513.564 48.3494 512.706 48.679C511.854 49.0142 510.905 49.1818 509.859 49.1818ZM509.791 41.9886C510.598 41.9886 511.28 41.804 511.837 41.4347C512.393 41.0653 512.817 40.5341 513.107 39.8409C513.396 39.1477 513.541 38.3182 513.541 37.3523C513.541 36.4091 513.399 35.5767 513.115 34.8551C512.831 34.1335 512.411 33.5682 511.854 33.1591C511.297 32.75 510.609 32.5455 509.791 32.5455C508.939 32.5455 508.229 32.7614 507.661 33.1932C507.098 33.625 506.675 34.2045 506.391 34.9318C506.112 35.6591 505.973 36.4659 505.973 37.3523C505.973 38.2614 506.115 39.0653 506.399 39.7642C506.689 40.4574 507.115 41.0028 507.678 41.4006C508.246 41.7926 508.95 41.9886 509.791 41.9886ZM524.689 44.2727C523.428 44.2727 522.339 43.9943 521.425 43.4375C520.516 42.875 519.814 42.0909 519.32 41.0852C518.831 40.0739 518.587 38.8977 518.587 37.5568C518.587 36.2159 518.831 35.0341 519.32 34.0114C519.814 32.983 520.501 32.1818 521.382 31.608C522.268 31.0284 523.303 30.7386 524.484 30.7386C525.166 30.7386 525.839 30.8523 526.504 31.0795C527.169 31.3068 527.774 31.6761 528.32 32.1875C528.865 32.6932 529.3 33.3636 529.624 34.1989C529.947 35.0341 530.109 36.0625 530.109 37.2841V38.1364H520.018V36.3977H528.064C528.064 35.6591 527.916 35 527.621 34.4205C527.331 33.8409 526.916 33.3835 526.376 33.0483C525.842 32.7131 525.212 32.5455 524.484 32.5455C523.683 32.5455 522.99 32.7443 522.405 33.142C521.825 33.5341 521.379 34.0455 521.067 34.6761C520.754 35.3068 520.598 35.983 520.598 36.7045V37.8636C520.598 38.8523 520.768 39.6903 521.109 40.3778C521.456 41.0597 521.936 41.5795 522.55 41.9375C523.163 42.2898 523.876 42.4659 524.689 42.4659C525.217 42.4659 525.695 42.392 526.121 42.2443C526.553 42.0909 526.925 41.8636 527.237 41.5625C527.55 41.2557 527.791 40.875 527.962 40.4205L529.905 40.9659C529.7 41.625 529.357 42.2045 528.874 42.7045C528.391 43.1989 527.794 43.5852 527.084 43.8636C526.374 44.1364 525.575 44.2727 524.689 44.2727Z" fill="white"/>
<rect y="123" width="197" height="70" fill="#1D7AAE"/>
<path d="M6.95739 167V149.545H17.4233V151.42H9.07102V157.318H16.6392V159.193H9.07102V167H6.95739ZM25.2983 167.273C24.0369 167.273 22.9489 166.994 22.0341 166.438C21.125 165.875 20.4233 165.091 19.929 164.085C19.4403 163.074 19.196 161.898 19.196 160.557C19.196 159.216 19.4403 158.034 19.929 157.011C20.4233 155.983 21.1108 155.182 21.9915 154.608C22.8778 154.028 23.9119 153.739 25.0938 153.739C25.7756 153.739 26.4489 153.852 27.1136 154.08C27.7784 154.307 28.3835 154.676 28.929 155.188C29.4744 155.693 29.9091 156.364 30.233 157.199C30.5568 158.034 30.7188 159.062 30.7188 160.284V161.136H20.6278V159.398H28.6733C28.6733 158.659 28.5256 158 28.2301 157.42C27.9403 156.841 27.5256 156.384 26.9858 156.048C26.4517 155.713 25.821 155.545 25.0938 155.545C24.2926 155.545 23.5994 155.744 23.0142 156.142C22.4347 156.534 21.9886 157.045 21.6761 157.676C21.3636 158.307 21.2074 158.983 21.2074 159.705V160.864C21.2074 161.852 21.3778 162.69 21.7188 163.378C22.0653 164.06 22.5455 164.58 23.1591 164.938C23.7727 165.29 24.4858 165.466 25.2983 165.466C25.8267 165.466 26.304 165.392 26.7301 165.244C27.1619 165.091 27.5341 164.864 27.8466 164.562C28.1591 164.256 28.4006 163.875 28.571 163.42L30.5142 163.966C30.3097 164.625 29.9659 165.205 29.483 165.705C29 166.199 28.4034 166.585 27.6932 166.864C26.983 167.136 26.1847 167.273 25.2983 167.273ZM37.6307 167.307C36.8011 167.307 36.0483 167.151 35.3722 166.838C34.696 166.52 34.1591 166.062 33.7614 165.466C33.3636 164.864 33.1648 164.136 33.1648 163.284C33.1648 162.534 33.3125 161.926 33.608 161.46C33.9034 160.989 34.2983 160.619 34.7926 160.352C35.2869 160.085 35.8324 159.886 36.429 159.756C37.0313 159.619 37.6364 159.511 38.2443 159.432C39.0398 159.33 39.6847 159.253 40.179 159.202C40.679 159.145 41.0426 159.051 41.2699 158.92C41.5028 158.79 41.6193 158.562 41.6193 158.239V158.17C41.6193 157.33 41.3892 156.676 40.929 156.21C40.4744 155.744 39.7841 155.511 38.858 155.511C37.8977 155.511 37.1449 155.722 36.5994 156.142C36.054 156.562 35.6705 157.011 35.4489 157.489L33.5398 156.807C33.8807 156.011 34.3352 155.392 34.9034 154.949C35.4773 154.5 36.1023 154.187 36.7784 154.011C37.4602 153.83 38.1307 153.739 38.7898 153.739C39.2102 153.739 39.6932 153.79 40.2386 153.892C40.7898 153.989 41.321 154.19 41.8324 154.497C42.3494 154.804 42.7784 155.267 43.1193 155.886C43.4602 156.506 43.6307 157.335 43.6307 158.375V167H41.6193V165.227H41.517C41.3807 165.511 41.1534 165.815 40.8352 166.139C40.517 166.463 40.0938 166.739 39.5653 166.966C39.0369 167.193 38.392 167.307 37.6307 167.307ZM37.9375 165.5C38.733 165.5 39.4034 165.344 39.9489 165.031C40.5 164.719 40.9148 164.315 41.1932 163.821C41.4773 163.327 41.6193 162.807 41.6193 162.261V160.42C41.5341 160.523 41.3466 160.616 41.0568 160.702C40.7727 160.781 40.4432 160.852 40.0682 160.915C39.6989 160.972 39.3381 161.023 38.9858 161.068C38.6392 161.108 38.358 161.142 38.142 161.17C37.6193 161.239 37.1307 161.349 36.6761 161.503C36.2273 161.651 35.8636 161.875 35.5852 162.176C35.3125 162.472 35.1761 162.875 35.1761 163.386C35.1761 164.085 35.4347 164.614 35.9517 164.972C36.4744 165.324 37.1364 165.5 37.9375 165.5ZM52.995 153.909V155.614H46.2109V153.909H52.995ZM48.1882 150.773H50.1996V163.25C50.1996 163.818 50.282 164.244 50.4467 164.528C50.6172 164.807 50.8331 164.994 51.0945 165.091C51.3615 165.182 51.6428 165.227 51.9382 165.227C52.1598 165.227 52.3416 165.216 52.4837 165.193C52.6257 165.165 52.7393 165.142 52.8246 165.125L53.2337 166.932C53.0973 166.983 52.907 167.034 52.6626 167.085C52.4183 167.142 52.1087 167.17 51.7337 167.17C51.1655 167.17 50.6087 167.048 50.0632 166.804C49.5234 166.56 49.0746 166.188 48.7166 165.688C48.3643 165.188 48.1882 164.557 48.1882 163.795V150.773ZM64.2706 161.648V153.909H66.282V167H64.2706V164.784H64.1342C63.8274 165.449 63.3501 166.014 62.7024 166.48C62.0547 166.94 61.2365 167.17 60.2479 167.17C59.4297 167.17 58.7024 166.991 58.0661 166.634C57.4297 166.27 56.9297 165.724 56.5661 164.997C56.2024 164.264 56.0206 163.341 56.0206 162.227V153.909H58.032V162.091C58.032 163.045 58.299 163.807 58.8331 164.375C59.3729 164.943 60.0604 165.227 60.8956 165.227C61.3956 165.227 61.9041 165.099 62.4212 164.844C62.9439 164.588 63.3814 164.196 63.7337 163.668C64.0916 163.139 64.2706 162.466 64.2706 161.648ZM69.9659 167V153.909H71.9091V155.886H72.0455C72.2841 155.239 72.7159 154.713 73.3409 154.31C73.9659 153.906 74.6705 153.705 75.4545 153.705C75.6023 153.705 75.7869 153.707 76.0085 153.713C76.2301 153.719 76.3977 153.727 76.5114 153.739V155.784C76.4432 155.767 76.2869 155.741 76.0426 155.707C75.804 155.668 75.5511 155.648 75.2841 155.648C74.6477 155.648 74.0795 155.781 73.5795 156.048C73.0852 156.31 72.6932 156.673 72.4034 157.139C72.1193 157.599 71.9773 158.125 71.9773 158.716V167H69.9659ZM83.9858 167.273C82.7244 167.273 81.6364 166.994 80.7216 166.438C79.8125 165.875 79.1108 165.091 78.6165 164.085C78.1278 163.074 77.8835 161.898 77.8835 160.557C77.8835 159.216 78.1278 158.034 78.6165 157.011C79.1108 155.983 79.7983 155.182 80.679 154.608C81.5653 154.028 82.5994 153.739 83.7812 153.739C84.4631 153.739 85.1364 153.852 85.8011 154.08C86.4659 154.307 87.071 154.676 87.6165 155.188C88.1619 155.693 88.5966 156.364 88.9205 157.199C89.2443 158.034 89.4062 159.062 89.4062 160.284V161.136H79.3153V159.398H87.3608C87.3608 158.659 87.2131 158 86.9176 157.42C86.6278 156.841 86.2131 156.384 85.6733 156.048C85.1392 155.713 84.5085 155.545 83.7812 155.545C82.9801 155.545 82.2869 155.744 81.7017 156.142C81.1222 156.534 80.6761 157.045 80.3636 157.676C80.0511 158.307 79.8949 158.983 79.8949 159.705V160.864C79.8949 161.852 80.0653 162.69 80.4062 163.378C80.7528 164.06 81.233 164.58 81.8466 164.938C82.4602 165.29 83.1733 165.466 83.9858 165.466C84.5142 165.466 84.9915 165.392 85.4176 165.244C85.8494 165.091 86.2216 164.864 86.5341 164.562C86.8466 164.256 87.0881 163.875 87.2585 163.42L89.2017 163.966C88.9972 164.625 88.6534 165.205 88.1705 165.705C87.6875 166.199 87.0909 166.585 86.3807 166.864C85.6705 167.136 84.8722 167.273 83.9858 167.273ZM97.4091 167.273C96.3182 167.273 95.3551 166.997 94.5199 166.446C93.6847 165.889 93.0313 165.105 92.5597 164.094C92.0881 163.077 91.8523 161.875 91.8523 160.489C91.8523 159.114 92.0881 157.92 92.5597 156.909C93.0313 155.898 93.6875 155.116 94.5284 154.565C95.3693 154.014 96.3409 153.739 97.4432 153.739C98.2955 153.739 98.9688 153.881 99.4631 154.165C99.9631 154.443 100.344 154.761 100.605 155.119C100.872 155.472 101.08 155.761 101.227 155.989H101.398V149.545H103.409V167H101.466V164.989H101.227C101.08 165.227 100.869 165.528 100.597 165.892C100.324 166.25 99.9347 166.571 99.429 166.855C98.9233 167.134 98.25 167.273 97.4091 167.273ZM97.6818 165.466C98.4886 165.466 99.1705 165.256 99.7273 164.835C100.284 164.409 100.707 163.821 100.997 163.071C101.287 162.315 101.432 161.443 101.432 160.455C101.432 159.477 101.29 158.622 101.006 157.889C100.722 157.151 100.301 156.577 99.7443 156.168C99.1875 155.753 98.5 155.545 97.6818 155.545C96.8295 155.545 96.1193 155.764 95.5511 156.202C94.9886 156.634 94.5653 157.222 94.2812 157.966C94.0028 158.705 93.8636 159.534 93.8636 160.455C93.8636 161.386 94.0057 162.233 94.2898 162.994C94.5795 163.75 95.0057 164.352 95.5682 164.801C96.1364 165.244 96.8409 165.466 97.6818 165.466ZM114.395 167V149.545H120.293C121.662 149.545 122.781 149.793 123.651 150.287C124.526 150.776 125.173 151.438 125.594 152.273C126.014 153.108 126.224 154.04 126.224 155.068C126.224 156.097 126.014 157.031 125.594 157.872C125.179 158.713 124.537 159.384 123.668 159.884C122.798 160.378 121.685 160.625 120.327 160.625H116.099V158.75H120.259C121.196 158.75 121.949 158.588 122.517 158.264C123.085 157.94 123.497 157.503 123.753 156.952C124.014 156.395 124.145 155.767 124.145 155.068C124.145 154.369 124.014 153.744 123.753 153.193C123.497 152.642 123.082 152.21 122.509 151.898C121.935 151.58 121.173 151.42 120.224 151.42H116.509V167H114.395ZM129.357 167V153.909H131.3V155.886H131.436C131.675 155.239 132.107 154.713 132.732 154.31C133.357 153.906 134.061 153.705 134.845 153.705C134.993 153.705 135.178 153.707 135.399 153.713C135.621 153.719 135.788 153.727 135.902 153.739V155.784C135.834 155.767 135.678 155.741 135.433 155.707C135.195 155.668 134.942 155.648 134.675 155.648C134.038 155.648 133.47 155.781 132.97 156.048C132.476 156.31 132.084 156.673 131.794 157.139C131.51 157.599 131.368 158.125 131.368 158.716V167H129.357ZM143.206 167.273C142.024 167.273 140.987 166.991 140.095 166.429C139.209 165.866 138.516 165.08 138.016 164.068C137.521 163.057 137.274 161.875 137.274 160.523C137.274 159.159 137.521 157.969 138.016 156.952C138.516 155.935 139.209 155.145 140.095 154.582C140.987 154.02 142.024 153.739 143.206 153.739C144.388 153.739 145.422 154.02 146.308 154.582C147.2 155.145 147.893 155.935 148.388 156.952C148.888 157.969 149.138 159.159 149.138 160.523C149.138 161.875 148.888 163.057 148.388 164.068C147.893 165.08 147.2 165.866 146.308 166.429C145.422 166.991 144.388 167.273 143.206 167.273ZM143.206 165.466C144.104 165.466 144.842 165.236 145.422 164.776C146.001 164.315 146.43 163.71 146.709 162.96C146.987 162.21 147.126 161.398 147.126 160.523C147.126 159.648 146.987 158.832 146.709 158.077C146.43 157.321 146.001 156.71 145.422 156.244C144.842 155.778 144.104 155.545 143.206 155.545C142.308 155.545 141.57 155.778 140.99 156.244C140.411 156.71 139.982 157.321 139.703 158.077C139.425 158.832 139.286 159.648 139.286 160.523C139.286 161.398 139.425 162.21 139.703 162.96C139.982 163.71 140.411 164.315 140.99 164.776C141.57 165.236 142.308 165.466 143.206 165.466ZM152.208 153.909H154.219V167.955C154.219 168.761 154.08 169.46 153.802 170.051C153.529 170.642 153.114 171.099 152.558 171.423C152.006 171.747 151.31 171.909 150.469 171.909C150.401 171.909 150.333 171.909 150.265 171.909C150.197 171.909 150.129 171.909 150.06 171.909V170.034C150.129 170.034 150.191 170.034 150.248 170.034C150.305 170.034 150.367 170.034 150.435 170.034C151.049 170.034 151.498 169.852 151.782 169.489C152.066 169.131 152.208 168.619 152.208 167.955V153.909ZM153.197 151.727C152.805 151.727 152.467 151.594 152.183 151.327C151.904 151.06 151.765 150.739 151.765 150.364C151.765 149.989 151.904 149.668 152.183 149.401C152.467 149.134 152.805 149 153.197 149C153.589 149 153.924 149.134 154.202 149.401C154.487 149.668 154.629 149.989 154.629 150.364C154.629 150.739 154.487 151.06 154.202 151.327C153.924 151.594 153.589 151.727 153.197 151.727ZM163.392 167.273C162.131 167.273 161.043 166.994 160.128 166.438C159.219 165.875 158.517 165.091 158.023 164.085C157.534 163.074 157.29 161.898 157.29 160.557C157.29 159.216 157.534 158.034 158.023 157.011C158.517 155.983 159.205 155.182 160.085 154.608C160.972 154.028 162.006 153.739 163.188 153.739C163.869 153.739 164.543 153.852 165.207 154.08C165.872 154.307 166.477 154.676 167.023 155.188C167.568 155.693 168.003 156.364 168.327 157.199C168.651 158.034 168.812 159.062 168.812 160.284V161.136H158.722V159.398H166.767C166.767 158.659 166.619 158 166.324 157.42C166.034 156.841 165.619 156.384 165.08 156.048C164.545 155.713 163.915 155.545 163.188 155.545C162.386 155.545 161.693 155.744 161.108 156.142C160.528 156.534 160.082 157.045 159.77 157.676C159.457 158.307 159.301 158.983 159.301 159.705V160.864C159.301 161.852 159.472 162.69 159.812 163.378C160.159 164.06 160.639 164.58 161.253 164.938C161.866 165.29 162.58 165.466 163.392 165.466C163.92 165.466 164.398 165.392 164.824 165.244C165.256 165.091 165.628 164.864 165.94 164.562C166.253 164.256 166.494 163.875 166.665 163.42L168.608 163.966C168.403 164.625 168.06 165.205 167.577 165.705C167.094 166.199 166.497 166.585 165.787 166.864C165.077 167.136 164.278 167.273 163.392 167.273ZM177.19 167.273C175.963 167.273 174.906 166.983 174.02 166.403C173.134 165.824 172.452 165.026 171.974 164.009C171.497 162.991 171.259 161.83 171.259 160.523C171.259 159.193 171.503 158.02 171.991 157.003C172.486 155.98 173.173 155.182 174.054 154.608C174.94 154.028 175.974 153.739 177.156 153.739C178.077 153.739 178.906 153.909 179.645 154.25C180.384 154.591 180.989 155.068 181.46 155.682C181.932 156.295 182.224 157.011 182.338 157.83H180.327C180.173 157.233 179.832 156.705 179.304 156.244C178.781 155.778 178.077 155.545 177.19 155.545C176.406 155.545 175.719 155.75 175.128 156.159C174.543 156.562 174.085 157.134 173.756 157.872C173.432 158.605 173.27 159.466 173.27 160.455C173.27 161.466 173.429 162.347 173.747 163.097C174.071 163.847 174.526 164.429 175.111 164.844C175.702 165.259 176.395 165.466 177.19 165.466C177.713 165.466 178.188 165.375 178.614 165.193C179.04 165.011 179.401 164.75 179.696 164.409C179.991 164.068 180.202 163.659 180.327 163.182H182.338C182.224 163.955 181.943 164.651 181.494 165.27C181.051 165.884 180.463 166.372 179.73 166.736C179.003 167.094 178.156 167.273 177.19 167.273ZM190.972 153.909V155.614H184.188V153.909H190.972ZM186.165 150.773H188.176V163.25C188.176 163.818 188.259 164.244 188.423 164.528C188.594 164.807 188.81 164.994 189.071 165.091C189.338 165.182 189.619 165.227 189.915 165.227C190.136 165.227 190.318 165.216 190.46 165.193C190.602 165.165 190.716 165.142 190.801 165.125L191.21 166.932C191.074 166.983 190.884 167.034 190.639 167.085C190.395 167.142 190.085 167.17 189.71 167.17C189.142 167.17 188.585 167.048 188.04 166.804C187.5 166.56 187.051 166.188 186.693 165.688C186.341 165.188 186.165 164.557 186.165 163.795V150.773Z" fill="white"/>
<rect x="744" y="123" width="197" height="70" fill="#1D7AAE"/>
<path d="M799.344 167V149.545H805.242C806.611 149.545 807.73 149.793 808.6 150.287C809.475 150.776 810.123 151.438 810.543 152.273C810.963 153.108 811.174 154.04 811.174 155.068C811.174 156.097 810.963 157.031 810.543 157.872C810.128 158.713 809.486 159.384 808.617 159.884C807.748 160.378 806.634 160.625 805.276 160.625H801.049V158.75H805.208C806.145 158.75 806.898 158.588 807.466 158.264C808.034 157.94 808.446 157.503 808.702 156.952C808.963 156.395 809.094 155.767 809.094 155.068C809.094 154.369 808.963 153.744 808.702 153.193C808.446 152.642 808.032 152.21 807.458 151.898C806.884 151.58 806.123 151.42 805.174 151.42H801.458V167H799.344ZM814.306 167V153.909H816.249V155.886H816.385C816.624 155.239 817.056 154.713 817.681 154.31C818.306 153.906 819.01 153.705 819.794 153.705C819.942 153.705 820.127 153.707 820.348 153.713C820.57 153.719 820.738 153.727 820.851 153.739V155.784C820.783 155.767 820.627 155.741 820.382 155.707C820.144 155.668 819.891 155.648 819.624 155.648C818.988 155.648 818.419 155.781 817.919 156.048C817.425 156.31 817.033 156.673 816.743 157.139C816.459 157.599 816.317 158.125 816.317 158.716V167H814.306ZM828.155 167.273C826.973 167.273 825.936 166.991 825.044 166.429C824.158 165.866 823.465 165.08 822.965 164.068C822.471 163.057 822.223 161.875 822.223 160.523C822.223 159.159 822.471 157.969 822.965 156.952C823.465 155.935 824.158 155.145 825.044 154.582C825.936 154.02 826.973 153.739 828.155 153.739C829.337 153.739 830.371 154.02 831.257 154.582C832.15 155.145 832.843 155.935 833.337 156.952C833.837 157.969 834.087 159.159 834.087 160.523C834.087 161.875 833.837 163.057 833.337 164.068C832.843 165.08 832.15 165.866 831.257 166.429C830.371 166.991 829.337 167.273 828.155 167.273ZM828.155 165.466C829.053 165.466 829.792 165.236 830.371 164.776C830.951 164.315 831.38 163.71 831.658 162.96C831.936 162.21 832.076 161.398 832.076 160.523C832.076 159.648 831.936 158.832 831.658 158.077C831.38 157.321 830.951 156.71 830.371 156.244C829.792 155.778 829.053 155.545 828.155 155.545C827.257 155.545 826.519 155.778 825.939 156.244C825.36 156.71 824.931 157.321 824.652 158.077C824.374 158.832 824.235 159.648 824.235 160.523C824.235 161.398 824.374 162.21 824.652 162.96C824.931 163.71 825.36 164.315 825.939 164.776C826.519 165.236 827.257 165.466 828.155 165.466ZM842.475 167.273C841.248 167.273 840.191 166.983 839.305 166.403C838.419 165.824 837.737 165.026 837.26 164.009C836.782 162.991 836.544 161.83 836.544 160.523C836.544 159.193 836.788 158.02 837.277 157.003C837.771 155.98 838.458 155.182 839.339 154.608C840.225 154.028 841.26 153.739 842.441 153.739C843.362 153.739 844.191 153.909 844.93 154.25C845.669 154.591 846.274 155.068 846.745 155.682C847.217 156.295 847.51 157.011 847.623 157.83H845.612C845.458 157.233 845.118 156.705 844.589 156.244C844.066 155.778 843.362 155.545 842.475 155.545C841.691 155.545 841.004 155.75 840.413 156.159C839.828 156.562 839.37 157.134 839.041 157.872C838.717 158.605 838.555 159.466 838.555 160.455C838.555 161.466 838.714 162.347 839.032 163.097C839.356 163.847 839.811 164.429 840.396 164.844C840.987 165.259 841.68 165.466 842.475 165.466C842.998 165.466 843.473 165.375 843.899 165.193C844.325 165.011 844.686 164.75 844.981 164.409C845.277 164.068 845.487 163.659 845.612 163.182H847.623C847.51 163.955 847.228 164.651 846.779 165.27C846.336 165.884 845.748 166.372 845.015 166.736C844.288 167.094 843.441 167.273 842.475 167.273ZM856.052 167.273C854.791 167.273 853.703 166.994 852.788 166.438C851.879 165.875 851.177 165.091 850.683 164.085C850.194 163.074 849.95 161.898 849.95 160.557C849.95 159.216 850.194 158.034 850.683 157.011C851.177 155.983 851.865 155.182 852.745 154.608C853.632 154.028 854.666 153.739 855.848 153.739C856.529 153.739 857.203 153.852 857.868 154.08C858.532 154.307 859.137 154.676 859.683 155.188C860.228 155.693 860.663 156.364 860.987 157.199C861.311 158.034 861.473 159.062 861.473 160.284V161.136H851.382V159.398H859.427C859.427 158.659 859.279 158 858.984 157.42C858.694 156.841 858.279 156.384 857.74 156.048C857.206 155.713 856.575 155.545 855.848 155.545C855.047 155.545 854.353 155.744 853.768 156.142C853.189 156.534 852.743 157.045 852.43 157.676C852.118 158.307 851.961 158.983 851.961 159.705V160.864C851.961 161.852 852.132 162.69 852.473 163.378C852.819 164.06 853.299 164.58 853.913 164.938C854.527 165.29 855.24 165.466 856.052 165.466C856.581 165.466 857.058 165.392 857.484 165.244C857.916 165.091 858.288 164.864 858.6 164.562C858.913 164.256 859.154 163.875 859.325 163.42L861.268 163.966C861.064 164.625 860.72 165.205 860.237 165.705C859.754 166.199 859.157 166.585 858.447 166.864C857.737 167.136 856.939 167.273 856.052 167.273ZM873.805 156.841L871.998 157.352C871.885 157.051 871.717 156.759 871.495 156.474C871.279 156.185 870.984 155.946 870.609 155.759C870.234 155.571 869.754 155.477 869.169 155.477C868.368 155.477 867.7 155.662 867.166 156.031C866.637 156.395 866.373 156.858 866.373 157.42C866.373 157.92 866.555 158.315 866.919 158.605C867.282 158.895 867.85 159.136 868.623 159.33L870.566 159.807C871.737 160.091 872.609 160.526 873.183 161.111C873.757 161.69 874.044 162.437 874.044 163.352C874.044 164.102 873.828 164.773 873.396 165.364C872.97 165.955 872.373 166.42 871.606 166.761C870.839 167.102 869.947 167.273 868.93 167.273C867.595 167.273 866.49 166.983 865.615 166.403C864.74 165.824 864.186 164.977 863.953 163.864L865.862 163.386C866.044 164.091 866.387 164.619 866.893 164.972C867.404 165.324 868.072 165.5 868.896 165.5C869.833 165.5 870.578 165.301 871.129 164.903C871.686 164.5 871.964 164.017 871.964 163.455C871.964 163 871.805 162.619 871.487 162.312C871.169 162 870.68 161.767 870.021 161.614L867.839 161.102C866.64 160.818 865.76 160.378 865.197 159.781C864.64 159.179 864.362 158.426 864.362 157.523C864.362 156.784 864.569 156.131 864.984 155.562C865.404 154.994 865.975 154.548 866.697 154.224C867.424 153.901 868.248 153.739 869.169 153.739C870.464 153.739 871.481 154.023 872.22 154.591C872.964 155.159 873.493 155.909 873.805 156.841ZM886.344 156.841L884.537 157.352C884.424 157.051 884.256 156.759 884.034 156.474C883.819 156.185 883.523 155.946 883.148 155.759C882.773 155.571 882.293 155.477 881.708 155.477C880.907 155.477 880.239 155.662 879.705 156.031C879.176 156.395 878.912 156.858 878.912 157.42C878.912 157.92 879.094 158.315 879.458 158.605C879.821 158.895 880.39 159.136 881.162 159.33L883.105 159.807C884.276 160.091 885.148 160.526 885.722 161.111C886.296 161.69 886.583 162.437 886.583 163.352C886.583 164.102 886.367 164.773 885.935 165.364C885.509 165.955 884.912 166.42 884.145 166.761C883.378 167.102 882.486 167.273 881.469 167.273C880.134 167.273 879.029 166.983 878.154 166.403C877.279 165.824 876.725 164.977 876.492 163.864L878.401 163.386C878.583 164.091 878.926 164.619 879.432 164.972C879.944 165.324 880.611 165.5 881.435 165.5C882.373 165.5 883.117 165.301 883.668 164.903C884.225 164.5 884.503 164.017 884.503 163.455C884.503 163 884.344 162.619 884.026 162.312C883.708 162 883.219 161.767 882.56 161.614L880.378 161.102C879.179 160.818 878.299 160.378 877.736 159.781C877.179 159.179 876.901 158.426 876.901 157.523C876.901 156.784 877.108 156.131 877.523 155.562C877.944 154.994 878.515 154.548 879.236 154.224C879.963 153.901 880.787 153.739 881.708 153.739C883.003 153.739 884.02 154.023 884.759 154.591C885.503 155.159 886.032 155.909 886.344 156.841Z" fill="white"/>
<rect x="496" y="123" width="197" height="70" fill="#1D7AAE"/>
<path d="M512.063 167V149.545H514.176V165.125H522.29V167H512.063ZM525.29 167V153.909H527.301V167H525.29ZM526.313 151.727C525.921 151.727 525.583 151.594 525.299 151.327C525.02 151.06 524.881 150.739 524.881 150.364C524.881 149.989 525.02 149.668 525.299 149.401C525.583 149.134 525.921 149 526.313 149C526.705 149 527.04 149.134 527.319 149.401C527.603 149.668 527.745 149.989 527.745 150.364C527.745 150.739 527.603 151.06 527.319 151.327C527.04 151.594 526.705 151.727 526.313 151.727ZM540.258 156.841L538.451 157.352C538.338 157.051 538.17 156.759 537.949 156.474C537.733 156.185 537.437 155.946 537.062 155.759C536.687 155.571 536.207 155.477 535.622 155.477C534.821 155.477 534.153 155.662 533.619 156.031C533.091 156.395 532.826 156.858 532.826 157.42C532.826 157.92 533.008 158.315 533.372 158.605C533.735 158.895 534.304 159.136 535.076 159.33L537.02 159.807C538.19 160.091 539.062 160.526 539.636 161.111C540.21 161.69 540.497 162.437 540.497 163.352C540.497 164.102 540.281 164.773 539.849 165.364C539.423 165.955 538.826 166.42 538.059 166.761C537.292 167.102 536.4 167.273 535.383 167.273C534.048 167.273 532.943 166.983 532.068 166.403C531.193 165.824 530.639 164.977 530.406 163.864L532.315 163.386C532.497 164.091 532.841 164.619 533.346 164.972C533.858 165.324 534.525 165.5 535.349 165.5C536.287 165.5 537.031 165.301 537.582 164.903C538.139 164.5 538.417 164.017 538.417 163.455C538.417 163 538.258 162.619 537.94 162.312C537.622 162 537.133 161.767 536.474 161.614L534.292 161.102C533.093 160.818 532.213 160.378 531.65 159.781C531.093 159.179 530.815 158.426 530.815 157.523C530.815 156.784 531.022 156.131 531.437 155.562C531.858 154.994 532.429 154.548 533.15 154.224C533.877 153.901 534.701 153.739 535.622 153.739C536.917 153.739 537.934 154.023 538.673 154.591C539.417 155.159 539.946 155.909 540.258 156.841ZM549.218 153.909V155.614H542.434V153.909H549.218ZM544.411 150.773H546.422V163.25C546.422 163.818 546.505 164.244 546.669 164.528C546.84 164.807 547.056 164.994 547.317 165.091C547.584 165.182 547.865 165.227 548.161 165.227C548.382 165.227 548.564 165.216 548.706 165.193C548.848 165.165 548.962 165.142 549.047 165.125L549.456 166.932C549.32 166.983 549.13 167.034 548.885 167.085C548.641 167.142 548.331 167.17 547.956 167.17C547.388 167.17 546.831 167.048 546.286 166.804C545.746 166.56 545.297 166.188 544.939 165.688C544.587 165.188 544.411 164.557 544.411 163.795V150.773ZM564.311 167.273C563.13 167.273 562.093 166.991 561.201 166.429C560.314 165.866 559.621 165.08 559.121 164.068C558.627 163.057 558.38 161.875 558.38 160.523C558.38 159.159 558.627 157.969 559.121 156.952C559.621 155.935 560.314 155.145 561.201 154.582C562.093 154.02 563.13 153.739 564.311 153.739C565.493 153.739 566.527 154.02 567.414 154.582C568.306 155.145 568.999 155.935 569.493 156.952C569.993 157.969 570.243 159.159 570.243 160.523C570.243 161.875 569.993 163.057 569.493 164.068C568.999 165.08 568.306 165.866 567.414 166.429C566.527 166.991 565.493 167.273 564.311 167.273ZM564.311 165.466C565.209 165.466 565.948 165.236 566.527 164.776C567.107 164.315 567.536 163.71 567.814 162.96C568.093 162.21 568.232 161.398 568.232 160.523C568.232 159.648 568.093 158.832 567.814 158.077C567.536 157.321 567.107 156.71 566.527 156.244C565.948 155.778 565.209 155.545 564.311 155.545C563.414 155.545 562.675 155.778 562.096 156.244C561.516 156.71 561.087 157.321 560.809 158.077C560.53 158.832 560.391 159.648 560.391 160.523C560.391 161.398 560.53 162.21 560.809 162.96C561.087 163.71 561.516 164.315 562.096 164.776C562.675 165.236 563.414 165.466 564.311 165.466ZM579.143 153.909V155.614H572.086V153.909H579.143ZM574.2 167V152.102C574.2 151.352 574.376 150.727 574.728 150.227C575.081 149.727 575.538 149.352 576.1 149.102C576.663 148.852 577.257 148.727 577.882 148.727C578.376 148.727 578.779 148.767 579.092 148.847C579.404 148.926 579.637 149 579.791 149.068L579.211 150.807C579.109 150.773 578.967 150.73 578.785 150.679C578.609 150.628 578.376 150.602 578.086 150.602C577.422 150.602 576.941 150.77 576.646 151.105C576.356 151.44 576.211 151.932 576.211 152.58V167H574.2ZM588.985 167V149.545H594.882C596.252 149.545 597.371 149.793 598.24 150.287C599.115 150.776 599.763 151.438 600.184 152.273C600.604 153.108 600.814 154.04 600.814 155.068C600.814 156.097 600.604 157.031 600.184 157.872C599.769 158.713 599.127 159.384 598.257 159.884C597.388 160.378 596.275 160.625 594.917 160.625H590.689V158.75H594.848C595.786 158.75 596.539 158.588 597.107 158.264C597.675 157.94 598.087 157.503 598.343 156.952C598.604 156.395 598.735 155.767 598.735 155.068C598.735 154.369 598.604 153.744 598.343 153.193C598.087 152.642 597.672 152.21 597.098 151.898C596.525 151.58 595.763 151.42 594.814 151.42H591.098V167H588.985ZM603.946 167V153.909H605.89V155.886H606.026C606.265 155.239 606.696 154.713 607.321 154.31C607.946 153.906 608.651 153.705 609.435 153.705C609.583 153.705 609.767 153.707 609.989 153.713C610.211 153.719 610.378 153.727 610.492 153.739V155.784C610.424 155.767 610.267 155.741 610.023 155.707C609.784 155.668 609.532 155.648 609.265 155.648C608.628 155.648 608.06 155.781 607.56 156.048C607.066 156.31 606.674 156.673 606.384 157.139C606.1 157.599 605.958 158.125 605.958 158.716V167H603.946ZM617.796 167.273C616.614 167.273 615.577 166.991 614.685 166.429C613.799 165.866 613.105 165.08 612.605 164.068C612.111 163.057 611.864 161.875 611.864 160.523C611.864 159.159 612.111 157.969 612.605 156.952C613.105 155.935 613.799 155.145 614.685 154.582C615.577 154.02 616.614 153.739 617.796 153.739C618.978 153.739 620.012 154.02 620.898 154.582C621.79 155.145 622.483 155.935 622.978 156.952C623.478 157.969 623.728 159.159 623.728 160.523C623.728 161.875 623.478 163.057 622.978 164.068C622.483 165.08 621.79 165.866 620.898 166.429C620.012 166.991 618.978 167.273 617.796 167.273ZM617.796 165.466C618.694 165.466 619.432 165.236 620.012 164.776C620.591 164.315 621.02 163.71 621.299 162.96C621.577 162.21 621.716 161.398 621.716 160.523C621.716 159.648 621.577 158.832 621.299 158.077C621.02 157.321 620.591 156.71 620.012 156.244C619.432 155.778 618.694 155.545 617.796 155.545C616.898 155.545 616.159 155.778 615.58 156.244C615 156.71 614.571 157.321 614.293 158.077C614.015 158.832 613.875 159.648 613.875 160.523C613.875 161.398 614.015 162.21 614.293 162.96C614.571 163.71 615 164.315 615.58 164.776C616.159 165.236 616.898 165.466 617.796 165.466ZM626.798 153.909H628.809V167.955C628.809 168.761 628.67 169.46 628.392 170.051C628.119 170.642 627.704 171.099 627.147 171.423C626.596 171.747 625.9 171.909 625.059 171.909C624.991 171.909 624.923 171.909 624.855 171.909C624.787 171.909 624.718 171.909 624.65 171.909V170.034C624.718 170.034 624.781 170.034 624.838 170.034C624.895 170.034 624.957 170.034 625.025 170.034C625.639 170.034 626.088 169.852 626.372 169.489C626.656 169.131 626.798 168.619 626.798 167.955V153.909ZM627.787 151.727C627.395 151.727 627.056 151.594 626.772 151.327C626.494 151.06 626.355 150.739 626.355 150.364C626.355 149.989 626.494 149.668 626.772 149.401C627.056 149.134 627.395 149 627.787 149C628.179 149 628.514 149.134 628.792 149.401C629.076 149.668 629.218 149.989 629.218 150.364C629.218 150.739 629.076 151.06 628.792 151.327C628.514 151.594 628.179 151.727 627.787 151.727ZM637.982 167.273C636.721 167.273 635.632 166.994 634.718 166.438C633.809 165.875 633.107 165.091 632.613 164.085C632.124 163.074 631.88 161.898 631.88 160.557C631.88 159.216 632.124 158.034 632.613 157.011C633.107 155.983 633.794 155.182 634.675 154.608C635.561 154.028 636.596 153.739 637.777 153.739C638.459 153.739 639.132 153.852 639.797 154.08C640.462 154.307 641.067 154.676 641.613 155.188C642.158 155.693 642.593 156.364 642.917 157.199C643.24 158.034 643.402 159.062 643.402 160.284V161.136H633.311V159.398H641.357C641.357 158.659 641.209 158 640.914 157.42C640.624 156.841 640.209 156.384 639.669 156.048C639.135 155.713 638.505 155.545 637.777 155.545C636.976 155.545 636.283 155.744 635.698 156.142C635.118 156.534 634.672 157.045 634.36 157.676C634.047 158.307 633.891 158.983 633.891 159.705V160.864C633.891 161.852 634.061 162.69 634.402 163.378C634.749 164.06 635.229 164.58 635.843 164.938C636.456 165.29 637.169 165.466 637.982 165.466C638.51 165.466 638.988 165.392 639.414 165.244C639.846 165.091 640.218 164.864 640.53 164.562C640.843 164.256 641.084 163.875 641.255 163.42L643.198 163.966C642.993 164.625 642.65 165.205 642.167 165.705C641.684 166.199 641.087 166.585 640.377 166.864C639.667 167.136 638.868 167.273 637.982 167.273ZM651.78 167.273C650.553 167.273 649.496 166.983 648.61 166.403C647.723 165.824 647.042 165.026 646.564 164.009C646.087 162.991 645.848 161.83 645.848 160.523C645.848 159.193 646.093 158.02 646.581 157.003C647.076 155.98 647.763 155.182 648.644 154.608C649.53 154.028 650.564 153.739 651.746 153.739C652.667 153.739 653.496 153.909 654.235 154.25C654.973 154.591 655.578 155.068 656.05 155.682C656.522 156.295 656.814 157.011 656.928 157.83H654.917C654.763 157.233 654.422 156.705 653.894 156.244C653.371 155.778 652.667 155.545 651.78 155.545C650.996 155.545 650.309 155.75 649.718 156.159C649.132 156.562 648.675 157.134 648.346 157.872C648.022 158.605 647.86 159.466 647.86 160.455C647.86 161.466 648.019 162.347 648.337 163.097C648.661 163.847 649.115 164.429 649.701 164.844C650.292 165.259 650.985 165.466 651.78 165.466C652.303 165.466 652.777 165.375 653.203 165.193C653.63 165.011 653.99 164.75 654.286 164.409C654.581 164.068 654.792 163.659 654.917 163.182H656.928C656.814 163.955 656.533 164.651 656.084 165.27C655.641 165.884 655.053 166.372 654.32 166.736C653.593 167.094 652.746 167.273 651.78 167.273ZM665.561 153.909V155.614H658.777V153.909H665.561ZM660.755 150.773H662.766V163.25C662.766 163.818 662.848 164.244 663.013 164.528C663.184 164.807 663.4 164.994 663.661 165.091C663.928 165.182 664.209 165.227 664.505 165.227C664.726 165.227 664.908 165.216 665.05 165.193C665.192 165.165 665.306 165.142 665.391 165.125L665.8 166.932C665.664 166.983 665.473 167.034 665.229 167.085C664.985 167.142 664.675 167.17 664.3 167.17C663.732 167.17 663.175 167.048 662.63 166.804C662.09 166.56 661.641 166.188 661.283 165.688C660.931 165.188 660.755 164.557 660.755 163.795V150.773ZM677.625 156.841L675.819 157.352C675.705 157.051 675.537 156.759 675.316 156.474C675.1 156.185 674.804 155.946 674.429 155.759C674.054 155.571 673.574 155.477 672.989 155.477C672.188 155.477 671.52 155.662 670.986 156.031C670.458 156.395 670.194 156.858 670.194 157.42C670.194 157.92 670.375 158.315 670.739 158.605C671.103 158.895 671.671 159.136 672.444 159.33L674.387 159.807C675.557 160.091 676.429 160.526 677.003 161.111C677.577 161.69 677.864 162.437 677.864 163.352C677.864 164.102 677.648 164.773 677.216 165.364C676.79 165.955 676.194 166.42 675.426 166.761C674.659 167.102 673.767 167.273 672.75 167.273C671.415 167.273 670.31 166.983 669.435 166.403C668.56 165.824 668.006 164.977 667.773 163.864L669.682 163.386C669.864 164.091 670.208 164.619 670.713 164.972C671.225 165.324 671.892 165.5 672.716 165.5C673.654 165.5 674.398 165.301 674.949 164.903C675.506 164.5 675.784 164.017 675.784 163.455C675.784 163 675.625 162.619 675.307 162.312C674.989 162 674.5 161.767 673.841 161.614L671.659 161.102C670.461 160.818 669.58 160.378 669.017 159.781C668.461 159.179 668.182 158.426 668.182 157.523C668.182 156.784 668.39 156.131 668.804 155.562C669.225 154.994 669.796 154.548 670.517 154.224C671.245 153.901 672.069 153.739 672.989 153.739C674.284 153.739 675.301 154.023 676.04 154.591C676.784 155.159 677.313 155.909 677.625 156.841Z" fill="white"/>
<rect x="635" y="237" width="197" height="70" fill="#1D7AAE"/>
<path d="M688.041 263.545H690.154V275.102C690.154 276.295 689.873 277.361 689.311 278.298C688.754 279.23 687.967 279.966 686.95 280.506C685.933 281.04 684.74 281.307 683.37 281.307C682.001 281.307 680.808 281.04 679.791 280.506C678.774 279.966 677.984 279.23 677.422 278.298C676.865 277.361 676.586 276.295 676.586 275.102V263.545H678.7V274.932C678.7 275.784 678.887 276.543 679.262 277.207C679.637 277.866 680.172 278.386 680.865 278.767C681.564 279.142 682.399 279.33 683.37 279.33C684.342 279.33 685.177 279.142 685.876 278.767C686.575 278.386 687.109 277.866 687.478 277.207C687.853 276.543 688.041 275.784 688.041 274.932V263.545ZM695.398 263.545L699.898 270.807H700.034L704.534 263.545H707.023L701.534 272.273L707.023 281H704.534L700.034 273.875H699.898L695.398 281H692.909L698.534 272.273L692.909 263.545H695.398ZM721.91 281H716.524V263.545H722.149C723.842 263.545 725.291 263.895 726.495 264.594C727.7 265.287 728.623 266.284 729.265 267.585C729.907 268.881 730.228 270.432 730.228 272.239C730.228 274.057 729.904 275.622 729.257 276.935C728.609 278.241 727.666 279.247 726.427 279.952C725.189 280.651 723.683 281 721.91 281ZM718.637 279.125H721.774C723.217 279.125 724.413 278.847 725.362 278.29C726.311 277.733 727.018 276.94 727.484 275.912C727.95 274.884 728.183 273.659 728.183 272.239C728.183 270.83 727.953 269.616 727.493 268.599C727.032 267.577 726.345 266.793 725.43 266.247C724.515 265.696 723.376 265.42 722.012 265.42H718.637V279.125ZM738.99 281.273C737.728 281.273 736.64 280.994 735.725 280.438C734.816 279.875 734.115 279.091 733.62 278.085C733.132 277.074 732.887 275.898 732.887 274.557C732.887 273.216 733.132 272.034 733.62 271.011C734.115 269.983 734.802 269.182 735.683 268.608C736.569 268.028 737.603 267.739 738.785 267.739C739.467 267.739 740.14 267.852 740.805 268.08C741.47 268.307 742.075 268.676 742.62 269.188C743.166 269.693 743.6 270.364 743.924 271.199C744.248 272.034 744.41 273.062 744.41 274.284V275.136H734.319V273.398H742.365C742.365 272.659 742.217 272 741.922 271.42C741.632 270.841 741.217 270.384 740.677 270.048C740.143 269.713 739.512 269.545 738.785 269.545C737.984 269.545 737.291 269.744 736.706 270.142C736.126 270.534 735.68 271.045 735.368 271.676C735.055 272.307 734.899 272.983 734.899 273.705V274.864C734.899 275.852 735.069 276.69 735.41 277.378C735.757 278.06 736.237 278.58 736.85 278.938C737.464 279.29 738.177 279.466 738.99 279.466C739.518 279.466 739.995 279.392 740.422 279.244C740.853 279.091 741.225 278.864 741.538 278.562C741.85 278.256 742.092 277.875 742.262 277.42L744.206 277.966C744.001 278.625 743.657 279.205 743.174 279.705C742.691 280.199 742.095 280.585 741.385 280.864C740.674 281.136 739.876 281.273 738.99 281.273ZM756.743 270.841L754.936 271.352C754.822 271.051 754.654 270.759 754.433 270.474C754.217 270.185 753.922 269.946 753.547 269.759C753.172 269.571 752.691 269.477 752.106 269.477C751.305 269.477 750.637 269.662 750.103 270.031C749.575 270.395 749.311 270.858 749.311 271.42C749.311 271.92 749.493 272.315 749.856 272.605C750.22 272.895 750.788 273.136 751.561 273.33L753.504 273.807C754.674 274.091 755.547 274.526 756.12 275.111C756.694 275.69 756.981 276.437 756.981 277.352C756.981 278.102 756.765 278.773 756.333 279.364C755.907 279.955 755.311 280.42 754.544 280.761C753.777 281.102 752.885 281.273 751.868 281.273C750.532 281.273 749.427 280.983 748.552 280.403C747.677 279.824 747.123 278.977 746.89 277.864L748.799 277.386C748.981 278.091 749.325 278.619 749.831 278.972C750.342 279.324 751.01 279.5 751.833 279.5C752.771 279.5 753.515 279.301 754.066 278.903C754.623 278.5 754.902 278.017 754.902 277.455C754.902 277 754.743 276.619 754.424 276.312C754.106 276 753.618 275.767 752.958 275.614L750.777 275.102C749.578 274.818 748.697 274.378 748.135 273.781C747.578 273.179 747.299 272.426 747.299 271.523C747.299 270.784 747.507 270.131 747.922 269.562C748.342 268.994 748.913 268.548 749.635 268.224C750.362 267.901 751.186 267.739 752.106 267.739C753.402 267.739 754.419 268.023 755.157 268.591C755.902 269.159 756.43 269.909 756.743 270.841ZM760.009 281V267.909H762.02V281H760.009ZM761.032 265.727C760.64 265.727 760.301 265.594 760.017 265.327C759.739 265.06 759.6 264.739 759.6 264.364C759.6 263.989 759.739 263.668 760.017 263.401C760.301 263.134 760.64 263 761.032 263C761.424 263 761.759 263.134 762.037 263.401C762.321 263.668 762.463 263.989 762.463 264.364C762.463 264.739 762.321 265.06 762.037 265.327C761.759 265.594 761.424 265.727 761.032 265.727ZM770.988 286.182C770.017 286.182 769.181 286.057 768.483 285.807C767.784 285.562 767.201 285.239 766.735 284.835C766.275 284.438 765.909 284.011 765.636 283.557L767.238 282.432C767.42 282.67 767.65 282.943 767.929 283.25C768.207 283.562 768.588 283.832 769.071 284.06C769.559 284.293 770.199 284.409 770.988 284.409C772.045 284.409 772.917 284.153 773.605 283.642C774.292 283.131 774.636 282.33 774.636 281.239V278.58H774.466C774.318 278.818 774.108 279.114 773.835 279.466C773.568 279.812 773.181 280.122 772.676 280.395C772.176 280.662 771.5 280.795 770.647 280.795C769.591 280.795 768.642 280.545 767.801 280.045C766.966 279.545 766.304 278.818 765.815 277.864C765.332 276.909 765.091 275.75 765.091 274.386C765.091 273.045 765.326 271.878 765.798 270.884C766.27 269.884 766.926 269.111 767.767 268.565C768.608 268.014 769.579 267.739 770.681 267.739C771.534 267.739 772.21 267.881 772.71 268.165C773.216 268.443 773.602 268.761 773.869 269.119C774.142 269.472 774.352 269.761 774.5 269.989H774.704V267.909H776.647V281.375C776.647 282.5 776.392 283.415 775.88 284.119C775.375 284.83 774.693 285.349 773.835 285.679C772.983 286.014 772.034 286.182 770.988 286.182ZM770.92 278.989C771.727 278.989 772.409 278.804 772.966 278.435C773.522 278.065 773.946 277.534 774.235 276.841C774.525 276.148 774.67 275.318 774.67 274.352C774.67 273.409 774.528 272.577 774.244 271.855C773.96 271.134 773.539 270.568 772.983 270.159C772.426 269.75 771.738 269.545 770.92 269.545C770.068 269.545 769.358 269.761 768.789 270.193C768.227 270.625 767.804 271.205 767.52 271.932C767.241 272.659 767.102 273.466 767.102 274.352C767.102 275.261 767.244 276.065 767.528 276.764C767.818 277.457 768.244 278.003 768.806 278.401C769.375 278.793 770.079 278.989 770.92 278.989ZM782.341 273.125V281H780.329V267.909H782.272V269.955H782.443C782.75 269.29 783.216 268.756 783.841 268.352C784.466 267.943 785.272 267.739 786.261 267.739C787.147 267.739 787.923 267.92 788.588 268.284C789.252 268.642 789.77 269.188 790.139 269.92C790.508 270.648 790.693 271.568 790.693 272.682V281H788.681V272.818C788.681 271.79 788.414 270.989 787.88 270.415C787.346 269.835 786.613 269.545 785.681 269.545C785.039 269.545 784.466 269.685 783.96 269.963C783.46 270.241 783.065 270.648 782.775 271.182C782.485 271.716 782.341 272.364 782.341 273.125Z" fill="white"/>
<rect x="375" y="237" width="197" height="70" fill="#1D7AAE"/>
<path d="M411.132 281L406.359 263.545H408.507L412.154 277.761H412.325L416.041 263.545H418.427L422.143 277.761H422.314L425.961 263.545H428.109L423.336 281H421.154L417.302 267.091H417.166L413.314 281H411.132ZM434.74 281.273C433.478 281.273 432.39 280.994 431.475 280.438C430.566 279.875 429.865 279.091 429.37 278.085C428.882 277.074 428.637 275.898 428.637 274.557C428.637 273.216 428.882 272.034 429.37 271.011C429.865 269.983 430.552 269.182 431.433 268.608C432.319 268.028 433.353 267.739 434.535 267.739C435.217 267.739 435.89 267.852 436.555 268.08C437.22 268.307 437.825 268.676 438.37 269.188C438.916 269.693 439.35 270.364 439.674 271.199C439.998 272.034 440.16 273.062 440.16 274.284V275.136H430.069V273.398H438.115C438.115 272.659 437.967 272 437.672 271.42C437.382 270.841 436.967 270.384 436.427 270.048C435.893 269.713 435.262 269.545 434.535 269.545C433.734 269.545 433.041 269.744 432.456 270.142C431.876 270.534 431.43 271.045 431.118 271.676C430.805 272.307 430.649 272.983 430.649 273.705V274.864C430.649 275.852 430.819 276.69 431.16 277.378C431.507 278.06 431.987 278.58 432.6 278.938C433.214 279.29 433.927 279.466 434.74 279.466C435.268 279.466 435.745 279.392 436.172 279.244C436.603 279.091 436.975 278.864 437.288 278.562C437.6 278.256 437.842 277.875 438.012 277.42L439.956 277.966C439.751 278.625 439.407 279.205 438.924 279.705C438.441 280.199 437.845 280.585 437.135 280.864C436.424 281.136 435.626 281.273 434.74 281.273ZM443.493 281V263.545H445.504V269.989H445.674C445.822 269.761 446.027 269.472 446.288 269.119C446.555 268.761 446.936 268.443 447.43 268.165C447.93 267.881 448.606 267.739 449.458 267.739C450.561 267.739 451.532 268.014 452.373 268.565C453.214 269.116 453.87 269.898 454.342 270.909C454.814 271.92 455.049 273.114 455.049 274.489C455.049 275.875 454.814 277.077 454.342 278.094C453.87 279.105 453.217 279.889 452.382 280.446C451.547 280.997 450.583 281.273 449.493 281.273C448.652 281.273 447.978 281.134 447.473 280.855C446.967 280.571 446.578 280.25 446.305 279.892C446.032 279.528 445.822 279.227 445.674 278.989H445.436V281H443.493ZM445.47 274.455C445.47 275.443 445.615 276.315 445.904 277.071C446.194 277.821 446.618 278.409 447.174 278.835C447.731 279.256 448.413 279.466 449.22 279.466C450.061 279.466 450.762 279.244 451.325 278.801C451.893 278.352 452.319 277.75 452.603 276.994C452.893 276.233 453.038 275.386 453.038 274.455C453.038 273.534 452.896 272.705 452.612 271.966C452.333 271.222 451.91 270.634 451.342 270.202C450.779 269.764 450.072 269.545 449.22 269.545C448.402 269.545 447.714 269.753 447.157 270.168C446.6 270.577 446.18 271.151 445.896 271.889C445.612 272.622 445.47 273.477 445.47 274.455ZM470.535 281H465.149V263.545H470.774C472.467 263.545 473.916 263.895 475.12 264.594C476.325 265.287 477.248 266.284 477.89 267.585C478.532 268.881 478.853 270.432 478.853 272.239C478.853 274.057 478.529 275.622 477.882 276.935C477.234 278.241 476.291 279.247 475.052 279.952C473.814 280.651 472.308 281 470.535 281ZM467.262 279.125H470.399C471.842 279.125 473.038 278.847 473.987 278.29C474.936 277.733 475.643 276.94 476.109 275.912C476.575 274.884 476.808 273.659 476.808 272.239C476.808 270.83 476.578 269.616 476.118 268.599C475.657 267.577 474.97 266.793 474.055 266.247C473.14 265.696 472.001 265.42 470.637 265.42H467.262V279.125ZM487.615 281.273C486.353 281.273 485.265 280.994 484.35 280.438C483.441 279.875 482.74 279.091 482.245 278.085C481.757 277.074 481.512 275.898 481.512 274.557C481.512 273.216 481.757 272.034 482.245 271.011C482.74 269.983 483.427 269.182 484.308 268.608C485.194 268.028 486.228 267.739 487.41 267.739C488.092 267.739 488.765 267.852 489.43 268.08C490.095 268.307 490.7 268.676 491.245 269.188C491.791 269.693 492.225 270.364 492.549 271.199C492.873 272.034 493.035 273.062 493.035 274.284V275.136H482.944V273.398H490.99C490.99 272.659 490.842 272 490.547 271.42C490.257 270.841 489.842 270.384 489.302 270.048C488.768 269.713 488.137 269.545 487.41 269.545C486.609 269.545 485.916 269.744 485.331 270.142C484.751 270.534 484.305 271.045 483.993 271.676C483.68 272.307 483.524 272.983 483.524 273.705V274.864C483.524 275.852 483.694 276.69 484.035 277.378C484.382 278.06 484.862 278.58 485.475 278.938C486.089 279.29 486.802 279.466 487.615 279.466C488.143 279.466 488.62 279.392 489.047 279.244C489.478 279.091 489.85 278.864 490.163 278.562C490.475 278.256 490.717 277.875 490.887 277.42L492.831 277.966C492.626 278.625 492.282 279.205 491.799 279.705C491.316 280.199 490.72 280.585 490.01 280.864C489.299 281.136 488.501 281.273 487.615 281.273ZM505.368 270.841L503.561 271.352C503.447 271.051 503.279 270.759 503.058 270.474C502.842 270.185 502.547 269.946 502.172 269.759C501.797 269.571 501.316 269.477 500.731 269.477C499.93 269.477 499.262 269.662 498.728 270.031C498.2 270.395 497.936 270.858 497.936 271.42C497.936 271.92 498.118 272.315 498.481 272.605C498.845 272.895 499.413 273.136 500.186 273.33L502.129 273.807C503.299 274.091 504.172 274.526 504.745 275.111C505.319 275.69 505.606 276.437 505.606 277.352C505.606 278.102 505.39 278.773 504.958 279.364C504.532 279.955 503.936 280.42 503.169 280.761C502.402 281.102 501.51 281.273 500.493 281.273C499.157 281.273 498.052 280.983 497.177 280.403C496.302 279.824 495.748 278.977 495.515 277.864L497.424 277.386C497.606 278.091 497.95 278.619 498.456 278.972C498.967 279.324 499.635 279.5 500.458 279.5C501.396 279.5 502.14 279.301 502.691 278.903C503.248 278.5 503.527 278.017 503.527 277.455C503.527 277 503.368 276.619 503.049 276.312C502.731 276 502.243 275.767 501.583 275.614L499.402 275.102C498.203 274.818 497.322 274.378 496.76 273.781C496.203 273.179 495.924 272.426 495.924 271.523C495.924 270.784 496.132 270.131 496.547 269.562C496.967 268.994 497.538 268.548 498.26 268.224C498.987 267.901 499.811 267.739 500.731 267.739C502.027 267.739 503.044 268.023 503.782 268.591C504.527 269.159 505.055 269.909 505.368 270.841ZM508.634 281V267.909H510.645V281H508.634ZM509.657 265.727C509.265 265.727 508.926 265.594 508.642 265.327C508.364 265.06 508.225 264.739 508.225 264.364C508.225 263.989 508.364 263.668 508.642 263.401C508.926 263.134 509.265 263 509.657 263C510.049 263 510.384 263.134 510.662 263.401C510.946 263.668 511.088 263.989 511.088 264.364C511.088 264.739 510.946 265.06 510.662 265.327C510.384 265.594 510.049 265.727 509.657 265.727ZM519.613 286.182C518.642 286.182 517.806 286.057 517.108 285.807C516.409 285.562 515.826 285.239 515.36 284.835C514.9 284.438 514.534 284.011 514.261 283.557L515.863 282.432C516.045 282.67 516.275 282.943 516.554 283.25C516.832 283.562 517.213 283.832 517.696 284.06C518.184 284.293 518.824 284.409 519.613 284.409C520.67 284.409 521.542 284.153 522.23 283.642C522.917 283.131 523.261 282.33 523.261 281.239V278.58H523.091C522.943 278.818 522.733 279.114 522.46 279.466C522.193 279.812 521.806 280.122 521.301 280.395C520.801 280.662 520.125 280.795 519.272 280.795C518.216 280.795 517.267 280.545 516.426 280.045C515.591 279.545 514.929 278.818 514.44 277.864C513.957 276.909 513.716 275.75 513.716 274.386C513.716 273.045 513.951 271.878 514.423 270.884C514.895 269.884 515.551 269.111 516.392 268.565C517.233 268.014 518.204 267.739 519.306 267.739C520.159 267.739 520.835 267.881 521.335 268.165C521.841 268.443 522.227 268.761 522.494 269.119C522.767 269.472 522.977 269.761 523.125 269.989H523.329V267.909H525.272V281.375C525.272 282.5 525.017 283.415 524.505 284.119C524 284.83 523.318 285.349 522.46 285.679C521.608 286.014 520.659 286.182 519.613 286.182ZM519.545 278.989C520.352 278.989 521.034 278.804 521.591 278.435C522.147 278.065 522.571 277.534 522.86 276.841C523.15 276.148 523.295 275.318 523.295 274.352C523.295 273.409 523.153 272.577 522.869 271.855C522.585 271.134 522.164 270.568 521.608 270.159C521.051 269.75 520.363 269.545 519.545 269.545C518.693 269.545 517.983 269.761 517.414 270.193C516.852 270.625 516.429 271.205 516.145 271.932C515.866 272.659 515.727 273.466 515.727 274.352C515.727 275.261 515.869 276.065 516.153 276.764C516.443 277.457 516.869 278.003 517.431 278.401C518 278.793 518.704 278.989 519.545 278.989ZM530.966 273.125V281H528.954V267.909H530.897V269.955H531.068C531.375 269.29 531.841 268.756 532.466 268.352C533.091 267.943 533.897 267.739 534.886 267.739C535.772 267.739 536.548 267.92 537.213 268.284C537.877 268.642 538.395 269.188 538.764 269.92C539.133 270.648 539.318 271.568 539.318 272.682V281H537.306V272.818C537.306 271.79 537.039 270.989 536.505 270.415C535.971 269.835 535.238 269.545 534.306 269.545C533.664 269.545 533.091 269.685 532.585 269.963C532.085 270.241 531.69 270.648 531.4 271.182C531.11 271.716 530.966 272.364 530.966 273.125Z" fill="white"/>
<rect x="248" y="123" width="197" height="70" fill="#1D7AAE"/>
<path d="M303.368 167V149.545H309.265C310.629 149.545 311.748 149.778 312.623 150.244C313.498 150.705 314.146 151.338 314.566 152.145C314.987 152.952 315.197 153.869 315.197 154.898C315.197 155.926 314.987 156.838 314.566 157.634C314.146 158.429 313.501 159.054 312.632 159.509C311.762 159.957 310.652 160.182 309.299 160.182H304.527V158.273H309.231C310.163 158.273 310.913 158.136 311.481 157.864C312.055 157.591 312.47 157.205 312.725 156.705C312.987 156.199 313.118 155.597 313.118 154.898C313.118 154.199 312.987 153.588 312.725 153.065C312.464 152.543 312.047 152.139 311.473 151.855C310.899 151.565 310.14 151.42 309.197 151.42H305.481V167H303.368ZM311.583 159.159L315.879 167H313.424L309.197 159.159H311.583ZM323.794 167.273C322.533 167.273 321.445 166.994 320.53 166.438C319.621 165.875 318.919 165.091 318.425 164.085C317.936 163.074 317.692 161.898 317.692 160.557C317.692 159.216 317.936 158.034 318.425 157.011C318.919 155.983 319.607 155.182 320.488 154.608C321.374 154.028 322.408 153.739 323.59 153.739C324.272 153.739 324.945 153.852 325.61 154.08C326.275 154.307 326.88 154.676 327.425 155.188C327.971 155.693 328.405 156.364 328.729 157.199C329.053 158.034 329.215 159.062 329.215 160.284V161.136H319.124V159.398H327.169C327.169 158.659 327.022 158 326.726 157.42C326.436 156.841 326.022 156.384 325.482 156.048C324.948 155.713 324.317 155.545 323.59 155.545C322.789 155.545 322.096 155.744 321.51 156.142C320.931 156.534 320.485 157.045 320.172 157.676C319.86 158.307 319.703 158.983 319.703 159.705V160.864C319.703 161.852 319.874 162.69 320.215 163.378C320.561 164.06 321.042 164.58 321.655 164.938C322.269 165.29 322.982 165.466 323.794 165.466C324.323 165.466 324.8 165.392 325.226 165.244C325.658 165.091 326.03 164.864 326.343 164.562C326.655 164.256 326.897 163.875 327.067 163.42L329.01 163.966C328.806 164.625 328.462 165.205 327.979 165.705C327.496 166.199 326.9 166.585 326.189 166.864C325.479 167.136 324.681 167.273 323.794 167.273ZM341.547 156.841L339.74 157.352C339.627 157.051 339.459 156.759 339.238 156.474C339.022 156.185 338.726 155.946 338.351 155.759C337.976 155.571 337.496 155.477 336.911 155.477C336.11 155.477 335.442 155.662 334.908 156.031C334.38 156.395 334.115 156.858 334.115 157.42C334.115 157.92 334.297 158.315 334.661 158.605C335.025 158.895 335.593 159.136 336.365 159.33L338.309 159.807C339.479 160.091 340.351 160.526 340.925 161.111C341.499 161.69 341.786 162.437 341.786 163.352C341.786 164.102 341.57 164.773 341.138 165.364C340.712 165.955 340.115 166.42 339.348 166.761C338.581 167.102 337.689 167.273 336.672 167.273C335.337 167.273 334.232 166.983 333.357 166.403C332.482 165.824 331.928 164.977 331.695 163.864L333.604 163.386C333.786 164.091 334.13 164.619 334.635 164.972C335.147 165.324 335.814 165.5 336.638 165.5C337.576 165.5 338.32 165.301 338.871 164.903C339.428 164.5 339.706 164.017 339.706 163.455C339.706 163 339.547 162.619 339.229 162.312C338.911 162 338.422 161.767 337.763 161.614L335.581 161.102C334.382 160.818 333.502 160.378 332.939 159.781C332.382 159.179 332.104 158.426 332.104 157.523C332.104 156.784 332.311 156.131 332.726 155.562C333.147 154.994 333.718 154.548 334.439 154.224C335.167 153.901 335.99 153.739 336.911 153.739C338.206 153.739 339.223 154.023 339.962 154.591C340.706 155.159 341.235 155.909 341.547 156.841ZM353.064 161.648V153.909H355.075V167H353.064V164.784H352.927C352.62 165.449 352.143 166.014 351.495 166.48C350.848 166.94 350.029 167.17 349.041 167.17C348.223 167.17 347.495 166.991 346.859 166.634C346.223 166.27 345.723 165.724 345.359 164.997C344.995 164.264 344.814 163.341 344.814 162.227V153.909H346.825V162.091C346.825 163.045 347.092 163.807 347.626 164.375C348.166 164.943 348.853 165.227 349.689 165.227C350.189 165.227 350.697 165.099 351.214 164.844C351.737 164.588 352.174 164.196 352.527 163.668C352.885 163.139 353.064 162.466 353.064 161.648ZM358.759 167V153.909H360.702V155.955H360.873C361.145 155.256 361.586 154.713 362.194 154.327C362.801 153.935 363.532 153.739 364.384 153.739C365.248 153.739 365.966 153.935 366.54 154.327C367.12 154.713 367.571 155.256 367.895 155.955H368.032C368.367 155.278 368.87 154.741 369.54 154.344C370.211 153.94 371.015 153.739 371.952 153.739C373.123 153.739 374.08 154.105 374.824 154.838C375.569 155.565 375.941 156.699 375.941 158.239V167H373.929V158.239C373.929 157.273 373.665 156.582 373.137 156.168C372.608 155.753 371.986 155.545 371.27 155.545C370.35 155.545 369.637 155.824 369.131 156.381C368.625 156.932 368.373 157.631 368.373 158.477V167H366.327V158.034C366.327 157.29 366.086 156.69 365.603 156.236C365.12 155.776 364.498 155.545 363.736 155.545C363.213 155.545 362.725 155.685 362.27 155.963C361.821 156.241 361.458 156.628 361.179 157.122C360.907 157.611 360.77 158.176 360.77 158.818V167H358.759ZM385.107 167.273C383.846 167.273 382.757 166.994 381.843 166.438C380.934 165.875 380.232 165.091 379.738 164.085C379.249 163.074 379.005 161.898 379.005 160.557C379.005 159.216 379.249 158.034 379.738 157.011C380.232 155.983 380.919 155.182 381.8 154.608C382.686 154.028 383.721 153.739 384.902 153.739C385.584 153.739 386.257 153.852 386.922 154.08C387.587 154.307 388.192 154.676 388.738 155.188C389.283 155.693 389.718 156.364 390.042 157.199C390.365 158.034 390.527 159.062 390.527 160.284V161.136H380.436V159.398H388.482C388.482 158.659 388.334 158 388.039 157.42C387.749 156.841 387.334 156.384 386.794 156.048C386.26 155.713 385.63 155.545 384.902 155.545C384.101 155.545 383.408 155.744 382.823 156.142C382.243 156.534 381.797 157.045 381.485 157.676C381.172 158.307 381.016 158.983 381.016 159.705V160.864C381.016 161.852 381.186 162.69 381.527 163.378C381.874 164.06 382.354 164.58 382.968 164.938C383.581 165.29 384.294 165.466 385.107 165.466C385.635 165.466 386.113 165.392 386.539 165.244C386.971 165.091 387.343 164.864 387.655 164.562C387.968 164.256 388.209 163.875 388.38 163.42L390.323 163.966C390.118 164.625 389.775 165.205 389.292 165.705C388.809 166.199 388.212 166.585 387.502 166.864C386.792 167.136 385.993 167.273 385.107 167.273Z" fill="white"/>
<path d="M472.757 70V95M472.757 95H354.439M472.757 95H603.452M98 123V95H354.439M849 123V95H603.452M354.439 95V123M603.452 95V123" stroke="black" stroke-width="2"/>
<path d="M602.749 193V214.224M602.749 214.224H476V237M602.749 214.224H731V237" stroke="black" stroke-width="2"/>
</svg>
