<svg width="236" height="125" viewBox="0 0 236 125" fill="none" xmlns="http://www.w3.org/2000/svg">
<rect width="236" height="125" fill="#B43668"/>
<path d="M45.5969 96.128C40.5409 96.128 36.9889 94.624 34.9409 91.616C34.2369 90.656 33.8849 89.408 33.8849 87.872C33.8849 86.144 34.4289 84.64 35.5169 83.36C36.7969 81.888 38.3969 81.152 40.3169 81.152C41.5969 81.152 42.6209 81.6 43.3889 82.496C44.0929 83.2 44.4449 84.16 44.4449 85.376C44.4449 86.912 43.9009 88.16 42.8129 89.12C41.7249 90.016 40.5729 90.464 39.3569 90.464C38.2689 90.464 37.2769 90.08 36.3809 89.312C37.4689 91.744 39.4209 92.96 42.2369 92.96C48.8289 92.96 55.0049 88.672 60.7649 80.096C62.2369 77.984 63.6769 75.776 65.0849 73.472C66.4929 71.104 67.9009 68.64 69.3089 66.08C70.5889 63.648 71.8689 61.216 73.1489 58.784C74.4289 56.352 75.7089 53.92 76.9889 51.488C82.2369 41.568 88.0289 35.68 94.3649 33.824C91.9329 33.504 89.5009 33.152 87.0689 32.768C84.7009 32.384 82.3009 32 79.8689 31.616C76.9889 31.168 74.3329 30.848 71.9009 30.656C69.5329 30.464 67.4209 30.368 65.5649 30.368C58.0129 30.368 51.9009 31.936 47.2289 35.072C44.5409 36.864 42.3969 39.04 40.7969 41.6C39.1329 44.224 38.3009 46.752 38.3009 49.184C38.3009 54.816 42.0769 57.632 49.6289 57.632C52.1889 57.632 54.7489 57.152 57.3089 56.192C59.8689 55.168 62.4929 53.728 65.1809 51.872C67.4209 50.208 69.5009 48.352 71.4209 46.304C73.3409 44.192 75.0369 41.856 76.5089 39.296C76.8289 38.784 77.2449 38.528 77.7569 38.528C78.5249 38.528 78.7489 38.816 78.4289 39.392C77.1489 42.336 75.5809 45.024 73.7249 47.456C71.8689 49.824 69.6929 51.936 67.1969 53.792C62.0769 57.504 56.4129 59.36 50.2049 59.36C47.4529 59.36 44.9889 59.008 42.8129 58.304C40.6369 57.536 38.8129 56.384 37.3409 54.848C34.9089 52.288 33.6929 49.216 33.6929 45.632C33.6929 42.496 34.6529 39.456 36.5729 36.512C38.4929 33.504 41.2129 31.104 44.7329 29.312C50.4929 26.496 56.8609 25.088 63.8369 25.088C66.3329 25.088 69.3409 25.312 72.8609 25.76C76.3809 26.208 80.4129 26.88 84.9569 27.776C91.0369 28.992 96.0289 29.888 99.9329 30.464C103.837 31.04 106.653 31.328 108.381 31.328C112.157 31.328 115.197 30.656 117.501 29.312C117.885 29.12 118.205 29.024 118.461 29.024C118.845 29.024 119.037 29.28 119.037 29.792C119.037 30.24 118.781 30.624 118.269 30.944C114.045 33.824 108.701 35.072 102.237 34.688L99.1649 34.4C93.0209 35.104 87.9329 40.416 83.9009 50.336C78.5249 63.456 75.3249 71.008 74.3009 72.992C70.0129 81.312 64.9249 87.584 59.0369 91.808C55.0049 94.688 50.5249 96.128 45.5969 96.128ZM96.6801 93.344C95.6561 93.344 94.7921 92.96 94.0881 92.192C93.5761 91.552 93.3201 90.88 93.3201 90.176C93.3201 88.768 93.8641 87.584 94.9521 86.624C95.9121 85.856 96.9361 85.472 98.0241 85.472C99.1121 85.472 99.9761 85.856 100.616 86.624C101.128 87.264 101.384 87.936 101.384 88.64C101.384 89.984 100.808 91.168 99.6561 92.192C98.8241 92.96 97.8321 93.344 96.6801 93.344ZM109.398 101.12C104.086 101.12 101.43 98.816 101.43 94.208C101.43 92.672 101.91 91.232 102.87 89.888C103.894 88.48 105.174 87.776 106.71 87.776C108.054 87.776 109.206 88.256 110.166 89.216C110.998 90.176 111.414 91.2 111.414 92.288C111.414 95.36 110.038 96.896 107.286 96.896C105.622 96.896 104.47 96.256 103.83 94.976C104.214 97.28 106.166 98.432 109.686 98.432C110.39 98.432 111.062 98.336 111.702 98.144C118.934 96.224 125.974 89.184 132.822 77.024C133.974 74.976 135.318 72.352 136.854 69.152C138.39 65.888 140.15 62.048 142.134 57.632C145.718 49.696 148.79 43.616 151.35 39.392C155.318 32.992 160.022 27.456 165.462 22.784L163.734 22.496C162.71 22.304 161.622 22.176 160.47 22.112C159.382 22.048 158.198 22.016 156.918 22.016C154.614 22.016 152.278 22.144 149.91 22.4C147.606 22.656 145.27 23.04 142.902 23.552C140.534 24.064 138.39 24.672 136.47 25.376C134.614 26.08 132.95 26.848 131.478 27.68C124.246 31.904 120.63 36.128 120.63 40.352C120.63 43.808 122.966 45.536 127.638 45.536C130.326 45.536 133.398 44.8 136.854 43.328C140.31 41.792 143.286 39.776 145.782 37.28C146.038 37.152 146.23 37.088 146.358 37.088C146.87 37.088 147.126 37.312 147.126 37.76C147.126 37.888 147.094 37.984 147.03 38.048C145.11 40.544 142.23 42.72 138.39 44.576C134.55 46.432 130.614 47.36 126.582 47.36C122.998 47.36 120.022 46.656 117.654 45.248C115.286 43.84 114.102 41.952 114.102 39.584C114.102 37.344 115.286 34.848 117.654 32.096C121.046 28.128 126.454 25.088 133.878 22.976C137.014 22.08 140.278 21.408 143.67 20.96C147.126 20.512 150.742 20.288 154.518 20.288C156.566 20.288 158.518 20.384 160.374 20.576C162.23 20.768 164.022 20.96 165.75 21.152C165.878 21.152 166.07 21.184 166.326 21.248C166.646 21.248 167.03 21.28 167.478 21.344C168.502 20.832 169.334 20.704 169.974 20.96C170.678 20.832 171.318 20.736 171.894 20.672C172.47 20.608 173.014 20.576 173.526 20.576C176.598 20.576 178.134 21.376 178.134 22.976C178.134 23.744 177.718 24.352 176.886 24.8C175.99 25.248 174.998 25.472 173.91 25.472C172.438 25.472 170.614 24.832 168.438 23.552C165.366 25.344 163.83 29.984 163.83 37.472C163.83 43.104 164.502 49.28 165.846 56C167.254 62.72 169.334 70.048 172.086 77.984C172.79 79.904 173.238 80.864 173.43 80.864C173.494 80.864 173.526 79.776 173.526 77.6C173.718 65.248 176.47 53.184 181.782 41.408C188.374 27.008 196.886 19.808 207.318 19.808C212.118 19.808 214.518 21.408 214.518 24.608C214.518 26.08 214.102 27.36 213.27 28.448C212.246 29.792 210.998 30.464 209.526 30.464C208.31 30.464 207.318 30.048 206.55 29.216C205.782 28.448 205.398 27.584 205.398 26.624C205.398 23.744 206.774 22.304 209.526 22.304C210.806 22.304 211.766 22.816 212.406 23.84C212.15 21.984 210.71 21.056 208.086 21.056C207.254 21.056 206.39 21.184 205.494 21.44C204.662 21.632 203.83 21.984 202.998 22.496C196.662 26.4 190.294 35.456 183.894 49.664C177.622 63.424 174.646 74.592 174.966 83.168C175.99 84.384 176.758 85.28 177.27 85.856C177.782 86.432 178.07 86.752 178.134 86.816C179.414 88.544 180.054 90.272 180.054 92C180.054 93.024 179.734 93.952 179.094 94.784C178.454 95.616 177.622 96.032 176.598 96.032C174.806 96.032 173.558 94.688 172.854 92C172.79 91.552 172.694 91.072 172.566 90.56C172.502 90.048 172.47 89.504 172.47 88.928C172.47 87.52 172.662 85.92 173.046 84.128C170.038 79.264 167.254 72.704 164.694 64.448C161.622 54.656 160.086 46.176 160.086 39.008C160.086 34.528 160.694 30.88 161.91 28.064C157.942 30.688 154.07 38.112 150.294 50.336C147.926 58.08 145.75 64.576 143.766 69.824C141.782 75.008 139.99 78.944 138.39 81.632C131.99 92.64 123.094 99.072 111.702 100.928C111.318 100.992 110.934 101.024 110.55 101.024C110.166 101.088 109.782 101.12 109.398 101.12ZM197.461 93.344C196.437 93.344 195.573 92.96 194.869 92.192C194.357 91.552 194.101 90.88 194.101 90.176C194.101 88.768 194.645 87.584 195.733 86.624C196.693 85.856 197.717 85.472 198.805 85.472C199.893 85.472 200.757 85.856 201.397 86.624C201.909 87.264 202.165 87.936 202.165 88.64C202.165 89.984 201.589 91.168 200.437 92.192C199.605 92.96 198.613 93.344 197.461 93.344Z" fill="white"/>
</svg>
