<svg width="299" height="255" viewBox="0 0 299 255" fill="none" xmlns="http://www.w3.org/2000/svg">
<circle cx="113" cy="95" r="50" fill="#B630D7" fill-opacity="0.85"/>
<path d="M92.2106 98L90.6197 92.1818H91.3356L92.5515 96.9205H92.6083L93.8469 92.1818H94.6424L95.881 96.9205H95.9379L97.1538 92.1818H97.8697L96.2788 98H95.5515L94.2674 93.3636H94.2219L92.9379 98H92.2106ZM100.08 98.0909C99.6594 98.0909 99.2968 97.9981 98.9918 97.8125C98.6888 97.625 98.4549 97.3636 98.2901 97.0284C98.1272 96.6913 98.0458 96.2992 98.0458 95.8523C98.0458 95.4053 98.1272 95.0114 98.2901 94.6705C98.4549 94.3277 98.6841 94.0606 98.9776 93.8693C99.2731 93.6761 99.6178 93.5795 100.012 93.5795C100.239 93.5795 100.463 93.6174 100.685 93.6932C100.907 93.7689 101.108 93.892 101.29 94.0625C101.472 94.2311 101.617 94.4545 101.725 94.733C101.833 95.0114 101.887 95.3542 101.887 95.7614V96.0455H98.5231V95.4659H101.205C101.205 95.2197 101.156 95 101.057 94.8068C100.961 94.6136 100.822 94.4612 100.642 94.3494C100.464 94.2377 100.254 94.1818 100.012 94.1818C99.7447 94.1818 99.5136 94.2481 99.3185 94.3807C99.1254 94.5114 98.9767 94.6818 98.8725 94.892C98.7683 95.1023 98.7163 95.3277 98.7163 95.5682V95.9545C98.7163 96.2841 98.7731 96.5634 98.8867 96.7926C99.0022 97.0199 99.1623 97.1932 99.3668 97.3125C99.5714 97.4299 99.8091 97.4886 100.08 97.4886C100.256 97.4886 100.415 97.464 100.557 97.4148C100.701 97.3636 100.825 97.2879 100.929 97.1875C101.033 97.0852 101.114 96.9583 101.171 96.8068L101.819 96.9886C101.75 97.2083 101.636 97.4015 101.475 97.5682C101.314 97.733 101.115 97.8617 100.878 97.9545C100.641 98.0455 100.375 98.0909 100.08 98.0909ZM102.998 98V92.1818H103.668V94.3295H103.725C103.774 94.2538 103.842 94.1572 103.929 94.0398C104.018 93.9205 104.145 93.8144 104.31 93.7216C104.477 93.6269 104.702 93.5795 104.986 93.5795C105.354 93.5795 105.677 93.6714 105.958 93.8551C106.238 94.0388 106.457 94.2992 106.614 94.6364C106.771 94.9735 106.85 95.3712 106.85 95.8295C106.85 96.2917 106.771 96.6922 106.614 97.0312C106.457 97.3684 106.239 97.6297 105.961 97.8153C105.682 97.9991 105.361 98.0909 104.998 98.0909C104.717 98.0909 104.493 98.0445 104.324 97.9517C104.156 97.857 104.026 97.75 103.935 97.6307C103.844 97.5095 103.774 97.4091 103.725 97.3295H103.645V98H102.998ZM103.657 95.8182C103.657 96.1477 103.705 96.4384 103.801 96.6903C103.898 96.9403 104.039 97.1364 104.225 97.2784C104.41 97.4186 104.638 97.4886 104.907 97.4886C105.187 97.4886 105.421 97.4148 105.608 97.267C105.798 97.1174 105.94 96.9167 106.034 96.6648C106.131 96.411 106.179 96.1288 106.179 95.8182C106.179 95.5114 106.132 95.2348 106.037 94.9886C105.944 94.7405 105.803 94.5445 105.614 94.4006C105.426 94.2547 105.191 94.1818 104.907 94.1818C104.634 94.1818 104.405 94.2509 104.219 94.3892C104.033 94.5256 103.893 94.7169 103.799 94.9631C103.704 95.2074 103.657 95.4924 103.657 95.8182ZM112.012 98H110.216V92.1818H112.091C112.656 92.1818 113.139 92.2983 113.54 92.5312C113.942 92.7623 114.249 93.0947 114.463 93.5284C114.677 93.9602 114.784 94.4773 114.784 95.0795C114.784 95.6856 114.676 96.2074 114.461 96.6449C114.245 97.0805 113.93 97.4157 113.517 97.6506C113.105 97.8835 112.603 98 112.012 98ZM110.921 97.375H111.966C112.447 97.375 112.846 97.2822 113.162 97.0966C113.479 96.911 113.714 96.6468 113.87 96.304C114.025 95.9612 114.103 95.553 114.103 95.0795C114.103 94.6098 114.026 94.2055 113.873 93.8665C113.719 93.5256 113.49 93.2642 113.185 93.0824C112.88 92.8987 112.5 92.8068 112.046 92.8068H110.921V97.375ZM117.705 98.0909C117.284 98.0909 116.922 97.9981 116.617 97.8125C116.314 97.625 116.08 97.3636 115.915 97.0284C115.752 96.6913 115.671 96.2992 115.671 95.8523C115.671 95.4053 115.752 95.0114 115.915 94.6705C116.08 94.3277 116.309 94.0606 116.603 93.8693C116.898 93.6761 117.243 93.5795 117.637 93.5795C117.864 93.5795 118.088 93.6174 118.31 93.6932C118.532 93.7689 118.733 93.892 118.915 94.0625C119.097 94.2311 119.242 94.4545 119.35 94.733C119.458 95.0114 119.512 95.3542 119.512 95.7614V96.0455H116.148V95.4659H118.83C118.83 95.2197 118.781 95 118.682 94.8068C118.586 94.6136 118.447 94.4612 118.267 94.3494C118.089 94.2377 117.879 94.1818 117.637 94.1818C117.37 94.1818 117.139 94.2481 116.944 94.3807C116.75 94.5114 116.602 94.6818 116.498 94.892C116.393 95.1023 116.341 95.3277 116.341 95.5682V95.9545C116.341 96.2841 116.398 96.5634 116.512 96.7926C116.627 97.0199 116.787 97.1932 116.992 97.3125C117.196 97.4299 117.434 97.4886 117.705 97.4886C117.881 97.4886 118.04 97.464 118.182 97.4148C118.326 97.3636 118.45 97.2879 118.554 97.1875C118.658 97.0852 118.739 96.9583 118.796 96.8068L119.444 96.9886C119.375 97.2083 119.261 97.4015 119.1 97.5682C118.939 97.733 118.74 97.8617 118.503 97.9545C118.266 98.0455 118 98.0909 117.705 98.0909ZM123.623 94.6136L123.02 94.7841C122.982 94.6837 122.926 94.5862 122.853 94.4915C122.781 94.3949 122.682 94.3153 122.557 94.2528C122.432 94.1903 122.272 94.1591 122.077 94.1591C121.81 94.1591 121.587 94.2206 121.409 94.3438C121.233 94.465 121.145 94.6193 121.145 94.8068C121.145 94.9735 121.206 95.1051 121.327 95.2017C121.448 95.2983 121.638 95.3788 121.895 95.4432L122.543 95.6023C122.933 95.697 123.224 95.8419 123.415 96.0369C123.606 96.2301 123.702 96.4792 123.702 96.7841C123.702 97.0341 123.63 97.2576 123.486 97.4545C123.344 97.6515 123.145 97.8068 122.89 97.9205C122.634 98.0341 122.337 98.0909 121.998 98.0909C121.552 98.0909 121.184 97.9943 120.892 97.8011C120.601 97.608 120.416 97.3258 120.338 96.9545L120.975 96.7955C121.035 97.0303 121.15 97.2064 121.319 97.3239C121.489 97.4413 121.712 97.5 121.986 97.5C122.299 97.5 122.547 97.4337 122.73 97.3011C122.916 97.1667 123.009 97.0057 123.009 96.8182C123.009 96.6667 122.956 96.5398 122.85 96.4375C122.744 96.3333 122.581 96.2557 122.361 96.2045L121.634 96.0341C121.234 95.9394 120.941 95.7926 120.753 95.5938C120.568 95.393 120.475 95.142 120.475 94.8409C120.475 94.5947 120.544 94.3769 120.682 94.1875C120.822 93.9981 121.013 93.8494 121.253 93.7415C121.496 93.6335 121.77 93.5795 122.077 93.5795C122.509 93.5795 122.848 93.6742 123.094 93.8636C123.342 94.053 123.518 94.303 123.623 94.6136ZM124.711 98V93.6364H125.382V98H124.711ZM125.052 92.9091C124.922 92.9091 124.809 92.8646 124.714 92.7756C124.621 92.6866 124.575 92.5795 124.575 92.4545C124.575 92.3295 124.621 92.2225 124.714 92.1335C124.809 92.0445 124.922 92 125.052 92C125.183 92 125.295 92.0445 125.387 92.1335C125.482 92.2225 125.529 92.3295 125.529 92.4545C125.529 92.5795 125.482 92.6866 125.387 92.7756C125.295 92.8646 125.183 92.9091 125.052 92.9091ZM128.371 99.7273C128.047 99.7273 127.769 99.6856 127.536 99.6023C127.303 99.5208 127.109 99.4129 126.953 99.2784C126.8 99.1458 126.678 99.0038 126.587 98.8523L127.121 98.4773C127.182 98.5568 127.258 98.6477 127.351 98.75C127.444 98.8542 127.571 98.9441 127.732 99.0199C127.895 99.0975 128.108 99.1364 128.371 99.1364C128.723 99.1364 129.014 99.0511 129.243 98.8807C129.472 98.7102 129.587 98.4432 129.587 98.0795V97.1932H129.53C129.481 97.2727 129.411 97.3712 129.32 97.4886C129.231 97.6042 129.102 97.7074 128.934 97.7983C128.767 97.8873 128.542 97.9318 128.257 97.9318C127.905 97.9318 127.589 97.8485 127.309 97.6818C127.03 97.5152 126.81 97.2727 126.647 96.9545C126.486 96.6364 126.405 96.25 126.405 95.7955C126.405 95.3485 126.484 94.9593 126.641 94.6278C126.798 94.2945 127.017 94.0369 127.297 93.8551C127.578 93.6714 127.901 93.5795 128.269 93.5795C128.553 93.5795 128.778 93.6269 128.945 93.7216C129.114 93.8144 129.242 93.9205 129.331 94.0398C129.422 94.1572 129.492 94.2538 129.542 94.3295H129.61V93.6364H130.257V98.125C130.257 98.5 130.172 98.8049 130.002 99.0398C129.833 99.2765 129.606 99.4498 129.32 99.5597C129.036 99.6714 128.72 99.7273 128.371 99.7273ZM128.348 97.3295C128.617 97.3295 128.845 97.268 129.03 97.1449C129.216 97.0218 129.357 96.8447 129.453 96.6136C129.55 96.3826 129.598 96.1061 129.598 95.7841C129.598 95.4697 129.551 95.1922 129.456 94.9517C129.362 94.7112 129.221 94.5227 129.036 94.3864C128.85 94.25 128.621 94.1818 128.348 94.1818C128.064 94.1818 127.828 94.2538 127.638 94.3977C127.451 94.5417 127.31 94.7348 127.215 94.9773C127.122 95.2197 127.076 95.4886 127.076 95.7841C127.076 96.0871 127.123 96.3551 127.218 96.5881C127.314 96.8191 127.456 97.0009 127.644 97.1335C127.833 97.2642 128.068 97.3295 128.348 97.3295ZM132.155 95.375V98H131.485V93.6364H132.132V94.3182H132.189C132.292 94.0966 132.447 93.9186 132.655 93.7841C132.864 93.6477 133.132 93.5795 133.462 93.5795C133.757 93.5795 134.016 93.6402 134.238 93.7614C134.459 93.8807 134.632 94.0625 134.755 94.3068C134.878 94.5492 134.939 94.8561 134.939 95.2273V98H134.269V95.2727C134.269 94.9299 134.18 94.6629 134.002 94.4716C133.824 94.2784 133.579 94.1818 133.269 94.1818C133.055 94.1818 132.864 94.2282 132.695 94.321C132.528 94.4138 132.397 94.5492 132.3 94.7273C132.203 94.9053 132.155 95.1212 132.155 95.375Z" fill="white"/>
<circle cx="192" cy="158" r="44" fill="#3037D7" fill-opacity="0.85"/>
<path d="M176.847 155.182H177.551V159.034C177.551 159.432 177.458 159.787 177.27 160.099C177.085 160.41 176.822 160.655 176.483 160.835C176.144 161.013 175.747 161.102 175.29 161.102C174.834 161.102 174.436 161.013 174.097 160.835C173.758 160.655 173.495 160.41 173.307 160.099C173.122 159.787 173.029 159.432 173.029 159.034V155.182H173.733V158.977C173.733 159.261 173.796 159.514 173.921 159.736C174.046 159.955 174.224 160.129 174.455 160.256C174.688 160.381 174.966 160.443 175.29 160.443C175.614 160.443 175.892 160.381 176.125 160.256C176.358 160.129 176.536 159.955 176.659 159.736C176.784 159.514 176.847 159.261 176.847 158.977V155.182ZM179.299 155.182L180.799 157.602H180.845L182.345 155.182H183.174L181.345 158.091L183.174 161H182.345L180.845 158.625H180.799L179.299 161H178.47L180.345 158.091L178.47 155.182H179.299ZM188.137 161H186.341V155.182H188.216C188.781 155.182 189.264 155.298 189.665 155.531C190.067 155.762 190.374 156.095 190.588 156.528C190.802 156.96 190.909 157.477 190.909 158.08C190.909 158.686 190.801 159.207 190.586 159.645C190.37 160.08 190.055 160.416 189.642 160.651C189.23 160.884 188.728 161 188.137 161ZM187.046 160.375H188.091C188.572 160.375 188.971 160.282 189.287 160.097C189.604 159.911 189.839 159.647 189.995 159.304C190.15 158.961 190.228 158.553 190.228 158.08C190.228 157.61 190.151 157.205 189.998 156.866C189.844 156.526 189.615 156.264 189.31 156.082C189.005 155.899 188.625 155.807 188.171 155.807H187.046V160.375ZM193.83 161.091C193.409 161.091 193.047 160.998 192.742 160.812C192.439 160.625 192.205 160.364 192.04 160.028C191.877 159.691 191.796 159.299 191.796 158.852C191.796 158.405 191.877 158.011 192.04 157.67C192.205 157.328 192.434 157.061 192.728 156.869C193.023 156.676 193.368 156.58 193.762 156.58C193.989 156.58 194.213 156.617 194.435 156.693C194.657 156.769 194.858 156.892 195.04 157.062C195.222 157.231 195.367 157.455 195.475 157.733C195.583 158.011 195.637 158.354 195.637 158.761V159.045H192.273V158.466H194.955C194.955 158.22 194.906 158 194.807 157.807C194.711 157.614 194.572 157.461 194.392 157.349C194.214 157.238 194.004 157.182 193.762 157.182C193.495 157.182 193.264 157.248 193.069 157.381C192.875 157.511 192.727 157.682 192.623 157.892C192.518 158.102 192.466 158.328 192.466 158.568V158.955C192.466 159.284 192.523 159.563 192.637 159.793C192.752 160.02 192.912 160.193 193.117 160.312C193.321 160.43 193.559 160.489 193.83 160.489C194.006 160.489 194.165 160.464 194.307 160.415C194.451 160.364 194.575 160.288 194.679 160.188C194.783 160.085 194.864 159.958 194.921 159.807L195.569 159.989C195.5 160.208 195.386 160.402 195.225 160.568C195.064 160.733 194.865 160.862 194.628 160.955C194.391 161.045 194.125 161.091 193.83 161.091ZM199.748 157.614L199.145 157.784C199.107 157.684 199.051 157.586 198.978 157.491C198.906 157.395 198.807 157.315 198.682 157.253C198.557 157.19 198.397 157.159 198.202 157.159C197.935 157.159 197.712 157.221 197.534 157.344C197.358 157.465 197.27 157.619 197.27 157.807C197.27 157.973 197.331 158.105 197.452 158.202C197.573 158.298 197.763 158.379 198.02 158.443L198.668 158.602C199.058 158.697 199.349 158.842 199.54 159.037C199.731 159.23 199.827 159.479 199.827 159.784C199.827 160.034 199.755 160.258 199.611 160.455C199.469 160.652 199.27 160.807 199.015 160.92C198.759 161.034 198.462 161.091 198.123 161.091C197.677 161.091 197.309 160.994 197.017 160.801C196.726 160.608 196.541 160.326 196.463 159.955L197.1 159.795C197.16 160.03 197.275 160.206 197.444 160.324C197.614 160.441 197.837 160.5 198.111 160.5C198.424 160.5 198.672 160.434 198.855 160.301C199.041 160.167 199.134 160.006 199.134 159.818C199.134 159.667 199.081 159.54 198.975 159.438C198.869 159.333 198.706 159.256 198.486 159.205L197.759 159.034C197.359 158.939 197.066 158.793 196.878 158.594C196.693 158.393 196.6 158.142 196.6 157.841C196.6 157.595 196.669 157.377 196.807 157.188C196.947 156.998 197.138 156.849 197.378 156.741C197.621 156.634 197.895 156.58 198.202 156.58C198.634 156.58 198.973 156.674 199.219 156.864C199.467 157.053 199.643 157.303 199.748 157.614ZM200.836 161V156.636H201.507V161H200.836ZM201.177 155.909C201.047 155.909 200.934 155.865 200.839 155.776C200.746 155.687 200.7 155.58 200.7 155.455C200.7 155.33 200.746 155.223 200.839 155.134C200.934 155.045 201.047 155 201.177 155C201.308 155 201.42 155.045 201.512 155.134C201.607 155.223 201.654 155.33 201.654 155.455C201.654 155.58 201.607 155.687 201.512 155.776C201.42 155.865 201.308 155.909 201.177 155.909ZM204.496 162.727C204.172 162.727 203.894 162.686 203.661 162.602C203.428 162.521 203.234 162.413 203.078 162.278C202.925 162.146 202.803 162.004 202.712 161.852L203.246 161.477C203.307 161.557 203.383 161.648 203.476 161.75C203.569 161.854 203.696 161.944 203.857 162.02C204.02 162.098 204.233 162.136 204.496 162.136C204.848 162.136 205.139 162.051 205.368 161.881C205.597 161.71 205.712 161.443 205.712 161.08V160.193H205.655C205.606 160.273 205.536 160.371 205.445 160.489C205.356 160.604 205.227 160.707 205.059 160.798C204.892 160.887 204.667 160.932 204.382 160.932C204.03 160.932 203.714 160.848 203.434 160.682C203.155 160.515 202.935 160.273 202.772 159.955C202.611 159.636 202.53 159.25 202.53 158.795C202.53 158.348 202.609 157.959 202.766 157.628C202.923 157.295 203.142 157.037 203.422 156.855C203.703 156.671 204.026 156.58 204.394 156.58C204.678 156.58 204.903 156.627 205.07 156.722C205.239 156.814 205.367 156.92 205.456 157.04C205.547 157.157 205.617 157.254 205.667 157.33H205.735V156.636H206.382V161.125C206.382 161.5 206.297 161.805 206.127 162.04C205.958 162.277 205.731 162.45 205.445 162.56C205.161 162.671 204.845 162.727 204.496 162.727ZM204.473 160.33C204.742 160.33 204.97 160.268 205.155 160.145C205.341 160.022 205.482 159.845 205.578 159.614C205.675 159.383 205.723 159.106 205.723 158.784C205.723 158.47 205.676 158.192 205.581 157.952C205.487 157.711 205.346 157.523 205.161 157.386C204.975 157.25 204.746 157.182 204.473 157.182C204.189 157.182 203.953 157.254 203.763 157.398C203.576 157.542 203.435 157.735 203.34 157.977C203.247 158.22 203.201 158.489 203.201 158.784C203.201 159.087 203.248 159.355 203.343 159.588C203.439 159.819 203.581 160.001 203.769 160.134C203.958 160.264 204.193 160.33 204.473 160.33ZM208.28 158.375V161H207.61V156.636H208.257V157.318H208.314C208.417 157.097 208.572 156.919 208.78 156.784C208.989 156.648 209.257 156.58 209.587 156.58C209.882 156.58 210.141 156.64 210.363 156.761C210.584 156.881 210.757 157.062 210.88 157.307C211.003 157.549 211.064 157.856 211.064 158.227V161H210.394V158.273C210.394 157.93 210.305 157.663 210.127 157.472C209.949 157.278 209.704 157.182 209.394 157.182C209.18 157.182 208.989 157.228 208.82 157.321C208.653 157.414 208.522 157.549 208.425 157.727C208.328 157.905 208.28 158.121 208.28 158.375Z" fill="white"/>
<circle cx="243" cy="102" r="28" fill="#307DD7" fill-opacity="0.85"/>
<path d="M232.24 105V99.1818H235.728V99.8068H232.944V101.773H235.467V102.398H232.944V105H232.24ZM236.844 105V100.636H237.515V105H236.844ZM237.185 99.9091C237.054 99.9091 236.942 99.8646 236.847 99.7756C236.754 99.6866 236.708 99.5795 236.708 99.4545C236.708 99.3295 236.754 99.2225 236.847 99.1335C236.942 99.0445 237.054 99 237.185 99C237.316 99 237.427 99.0445 237.52 99.1335C237.615 99.2225 237.662 99.3295 237.662 99.4545C237.662 99.5795 237.615 99.6866 237.52 99.7756C237.427 99.8646 237.316 99.9091 237.185 99.9091ZM240.504 106.727C240.18 106.727 239.902 106.686 239.669 106.602C239.436 106.521 239.242 106.413 239.086 106.278C238.933 106.146 238.811 106.004 238.72 105.852L239.254 105.477C239.315 105.557 239.391 105.648 239.484 105.75C239.577 105.854 239.704 105.944 239.865 106.02C240.028 106.098 240.241 106.136 240.504 106.136C240.856 106.136 241.147 106.051 241.376 105.881C241.605 105.71 241.72 105.443 241.72 105.08V104.193H241.663C241.614 104.273 241.544 104.371 241.453 104.489C241.364 104.604 241.235 104.707 241.066 104.798C240.9 104.887 240.674 104.932 240.39 104.932C240.038 104.932 239.722 104.848 239.441 104.682C239.163 104.515 238.942 104.273 238.779 103.955C238.618 103.636 238.538 103.25 238.538 102.795C238.538 102.348 238.617 101.959 238.774 101.628C238.931 101.295 239.15 101.037 239.43 100.855C239.71 100.671 240.034 100.58 240.402 100.58C240.686 100.58 240.911 100.627 241.078 100.722C241.246 100.814 241.375 100.92 241.464 101.04C241.555 101.157 241.625 101.254 241.674 101.33H241.743V100.636H242.39V105.125C242.39 105.5 242.305 105.805 242.135 106.04C241.966 106.277 241.739 106.45 241.453 106.56C241.169 106.671 240.852 106.727 240.504 106.727ZM240.481 104.33C240.75 104.33 240.977 104.268 241.163 104.145C241.349 104.022 241.49 103.845 241.586 103.614C241.683 103.383 241.731 103.106 241.731 102.784C241.731 102.47 241.684 102.192 241.589 101.952C241.494 101.711 241.354 101.523 241.169 101.386C240.983 101.25 240.754 101.182 240.481 101.182C240.197 101.182 239.96 101.254 239.771 101.398C239.583 101.542 239.442 101.735 239.348 101.977C239.255 102.22 239.208 102.489 239.208 102.784C239.208 103.087 239.256 103.355 239.35 103.588C239.447 103.819 239.589 104.001 239.777 104.134C239.966 104.264 240.201 104.33 240.481 104.33ZM243.618 105V100.636H244.265V101.318H244.322C244.413 101.085 244.56 100.904 244.762 100.776C244.965 100.645 245.208 100.58 245.493 100.58C245.78 100.58 246.02 100.645 246.211 100.776C246.404 100.904 246.555 101.085 246.663 101.318H246.708C246.82 101.093 246.988 100.914 247.211 100.781C247.435 100.647 247.703 100.58 248.015 100.58C248.405 100.58 248.725 100.702 248.973 100.946C249.221 101.188 249.345 101.566 249.345 102.08V105H248.674V102.08C248.674 101.758 248.586 101.527 248.41 101.389C248.234 101.251 248.027 101.182 247.788 101.182C247.481 101.182 247.243 101.275 247.075 101.46C246.906 101.644 246.822 101.877 246.822 102.159V105H246.14V102.011C246.14 101.763 246.06 101.563 245.899 101.412C245.738 101.259 245.53 101.182 245.277 101.182C245.102 101.182 244.94 101.228 244.788 101.321C244.638 101.414 244.517 101.543 244.424 101.707C244.333 101.87 244.288 102.059 244.288 102.273V105H243.618ZM251.855 105.102C251.578 105.102 251.327 105.05 251.102 104.946C250.877 104.84 250.698 104.688 250.565 104.489C250.432 104.288 250.366 104.045 250.366 103.761C250.366 103.511 250.415 103.309 250.514 103.153C250.612 102.996 250.744 102.873 250.909 102.784C251.074 102.695 251.255 102.629 251.454 102.585C251.655 102.54 251.857 102.504 252.059 102.477C252.324 102.443 252.539 102.418 252.704 102.401C252.871 102.382 252.992 102.35 253.068 102.307C253.145 102.263 253.184 102.187 253.184 102.08V102.057C253.184 101.777 253.108 101.559 252.954 101.403C252.803 101.248 252.573 101.17 252.264 101.17C251.944 101.17 251.693 101.241 251.511 101.381C251.329 101.521 251.201 101.67 251.127 101.83L250.491 101.602C250.605 101.337 250.756 101.131 250.946 100.983C251.137 100.833 251.345 100.729 251.571 100.67C251.798 100.61 252.021 100.58 252.241 100.58C252.381 100.58 252.542 100.597 252.724 100.631C252.908 100.663 253.085 100.73 253.255 100.832C253.428 100.935 253.571 101.089 253.684 101.295C253.798 101.502 253.855 101.778 253.855 102.125V105H253.184V104.409H253.15C253.105 104.504 253.029 104.605 252.923 104.713C252.817 104.821 252.676 104.913 252.5 104.989C252.324 105.064 252.109 105.102 251.855 105.102ZM251.957 104.5C252.222 104.5 252.446 104.448 252.627 104.344C252.811 104.24 252.949 104.105 253.042 103.94C253.137 103.776 253.184 103.602 253.184 103.42V102.807C253.156 102.841 253.093 102.872 252.997 102.901C252.902 102.927 252.792 102.951 252.667 102.972C252.544 102.991 252.424 103.008 252.306 103.023C252.191 103.036 252.097 103.047 252.025 103.057C251.851 103.08 251.688 103.116 251.537 103.168C251.387 103.217 251.266 103.292 251.173 103.392C251.082 103.491 251.037 103.625 251.037 103.795C251.037 104.028 251.123 104.205 251.295 104.324C251.469 104.441 251.69 104.5 251.957 104.5Z" fill="white"/>
<circle cx="271" cy="158" r="28" fill="#307DD7" fill-opacity="0.85"/>
<path d="M259.556 161H258.818L260.954 155.182H261.681L263.818 161H263.079L261.341 156.102H261.295L259.556 161ZM259.829 158.727H262.806V159.352H259.829V158.727ZM266.281 161.091C265.917 161.091 265.596 160.999 265.318 160.815C265.039 160.63 264.822 160.368 264.664 160.031C264.507 159.692 264.429 159.292 264.429 158.83C264.429 158.371 264.507 157.973 264.664 157.636C264.822 157.299 265.04 157.039 265.321 156.855C265.601 156.671 265.925 156.58 266.292 156.58C266.576 156.58 266.801 156.627 266.966 156.722C267.132 156.814 267.259 156.92 267.346 157.04C267.435 157.157 267.504 157.254 267.554 157.33H267.61V155.182H268.281V161H267.633V160.33H267.554C267.504 160.409 267.434 160.509 267.343 160.631C267.252 160.75 267.123 160.857 266.954 160.952C266.786 161.045 266.561 161.091 266.281 161.091ZM266.372 160.489C266.641 160.489 266.868 160.419 267.054 160.278C267.239 160.136 267.38 159.94 267.477 159.69C267.574 159.438 267.622 159.148 267.622 158.818C267.622 158.492 267.574 158.207 267.48 157.963C267.385 157.717 267.245 157.526 267.059 157.389C266.874 157.251 266.645 157.182 266.372 157.182C266.088 157.182 265.851 157.255 265.662 157.401C265.474 157.545 265.333 157.741 265.238 157.989C265.145 158.235 265.099 158.511 265.099 158.818C265.099 159.129 265.146 159.411 265.241 159.665C265.338 159.917 265.48 160.117 265.667 160.267C265.857 160.415 266.092 160.489 266.372 160.489ZM271.375 161.091C270.981 161.091 270.635 160.997 270.338 160.81C270.042 160.622 269.811 160.36 269.645 160.023C269.48 159.686 269.397 159.292 269.397 158.841C269.397 158.386 269.48 157.99 269.645 157.651C269.811 157.312 270.042 157.048 270.338 156.861C270.635 156.673 270.981 156.58 271.375 156.58C271.769 156.58 272.113 156.673 272.409 156.861C272.706 157.048 272.937 157.312 273.102 157.651C273.269 157.99 273.352 158.386 273.352 158.841C273.352 159.292 273.269 159.686 273.102 160.023C272.937 160.36 272.706 160.622 272.409 160.81C272.113 160.997 271.769 161.091 271.375 161.091ZM271.375 160.489C271.674 160.489 271.92 160.412 272.113 160.259C272.306 160.105 272.449 159.903 272.542 159.653C272.635 159.403 272.681 159.133 272.681 158.841C272.681 158.549 272.635 158.277 272.542 158.026C272.449 157.774 272.306 157.57 272.113 157.415C271.92 157.259 271.674 157.182 271.375 157.182C271.075 157.182 270.829 157.259 270.636 157.415C270.443 157.57 270.3 157.774 270.207 158.026C270.114 158.277 270.068 158.549 270.068 158.841C270.068 159.133 270.114 159.403 270.207 159.653C270.3 159.903 270.443 160.105 270.636 160.259C270.829 160.412 271.075 160.489 271.375 160.489ZM274.466 161V155.182H275.137V157.33H275.194C275.243 157.254 275.311 157.157 275.398 157.04C275.487 156.92 275.614 156.814 275.779 156.722C275.945 156.627 276.171 156.58 276.455 156.58C276.822 156.58 277.146 156.671 277.426 156.855C277.707 157.039 277.926 157.299 278.083 157.636C278.24 157.973 278.319 158.371 278.319 158.83C278.319 159.292 278.24 159.692 278.083 160.031C277.926 160.368 277.708 160.63 277.429 160.815C277.151 160.999 276.83 161.091 276.466 161.091C276.186 161.091 275.962 161.045 275.793 160.952C275.624 160.857 275.495 160.75 275.404 160.631C275.313 160.509 275.243 160.409 275.194 160.33H275.114V161H274.466ZM275.125 158.818C275.125 159.148 275.174 159.438 275.27 159.69C275.367 159.94 275.508 160.136 275.694 160.278C275.879 160.419 276.106 160.489 276.375 160.489C276.656 160.489 276.89 160.415 277.077 160.267C277.266 160.117 277.408 159.917 277.503 159.665C277.6 159.411 277.648 159.129 277.648 158.818C277.648 158.511 277.601 158.235 277.506 157.989C277.413 157.741 277.272 157.545 277.083 157.401C276.895 157.255 276.659 157.182 276.375 157.182C276.103 157.182 275.873 157.251 275.688 157.389C275.502 157.526 275.362 157.717 275.267 157.963C275.173 158.207 275.125 158.492 275.125 158.818ZM281.174 161.091C280.753 161.091 280.391 160.998 280.086 160.812C279.783 160.625 279.549 160.364 279.384 160.028C279.221 159.691 279.14 159.299 279.14 158.852C279.14 158.405 279.221 158.011 279.384 157.67C279.549 157.328 279.778 157.061 280.071 156.869C280.367 156.676 280.712 156.58 281.105 156.58C281.333 156.58 281.557 156.617 281.779 156.693C282 156.769 282.202 156.892 282.384 157.062C282.566 157.231 282.711 157.455 282.819 157.733C282.926 158.011 282.98 158.354 282.98 158.761V159.045H279.617V158.466H282.299C282.299 158.22 282.249 158 282.151 157.807C282.054 157.614 281.916 157.461 281.736 157.349C281.558 157.238 281.348 157.182 281.105 157.182C280.838 157.182 280.607 157.248 280.412 157.381C280.219 157.511 280.07 157.682 279.966 157.892C279.862 158.102 279.81 158.328 279.81 158.568V158.955C279.81 159.284 279.867 159.563 279.98 159.793C280.096 160.02 280.256 160.193 280.461 160.312C280.665 160.43 280.903 160.489 281.174 160.489C281.35 160.489 281.509 160.464 281.651 160.415C281.795 160.364 281.919 160.288 282.023 160.188C282.127 160.085 282.208 159.958 282.265 159.807L282.912 159.989C282.844 160.208 282.73 160.402 282.569 160.568C282.408 160.733 282.209 160.862 281.972 160.955C281.735 161.045 281.469 161.091 281.174 161.091Z" fill="white"/>
<ellipse cx="239.5" cy="210" rx="24.5" ry="24" fill="#309BD7" fill-opacity="0.85"/>
<path d="M219.687 213L218.096 207.182H218.812L220.028 211.92H220.085L221.324 207.182H222.119L223.358 211.92H223.414L224.63 207.182H225.346L223.755 213H223.028L221.744 208.364H221.699L220.414 213H219.687ZM226.133 213V208.636H226.804V213H226.133ZM226.474 207.909C226.343 207.909 226.231 207.865 226.136 207.776C226.043 207.687 225.997 207.58 225.997 207.455C225.997 207.33 226.043 207.223 226.136 207.134C226.231 207.045 226.343 207 226.474 207C226.605 207 226.717 207.045 226.809 207.134C226.904 207.223 226.951 207.33 226.951 207.455C226.951 207.58 226.904 207.687 226.809 207.776C226.717 207.865 226.605 207.909 226.474 207.909ZM228.032 213V208.636H228.679V209.295H228.725C228.804 209.08 228.948 208.904 229.157 208.77C229.365 208.635 229.6 208.568 229.861 208.568C229.91 208.568 229.972 208.569 230.046 208.571C230.12 208.573 230.176 208.576 230.213 208.58V209.261C230.191 209.256 230.139 209.247 230.057 209.236C229.978 209.223 229.893 209.216 229.804 209.216C229.592 209.216 229.403 209.26 229.236 209.349C229.071 209.437 228.941 209.558 228.844 209.713C228.749 209.866 228.702 210.042 228.702 210.239V213H228.032ZM232.705 213.091C232.284 213.091 231.922 212.998 231.617 212.812C231.314 212.625 231.08 212.364 230.915 212.028C230.752 211.691 230.671 211.299 230.671 210.852C230.671 210.405 230.752 210.011 230.915 209.67C231.08 209.328 231.309 209.061 231.603 208.869C231.898 208.676 232.243 208.58 232.637 208.58C232.864 208.58 233.088 208.617 233.31 208.693C233.532 208.769 233.733 208.892 233.915 209.062C234.097 209.231 234.242 209.455 234.35 209.733C234.458 210.011 234.512 210.354 234.512 210.761V211.045H231.148V210.466H233.83C233.83 210.22 233.781 210 233.682 209.807C233.586 209.614 233.447 209.461 233.267 209.349C233.089 209.238 232.879 209.182 232.637 209.182C232.37 209.182 232.139 209.248 231.944 209.381C231.75 209.511 231.602 209.682 231.498 209.892C231.393 210.102 231.341 210.328 231.341 210.568V210.955C231.341 211.284 231.398 211.563 231.512 211.793C231.627 212.02 231.787 212.193 231.992 212.312C232.196 212.43 232.434 212.489 232.705 212.489C232.881 212.489 233.04 212.464 233.182 212.415C233.326 212.364 233.45 212.288 233.554 212.188C233.658 212.085 233.739 211.958 233.796 211.807L234.444 211.989C234.375 212.208 234.261 212.402 234.1 212.568C233.939 212.733 233.74 212.862 233.503 212.955C233.266 213.045 233 213.091 232.705 213.091ZM237.475 208.636V209.205H235.123V208.636H237.475ZM235.827 213V208.034C235.827 207.784 235.886 207.576 236.003 207.409C236.121 207.242 236.273 207.117 236.461 207.034C236.648 206.951 236.846 206.909 237.054 206.909C237.219 206.909 237.354 206.922 237.458 206.949C237.562 206.975 237.64 207 237.691 207.023L237.498 207.602C237.463 207.591 237.416 207.577 237.355 207.56C237.297 207.543 237.219 207.534 237.123 207.534C236.901 207.534 236.741 207.59 236.642 207.702C236.546 207.813 236.498 207.977 236.498 208.193V213H235.827ZM238.414 213V208.636H239.062V209.295H239.108C239.187 209.08 239.331 208.904 239.539 208.77C239.748 208.635 239.983 208.568 240.244 208.568C240.293 208.568 240.355 208.569 240.429 208.571C240.502 208.573 240.558 208.576 240.596 208.58V209.261C240.574 209.256 240.521 209.247 240.44 209.236C240.36 209.223 240.276 209.216 240.187 209.216C239.975 209.216 239.786 209.26 239.619 209.349C239.454 209.437 239.324 209.558 239.227 209.713C239.132 209.866 239.085 210.042 239.085 210.239V213H238.414ZM242.675 213.102C242.399 213.102 242.148 213.05 241.922 212.946C241.697 212.84 241.518 212.688 241.385 212.489C241.253 212.288 241.186 212.045 241.186 211.761C241.186 211.511 241.236 211.309 241.334 211.153C241.433 210.996 241.564 210.873 241.729 210.784C241.894 210.695 242.076 210.629 242.275 210.585C242.475 210.54 242.677 210.504 242.88 210.477C243.145 210.443 243.36 210.418 243.525 210.401C243.691 210.382 243.812 210.35 243.888 210.307C243.966 210.263 244.005 210.187 244.005 210.08V210.057C244.005 209.777 243.928 209.559 243.775 209.403C243.623 209.248 243.393 209.17 243.084 209.17C242.764 209.17 242.513 209.241 242.331 209.381C242.15 209.521 242.022 209.67 241.948 209.83L241.311 209.602C241.425 209.337 241.577 209.131 241.766 208.983C241.957 208.833 242.166 208.729 242.391 208.67C242.618 208.61 242.842 208.58 243.061 208.58C243.202 208.58 243.363 208.597 243.544 208.631C243.728 208.663 243.905 208.73 244.076 208.832C244.248 208.935 244.391 209.089 244.505 209.295C244.618 209.502 244.675 209.778 244.675 210.125V213H244.005V212.409H243.971C243.925 212.504 243.849 212.605 243.743 212.713C243.637 212.821 243.496 212.913 243.32 212.989C243.144 213.064 242.929 213.102 242.675 213.102ZM242.777 212.5C243.042 212.5 243.266 212.448 243.448 212.344C243.632 212.24 243.77 212.105 243.863 211.94C243.957 211.776 244.005 211.602 244.005 211.42V210.807C243.976 210.841 243.914 210.872 243.817 210.901C243.722 210.927 243.613 210.951 243.488 210.972C243.364 210.991 243.244 211.008 243.127 211.023C243.011 211.036 242.917 211.047 242.846 211.057C242.671 211.08 242.508 211.116 242.357 211.168C242.207 211.217 242.086 211.292 241.993 211.392C241.902 211.491 241.857 211.625 241.857 211.795C241.857 212.028 241.943 212.205 242.115 212.324C242.29 212.441 242.51 212.5 242.777 212.5ZM245.899 213V208.636H246.547V209.318H246.603C246.694 209.085 246.841 208.904 247.044 208.776C247.246 208.645 247.49 208.58 247.774 208.58C248.062 208.58 248.301 208.645 248.493 208.776C248.686 208.904 248.836 209.085 248.944 209.318H248.99C249.101 209.093 249.269 208.914 249.493 208.781C249.716 208.647 249.984 208.58 250.297 208.58C250.687 208.58 251.006 208.702 251.254 208.946C251.502 209.188 251.626 209.566 251.626 210.08V213H250.956V210.08C250.956 209.758 250.868 209.527 250.691 209.389C250.515 209.251 250.308 209.182 250.069 209.182C249.762 209.182 249.525 209.275 249.356 209.46C249.188 209.644 249.103 209.877 249.103 210.159V213H248.422V210.011C248.422 209.763 248.341 209.563 248.18 209.412C248.019 209.259 247.812 209.182 247.558 209.182C247.384 209.182 247.221 209.228 247.069 209.321C246.92 209.414 246.798 209.543 246.706 209.707C246.615 209.87 246.569 210.059 246.569 210.273V213H245.899ZM254.681 213.091C254.261 213.091 253.898 212.998 253.593 212.812C253.29 212.625 253.056 212.364 252.892 212.028C252.729 211.691 252.647 211.299 252.647 210.852C252.647 210.405 252.729 210.011 252.892 209.67C253.056 209.328 253.286 209.061 253.579 208.869C253.875 208.676 254.219 208.58 254.613 208.58C254.841 208.58 255.065 208.617 255.287 208.693C255.508 208.769 255.71 208.892 255.892 209.062C256.074 209.231 256.218 209.455 256.326 209.733C256.434 210.011 256.488 210.354 256.488 210.761V211.045H253.125V210.466H255.806C255.806 210.22 255.757 210 255.659 209.807C255.562 209.614 255.424 209.461 255.244 209.349C255.066 209.238 254.856 209.182 254.613 209.182C254.346 209.182 254.115 209.248 253.92 209.381C253.727 209.511 253.578 209.682 253.474 209.892C253.37 210.102 253.318 210.328 253.318 210.568V210.955C253.318 211.284 253.375 211.563 253.488 211.793C253.604 212.02 253.764 212.193 253.968 212.312C254.173 212.43 254.411 212.489 254.681 212.489C254.858 212.489 255.017 212.464 255.159 212.415C255.303 212.364 255.427 212.288 255.531 212.188C255.635 212.085 255.716 211.958 255.772 211.807L256.42 211.989C256.352 212.208 256.237 212.402 256.076 212.568C255.915 212.733 255.717 212.862 255.48 212.955C255.243 213.045 254.977 213.091 254.681 213.091ZM260.599 209.614L259.997 209.784C259.959 209.684 259.903 209.586 259.829 209.491C259.757 209.395 259.659 209.315 259.534 209.253C259.409 209.19 259.249 209.159 259.054 209.159C258.787 209.159 258.564 209.221 258.386 209.344C258.21 209.465 258.122 209.619 258.122 209.807C258.122 209.973 258.182 210.105 258.304 210.202C258.425 210.298 258.614 210.379 258.872 210.443L259.52 210.602C259.91 210.697 260.2 210.842 260.392 211.037C260.583 211.23 260.679 211.479 260.679 211.784C260.679 212.034 260.607 212.258 260.463 212.455C260.321 212.652 260.122 212.807 259.866 212.92C259.61 213.034 259.313 213.091 258.974 213.091C258.529 213.091 258.161 212.994 257.869 212.801C257.577 212.608 257.393 212.326 257.315 211.955L257.951 211.795C258.012 212.03 258.127 212.206 258.295 212.324C258.466 212.441 258.688 212.5 258.963 212.5C259.275 212.5 259.523 212.434 259.707 212.301C259.893 212.167 259.985 212.006 259.985 211.818C259.985 211.667 259.932 211.54 259.826 211.438C259.72 211.333 259.557 211.256 259.338 211.205L258.61 211.034C258.211 210.939 257.917 210.793 257.73 210.594C257.544 210.393 257.451 210.142 257.451 209.841C257.451 209.595 257.52 209.377 257.659 209.188C257.799 208.998 257.989 208.849 258.23 208.741C258.472 208.634 258.747 208.58 259.054 208.58C259.485 208.58 259.824 208.674 260.071 208.864C260.319 209.053 260.495 209.303 260.599 209.614Z" fill="white"/>
<ellipse cx="187.5" cy="231" rx="24.5" ry="24" fill="#309BD7" fill-opacity="0.85"/>
<path d="M167.505 234V228.182H169.471C169.928 228.182 170.301 228.264 170.591 228.429C170.882 228.592 171.098 228.812 171.238 229.091C171.378 229.369 171.449 229.68 171.449 230.023C171.449 230.366 171.378 230.677 171.238 230.957C171.1 231.238 170.886 231.461 170.596 231.628C170.306 231.793 169.935 231.875 169.483 231.875H168.074V231.25H169.46C169.772 231.25 170.023 231.196 170.213 231.088C170.402 230.98 170.539 230.834 170.625 230.651C170.712 230.465 170.755 230.256 170.755 230.023C170.755 229.79 170.712 229.581 170.625 229.398C170.539 229.214 170.401 229.07 170.21 228.966C170.019 228.86 169.765 228.807 169.449 228.807H168.21V234H167.505ZM172.493 234V229.636H173.14V230.295H173.186C173.265 230.08 173.409 229.904 173.618 229.77C173.826 229.635 174.061 229.568 174.322 229.568C174.371 229.568 174.433 229.569 174.507 229.571C174.581 229.573 174.636 229.576 174.674 229.58V230.261C174.652 230.256 174.6 230.247 174.518 230.236C174.439 230.223 174.354 230.216 174.265 230.216C174.053 230.216 173.864 230.26 173.697 230.349C173.532 230.437 173.402 230.558 173.305 230.713C173.21 230.866 173.163 231.042 173.163 231.239V234H172.493ZM177.109 234.091C176.715 234.091 176.369 233.997 176.072 233.81C175.777 233.622 175.546 233.36 175.379 233.023C175.214 232.686 175.132 232.292 175.132 231.841C175.132 231.386 175.214 230.99 175.379 230.651C175.546 230.312 175.777 230.048 176.072 229.861C176.369 229.673 176.715 229.58 177.109 229.58C177.503 229.58 177.848 229.673 178.143 229.861C178.44 230.048 178.672 230.312 178.836 230.651C179.003 230.99 179.086 231.386 179.086 231.841C179.086 232.292 179.003 232.686 178.836 233.023C178.672 233.36 178.44 233.622 178.143 233.81C177.848 233.997 177.503 234.091 177.109 234.091ZM177.109 233.489C177.408 233.489 177.654 233.412 177.848 233.259C178.041 233.105 178.184 232.903 178.277 232.653C178.369 232.403 178.416 232.133 178.416 231.841C178.416 231.549 178.369 231.277 178.277 231.026C178.184 230.774 178.041 230.57 177.848 230.415C177.654 230.259 177.408 230.182 177.109 230.182C176.81 230.182 176.564 230.259 176.37 230.415C176.177 230.57 176.034 230.774 175.941 231.026C175.849 231.277 175.802 231.549 175.802 231.841C175.802 232.133 175.849 232.403 175.941 232.653C176.034 232.903 176.177 233.105 176.37 233.259C176.564 233.412 176.81 233.489 177.109 233.489ZM182.007 229.636V230.205H179.746V229.636H182.007ZM180.405 228.591H181.076V232.75C181.076 232.939 181.103 233.081 181.158 233.176C181.215 233.269 181.287 233.331 181.374 233.364C181.463 233.394 181.557 233.409 181.655 233.409C181.729 233.409 181.79 233.405 181.837 233.398C181.884 233.388 181.922 233.381 181.951 233.375L182.087 233.977C182.042 233.994 181.978 234.011 181.897 234.028C181.815 234.047 181.712 234.057 181.587 234.057C181.398 234.057 181.212 234.016 181.03 233.935C180.85 233.853 180.701 233.729 180.581 233.562C180.464 233.396 180.405 233.186 180.405 232.932V228.591ZM184.742 234.091C184.348 234.091 184.002 233.997 183.705 233.81C183.409 233.622 183.178 233.36 183.012 233.023C182.847 232.686 182.765 232.292 182.765 231.841C182.765 231.386 182.847 230.99 183.012 230.651C183.178 230.312 183.409 230.048 183.705 229.861C184.002 229.673 184.348 229.58 184.742 229.58C185.136 229.58 185.48 229.673 185.776 229.861C186.073 230.048 186.304 230.312 186.469 230.651C186.636 230.99 186.719 231.386 186.719 231.841C186.719 232.292 186.636 232.686 186.469 233.023C186.304 233.36 186.073 233.622 185.776 233.81C185.48 233.997 185.136 234.091 184.742 234.091ZM184.742 233.489C185.041 233.489 185.287 233.412 185.48 233.259C185.674 233.105 185.817 232.903 185.909 232.653C186.002 232.403 186.049 232.133 186.049 231.841C186.049 231.549 186.002 231.277 185.909 231.026C185.817 230.774 185.674 230.57 185.48 230.415C185.287 230.259 185.041 230.182 184.742 230.182C184.443 230.182 184.196 230.259 184.003 230.415C183.81 230.57 183.667 230.774 183.574 231.026C183.481 231.277 183.435 231.549 183.435 231.841C183.435 232.133 183.481 232.403 183.574 232.653C183.667 232.903 183.81 233.105 184.003 233.259C184.196 233.412 184.443 233.489 184.742 233.489ZM189.64 229.636V230.205H187.379V229.636H189.64ZM188.038 228.591H188.708V232.75C188.708 232.939 188.736 233.081 188.791 233.176C188.848 233.269 188.92 233.331 189.007 233.364C189.096 233.394 189.19 233.409 189.288 233.409C189.362 233.409 189.422 233.405 189.47 233.398C189.517 233.388 189.555 233.381 189.583 233.375L189.72 233.977C189.674 233.994 189.611 234.011 189.529 234.028C189.448 234.047 189.345 234.057 189.22 234.057C189.03 234.057 188.845 234.016 188.663 233.935C188.483 233.853 188.333 233.729 188.214 233.562C188.097 233.396 188.038 233.186 188.038 232.932V228.591ZM191.081 235.636C190.967 235.636 190.866 235.627 190.777 235.608C190.688 235.591 190.626 235.574 190.592 235.557L190.762 234.966C190.925 235.008 191.069 235.023 191.194 235.011C191.319 235 191.43 234.944 191.527 234.844C191.625 234.745 191.715 234.585 191.797 234.364L191.922 234.023L190.308 229.636H191.035L192.24 233.114H192.285L193.49 229.636H194.217L192.365 234.636C192.281 234.862 192.178 235.048 192.055 235.196C191.932 235.346 191.789 235.456 191.626 235.528C191.465 235.6 191.283 235.636 191.081 235.636ZM195.102 235.636V229.636H195.75V230.33H195.829C195.878 230.254 195.947 230.157 196.034 230.04C196.123 229.92 196.25 229.814 196.414 229.722C196.581 229.627 196.806 229.58 197.091 229.58C197.458 229.58 197.782 229.671 198.062 229.855C198.342 230.039 198.561 230.299 198.718 230.636C198.876 230.973 198.954 231.371 198.954 231.83C198.954 232.292 198.876 232.692 198.718 233.031C198.561 233.368 198.343 233.63 198.065 233.815C197.787 233.999 197.466 234.091 197.102 234.091C196.822 234.091 196.597 234.045 196.429 233.952C196.26 233.857 196.13 233.75 196.039 233.631C195.949 233.509 195.878 233.409 195.829 233.33H195.772V235.636H195.102ZM195.761 231.818C195.761 232.148 195.809 232.438 195.906 232.69C196.002 232.94 196.144 233.136 196.329 233.278C196.515 233.419 196.742 233.489 197.011 233.489C197.291 233.489 197.525 233.415 197.713 233.267C197.902 233.117 198.044 232.917 198.139 232.665C198.235 232.411 198.284 232.129 198.284 231.818C198.284 231.511 198.236 231.235 198.142 230.989C198.049 230.741 197.908 230.545 197.718 230.401C197.531 230.255 197.295 230.182 197.011 230.182C196.738 230.182 196.509 230.251 196.324 230.389C196.138 230.526 195.998 230.717 195.903 230.963C195.808 231.207 195.761 231.492 195.761 231.818ZM201.806 234.091C201.386 234.091 201.023 233.998 200.718 233.812C200.415 233.625 200.181 233.364 200.017 233.028C199.854 232.691 199.772 232.299 199.772 231.852C199.772 231.405 199.854 231.011 200.017 230.67C200.181 230.328 200.411 230.061 200.704 229.869C201 229.676 201.344 229.58 201.738 229.58C201.966 229.58 202.19 229.617 202.412 229.693C202.633 229.769 202.835 229.892 203.017 230.062C203.199 230.231 203.343 230.455 203.451 230.733C203.559 231.011 203.613 231.354 203.613 231.761V232.045H200.25V231.466H202.931C202.931 231.22 202.882 231 202.784 230.807C202.687 230.614 202.549 230.461 202.369 230.349C202.191 230.238 201.981 230.182 201.738 230.182C201.471 230.182 201.24 230.248 201.045 230.381C200.852 230.511 200.703 230.682 200.599 230.892C200.495 231.102 200.443 231.328 200.443 231.568V231.955C200.443 232.284 200.5 232.563 200.613 232.793C200.729 233.02 200.889 233.193 201.093 233.312C201.298 233.43 201.536 233.489 201.806 233.489C201.983 233.489 202.142 233.464 202.284 233.415C202.428 233.364 202.552 233.288 202.656 233.188C202.76 233.085 202.841 232.958 202.897 232.807L203.545 232.989C203.477 233.208 203.362 233.402 203.201 233.568C203.04 233.733 202.842 233.862 202.605 233.955C202.368 234.045 202.102 234.091 201.806 234.091ZM207.724 230.614L207.122 230.784C207.084 230.684 207.028 230.586 206.954 230.491C206.882 230.395 206.784 230.315 206.659 230.253C206.534 230.19 206.374 230.159 206.179 230.159C205.912 230.159 205.689 230.221 205.511 230.344C205.335 230.465 205.247 230.619 205.247 230.807C205.247 230.973 205.307 231.105 205.429 231.202C205.55 231.298 205.739 231.379 205.997 231.443L206.645 231.602C207.035 231.697 207.325 231.842 207.517 232.037C207.708 232.23 207.804 232.479 207.804 232.784C207.804 233.034 207.732 233.258 207.588 233.455C207.446 233.652 207.247 233.807 206.991 233.92C206.735 234.034 206.438 234.091 206.099 234.091C205.654 234.091 205.286 233.994 204.994 233.801C204.702 233.608 204.518 233.326 204.44 232.955L205.076 232.795C205.137 233.03 205.252 233.206 205.42 233.324C205.591 233.441 205.813 233.5 206.088 233.5C206.4 233.5 206.648 233.434 206.832 233.301C207.018 233.167 207.11 233.006 207.11 232.818C207.11 232.667 207.057 232.54 206.951 232.438C206.845 232.333 206.682 232.256 206.463 232.205L205.735 232.034C205.336 231.939 205.042 231.793 204.855 231.594C204.669 231.393 204.576 231.142 204.576 230.841C204.576 230.595 204.645 230.377 204.784 230.188C204.924 229.998 205.114 229.849 205.355 229.741C205.597 229.634 205.872 229.58 206.179 229.58C206.61 229.58 206.949 229.674 207.196 229.864C207.444 230.053 207.62 230.303 207.724 230.614Z" fill="white"/>
<circle cx="113" cy="180" r="30" fill="#D7309E" fill-opacity="0.85"/>
<path d="M108.898 178.636C108.864 178.348 108.726 178.125 108.483 177.966C108.241 177.807 107.944 177.727 107.591 177.727C107.334 177.727 107.108 177.769 106.915 177.852C106.724 177.936 106.574 178.05 106.466 178.196C106.36 178.342 106.307 178.508 106.307 178.693C106.307 178.848 106.344 178.982 106.418 179.094C106.494 179.204 106.59 179.295 106.708 179.369C106.825 179.441 106.948 179.501 107.077 179.548C107.206 179.594 107.324 179.631 107.432 179.659L108.023 179.818C108.175 179.858 108.343 179.913 108.529 179.983C108.716 180.053 108.895 180.149 109.066 180.27C109.238 180.389 109.38 180.543 109.492 180.73C109.604 180.918 109.659 181.148 109.659 181.42C109.659 181.735 109.577 182.019 109.412 182.273C109.249 182.527 109.011 182.728 108.696 182.878C108.384 183.027 108.004 183.102 107.557 183.102C107.141 183.102 106.78 183.035 106.475 182.901C106.172 182.766 105.933 182.579 105.759 182.338C105.587 182.098 105.489 181.818 105.466 181.5H106.194C106.212 181.72 106.286 181.902 106.415 182.045C106.546 182.187 106.711 182.294 106.909 182.364C107.11 182.432 107.326 182.466 107.557 182.466C107.826 182.466 108.068 182.422 108.282 182.335C108.496 182.246 108.665 182.123 108.79 181.966C108.915 181.807 108.978 181.621 108.978 181.409C108.978 181.216 108.924 181.059 108.816 180.938C108.708 180.816 108.566 180.718 108.39 180.642C108.213 180.566 108.023 180.5 107.819 180.443L107.103 180.239C106.648 180.108 106.288 179.921 106.023 179.679C105.758 179.437 105.625 179.119 105.625 178.727C105.625 178.402 105.713 178.117 105.89 177.875C106.068 177.631 106.306 177.441 106.605 177.307C106.907 177.17 107.243 177.102 107.614 177.102C107.989 177.102 108.322 177.17 108.614 177.304C108.906 177.437 109.137 177.618 109.307 177.849C109.48 178.08 109.57 178.343 109.58 178.636H108.898ZM110.818 183V177.182H114.329V177.807H111.522V179.773H114.147V180.398H111.522V182.375H114.375V183H110.818ZM120.508 180.091C120.508 180.705 120.397 181.235 120.176 181.682C119.954 182.129 119.65 182.473 119.264 182.716C118.877 182.958 118.436 183.08 117.94 183.08C117.444 183.08 117.002 182.958 116.616 182.716C116.23 182.473 115.926 182.129 115.704 181.682C115.483 181.235 115.372 180.705 115.372 180.091C115.372 179.477 115.483 178.947 115.704 178.5C115.926 178.053 116.23 177.708 116.616 177.466C117.002 177.223 117.444 177.102 117.94 177.102C118.436 177.102 118.877 177.223 119.264 177.466C119.65 177.708 119.954 178.053 120.176 178.5C120.397 178.947 120.508 179.477 120.508 180.091ZM119.826 180.091C119.826 179.587 119.742 179.162 119.574 178.815C119.407 178.469 119.181 178.206 118.895 178.028C118.61 177.85 118.292 177.761 117.94 177.761C117.588 177.761 117.269 177.85 116.983 178.028C116.699 178.206 116.472 178.469 116.304 178.815C116.137 179.162 116.054 179.587 116.054 180.091C116.054 180.595 116.137 181.02 116.304 181.366C116.472 181.713 116.699 181.975 116.983 182.153C117.269 182.331 117.588 182.42 117.94 182.42C118.292 182.42 118.61 182.331 118.895 182.153C119.181 181.975 119.407 181.713 119.574 181.366C119.742 181.02 119.826 180.595 119.826 180.091Z" fill="white"/>
<circle cx="50" cy="158" r="28" fill="#D7309E" fill-opacity="0.85"/>
<path d="M46.3668 157H45.6623C45.6206 156.797 45.5477 156.619 45.4435 156.466C45.3413 156.312 45.2163 156.184 45.0685 156.08C44.9227 155.973 44.7608 155.894 44.5827 155.841C44.4047 155.788 44.2191 155.761 44.0259 155.761C43.6737 155.761 43.3545 155.85 43.0685 156.028C42.7844 156.206 42.5581 156.469 42.3896 156.815C42.2229 157.162 42.1396 157.587 42.1396 158.091C42.1396 158.595 42.2229 159.02 42.3896 159.366C42.5581 159.713 42.7844 159.975 43.0685 160.153C43.3545 160.331 43.6737 160.42 44.0259 160.42C44.2191 160.42 44.4047 160.394 44.5827 160.341C44.7608 160.288 44.9227 160.209 45.0685 160.105C45.2163 159.999 45.3413 159.869 45.4435 159.716C45.5477 159.561 45.6206 159.383 45.6623 159.182H46.3668C46.3138 159.479 46.2172 159.745 46.0771 159.98C45.9369 160.215 45.7627 160.415 45.5543 160.58C45.346 160.742 45.1121 160.866 44.8526 160.952C44.5951 161.037 44.3195 161.08 44.0259 161.08C43.5297 161.08 43.0884 160.958 42.7021 160.716C42.3157 160.473 42.0117 160.129 41.7901 159.682C41.5685 159.235 41.4577 158.705 41.4577 158.091C41.4577 157.477 41.5685 156.947 41.7901 156.5C42.0117 156.053 42.3157 155.708 42.7021 155.466C43.0884 155.223 43.5297 155.102 44.0259 155.102C44.3195 155.102 44.5951 155.145 44.8526 155.23C45.1121 155.315 45.346 155.44 45.5543 155.605C45.7627 155.768 45.9369 155.967 46.0771 156.202C46.2172 156.435 46.3138 156.701 46.3668 157ZM47.5053 155.182H48.3462L50.3235 160.011H50.3917L52.369 155.182H53.2099V161H52.5508V156.58H52.494L50.6758 161H50.0394L48.2212 156.58H48.1644V161H47.5053V155.182ZM57.8043 156.636C57.7702 156.348 57.632 156.125 57.3896 155.966C57.1471 155.807 56.8498 155.727 56.4975 155.727C56.2399 155.727 56.0146 155.769 55.8214 155.852C55.6301 155.936 55.4805 156.05 55.3725 156.196C55.2665 156.342 55.2134 156.508 55.2134 156.693C55.2134 156.848 55.2504 156.982 55.3242 157.094C55.4 157.204 55.4966 157.295 55.614 157.369C55.7314 157.441 55.8545 157.501 55.9833 157.548C56.1121 157.594 56.2305 157.631 56.3384 157.659L56.9293 157.818C57.0808 157.858 57.2494 157.913 57.435 157.983C57.6225 158.053 57.8015 158.149 57.9719 158.27C58.1443 158.389 58.2863 158.543 58.3981 158.73C58.5098 158.918 58.5657 159.148 58.5657 159.42C58.5657 159.735 58.4833 160.019 58.3185 160.273C58.1557 160.527 57.917 160.728 57.6026 160.878C57.2901 161.027 56.9104 161.102 56.4634 161.102C56.0468 161.102 55.686 161.035 55.381 160.901C55.078 160.766 54.8394 160.579 54.6651 160.338C54.4928 160.098 54.3952 159.818 54.3725 159.5H55.0998C55.1187 159.72 55.1926 159.902 55.3214 160.045C55.4521 160.187 55.6168 160.294 55.8157 160.364C56.0165 160.432 56.2324 160.466 56.4634 160.466C56.7324 160.466 56.9738 160.422 57.1879 160.335C57.4019 160.246 57.5714 160.123 57.6964 159.966C57.8214 159.807 57.8839 159.621 57.8839 159.409C57.8839 159.216 57.8299 159.059 57.7219 158.938C57.614 158.816 57.4719 158.718 57.2958 158.642C57.1197 158.566 56.9293 158.5 56.7248 158.443L56.0089 158.239C55.5543 158.108 55.1945 157.921 54.9293 157.679C54.6642 157.437 54.5316 157.119 54.5316 156.727C54.5316 156.402 54.6197 156.117 54.7958 155.875C54.9738 155.631 55.2125 155.441 55.5117 155.307C55.8129 155.17 56.149 155.102 56.5202 155.102C56.8952 155.102 57.2286 155.17 57.5202 155.304C57.8119 155.437 58.043 155.618 58.2134 155.849C58.3858 156.08 58.4767 156.343 58.4862 156.636H57.8043Z" fill="white"/>
<circle cx="67.5" cy="208.5" r="21.5" fill="#D7309E" fill-opacity="0.85"/>
<path d="M60.7514 211V205.182H64.2401V205.807H61.456V207.773H63.9787V208.398H61.456V211H60.7514ZM65.1286 205.807V205.182H69.4922V205.807H67.6626V211H66.9581V205.807H65.1286ZM70.5795 211V205.182H72.5455C73.0019 205.182 73.375 205.264 73.6648 205.429C73.9564 205.592 74.1723 205.812 74.3125 206.091C74.4527 206.369 74.5227 206.68 74.5227 207.023C74.5227 207.366 74.4527 207.677 74.3125 207.957C74.1742 208.238 73.9602 208.461 73.6705 208.628C73.3807 208.793 73.0095 208.875 72.5568 208.875H71.1477V208.25H72.5341C72.8466 208.25 73.0975 208.196 73.2869 208.088C73.4763 207.98 73.6136 207.834 73.6989 207.651C73.786 207.465 73.8295 207.256 73.8295 207.023C73.8295 206.79 73.786 206.581 73.6989 206.398C73.6136 206.214 73.4754 206.07 73.2841 205.966C73.0928 205.86 72.839 205.807 72.5227 205.807H71.2841V211H70.5795Z" fill="white"/>
<circle cx="28" cy="102" r="28" fill="#D7309E" fill-opacity="0.85"/>
<path d="M19.2209 96C19.1584 95.8087 19.076 95.6373 18.9737 95.4858C18.8733 95.3324 18.7531 95.2017 18.6129 95.0938C18.4747 94.9858 18.3175 94.9034 18.1413 94.8466C17.9652 94.7898 17.772 94.7614 17.5618 94.7614C17.2171 94.7614 16.9036 94.8504 16.6214 95.0284C16.3393 95.2064 16.1148 95.4688 15.9482 95.8153C15.7815 96.1619 15.6982 96.5871 15.6982 97.0909C15.6982 97.5947 15.7824 98.0199 15.951 98.3665C16.1196 98.7131 16.3478 98.9754 16.6357 99.1534C16.9235 99.3314 17.2474 99.4205 17.6072 99.4205C17.9406 99.4205 18.2341 99.3494 18.4879 99.2074C18.7436 99.0634 18.9425 98.8608 19.0845 98.5994C19.2285 98.3362 19.3004 98.0265 19.3004 97.6705L19.5163 97.7159H17.7663V97.0909H19.9822V97.7159C19.9822 98.1951 19.88 98.6117 19.6754 98.9659C19.4728 99.3201 19.1925 99.5947 18.8345 99.7898C18.4785 99.983 18.0694 100.08 17.6072 100.08C17.0921 100.08 16.6394 99.9583 16.2493 99.7159C15.861 99.4735 15.558 99.1288 15.3402 98.6818C15.1243 98.2348 15.0163 97.7045 15.0163 97.0909C15.0163 96.6307 15.0779 96.2169 15.201 95.8494C15.326 95.4801 15.5021 95.1657 15.7294 94.9062C15.9567 94.6468 16.2256 94.4479 16.5362 94.3097C16.8468 94.1714 17.1887 94.1023 17.5618 94.1023C17.8686 94.1023 18.1546 94.1487 18.4197 94.2415C18.6868 94.3324 18.9245 94.4621 19.1328 94.6307C19.343 94.7973 19.5182 94.9972 19.6584 95.2301C19.7985 95.4612 19.8951 95.7178 19.9482 96H19.2209ZM22.8707 100.091C22.4768 100.091 22.1312 99.9972 21.8338 99.8097C21.5384 99.6222 21.3073 99.3598 21.1406 99.0227C20.9759 98.6856 20.8935 98.2917 20.8935 97.8409C20.8935 97.3864 20.9759 96.9896 21.1406 96.6506C21.3073 96.3116 21.5384 96.0483 21.8338 95.8608C22.1312 95.6733 22.4768 95.5795 22.8707 95.5795C23.2647 95.5795 23.6094 95.6733 23.9048 95.8608C24.2022 96.0483 24.4332 96.3116 24.598 96.6506C24.7647 96.9896 24.848 97.3864 24.848 97.8409C24.848 98.2917 24.7647 98.6856 24.598 99.0227C24.4332 99.3598 24.2022 99.6222 23.9048 99.8097C23.6094 99.9972 23.2647 100.091 22.8707 100.091ZM22.8707 99.4886C23.17 99.4886 23.4162 99.4119 23.6094 99.2585C23.8026 99.1051 23.9455 98.9034 24.0384 98.6534C24.1312 98.4034 24.1776 98.1326 24.1776 97.8409C24.1776 97.5492 24.1312 97.2775 24.0384 97.0256C23.9455 96.7737 23.8026 96.5701 23.6094 96.4148C23.4162 96.2595 23.17 96.1818 22.8707 96.1818C22.5715 96.1818 22.3253 96.2595 22.1321 96.4148C21.9389 96.5701 21.7959 96.7737 21.7031 97.0256C21.6103 97.2775 21.5639 97.5492 21.5639 97.8409C21.5639 98.1326 21.6103 98.4034 21.7031 98.6534C21.7959 98.9034 21.9389 99.1051 22.1321 99.2585C22.3253 99.4119 22.5715 99.4886 22.8707 99.4886ZM27.6442 100.091C27.2502 100.091 26.9046 99.9972 26.6072 99.8097C26.3118 99.6222 26.0807 99.3598 25.9141 99.0227C25.7493 98.6856 25.6669 98.2917 25.6669 97.8409C25.6669 97.3864 25.7493 96.9896 25.9141 96.6506C26.0807 96.3116 26.3118 96.0483 26.6072 95.8608C26.9046 95.6733 27.2502 95.5795 27.6442 95.5795C28.0381 95.5795 28.3828 95.6733 28.6783 95.8608C28.9756 96.0483 29.2067 96.3116 29.3714 96.6506C29.5381 96.9896 29.6214 97.3864 29.6214 97.8409C29.6214 98.2917 29.5381 98.6856 29.3714 99.0227C29.2067 99.3598 28.9756 99.6222 28.6783 99.8097C28.3828 99.9972 28.0381 100.091 27.6442 100.091ZM27.6442 99.4886C27.9434 99.4886 28.1896 99.4119 28.3828 99.2585C28.576 99.1051 28.719 98.9034 28.8118 98.6534C28.9046 98.4034 28.951 98.1326 28.951 97.8409C28.951 97.5492 28.9046 97.2775 28.8118 97.0256C28.719 96.7737 28.576 96.5701 28.3828 96.4148C28.1896 96.2595 27.9434 96.1818 27.6442 96.1818C27.3449 96.1818 27.0987 96.2595 26.9055 96.4148C26.7124 96.5701 26.5694 96.7737 26.4766 97.0256C26.3838 97.2775 26.3374 97.5492 26.3374 97.8409C26.3374 98.1326 26.3838 98.4034 26.4766 98.6534C26.5694 98.9034 26.7124 99.1051 26.9055 99.2585C27.0987 99.4119 27.3449 99.4886 27.6442 99.4886ZM32.4062 101.727C32.0824 101.727 31.804 101.686 31.571 101.602C31.3381 101.521 31.1439 101.413 30.9886 101.278C30.8352 101.146 30.7131 101.004 30.6222 100.852L31.1562 100.477C31.2169 100.557 31.2936 100.648 31.3864 100.75C31.4792 100.854 31.6061 100.944 31.767 101.02C31.9299 101.098 32.143 101.136 32.4062 101.136C32.7585 101.136 33.0492 101.051 33.2784 100.881C33.5076 100.71 33.6222 100.443 33.6222 100.08V99.1932H33.5653C33.5161 99.2727 33.446 99.3712 33.3551 99.4886C33.2661 99.6042 33.1373 99.7074 32.9688 99.7983C32.8021 99.8873 32.5767 99.9318 32.2926 99.9318C31.9403 99.9318 31.6241 99.8485 31.3438 99.6818C31.0653 99.5152 30.8447 99.2727 30.6818 98.9545C30.5208 98.6364 30.4403 98.25 30.4403 97.7955C30.4403 97.3485 30.5189 96.9593 30.6761 96.6278C30.8333 96.2945 31.0521 96.0369 31.3324 95.8551C31.6127 95.6714 31.9366 95.5795 32.304 95.5795C32.5881 95.5795 32.8134 95.6269 32.9801 95.7216C33.1487 95.8144 33.2775 95.9205 33.3665 96.0398C33.4574 96.1572 33.5275 96.2538 33.5767 96.3295H33.6449V95.6364H34.2926V100.125C34.2926 100.5 34.2074 100.805 34.0369 101.04C33.8684 101.277 33.6411 101.45 33.3551 101.56C33.071 101.671 32.7547 101.727 32.4062 101.727ZM32.3835 99.3295C32.6525 99.3295 32.8797 99.268 33.0653 99.1449C33.2509 99.0218 33.392 98.8447 33.4886 98.6136C33.5852 98.3826 33.6335 98.1061 33.6335 97.7841C33.6335 97.4697 33.5862 97.1922 33.4915 96.9517C33.3968 96.7112 33.2566 96.5227 33.071 96.3864C32.8854 96.25 32.6563 96.1818 32.3835 96.1818C32.0994 96.1818 31.8627 96.2538 31.6733 96.3977C31.4858 96.5417 31.3447 96.7348 31.25 96.9773C31.1572 97.2197 31.1108 97.4886 31.1108 97.7841C31.1108 98.0871 31.1581 98.3551 31.2528 98.5881C31.3494 98.8191 31.4915 99.0009 31.679 99.1335C31.8684 99.2642 32.1032 99.3295 32.3835 99.3295ZM36.1903 94.1818V100H35.5199V94.1818H36.1903ZM39.2479 100.091C38.8274 100.091 38.4647 99.9981 38.1598 99.8125C37.8568 99.625 37.6229 99.3636 37.4581 99.0284C37.2952 98.6913 37.2138 98.2992 37.2138 97.8523C37.2138 97.4053 37.2952 97.0114 37.4581 96.6705C37.6229 96.3277 37.852 96.0606 38.1456 95.8693C38.4411 95.6761 38.7857 95.5795 39.1797 95.5795C39.407 95.5795 39.6314 95.6174 39.853 95.6932C40.0746 95.7689 40.2763 95.892 40.4581 96.0625C40.6399 96.2311 40.7848 96.4545 40.8928 96.733C41.0007 97.0114 41.0547 97.3542 41.0547 97.7614V98.0455H37.6911V97.4659H40.3729C40.3729 97.2197 40.3236 97 40.2251 96.8068C40.1286 96.6136 39.9903 96.4612 39.8104 96.3494C39.6323 96.2377 39.4221 96.1818 39.1797 96.1818C38.9126 96.1818 38.6816 96.2481 38.4865 96.3807C38.2933 96.5114 38.1446 96.6818 38.0405 96.892C37.9363 97.1023 37.8842 97.3277 37.8842 97.5682V97.9545C37.8842 98.2841 37.9411 98.5634 38.0547 98.7926C38.1702 99.0199 38.3303 99.1932 38.5348 99.3125C38.7393 99.4299 38.977 99.4886 39.2479 99.4886C39.424 99.4886 39.5831 99.464 39.7251 99.4148C39.8691 99.3636 39.9931 99.2879 40.0973 99.1875C40.2015 99.0852 40.282 98.9583 40.3388 98.8068L40.9865 98.9886C40.9183 99.2083 40.8037 99.4015 40.6428 99.5682C40.4818 99.733 40.2829 99.8617 40.0462 99.9545C39.8094 100.045 39.5433 100.091 39.2479 100.091ZM11.744 110H11.0053L13.1417 104.182H13.869L16.0053 110H15.2667L13.5281 105.102H13.4826L11.744 110ZM12.0167 107.727H14.994V108.352H12.0167V107.727ZM17.4911 107.375V110H16.8207V105.636H17.4684V106.318H17.5252C17.6275 106.097 17.7828 105.919 17.9911 105.784C18.1995 105.648 18.4684 105.58 18.7979 105.58C19.0934 105.58 19.3519 105.64 19.5735 105.761C19.7951 105.881 19.9674 106.062 20.0906 106.307C20.2137 106.549 20.2752 106.856 20.2752 107.227V110H19.6048V107.273C19.6048 106.93 19.5157 106.663 19.3377 106.472C19.1597 106.278 18.9154 106.182 18.6048 106.182C18.3907 106.182 18.1995 106.228 18.0309 106.321C17.8642 106.414 17.7326 106.549 17.636 106.727C17.5394 106.905 17.4911 107.121 17.4911 107.375ZM22.7844 110.102C22.5079 110.102 22.257 110.05 22.0316 109.946C21.8062 109.84 21.6272 109.688 21.4947 109.489C21.3621 109.288 21.2958 109.045 21.2958 108.761C21.2958 108.511 21.3451 108.309 21.4435 108.153C21.542 107.996 21.6737 107.873 21.8384 107.784C22.0032 107.695 22.185 107.629 22.3839 107.585C22.5846 107.54 22.7863 107.504 22.989 107.477C23.2541 107.443 23.4691 107.418 23.6339 107.401C23.8005 107.382 23.9218 107.35 23.9975 107.307C24.0752 107.263 24.114 107.187 24.114 107.08V107.057C24.114 106.777 24.0373 106.559 23.8839 106.403C23.7324 106.248 23.5022 106.17 23.1935 106.17C22.8735 106.17 22.6225 106.241 22.4407 106.381C22.2589 106.521 22.131 106.67 22.0572 106.83L21.4208 106.602C21.5344 106.337 21.686 106.131 21.8754 105.983C22.0666 105.833 22.275 105.729 22.5004 105.67C22.7276 105.61 22.9511 105.58 23.1708 105.58C23.311 105.58 23.4719 105.597 23.6538 105.631C23.8375 105.663 24.0146 105.73 24.185 105.832C24.3574 105.935 24.5004 106.089 24.614 106.295C24.7276 106.502 24.7844 106.778 24.7844 107.125V110H24.114V109.409H24.0799C24.0344 109.504 23.9587 109.605 23.8526 109.713C23.7466 109.821 23.6055 109.913 23.4293 109.989C23.2532 110.064 23.0382 110.102 22.7844 110.102ZM22.8867 109.5C23.1519 109.5 23.3754 109.448 23.5572 109.344C23.7409 109.24 23.8791 109.105 23.9719 108.94C24.0666 108.776 24.114 108.602 24.114 108.42V107.807C24.0856 107.841 24.0231 107.872 23.9265 107.901C23.8318 107.927 23.7219 107.951 23.5969 107.972C23.4738 107.991 23.3536 108.008 23.2362 108.023C23.1206 108.036 23.0269 108.047 22.9549 108.057C22.7807 108.08 22.6178 108.116 22.4663 108.168C22.3166 108.217 22.1954 108.292 22.1026 108.392C22.0117 108.491 21.9663 108.625 21.9663 108.795C21.9663 109.028 22.0524 109.205 22.2248 109.324C22.399 109.441 22.6197 109.5 22.8867 109.5ZM26.6786 104.182V110H26.0082V104.182H26.6786ZM28.3384 111.636C28.2248 111.636 28.1235 111.627 28.0344 111.608C27.9454 111.591 27.8839 111.574 27.8498 111.557L28.0202 110.966C28.1831 111.008 28.3271 111.023 28.4521 111.011C28.5771 111 28.6879 110.944 28.7844 110.844C28.8829 110.745 28.9729 110.585 29.0543 110.364L29.1793 110.023L27.5657 105.636H28.293L29.4975 109.114H29.543L30.7475 105.636H31.4748L29.6225 110.636C29.5392 110.862 29.436 111.048 29.3129 111.196C29.1897 111.346 29.0468 111.456 28.8839 111.528C28.7229 111.6 28.5411 111.636 28.3384 111.636ZM34.2575 105.636V106.205H31.9961V105.636H34.2575ZM32.6552 104.591H33.3256V108.75C33.3256 108.939 33.3531 109.081 33.408 109.176C33.4648 109.269 33.5368 109.331 33.6239 109.364C33.7129 109.394 33.8067 109.409 33.9052 109.409C33.979 109.409 34.0397 109.405 34.087 109.398C34.1344 109.388 34.1722 109.381 34.2006 109.375L34.337 109.977C34.2915 109.994 34.2281 110.011 34.1467 110.028C34.0652 110.047 33.962 110.057 33.837 110.057C33.6476 110.057 33.462 110.016 33.2802 109.935C33.1003 109.853 32.9506 109.729 32.8313 109.562C32.7139 109.396 32.6552 109.186 32.6552 108.932V104.591ZM35.266 110V105.636H35.9364V110H35.266ZM35.6069 104.909C35.4762 104.909 35.3635 104.865 35.2688 104.776C35.176 104.687 35.1296 104.58 35.1296 104.455C35.1296 104.33 35.176 104.223 35.2688 104.134C35.3635 104.045 35.4762 104 35.6069 104C35.7376 104 35.8493 104.045 35.9421 104.134C36.0368 104.223 36.0842 104.33 36.0842 104.455C36.0842 104.58 36.0368 104.687 35.9421 104.776C35.8493 104.865 35.7376 104.909 35.6069 104.909ZM38.9371 110.091C38.5281 110.091 38.1758 109.994 37.8803 109.801C37.5849 109.608 37.3576 109.342 37.1985 109.003C37.0394 108.664 36.9599 108.277 36.9599 107.841C36.9599 107.398 37.0413 107.007 37.2042 106.668C37.369 106.327 37.5981 106.061 37.8917 105.869C38.1871 105.676 38.5318 105.58 38.9258 105.58C39.2326 105.58 39.5091 105.636 39.7553 105.75C40.0015 105.864 40.2032 106.023 40.3604 106.227C40.5176 106.432 40.6152 106.67 40.6531 106.943H39.9826C39.9315 106.744 39.8178 106.568 39.6417 106.415C39.4674 106.259 39.2326 106.182 38.9371 106.182C38.6758 106.182 38.4466 106.25 38.2496 106.386C38.0546 106.521 37.9021 106.711 37.7923 106.957C37.6843 107.202 37.6303 107.489 37.6303 107.818C37.6303 108.155 37.6834 108.449 37.7894 108.699C37.8974 108.949 38.0489 109.143 38.244 109.281C38.4409 109.42 38.672 109.489 38.9371 109.489C39.1114 109.489 39.2695 109.458 39.4116 109.398C39.5536 109.337 39.6739 109.25 39.7724 109.136C39.8709 109.023 39.9409 108.886 39.9826 108.727H40.6531C40.6152 108.985 40.5214 109.217 40.3718 109.423C40.2241 109.628 40.0281 109.791 39.7837 109.912C39.5413 110.031 39.2591 110.091 38.9371 110.091ZM44.7241 106.614L44.1218 106.784C44.0839 106.684 44.0281 106.586 43.9542 106.491C43.8822 106.395 43.7837 106.315 43.6587 106.253C43.5337 106.19 43.3737 106.159 43.1786 106.159C42.9116 106.159 42.689 106.221 42.511 106.344C42.3349 106.465 42.2468 106.619 42.2468 106.807C42.2468 106.973 42.3074 107.105 42.4286 107.202C42.5498 107.298 42.7392 107.379 42.9968 107.443L43.6445 107.602C44.0347 107.697 44.3254 107.842 44.5167 108.037C44.708 108.23 44.8036 108.479 44.8036 108.784C44.8036 109.034 44.7317 109.258 44.5877 109.455C44.4457 109.652 44.2468 109.807 43.9911 109.92C43.7354 110.034 43.4381 110.091 43.0991 110.091C42.654 110.091 42.2856 109.994 41.994 109.801C41.7023 109.608 41.5176 109.326 41.44 108.955L42.0763 108.795C42.137 109.03 42.2515 109.206 42.4201 109.324C42.5906 109.441 42.8131 109.5 43.0877 109.5C43.4002 109.5 43.6483 109.434 43.832 109.301C44.0176 109.167 44.1104 109.006 44.1104 108.818C44.1104 108.667 44.0574 108.54 43.9513 108.438C43.8453 108.333 43.6824 108.256 43.4627 108.205L42.7354 108.034C42.3358 107.939 42.0423 107.793 41.8548 107.594C41.6692 107.393 41.5763 107.142 41.5763 106.841C41.5763 106.595 41.6455 106.377 41.7837 106.188C41.9239 105.998 42.1142 105.849 42.3548 105.741C42.5972 105.634 42.8718 105.58 43.1786 105.58C43.6104 105.58 43.9495 105.674 44.1957 105.864C44.4438 106.053 44.6199 106.303 44.7241 106.614Z" fill="white"/>
<circle cx="168" cy="43" r="20" fill="#6F30D7" fill-opacity="0.85"/>
<path d="M157.369 46V40.1818H158.073V42.7727H161.175V40.1818H161.88V46H161.175V43.3977H158.073V46H157.369ZM162.972 40.8068V40.1818H167.336V40.8068H165.506V46H164.802V40.8068H162.972ZM168.423 40.1818H169.264L171.241 45.0114H171.31L173.287 40.1818H174.128V46H173.469V41.5795H173.412L171.594 46H170.957L169.139 41.5795H169.082V46H168.423V40.1818ZM175.54 46V40.1818H176.245V45.375H178.95V46H175.54Z" fill="white"/>
<circle cx="48" cy="54" r="20" fill="#6F30D7" fill-opacity="0.85"/>
<path d="M31.7302 57L30.3381 51.9091H30.9645L32.0285 56.0554H32.0782L33.162 51.9091H33.858L34.9418 56.0554H34.9915L36.0554 51.9091H36.6819L35.2898 57H34.6535L33.5299 52.9432H33.4901L32.3665 57H31.7302ZM38.5661 57.0795C38.2214 57.0795 37.919 56.9975 37.6588 56.8335C37.4003 56.6694 37.1981 56.4399 37.0522 56.1449C36.9081 55.8499 36.836 55.5052 36.836 55.1108C36.836 54.7131 36.9081 54.3659 37.0522 54.0692C37.1981 53.7726 37.4003 53.5423 37.6588 53.3782C37.919 53.2141 38.2214 53.1321 38.5661 53.1321C38.9108 53.1321 39.2124 53.2141 39.4709 53.3782C39.7311 53.5423 39.9333 53.7726 40.0775 54.0692C40.2233 54.3659 40.2962 54.7131 40.2962 55.1108C40.2962 55.5052 40.2233 55.8499 40.0775 56.1449C39.9333 56.4399 39.7311 56.6694 39.4709 56.8335C39.2124 56.9975 38.9108 57.0795 38.5661 57.0795ZM38.5661 56.5526C38.8279 56.5526 39.0434 56.4854 39.2124 56.3512C39.3814 56.217 39.5066 56.0405 39.5878 55.8217C39.669 55.603 39.7096 55.366 39.7096 55.1108C39.7096 54.8556 39.669 54.6178 39.5878 54.3974C39.5066 54.177 39.3814 53.9988 39.2124 53.8629C39.0434 53.727 38.8279 53.6591 38.5661 53.6591C38.3043 53.6591 38.0888 53.727 37.9198 53.8629C37.7508 53.9988 37.6256 54.177 37.5444 54.3974C37.4632 54.6178 37.4226 54.8556 37.4226 55.1108C37.4226 55.366 37.4632 55.603 37.5444 55.8217C37.6256 56.0405 37.7508 56.217 37.9198 56.3512C38.0888 56.4854 38.3043 56.5526 38.5661 56.5526ZM41.1917 57V53.1818H41.7585V53.7585H41.7983C41.8679 53.5696 41.9938 53.4163 42.1761 53.2987C42.3584 53.181 42.5639 53.1222 42.7926 53.1222C42.8357 53.1222 42.8895 53.123 42.9541 53.1246C43.0188 53.1263 43.0677 53.1288 43.1008 53.1321V53.7287C43.0809 53.7237 43.0353 53.7163 42.9641 53.7063C42.8945 53.6947 42.8207 53.6889 42.7429 53.6889C42.5572 53.6889 42.3915 53.7279 42.2457 53.8058C42.1015 53.882 41.9872 53.988 41.9027 54.1239C41.8198 54.2582 41.7784 54.4115 41.7784 54.5838V57H41.1917ZM45.1218 57.0795C44.8036 57.0795 44.5227 56.9992 44.2791 56.8384C44.0355 56.676 43.8449 56.4473 43.7073 56.1523C43.5698 55.8557 43.501 55.5052 43.501 55.1009C43.501 54.6998 43.5698 54.3518 43.7073 54.0568C43.8449 53.7618 44.0363 53.534 44.2816 53.3732C44.5268 53.2125 44.8102 53.1321 45.1317 53.1321C45.3803 53.1321 45.5767 53.1735 45.7208 53.2564C45.8667 53.3376 45.9777 53.4304 46.0539 53.5348C46.1318 53.6375 46.1923 53.7221 46.2354 53.7884H46.2851V51.9091H46.8718V57H46.305V56.4134H46.2354C46.1923 56.483 46.131 56.5708 46.0514 56.6768C45.9719 56.7812 45.8584 56.8749 45.7109 56.9577C45.5634 57.0389 45.367 57.0795 45.1218 57.0795ZM45.2013 56.5526C45.4366 56.5526 45.6355 56.4912 45.7979 56.3686C45.9603 56.2443 46.0838 56.0728 46.1683 55.854C46.2528 55.6336 46.2951 55.3793 46.2951 55.0909C46.2951 54.8059 46.2536 54.5565 46.1708 54.3427C46.0879 54.1272 45.9653 53.9599 45.8029 53.8406C45.6405 53.7196 45.4399 53.6591 45.2013 53.6591C44.9527 53.6591 44.7456 53.7229 44.5799 53.8505C44.4158 53.9764 44.2923 54.148 44.2095 54.3651C44.1283 54.5805 44.0877 54.8224 44.0877 55.0909C44.0877 55.3627 44.1291 55.6096 44.212 55.8317C44.2965 56.0521 44.4208 56.2277 44.5848 56.3587C44.7505 56.4879 44.956 56.5526 45.2013 56.5526ZM48.1072 57V51.9091H49.8274C50.2268 51.9091 50.5532 51.9812 50.8068 52.1254C51.062 52.2679 51.2509 52.4609 51.3735 52.7045C51.4962 52.9482 51.5575 53.2199 51.5575 53.5199C51.5575 53.8198 51.4962 54.0924 51.3735 54.3377C51.2526 54.583 51.0653 54.7785 50.8117 54.9244C50.5582 55.0685 50.2334 55.1406 49.8373 55.1406H48.6044V54.5938H49.8174C50.0909 54.5938 50.3104 54.5465 50.4762 54.4521C50.6419 54.3576 50.762 54.23 50.8366 54.0692C50.9128 53.9068 50.9509 53.7237 50.9509 53.5199C50.9509 53.3161 50.9128 53.1338 50.8366 52.973C50.762 52.8123 50.6411 52.6863 50.4737 52.5952C50.3063 52.5024 50.0842 52.456 49.8075 52.456H48.7237V57H48.1072ZM52.471 57V53.1818H53.0378V53.7585H53.0775C53.1472 53.5696 53.2731 53.4163 53.4554 53.2987C53.6377 53.181 53.8432 53.1222 54.0719 53.1222C54.115 53.1222 54.1688 53.123 54.2334 53.1246C54.2981 53.1263 54.347 53.1288 54.3801 53.1321V53.7287C54.3602 53.7237 54.3146 53.7163 54.2434 53.7063C54.1738 53.6947 54.1 53.6889 54.0222 53.6889C53.8365 53.6889 53.6708 53.7279 53.525 53.8058C53.3808 53.882 53.2665 53.988 53.182 54.1239C53.0991 54.2582 53.0577 54.4115 53.0577 54.5838V57H52.471ZM56.5601 57.0795C56.1922 57.0795 55.8749 56.9983 55.6081 56.8359C55.3429 56.6719 55.1383 56.4432 54.9941 56.1499C54.8516 55.8549 54.7803 55.5118 54.7803 55.1207C54.7803 54.7296 54.8516 54.3849 54.9941 54.0866C55.1383 53.7867 55.3388 53.553 55.5957 53.3857C55.8542 53.2166 56.1558 53.1321 56.5005 53.1321C56.6994 53.1321 56.8957 53.1652 57.0896 53.2315C57.2835 53.2978 57.46 53.4055 57.6191 53.5547C57.7782 53.7022 57.905 53.8977 57.9994 54.1413C58.0939 54.3849 58.1411 54.6849 58.1411 55.0412V55.2898H55.1979V54.7827H57.5445C57.5445 54.5672 57.5014 54.375 57.4153 54.206C57.3307 54.0369 57.2098 53.9035 57.0523 53.8058C56.8966 53.708 56.7126 53.6591 56.5005 53.6591C56.2668 53.6591 56.0646 53.7171 55.894 53.8331C55.7249 53.9474 55.5948 54.0966 55.5037 54.2805C55.4125 54.4645 55.367 54.6617 55.367 54.8722V55.2102C55.367 55.4986 55.4167 55.743 55.5161 55.9435C55.6172 56.1424 55.7572 56.294 55.9362 56.3984C56.1152 56.5012 56.3232 56.5526 56.5601 56.5526C56.7143 56.5526 56.8535 56.531 56.9778 56.4879C57.1037 56.4432 57.2123 56.3769 57.3034 56.2891C57.3945 56.1996 57.465 56.0885 57.5147 55.956L58.0815 56.1151C58.0218 56.3073 57.9215 56.4763 57.7807 56.6222C57.6398 56.7663 57.4658 56.879 57.2587 56.9602C57.0515 57.0398 56.8187 57.0795 56.5601 57.0795ZM61.7381 54.0369L61.2111 54.1861C61.1779 54.0982 61.129 54.0129 61.0644 53.93C61.0014 53.8455 60.9153 53.7759 60.8059 53.7212C60.6965 53.6665 60.5565 53.6392 60.3858 53.6392C60.1521 53.6392 59.9574 53.6931 59.8016 53.8008C59.6475 53.9068 59.5704 54.0419 59.5704 54.206C59.5704 54.3518 59.6235 54.467 59.7295 54.5515C59.8356 54.636 60.0013 54.7064 60.2267 54.7628L60.7935 54.902C61.1348 54.9848 61.3892 55.1116 61.5566 55.2823C61.724 55.4513 61.8077 55.6693 61.8077 55.9361C61.8077 56.1548 61.7447 56.3504 61.6187 56.5227C61.4945 56.6951 61.3204 56.831 61.0967 56.9304C60.873 57.0298 60.6128 57.0795 60.3162 57.0795C59.9267 57.0795 59.6044 56.995 59.3492 56.826C59.094 56.657 58.9324 56.41 58.8645 56.0852L59.4213 55.946C59.4743 56.1515 59.5746 56.3056 59.7221 56.4084C59.8712 56.5111 60.0659 56.5625 60.3062 56.5625C60.5797 56.5625 60.7968 56.5045 60.9575 56.3885C61.1199 56.2708 61.2011 56.13 61.2011 55.9659C61.2011 55.8333 61.1547 55.7223 61.0619 55.6328C60.9691 55.5417 60.8266 55.4737 60.6344 55.429L59.998 55.2798C59.6483 55.197 59.3915 55.0685 59.2274 54.8945C59.065 54.7189 58.9838 54.4993 58.9838 54.2358C58.9838 54.0204 59.0443 53.8298 59.1653 53.6641C59.2879 53.4983 59.4544 53.3683 59.6649 53.2738C59.877 53.1793 60.1173 53.1321 60.3858 53.1321C60.7636 53.1321 61.0603 53.215 61.2757 53.3807C61.4928 53.5464 61.6469 53.7652 61.7381 54.0369ZM65.3953 54.0369L64.8683 54.1861C64.8352 54.0982 64.7863 54.0129 64.7216 53.93C64.6587 53.8455 64.5725 53.7759 64.4631 53.7212C64.3537 53.6665 64.2137 53.6392 64.043 53.6392C63.8093 53.6392 63.6146 53.6931 63.4589 53.8008C63.3047 53.9068 63.2277 54.0419 63.2277 54.206C63.2277 54.3518 63.2807 54.467 63.3868 54.5515C63.4928 54.636 63.6585 54.7064 63.8839 54.7628L64.4507 54.902C64.7921 54.9848 65.0464 55.1116 65.2138 55.2823C65.3812 55.4513 65.4649 55.6693 65.4649 55.9361C65.4649 56.1548 65.4019 56.3504 65.276 56.5227C65.1517 56.6951 64.9777 56.831 64.754 56.9304C64.5302 57.0298 64.27 57.0795 63.9734 57.0795C63.584 57.0795 63.2616 56.995 63.0064 56.826C62.7512 56.657 62.5897 56.41 62.5217 56.0852L63.0785 55.946C63.1316 56.1515 63.2318 56.3056 63.3793 56.4084C63.5285 56.5111 63.7232 56.5625 63.9635 56.5625C64.2369 56.5625 64.454 56.5045 64.6147 56.3885C64.7772 56.2708 64.8584 56.13 64.8584 55.9659C64.8584 55.8333 64.812 55.7223 64.7191 55.6328C64.6263 55.5417 64.4838 55.4737 64.2916 55.429L63.6552 55.2798C63.3056 55.197 63.0487 55.0685 62.8846 54.8945C62.7222 54.7189 62.641 54.4993 62.641 54.2358C62.641 54.0204 62.7015 53.8298 62.8225 53.6641C62.9451 53.4983 63.1117 53.3683 63.3221 53.2738C63.5343 53.1793 63.7745 53.1321 64.043 53.1321C64.4209 53.1321 64.7175 53.215 64.9329 53.3807C65.15 53.5464 65.3041 53.7652 65.3953 54.0369Z" fill="white"/>
<circle cx="84" cy="28" r="20" fill="#6F30D7" fill-opacity="0.85"/>
<path d="M66.1928 31V25.1818H68.2269C68.6322 25.1818 68.9665 25.2519 69.2298 25.392C69.493 25.5303 69.689 25.7169 69.8178 25.9517C69.9466 26.1847 70.011 26.4432 70.011 26.7273C70.011 26.9773 69.9665 27.1837 69.8775 27.3466C69.7904 27.5095 69.6748 27.6383 69.5309 27.733C69.3888 27.8277 69.2345 27.8977 69.0678 27.9432V28C69.2459 28.0114 69.4248 28.0739 69.6048 28.1875C69.7847 28.3011 69.9353 28.464 70.0565 28.6761C70.1777 28.8883 70.2383 29.1477 70.2383 29.4545C70.2383 29.7462 70.172 30.0085 70.0394 30.2415C69.9068 30.4744 69.6976 30.6591 69.4116 30.7955C69.1256 30.9318 68.7534 31 68.2951 31H66.1928ZM66.8974 30.375H68.2951C68.7553 30.375 69.082 30.286 69.2752 30.108C69.4703 29.928 69.5678 29.7102 69.5678 29.4545C69.5678 29.2576 69.5176 29.0758 69.4173 28.9091C69.3169 28.7405 69.1739 28.6061 68.9883 28.5057C68.8027 28.4034 68.583 28.3523 68.3292 28.3523H66.8974V30.375ZM66.8974 27.7386H68.2042C68.4163 27.7386 68.6076 27.697 68.7781 27.6136C68.9504 27.5303 69.0868 27.4129 69.1871 27.2614C69.2894 27.1098 69.3406 26.9318 69.3406 26.7273C69.3406 26.4716 69.2515 26.2547 69.0735 26.0767C68.8955 25.8968 68.6133 25.8068 68.2269 25.8068H66.8974V27.7386ZM73.0778 31.0909C72.6838 31.0909 72.3382 30.9972 72.0408 30.8097C71.7454 30.6222 71.5143 30.3598 71.3477 30.0227C71.1829 29.6856 71.1005 29.2917 71.1005 28.8409C71.1005 28.3864 71.1829 27.9896 71.3477 27.6506C71.5143 27.3116 71.7454 27.0483 72.0408 26.8608C72.3382 26.6733 72.6838 26.5795 73.0778 26.5795C73.4717 26.5795 73.8164 26.6733 74.1119 26.8608C74.4092 27.0483 74.6403 27.3116 74.805 27.6506C74.9717 27.9896 75.055 28.3864 75.055 28.8409C75.055 29.2917 74.9717 29.6856 74.805 30.0227C74.6403 30.3598 74.4092 30.6222 74.1119 30.8097C73.8164 30.9972 73.4717 31.0909 73.0778 31.0909ZM73.0778 30.4886C73.377 30.4886 73.6232 30.4119 73.8164 30.2585C74.0096 30.1051 74.1526 29.9034 74.2454 29.6534C74.3382 29.4034 74.3846 29.1326 74.3846 28.8409C74.3846 28.5492 74.3382 28.2775 74.2454 28.0256C74.1526 27.7737 74.0096 27.5701 73.8164 27.4148C73.6232 27.2595 73.377 27.1818 73.0778 27.1818C72.7785 27.1818 72.5323 27.2595 72.3391 27.4148C72.146 27.5701 72.003 27.7737 71.9102 28.0256C71.8174 28.2775 71.771 28.5492 71.771 28.8409C71.771 29.1326 71.8174 29.4034 71.9102 29.6534C72.003 29.9034 72.146 30.1051 72.3391 30.2585C72.5323 30.4119 72.7785 30.4886 73.0778 30.4886ZM77.8512 31.0909C77.4573 31.0909 77.1116 30.9972 76.8143 30.8097C76.5188 30.6222 76.2878 30.3598 76.1211 30.0227C75.9563 29.6856 75.8739 29.2917 75.8739 28.8409C75.8739 28.3864 75.9563 27.9896 76.1211 27.6506C76.2878 27.3116 76.5188 27.0483 76.8143 26.8608C77.1116 26.6733 77.4573 26.5795 77.8512 26.5795C78.2451 26.5795 78.5898 26.6733 78.8853 26.8608C79.1826 27.0483 79.4137 27.3116 79.5785 27.6506C79.7451 27.9896 79.8285 28.3864 79.8285 28.8409C79.8285 29.2917 79.7451 29.6856 79.5785 30.0227C79.4137 30.3598 79.1826 30.6222 78.8853 30.8097C78.5898 30.9972 78.2451 31.0909 77.8512 31.0909ZM77.8512 30.4886C78.1504 30.4886 78.3967 30.4119 78.5898 30.2585C78.783 30.1051 78.926 29.9034 79.0188 29.6534C79.1116 29.4034 79.158 29.1326 79.158 28.8409C79.158 28.5492 79.1116 28.2775 79.0188 28.0256C78.926 27.7737 78.783 27.5701 78.5898 27.4148C78.3967 27.2595 78.1504 27.1818 77.8512 27.1818C77.552 27.1818 77.3058 27.2595 77.1126 27.4148C76.9194 27.5701 76.7764 27.7737 76.6836 28.0256C76.5908 28.2775 76.5444 28.5492 76.5444 28.8409C76.5444 29.1326 76.5908 29.4034 76.6836 29.6534C76.7764 29.9034 76.9194 30.1051 77.1126 30.2585C77.3058 30.4119 77.552 30.4886 77.8512 30.4886ZM82.7496 26.6364V27.2045H80.4883V26.6364H82.7496ZM81.1474 25.5909H81.8178V29.75C81.8178 29.9394 81.8453 30.0814 81.9002 30.1761C81.957 30.2689 82.029 30.3314 82.1161 30.3636C82.2051 30.3939 82.2989 30.4091 82.3974 30.4091C82.4712 30.4091 82.5318 30.4053 82.5792 30.3977C82.6265 30.3883 82.6644 30.3807 82.6928 30.375L82.8292 30.9773C82.7837 30.9943 82.7203 31.0114 82.6388 31.0284C82.5574 31.0473 82.4542 31.0568 82.3292 31.0568C82.1398 31.0568 81.9542 31.0161 81.7724 30.9347C81.5924 30.8532 81.4428 30.7292 81.3235 30.5625C81.2061 30.3958 81.1474 30.1856 81.1474 29.9318V25.5909ZM86.771 27.6136L86.1687 27.7841C86.1308 27.6837 86.0749 27.5862 86.0011 27.4915C85.9291 27.3949 85.8306 27.3153 85.7056 27.2528C85.5806 27.1903 85.4206 27.1591 85.2255 27.1591C84.9585 27.1591 84.7359 27.2206 84.5579 27.3438C84.3817 27.465 84.2937 27.6193 84.2937 27.8068C84.2937 27.9735 84.3543 28.1051 84.4755 28.2017C84.5967 28.2983 84.7861 28.3788 85.0437 28.4432L85.6914 28.6023C86.0816 28.697 86.3723 28.8419 86.5636 29.0369C86.7549 29.2301 86.8505 29.4792 86.8505 29.7841C86.8505 30.0341 86.7785 30.2576 86.6346 30.4545C86.4925 30.6515 86.2937 30.8068 86.038 30.9205C85.7823 31.0341 85.485 31.0909 85.146 31.0909C84.7009 31.0909 84.3325 30.9943 84.0408 30.8011C83.7492 30.608 83.5645 30.3258 83.4869 29.9545L84.1232 29.7955C84.1838 30.0303 84.2984 30.2064 84.467 30.3239C84.6374 30.4413 84.86 30.5 85.1346 30.5C85.4471 30.5 85.6952 30.4337 85.8789 30.3011C86.0645 30.1667 86.1573 30.0057 86.1573 29.8182C86.1573 29.6667 86.1043 29.5398 85.9982 29.4375C85.8922 29.3333 85.7293 29.2557 85.5096 29.2045L84.7823 29.0341C84.3827 28.9394 84.0891 28.7926 83.9016 28.5938C83.716 28.393 83.6232 28.142 83.6232 27.8409C83.6232 27.5947 83.6924 27.3769 83.8306 27.1875C83.9708 26.9981 84.1611 26.8494 84.4016 26.7415C84.6441 26.6335 84.9187 26.5795 85.2255 26.5795C85.6573 26.5795 85.9963 26.6742 86.2425 26.8636C86.4906 27.053 86.6668 27.303 86.771 27.6136ZM89.7575 26.6364V27.2045H87.4961V26.6364H89.7575ZM88.1552 25.5909H88.8256V29.75C88.8256 29.9394 88.8531 30.0814 88.908 30.1761C88.9648 30.2689 89.0368 30.3314 89.1239 30.3636C89.2129 30.3939 89.3067 30.4091 89.4052 30.4091C89.479 30.4091 89.5397 30.4053 89.587 30.3977C89.6344 30.3883 89.6722 30.3807 89.7006 30.375L89.837 30.9773C89.7915 30.9943 89.7281 31.0114 89.6467 31.0284C89.5652 31.0473 89.462 31.0568 89.337 31.0568C89.1476 31.0568 88.962 31.0161 88.7802 30.9347C88.6003 30.8532 88.4506 30.7292 88.3313 30.5625C88.2139 30.3958 88.1552 30.1856 88.1552 29.9318V25.5909ZM90.766 31V26.6364H91.4137V27.2955H91.4592C91.5387 27.0795 91.6826 26.9044 91.891 26.7699C92.0993 26.6354 92.3342 26.5682 92.5955 26.5682C92.6448 26.5682 92.7063 26.5691 92.7802 26.571C92.854 26.5729 92.9099 26.5758 92.9478 26.5795V27.2614C92.9251 27.2557 92.873 27.2472 92.7915 27.2358C92.712 27.2225 92.6277 27.2159 92.5387 27.2159C92.3266 27.2159 92.1372 27.2604 91.9705 27.3494C91.8058 27.4366 91.6751 27.5578 91.5785 27.7131C91.4838 27.8665 91.4364 28.0417 91.4364 28.2386V31H90.766ZM95.0266 31.1023C94.7501 31.1023 94.4992 31.0502 94.2738 30.946C94.0484 30.84 93.8694 30.6875 93.7369 30.4886C93.6043 30.2879 93.538 30.0455 93.538 29.7614C93.538 29.5114 93.5872 29.3087 93.6857 29.1534C93.7842 28.9962 93.9158 28.8731 94.0806 28.7841C94.2454 28.6951 94.4272 28.6288 94.6261 28.5852C94.8268 28.5398 95.0285 28.5038 95.2312 28.4773C95.4963 28.4432 95.7113 28.4176 95.8761 28.4006C96.0427 28.3816 96.1639 28.3504 96.2397 28.3068C96.3174 28.2633 96.3562 28.1875 96.3562 28.0795V28.0568C96.3562 27.7765 96.2795 27.5587 96.1261 27.4034C95.9746 27.2481 95.7444 27.1705 95.4357 27.1705C95.1156 27.1705 94.8647 27.2405 94.6829 27.3807C94.5011 27.5208 94.3732 27.6705 94.2994 27.8295L93.663 27.6023C93.7766 27.3371 93.9281 27.1307 94.1175 26.983C94.3088 26.8333 94.5172 26.7292 94.7425 26.6705C94.9698 26.6098 95.1933 26.5795 95.413 26.5795C95.5531 26.5795 95.7141 26.5966 95.896 26.6307C96.0797 26.6629 96.2567 26.7301 96.4272 26.8324C96.5996 26.9347 96.7425 27.089 96.8562 27.2955C96.9698 27.5019 97.0266 27.7784 97.0266 28.125V31H96.3562V30.4091H96.3221C96.2766 30.5038 96.2009 30.6051 96.0948 30.7131C95.9888 30.821 95.8477 30.9129 95.6715 30.9886C95.4954 31.0644 95.2804 31.1023 95.0266 31.1023ZM95.1289 30.5C95.3941 30.5 95.6175 30.4479 95.7994 30.3438C95.9831 30.2396 96.1213 30.1051 96.2141 29.9403C96.3088 29.7756 96.3562 29.6023 96.3562 29.4205V28.8068C96.3278 28.8409 96.2653 28.8722 96.1687 28.9006C96.074 28.9271 95.9641 28.9508 95.8391 28.9716C95.716 28.9905 95.5958 29.0076 95.4783 29.0227C95.3628 29.036 95.2691 29.0473 95.1971 29.0568C95.0228 29.0795 94.86 29.1165 94.7085 29.1676C94.5588 29.2169 94.4376 29.2917 94.3448 29.392C94.2539 29.4905 94.2085 29.625 94.2085 29.7955C94.2085 30.0284 94.2946 30.2045 94.467 30.3239C94.6412 30.4413 94.8619 30.5 95.1289 30.5ZM98.2504 32.6364V26.6364H98.8981V27.3295H98.9776C99.0269 27.2538 99.0951 27.1572 99.1822 27.0398C99.2712 26.9205 99.3981 26.8144 99.5629 26.7216C99.7295 26.6269 99.9549 26.5795 100.239 26.5795C100.606 26.5795 100.93 26.6714 101.211 26.8551C101.491 27.0388 101.71 27.2992 101.867 27.6364C102.024 27.9735 102.103 28.3712 102.103 28.8295C102.103 29.2917 102.024 29.6922 101.867 30.0312C101.71 30.3684 101.492 30.6297 101.213 30.8153C100.935 30.9991 100.614 31.0909 100.25 31.0909C99.9701 31.0909 99.7456 31.0445 99.5771 30.9517C99.4085 30.857 99.2788 30.75 99.1879 30.6307C99.0969 30.5095 99.0269 30.4091 98.9776 30.3295H98.9208V32.6364H98.2504ZM98.9094 28.8182C98.9094 29.1477 98.9577 29.4384 99.0543 29.6903C99.1509 29.9403 99.292 30.1364 99.4776 30.2784C99.6632 30.4186 99.8905 30.4886 100.159 30.4886C100.44 30.4886 100.674 30.4148 100.861 30.267C101.051 30.1174 101.193 29.9167 101.287 29.6648C101.384 29.411 101.432 29.1288 101.432 28.8182C101.432 28.5114 101.385 28.2348 101.29 27.9886C101.197 27.7405 101.056 27.5445 100.867 27.4006C100.679 27.2547 100.444 27.1818 100.159 27.1818C99.8867 27.1818 99.6576 27.2509 99.4719 27.3892C99.2863 27.5256 99.1462 27.7169 99.0515 27.9631C98.9568 28.2074 98.9094 28.4924 98.9094 28.8182Z" fill="white"/>
<circle cx="128" cy="20" r="20" fill="#6F30D7" fill-opacity="0.85"/>
<path d="M113.26 17.9091H113.877V21.5483C113.877 21.8731 113.817 22.149 113.698 22.3761C113.578 22.6031 113.41 22.7754 113.193 22.8931C112.976 23.0108 112.72 23.0696 112.425 23.0696C112.147 23.0696 111.899 23.0191 111.682 22.918C111.465 22.8152 111.294 22.6694 111.17 22.4805C111.045 22.2915 110.983 22.067 110.983 21.8068H111.59C111.59 21.951 111.625 22.0769 111.697 22.1847C111.77 22.2907 111.869 22.3736 111.995 22.4332C112.121 22.4929 112.264 22.5227 112.425 22.5227C112.602 22.5227 112.753 22.4854 112.877 22.4109C113.002 22.3363 113.096 22.2269 113.161 22.0827C113.227 21.9369 113.26 21.7588 113.26 21.5483V17.9091ZM116.156 23.0895C115.914 23.0895 115.695 23.0439 115.497 22.9528C115.3 22.86 115.144 22.7266 115.028 22.5526C114.912 22.3769 114.854 22.1648 114.854 21.9162C114.854 21.6974 114.897 21.5201 114.983 21.3842C115.069 21.2467 115.184 21.139 115.328 21.0611C115.473 20.9832 115.632 20.9252 115.806 20.8871C115.981 20.8473 116.158 20.8158 116.335 20.7926C116.567 20.7628 116.755 20.7404 116.899 20.7255C117.045 20.7089 117.151 20.6816 117.218 20.6435C117.285 20.6054 117.319 20.5391 117.319 20.4446V20.4247C117.319 20.1795 117.252 19.9889 117.118 19.853C116.986 19.7171 116.784 19.6491 116.514 19.6491C116.234 19.6491 116.014 19.7105 115.855 19.8331C115.696 19.9557 115.584 20.0866 115.52 20.2259L114.963 20.027C115.062 19.795 115.195 19.6143 115.361 19.4851C115.528 19.3542 115.71 19.263 115.908 19.2116C116.106 19.1586 116.302 19.1321 116.494 19.1321C116.617 19.1321 116.758 19.147 116.917 19.1768C117.078 19.205 117.232 19.2638 117.382 19.3533C117.532 19.4428 117.658 19.5779 117.757 19.7585C117.856 19.9392 117.906 20.1811 117.906 20.4844V23H117.319V22.483H117.29C117.25 22.5658 117.184 22.6545 117.091 22.7489C116.998 22.8434 116.875 22.9238 116.72 22.9901C116.566 23.0563 116.378 23.0895 116.156 23.0895ZM116.246 22.5625C116.478 22.5625 116.673 22.5169 116.832 22.4258C116.993 22.3346 117.114 22.217 117.195 22.0728C117.278 21.9286 117.319 21.777 117.319 21.6179V21.081C117.295 21.1108 117.24 21.1381 117.155 21.163C117.073 21.1862 116.976 21.2069 116.867 21.2251C116.759 21.2417 116.654 21.2566 116.551 21.2699C116.45 21.2815 116.368 21.2914 116.305 21.2997C116.153 21.3196 116.01 21.3519 115.878 21.3967C115.747 21.4397 115.641 21.5052 115.56 21.593C115.48 21.6792 115.44 21.7969 115.44 21.946C115.44 22.1499 115.516 22.304 115.666 22.4084C115.819 22.5111 116.012 22.5625 116.246 22.5625ZM121.962 19.1818L120.55 23H119.954L118.542 19.1818H119.178L120.232 22.2244H120.272L121.326 19.1818H121.962ZM125.441 20.0369L124.914 20.1861C124.881 20.0982 124.832 20.0129 124.768 19.93C124.705 19.8455 124.618 19.7759 124.509 19.7212C124.4 19.6665 124.26 19.6392 124.089 19.6392C123.855 19.6392 123.661 19.6931 123.505 19.8008C123.351 19.9068 123.274 20.0419 123.274 20.206C123.274 20.3518 123.327 20.467 123.433 20.5515C123.539 20.636 123.704 20.7064 123.93 20.7628L124.497 20.902C124.838 20.9848 125.092 21.1116 125.26 21.2823C125.427 21.4513 125.511 21.6693 125.511 21.9361C125.511 22.1548 125.448 22.3504 125.322 22.5227C125.198 22.6951 125.024 22.831 124.8 22.9304C124.576 23.0298 124.316 23.0795 124.019 23.0795C123.63 23.0795 123.308 22.995 123.052 22.826C122.797 22.657 122.636 22.41 122.568 22.0852L123.124 21.946C123.177 22.1515 123.278 22.3056 123.425 22.4084C123.574 22.5111 123.769 22.5625 124.009 22.5625C124.283 22.5625 124.5 22.5045 124.661 22.3885C124.823 22.2708 124.904 22.13 124.904 21.9659C124.904 21.8333 124.858 21.7223 124.765 21.6328C124.672 21.5417 124.53 21.4737 124.337 21.429L123.701 21.2798C123.351 21.197 123.095 21.0685 122.931 20.8945C122.768 20.7189 122.687 20.4993 122.687 20.2358C122.687 20.0204 122.747 19.8298 122.868 19.6641C122.991 19.4983 123.158 19.3683 123.368 19.2738C123.58 19.1793 123.82 19.1321 124.089 19.1321C124.467 19.1321 124.763 19.215 124.979 19.3807C125.196 19.5464 125.35 19.7652 125.441 20.0369ZM129.258 19.1818C129.228 18.9299 129.107 18.7344 128.895 18.5952C128.682 18.456 128.422 18.3864 128.114 18.3864C127.889 18.3864 127.691 18.4228 127.522 18.4957C127.355 18.5687 127.224 18.6689 127.13 18.7965C127.037 18.9241 126.99 19.0691 126.99 19.2315C126.99 19.3674 127.023 19.4843 127.087 19.582C127.154 19.6781 127.238 19.7585 127.341 19.8232C127.444 19.8861 127.551 19.9383 127.664 19.9798C127.777 20.0195 127.88 20.0518 127.975 20.0767L128.492 20.2159C128.624 20.2507 128.772 20.2988 128.934 20.3601C129.098 20.4214 129.255 20.5051 129.404 20.6112C129.555 20.7156 129.679 20.8498 129.777 21.0138C129.875 21.1779 129.924 21.3793 129.924 21.6179C129.924 21.893 129.852 22.1416 129.707 22.3636C129.565 22.5857 129.356 22.7622 129.081 22.8931C128.808 23.024 128.475 23.0895 128.084 23.0895C127.72 23.0895 127.404 23.0307 127.137 22.913C126.872 22.7953 126.663 22.6313 126.511 22.4208C126.36 22.2103 126.275 21.9659 126.255 21.6875H126.891C126.908 21.8797 126.972 22.0388 127.085 22.1648C127.199 22.2891 127.343 22.3819 127.517 22.4432C127.693 22.5028 127.882 22.5327 128.084 22.5327C128.32 22.5327 128.531 22.4946 128.718 22.4183C128.905 22.3404 129.054 22.2327 129.163 22.0952C129.272 21.956 129.327 21.7936 129.327 21.608C129.327 21.4389 129.28 21.3014 129.185 21.1953C129.091 21.0893 128.967 21.0031 128.813 20.9368C128.658 20.8705 128.492 20.8125 128.313 20.7628L127.686 20.5838C127.289 20.4695 126.974 20.3062 126.742 20.0941C126.51 19.882 126.394 19.6044 126.394 19.2614C126.394 18.9763 126.471 18.7277 126.625 18.5156C126.781 18.3018 126.99 18.1361 127.251 18.0185C127.515 17.8991 127.809 17.8395 128.134 17.8395C128.462 17.8395 128.754 17.8983 129.009 18.016C129.264 18.132 129.466 18.2911 129.615 18.4933C129.766 18.6954 129.846 18.925 129.854 19.1818H129.258ZM132.409 23.0795C132.051 23.0795 131.743 22.995 131.484 22.826C131.226 22.657 131.027 22.4241 130.888 22.1275C130.748 21.8308 130.679 21.492 130.679 21.1108C130.679 20.723 130.75 20.3808 130.893 20.0842C131.037 19.7859 131.237 19.553 131.494 19.3857C131.753 19.2166 132.054 19.1321 132.399 19.1321C132.667 19.1321 132.909 19.1818 133.125 19.2812C133.34 19.3807 133.517 19.5199 133.654 19.6989C133.792 19.8778 133.877 20.0866 133.91 20.3253H133.324C133.279 20.1513 133.179 19.9972 133.025 19.8629C132.873 19.727 132.667 19.6591 132.409 19.6591C132.18 19.6591 131.98 19.7187 131.807 19.8381C131.637 19.9557 131.503 20.1223 131.407 20.3377C131.313 20.5515 131.265 20.8026 131.265 21.0909C131.265 21.3859 131.312 21.6428 131.405 21.8615C131.499 22.0803 131.632 22.2501 131.802 22.3711C131.975 22.4921 132.177 22.5526 132.409 22.5526C132.561 22.5526 132.7 22.526 132.824 22.473C132.948 22.42 133.054 22.3438 133.14 22.2443C133.226 22.1449 133.287 22.0256 133.324 21.8864H133.91C133.877 22.1117 133.795 22.3147 133.664 22.4954C133.535 22.6744 133.363 22.8169 133.15 22.9229C132.938 23.0273 132.691 23.0795 132.409 23.0795ZM134.768 23V19.1818H135.335V19.7585H135.374C135.444 19.5696 135.57 19.4163 135.752 19.2987C135.935 19.181 136.14 19.1222 136.369 19.1222C136.412 19.1222 136.466 19.123 136.53 19.1246C136.595 19.1263 136.644 19.1288 136.677 19.1321V19.7287C136.657 19.7237 136.612 19.7163 136.54 19.7063C136.471 19.6947 136.397 19.6889 136.319 19.6889C136.133 19.6889 135.968 19.7279 135.822 19.8058C135.678 19.882 135.563 19.988 135.479 20.1239C135.396 20.2582 135.355 20.4115 135.355 20.5838V23H134.768ZM137.372 23V19.1818H137.959V23H137.372ZM137.671 18.5455C137.556 18.5455 137.458 18.5065 137.375 18.4286C137.294 18.3507 137.253 18.2571 137.253 18.1477C137.253 18.0384 137.294 17.9447 137.375 17.8668C137.458 17.7889 137.556 17.75 137.671 17.75C137.785 17.75 137.883 17.7889 137.964 17.8668C138.047 17.9447 138.088 18.0384 138.088 18.1477C138.088 18.2571 138.047 18.3507 137.964 18.4286C137.883 18.5065 137.785 18.5455 137.671 18.5455ZM139.034 24.4318V19.1818H139.6V19.7884H139.67C139.713 19.7221 139.773 19.6375 139.849 19.5348C139.927 19.4304 140.038 19.3376 140.182 19.2564C140.328 19.1735 140.525 19.1321 140.774 19.1321C141.095 19.1321 141.378 19.2125 141.624 19.3732C141.869 19.534 142.06 19.7618 142.198 20.0568C142.335 20.3518 142.404 20.6998 142.404 21.1009C142.404 21.5052 142.335 21.8557 142.198 22.1523C142.06 22.4473 141.87 22.676 141.626 22.8384C141.383 22.9992 141.102 23.0795 140.784 23.0795C140.538 23.0795 140.342 23.0389 140.194 22.9577C140.047 22.8749 139.933 22.7812 139.854 22.6768C139.774 22.5708 139.713 22.483 139.67 22.4134H139.62V24.4318H139.034ZM139.61 21.0909C139.61 21.3793 139.652 21.6336 139.737 21.854C139.822 22.0728 139.945 22.2443 140.107 22.3686C140.27 22.4912 140.469 22.5526 140.704 22.5526C140.949 22.5526 141.154 22.4879 141.318 22.3587C141.484 22.2277 141.608 22.0521 141.691 21.8317C141.775 21.6096 141.818 21.3627 141.818 21.0909C141.818 20.8224 141.776 20.5805 141.693 20.3651C141.612 20.148 141.489 19.9764 141.323 19.8505C141.159 19.7229 140.953 19.6591 140.704 19.6591C140.465 19.6591 140.265 19.7196 140.102 19.8406C139.94 19.9599 139.817 20.1272 139.735 20.3427C139.652 20.5565 139.61 20.8059 139.61 21.0909ZM144.96 19.1818V19.679H142.981V19.1818H144.96ZM143.558 18.267H144.144V21.9062C144.144 22.072 144.168 22.1963 144.216 22.2791C144.266 22.3603 144.329 22.415 144.405 22.4432C144.483 22.4697 144.565 22.483 144.651 22.483C144.716 22.483 144.769 22.4796 144.811 22.473C144.852 22.4647 144.885 22.4581 144.91 22.4531L145.029 22.9801C144.989 22.995 144.934 23.0099 144.863 23.0249C144.791 23.0414 144.701 23.0497 144.592 23.0497C144.426 23.0497 144.264 23.0141 144.105 22.9428C143.947 22.8716 143.816 22.763 143.712 22.6172C143.609 22.4714 143.558 22.2874 143.558 22.0653V18.267Z" fill="white"/>
<circle cx="188" cy="88" r="20" fill="#6F30D7" fill-opacity="0.85"/>
<path d="M185.375 87H184.67C184.628 86.7973 184.556 86.6193 184.451 86.4659C184.349 86.3125 184.224 86.1837 184.076 86.0795C183.931 85.9735 183.769 85.8939 183.591 85.8409C183.413 85.7879 183.227 85.7614 183.034 85.7614C182.681 85.7614 182.362 85.8504 182.076 86.0284C181.792 86.2064 181.566 86.4688 181.397 86.8153C181.231 87.1619 181.147 87.5871 181.147 88.0909C181.147 88.5947 181.231 89.0199 181.397 89.3665C181.566 89.7131 181.792 89.9754 182.076 90.1534C182.362 90.3314 182.681 90.4205 183.034 90.4205C183.227 90.4205 183.413 90.3939 183.591 90.3409C183.769 90.2879 183.931 90.2093 184.076 90.1051C184.224 89.9991 184.349 89.8693 184.451 89.7159C184.556 89.5606 184.628 89.3826 184.67 89.1818H185.375C185.322 89.4792 185.225 89.7453 185.085 89.9801C184.945 90.215 184.77 90.4148 184.562 90.5795C184.354 90.7424 184.12 90.8665 183.86 90.9517C183.603 91.0369 183.327 91.0795 183.034 91.0795C182.538 91.0795 182.096 90.9583 181.71 90.7159C181.324 90.4735 181.02 90.1288 180.798 89.6818C180.576 89.2348 180.466 88.7045 180.466 88.0909C180.466 87.4773 180.576 86.947 180.798 86.5C181.02 86.053 181.324 85.7083 181.71 85.4659C182.096 85.2235 182.538 85.1023 183.034 85.1023C183.327 85.1023 183.603 85.1449 183.86 85.2301C184.12 85.3153 184.354 85.4403 184.562 85.6051C184.77 85.768 184.945 85.9669 185.085 86.2017C185.225 86.4347 185.322 86.7008 185.375 87ZM189.695 86.6364C189.661 86.3485 189.523 86.125 189.28 85.9659C189.038 85.8068 188.74 85.7273 188.388 85.7273C188.131 85.7273 187.905 85.7689 187.712 85.8523C187.521 85.9356 187.371 86.0502 187.263 86.196C187.157 86.3419 187.104 86.5076 187.104 86.6932C187.104 86.8485 187.141 86.982 187.215 87.0938C187.291 87.2036 187.387 87.2955 187.505 87.3693C187.622 87.4413 187.745 87.5009 187.874 87.5483C188.003 87.5937 188.121 87.6307 188.229 87.6591L188.82 87.8182C188.971 87.858 189.14 87.9129 189.326 87.983C189.513 88.053 189.692 88.1487 189.863 88.2699C190.035 88.3892 190.177 88.5426 190.289 88.7301C190.4 88.9176 190.456 89.1477 190.456 89.4205C190.456 89.7348 190.374 90.0189 190.209 90.2727C190.046 90.5265 189.808 90.7282 189.493 90.8778C189.181 91.0275 188.801 91.1023 188.354 91.1023C187.937 91.1023 187.577 91.035 187.272 90.9006C186.969 90.7661 186.73 90.5786 186.556 90.3381C186.383 90.0975 186.286 89.8182 186.263 89.5H186.99C187.009 89.7197 187.083 89.9015 187.212 90.0455C187.343 90.1875 187.507 90.2936 187.706 90.3636C187.907 90.4318 188.123 90.4659 188.354 90.4659C188.623 90.4659 188.864 90.4223 189.078 90.3352C189.292 90.2462 189.462 90.1231 189.587 89.9659C189.712 89.8068 189.775 89.6212 189.775 89.4091C189.775 89.2159 189.721 89.0587 189.613 88.9375C189.505 88.8163 189.363 88.7178 189.186 88.642C189.01 88.5663 188.82 88.5 188.615 88.4432L187.9 88.2386C187.445 88.108 187.085 87.9214 186.82 87.679C186.555 87.4366 186.422 87.1193 186.422 86.7273C186.422 86.4015 186.51 86.1174 186.686 85.875C186.864 85.6307 187.103 85.4413 187.402 85.3068C187.703 85.1705 188.04 85.1023 188.411 85.1023C188.786 85.1023 189.119 85.1695 189.411 85.304C189.703 85.4366 189.934 85.6184 190.104 85.8494C190.276 86.0805 190.367 86.3428 190.377 86.6364H189.695ZM194.797 86.6364C194.762 86.3485 194.624 86.125 194.382 85.9659C194.139 85.8068 193.842 85.7273 193.49 85.7273C193.232 85.7273 193.007 85.7689 192.814 85.8523C192.622 85.9356 192.473 86.0502 192.365 86.196C192.259 86.3419 192.206 86.5076 192.206 86.6932C192.206 86.8485 192.243 86.982 192.316 87.0938C192.392 87.2036 192.489 87.2955 192.606 87.3693C192.724 87.4413 192.847 87.5009 192.975 87.5483C193.104 87.5937 193.223 87.6307 193.331 87.6591L193.922 87.8182C194.073 87.858 194.242 87.9129 194.427 87.983C194.615 88.053 194.794 88.1487 194.964 88.2699C195.136 88.3892 195.279 88.5426 195.39 88.7301C195.502 88.9176 195.558 89.1477 195.558 89.4205C195.558 89.7348 195.475 90.0189 195.311 90.2727C195.148 90.5265 194.909 90.7282 194.595 90.8778C194.282 91.0275 193.903 91.1023 193.456 91.1023C193.039 91.1023 192.678 91.035 192.373 90.9006C192.07 90.7661 191.832 90.5786 191.657 90.3381C191.485 90.0975 191.387 89.8182 191.365 89.5H192.092C192.111 89.7197 192.185 89.9015 192.314 90.0455C192.444 90.1875 192.609 90.2936 192.808 90.3636C193.009 90.4318 193.225 90.4659 193.456 90.4659C193.725 90.4659 193.966 90.4223 194.18 90.3352C194.394 90.2462 194.564 90.1231 194.689 89.9659C194.814 89.8068 194.876 89.6212 194.876 89.4091C194.876 89.2159 194.822 89.0587 194.714 88.9375C194.606 88.8163 194.464 88.7178 194.288 88.642C194.112 88.5663 193.922 88.5 193.717 88.4432L193.001 88.2386C192.547 88.108 192.187 87.9214 191.922 87.679C191.656 87.4366 191.524 87.1193 191.524 86.7273C191.524 86.4015 191.612 86.1174 191.788 85.875C191.966 85.6307 192.205 85.4413 192.504 85.3068C192.805 85.1705 193.141 85.1023 193.512 85.1023C193.887 85.1023 194.221 85.1695 194.512 85.304C194.804 85.4366 195.035 85.6184 195.206 85.8494C195.378 86.0805 195.469 86.3428 195.478 86.6364H194.797Z" fill="white"/>
</svg>
