<svg width="254" height="70" viewBox="0 0 254 70" fill="none" xmlns="http://www.w3.org/2000/svg">
<path d="M118.394 17.9582C118.394 17.1692 118.732 17.0562 119.521 17.5072C120.408 18.021 121.31 18.5096 122.225 18.9722C122.225 18.5222 122.676 18.1832 123.465 18.4082C124.254 18.6342 125.042 18.7462 125.042 18.7462C125.042 18.7462 124.592 17.7322 124.366 17.2822C124.028 16.4932 124.366 16.0422 124.704 15.9302C124.704 15.9302 124.254 15.5922 123.915 15.3662C123.239 14.9162 123.352 14.3522 124.028 14.1262C124.93 13.6762 126.169 13.2262 126.169 13.2262C125.831 13.0002 125.38 12.4362 125.831 11.6482C126.281 10.9722 127.071 9.95823 127.071 9.95823H124.93C124.14 9.95823 123.915 9.28223 123.915 8.83123C123.915 8.83123 122.676 9.73223 121.775 10.2962C120.985 10.8592 120.31 10.2962 120.423 9.39423C120.575 8.42244 120.687 7.445 120.761 6.46423C120.31 6.91523 119.521 6.80323 119.071 6.12723C118.507 5.00023 117.944 3.64723 117.944 3.64723C117.944 3.64723 117.38 5.00023 116.817 6.12823C116.479 6.80423 115.69 6.91623 115.239 6.57823C115.313 7.559 115.425 8.53644 115.577 9.50823C115.69 10.2972 115.014 10.8602 114.225 10.2972C113.324 9.73323 111.972 8.83223 111.972 8.83223C111.972 9.28223 111.746 9.84623 110.958 9.95923H108.817C108.817 9.95923 109.606 10.9732 110.057 11.6492C110.507 12.3252 110.057 13.0012 109.718 13.2262C109.718 13.2262 110.845 13.7902 111.859 14.1282C112.535 14.4662 112.761 14.9162 111.972 15.3682C111.746 15.5932 111.183 15.9312 111.183 15.9312C111.633 16.0432 111.972 16.4942 111.633 17.2832C111.408 17.7332 110.958 18.7472 110.958 18.7472C110.958 18.7472 111.746 18.5222 112.535 18.4092C113.324 18.1842 113.662 18.6352 113.775 18.9732C113.775 18.9732 115.127 18.1842 116.479 17.5082C117.155 17.0582 117.606 17.2832 117.606 17.9582V19.8742C117.606 21.0012 117.38 22.1282 117.042 22.8042C111.972 22.2402 107.69 18.1842 107.69 12.7762C107.69 7.25523 112.31 2.74723 118.056 2.74723C123.803 2.74723 128.423 7.25523 128.423 12.7762C128.423 17.9592 124.366 22.2402 119.183 22.8042V24.1562C125.268 23.5922 130 18.7462 130 12.7752C130 6.35223 124.592 1.28223 117.944 1.28223C111.408 1.28223 106 6.35223 106 12.6622C106 18.1832 110.169 22.8022 115.69 23.8172C116.592 24.0422 117.155 24.1552 117.718 24.7182C118.282 23.5922 118.394 21.3382 118.394 20.0982V17.9582Z" fill="#4F4F4F"/>
<path d="M100.83 34C100.768 33.8087 100.685 33.6373 100.583 33.4858C100.483 33.3324 100.362 33.2017 100.222 33.0938C100.084 32.9858 99.9268 32.9034 99.7507 32.8466C99.5746 32.7898 99.3814 32.7614 99.1712 32.7614C98.8265 32.7614 98.513 32.8504 98.2308 33.0284C97.9486 33.2064 97.7242 33.4688 97.5575 33.8153C97.3909 34.1619 97.3075 34.5871 97.3075 35.0909C97.3075 35.5947 97.3918 36.0199 97.5604 36.3665C97.7289 36.7131 97.9571 36.9754 98.245 37.1534C98.5329 37.3314 98.8568 37.4205 99.2166 37.4205C99.55 37.4205 99.8435 37.3494 100.097 37.2074C100.353 37.0634 100.552 36.8608 100.694 36.5994C100.838 36.3362 100.91 36.0265 100.91 35.6705L101.126 35.7159H99.3757V35.0909H101.592V35.7159C101.592 36.1951 101.489 36.6117 101.285 36.9659C101.082 37.3201 100.802 37.5947 100.444 37.7898C100.088 37.983 99.6787 38.0795 99.2166 38.0795C98.7015 38.0795 98.2488 37.9583 97.8587 37.7159C97.4704 37.4735 97.1674 37.1288 96.9496 36.6818C96.7337 36.2348 96.6257 35.7045 96.6257 35.0909C96.6257 34.6307 96.6873 34.2169 96.8104 33.8494C96.9354 33.4801 97.1115 33.1657 97.3388 32.9062C97.5661 32.6468 97.835 32.4479 98.1456 32.3097C98.4562 32.1714 98.7981 32.1023 99.1712 32.1023C99.478 32.1023 99.764 32.1487 100.029 32.2415C100.296 32.3324 100.534 32.4621 100.742 32.6307C100.952 32.7973 101.128 32.9972 101.268 33.2301C101.408 33.4612 101.504 33.7178 101.558 34H100.83ZM104.537 38.0909C104.116 38.0909 103.754 37.9981 103.449 37.8125C103.146 37.625 102.912 37.3636 102.747 37.0284C102.584 36.6913 102.503 36.2992 102.503 35.8523C102.503 35.4053 102.584 35.0114 102.747 34.6705C102.912 34.3277 103.141 34.0606 103.435 33.8693C103.73 33.6761 104.075 33.5795 104.469 33.5795C104.696 33.5795 104.92 33.6174 105.142 33.6932C105.364 33.7689 105.565 33.892 105.747 34.0625C105.929 34.2311 106.074 34.4545 106.182 34.733C106.29 35.0114 106.344 35.3542 106.344 35.7614V36.0455H102.98V35.4659H105.662C105.662 35.2197 105.613 35 105.514 34.8068C105.418 34.6136 105.279 34.4612 105.099 34.3494C104.921 34.2377 104.711 34.1818 104.469 34.1818C104.202 34.1818 103.971 34.2481 103.776 34.3807C103.582 34.5114 103.434 34.6818 103.33 34.892C103.225 35.1023 103.173 35.3277 103.173 35.5682V35.9545C103.173 36.2841 103.23 36.5634 103.344 36.7926C103.459 37.0199 103.619 37.1932 103.824 37.3125C104.028 37.4299 104.266 37.4886 104.537 37.4886C104.713 37.4886 104.872 37.464 105.014 37.4148C105.158 37.3636 105.282 37.2879 105.386 37.1875C105.491 37.0852 105.571 36.9583 105.628 36.8068L106.276 36.9886C106.207 37.2083 106.093 37.4015 105.932 37.5682C105.771 37.733 105.572 37.8617 105.335 37.9545C105.098 38.0455 104.832 38.0909 104.537 38.0909ZM109.136 38.0909C108.742 38.0909 108.397 37.9972 108.099 37.8097C107.804 37.6222 107.573 37.3598 107.406 37.0227C107.241 36.6856 107.159 36.2917 107.159 35.8409C107.159 35.3864 107.241 34.9896 107.406 34.6506C107.573 34.3116 107.804 34.0483 108.099 33.8608C108.397 33.6733 108.742 33.5795 109.136 33.5795C109.53 33.5795 109.875 33.6733 110.17 33.8608C110.468 34.0483 110.699 34.3116 110.864 34.6506C111.03 34.9896 111.114 35.3864 111.114 35.8409C111.114 36.2917 111.03 36.6856 110.864 37.0227C110.699 37.3598 110.468 37.6222 110.17 37.8097C109.875 37.9972 109.53 38.0909 109.136 38.0909ZM109.136 37.4886C109.436 37.4886 109.682 37.4119 109.875 37.2585C110.068 37.1051 110.211 36.9034 110.304 36.6534C110.397 36.4034 110.443 36.1326 110.443 35.8409C110.443 35.5492 110.397 35.2775 110.304 35.0256C110.211 34.7737 110.068 34.5701 109.875 34.4148C109.682 34.2595 109.436 34.1818 109.136 34.1818C108.837 34.1818 108.591 34.2595 108.398 34.4148C108.205 34.5701 108.062 34.7737 107.969 35.0256C107.876 35.2775 107.83 35.5492 107.83 35.8409C107.83 36.1326 107.876 36.4034 107.969 36.6534C108.062 36.9034 108.205 37.1051 108.398 37.2585C108.591 37.4119 108.837 37.4886 109.136 37.4886ZM113.898 39.7273C113.575 39.7273 113.296 39.6856 113.063 39.6023C112.83 39.5208 112.636 39.4129 112.481 39.2784C112.327 39.1458 112.205 39.0038 112.114 38.8523L112.648 38.4773C112.709 38.5568 112.786 38.6477 112.879 38.75C112.971 38.8542 113.098 38.9441 113.259 39.0199C113.422 39.0975 113.635 39.1364 113.898 39.1364C114.251 39.1364 114.541 39.0511 114.771 38.8807C115 38.7102 115.114 38.4432 115.114 38.0795V37.1932H115.058C115.008 37.2727 114.938 37.3712 114.847 37.4886C114.758 37.6042 114.629 37.7074 114.461 37.7983C114.294 37.8873 114.069 37.9318 113.785 37.9318C113.433 37.9318 113.116 37.8485 112.836 37.6818C112.558 37.5152 112.337 37.2727 112.174 36.9545C112.013 36.6364 111.933 36.25 111.933 35.7955C111.933 35.3485 112.011 34.9593 112.168 34.6278C112.326 34.2945 112.544 34.0369 112.825 33.8551C113.105 33.6714 113.429 33.5795 113.796 33.5795C114.08 33.5795 114.306 33.6269 114.472 33.7216C114.641 33.8144 114.77 33.9205 114.859 34.0398C114.95 34.1572 115.02 34.2538 115.069 34.3295H115.137V33.6364H115.785V38.125C115.785 38.5 115.7 38.8049 115.529 39.0398C115.361 39.2765 115.133 39.4498 114.847 39.5597C114.563 39.6714 114.247 39.7273 113.898 39.7273ZM113.876 37.3295C114.145 37.3295 114.372 37.268 114.558 37.1449C114.743 37.0218 114.884 36.8447 114.981 36.6136C115.077 36.3826 115.126 36.1061 115.126 35.7841C115.126 35.4697 115.078 35.1922 114.984 34.9517C114.889 34.7112 114.749 34.5227 114.563 34.3864C114.378 34.25 114.148 34.1818 113.876 34.1818C113.592 34.1818 113.355 34.2538 113.165 34.3977C112.978 34.5417 112.837 34.7348 112.742 34.9773C112.649 35.2197 112.603 35.4886 112.603 35.7841C112.603 36.0871 112.65 36.3551 112.745 36.5881C112.842 36.8191 112.984 37.0009 113.171 37.1335C113.361 37.2642 113.595 37.3295 113.876 37.3295ZM117.012 38V33.6364H117.66V34.2955H117.705C117.785 34.0795 117.929 33.9044 118.137 33.7699C118.345 33.6354 118.58 33.5682 118.842 33.5682C118.891 33.5682 118.952 33.5691 119.026 33.571C119.1 33.5729 119.156 33.5758 119.194 33.5795V34.2614C119.171 34.2557 119.119 34.2472 119.038 34.2358C118.958 34.2225 118.874 34.2159 118.785 34.2159C118.573 34.2159 118.383 34.2604 118.217 34.3494C118.052 34.4366 117.921 34.5578 117.825 34.7131C117.73 34.8665 117.683 35.0417 117.683 35.2386V38H117.012ZM121.273 38.1023C120.996 38.1023 120.745 38.0502 120.52 37.946C120.295 37.84 120.116 37.6875 119.983 37.4886C119.85 37.2879 119.784 37.0455 119.784 36.7614C119.784 36.5114 119.833 36.3087 119.932 36.1534C120.03 35.9962 120.162 35.8731 120.327 35.7841C120.491 35.6951 120.673 35.6288 120.872 35.5852C121.073 35.5398 121.275 35.5038 121.477 35.4773C121.742 35.4432 121.957 35.4176 122.122 35.4006C122.289 35.3816 122.41 35.3504 122.486 35.3068C122.563 35.2633 122.602 35.1875 122.602 35.0795V35.0568C122.602 34.7765 122.526 34.5587 122.372 34.4034C122.221 34.2481 121.991 34.1705 121.682 34.1705C121.362 34.1705 121.111 34.2405 120.929 34.3807C120.747 34.5208 120.619 34.6705 120.545 34.8295L119.909 34.6023C120.023 34.3371 120.174 34.1307 120.364 33.983C120.555 33.8333 120.763 33.7292 120.989 33.6705C121.216 33.6098 121.439 33.5795 121.659 33.5795C121.799 33.5795 121.96 33.5966 122.142 33.6307C122.326 33.6629 122.503 33.7301 122.673 33.8324C122.846 33.9347 122.989 34.089 123.102 34.2955C123.216 34.5019 123.273 34.7784 123.273 35.125V38H122.602V37.4091H122.568C122.523 37.5038 122.447 37.6051 122.341 37.7131C122.235 37.821 122.094 37.9129 121.918 37.9886C121.741 38.0644 121.527 38.1023 121.273 38.1023ZM121.375 37.5C121.64 37.5 121.864 37.4479 122.045 37.3438C122.229 37.2396 122.367 37.1051 122.46 36.9403C122.555 36.7756 122.602 36.6023 122.602 36.4205V35.8068C122.574 35.8409 122.511 35.8722 122.415 35.9006C122.32 35.9271 122.21 35.9508 122.085 35.9716C121.962 35.9905 121.842 36.0076 121.724 36.0227C121.609 36.036 121.515 36.0473 121.443 36.0568C121.269 36.0795 121.106 36.1165 120.955 36.1676C120.805 36.2169 120.684 36.2917 120.591 36.392C120.5 36.4905 120.455 36.625 120.455 36.7955C120.455 37.0284 120.541 37.2045 120.713 37.3239C120.887 37.4413 121.108 37.5 121.375 37.5ZM124.496 39.6364V33.6364H125.144V34.3295H125.224C125.273 34.2538 125.341 34.1572 125.428 34.0398C125.517 33.9205 125.644 33.8144 125.809 33.7216C125.976 33.6269 126.201 33.5795 126.485 33.5795C126.853 33.5795 127.176 33.6714 127.457 33.8551C127.737 34.0388 127.956 34.2992 128.113 34.6364C128.27 34.9735 128.349 35.3712 128.349 35.8295C128.349 36.2917 128.27 36.6922 128.113 37.0312C127.956 37.3684 127.738 37.6297 127.46 37.8153C127.181 37.9991 126.86 38.0909 126.496 38.0909C126.216 38.0909 125.992 38.0445 125.823 37.9517C125.655 37.857 125.525 37.75 125.434 37.6307C125.343 37.5095 125.273 37.4091 125.224 37.3295H125.167V39.6364H124.496ZM125.156 35.8182C125.156 36.1477 125.204 36.4384 125.3 36.6903C125.397 36.9403 125.538 37.1364 125.724 37.2784C125.909 37.4186 126.137 37.4886 126.406 37.4886C126.686 37.4886 126.92 37.4148 127.107 37.267C127.297 37.1174 127.439 36.9167 127.533 36.6648C127.63 36.411 127.678 36.1288 127.678 35.8182C127.678 35.5114 127.631 35.2348 127.536 34.9886C127.443 34.7405 127.302 34.5445 127.113 34.4006C126.925 34.2547 126.69 34.1818 126.406 34.1818C126.133 34.1818 125.904 34.2509 125.718 34.3892C125.532 34.5256 125.392 34.7169 125.298 34.9631C125.203 35.2074 125.156 35.4924 125.156 35.8182ZM130.042 35.375V38H129.371V32.1818H130.042V34.3182H130.099C130.201 34.0928 130.354 33.9138 130.559 33.7812C130.765 33.6468 131.04 33.5795 131.383 33.5795C131.68 33.5795 131.941 33.6392 132.164 33.7585C132.388 33.8759 132.561 34.0568 132.684 34.3011C132.809 34.5436 132.871 34.8523 132.871 35.2273V38H132.201V35.2727C132.201 34.9261 132.111 34.6581 131.931 34.4688C131.753 34.2775 131.506 34.1818 131.19 34.1818C130.97 34.1818 130.773 34.2282 130.599 34.321C130.426 34.4138 130.29 34.5492 130.19 34.7273C130.091 34.9053 130.042 35.1212 130.042 35.375ZM134.098 38V33.6364H134.768V38H134.098ZM134.439 32.9091C134.308 32.9091 134.196 32.8646 134.101 32.7756C134.008 32.6866 133.962 32.5795 133.962 32.4545C133.962 32.3295 134.008 32.2225 134.101 32.1335C134.196 32.0445 134.308 32 134.439 32C134.57 32 134.681 32.0445 134.774 32.1335C134.869 32.2225 134.916 32.3295 134.916 32.4545C134.916 32.5795 134.869 32.6866 134.774 32.7756C134.681 32.8646 134.57 32.9091 134.439 32.9091ZM137.769 38.0909C137.36 38.0909 137.008 37.9943 136.712 37.8011C136.417 37.608 136.19 37.3419 136.031 37.0028C135.871 36.6638 135.792 36.2765 135.792 35.8409C135.792 35.3977 135.873 35.0066 136.036 34.6676C136.201 34.3267 136.43 34.0606 136.724 33.8693C137.019 33.6761 137.364 33.5795 137.758 33.5795C138.065 33.5795 138.341 33.6364 138.587 33.75C138.834 33.8636 139.035 34.0227 139.192 34.2273C139.35 34.4318 139.447 34.6705 139.485 34.9432H138.815C138.763 34.7443 138.65 34.5682 138.474 34.4148C138.299 34.2595 138.065 34.1818 137.769 34.1818C137.508 34.1818 137.279 34.25 137.082 34.3864C136.887 34.5208 136.734 34.7112 136.624 34.9574C136.516 35.2017 136.462 35.4886 136.462 35.8182C136.462 36.1553 136.515 36.4489 136.621 36.6989C136.729 36.9489 136.881 37.143 137.076 37.2812C137.273 37.4195 137.504 37.4886 137.769 37.4886C137.943 37.4886 138.102 37.4583 138.244 37.3977C138.386 37.3371 138.506 37.25 138.604 37.1364C138.703 37.0227 138.773 36.8864 138.815 36.7273H139.485C139.447 36.9848 139.353 37.2169 139.204 37.4233C139.056 37.6278 138.86 37.7907 138.616 37.9119C138.373 38.0312 138.091 38.0909 137.769 38.0909ZM103.229 42.1818V48H102.559V42.1818H103.229ZM106.23 48.0909C105.836 48.0909 105.491 47.9972 105.193 47.8097C104.898 47.6222 104.667 47.3598 104.5 47.0227C104.335 46.6856 104.253 46.2917 104.253 45.8409C104.253 45.3864 104.335 44.9896 104.5 44.6506C104.667 44.3116 104.898 44.0483 105.193 43.8608C105.491 43.6733 105.836 43.5795 106.23 43.5795C106.624 43.5795 106.969 43.6733 107.264 43.8608C107.562 44.0483 107.793 44.3116 107.957 44.6506C108.124 44.9896 108.207 45.3864 108.207 45.8409C108.207 46.2917 108.124 46.6856 107.957 47.0227C107.793 47.3598 107.562 47.6222 107.264 47.8097C106.969 47.9972 106.624 48.0909 106.23 48.0909ZM106.23 47.4886C106.529 47.4886 106.776 47.4119 106.969 47.2585C107.162 47.1051 107.305 46.9034 107.398 46.6534C107.491 46.4034 107.537 46.1326 107.537 45.8409C107.537 45.5492 107.491 45.2775 107.398 45.0256C107.305 44.7737 107.162 44.5701 106.969 44.4148C106.776 44.2595 106.529 44.1818 106.23 44.1818C105.931 44.1818 105.685 44.2595 105.491 44.4148C105.298 44.5701 105.155 44.7737 105.062 45.0256C104.97 45.2775 104.923 45.5492 104.923 45.8409C104.923 46.1326 104.97 46.4034 105.062 46.6534C105.155 46.9034 105.298 47.1051 105.491 47.2585C105.685 47.4119 105.931 47.4886 106.23 47.4886ZM111.004 48.0909C110.594 48.0909 110.242 47.9943 109.947 47.8011C109.651 47.608 109.424 47.3419 109.265 47.0028C109.106 46.6638 109.026 46.2765 109.026 45.8409C109.026 45.3977 109.108 45.0066 109.271 44.6676C109.435 44.3267 109.665 44.0606 109.958 43.8693C110.254 43.6761 110.598 43.5795 110.992 43.5795C111.299 43.5795 111.576 43.6364 111.822 43.75C112.068 43.8636 112.27 44.0227 112.427 44.2273C112.584 44.4318 112.682 44.6705 112.719 44.9432H112.049C111.998 44.7443 111.884 44.5682 111.708 44.4148C111.534 44.2595 111.299 44.1818 111.004 44.1818C110.742 44.1818 110.513 44.25 110.316 44.3864C110.121 44.5208 109.969 44.7112 109.859 44.9574C109.751 45.2017 109.697 45.4886 109.697 45.8182C109.697 46.1553 109.75 46.4489 109.856 46.6989C109.964 46.9489 110.115 47.143 110.31 47.2812C110.507 47.4195 110.738 47.4886 111.004 47.4886C111.178 47.4886 111.336 47.4583 111.478 47.3977C111.62 47.3371 111.74 47.25 111.839 47.1364C111.937 47.0227 112.007 46.8864 112.049 46.7273H112.719C112.682 46.9848 112.588 47.2169 112.438 47.4233C112.29 47.6278 112.094 47.7907 111.85 47.9119C111.608 48.0312 111.326 48.0909 111.004 48.0909ZM114.984 48.1023C114.707 48.1023 114.456 48.0502 114.231 47.946C114.005 47.84 113.826 47.6875 113.694 47.4886C113.561 47.2879 113.495 47.0455 113.495 46.7614C113.495 46.5114 113.544 46.3087 113.643 46.1534C113.741 45.9962 113.873 45.8731 114.038 45.7841C114.202 45.6951 114.384 45.6288 114.583 45.5852C114.784 45.5398 114.986 45.5038 115.188 45.4773C115.453 45.4432 115.668 45.4176 115.833 45.4006C116 45.3816 116.121 45.3504 116.197 45.3068C116.274 45.2633 116.313 45.1875 116.313 45.0795V45.0568C116.313 44.7765 116.237 44.5587 116.083 44.4034C115.932 44.2481 115.701 44.1705 115.393 44.1705C115.073 44.1705 114.822 44.2405 114.64 44.3807C114.458 44.5208 114.33 44.6705 114.256 44.8295L113.62 44.6023C113.734 44.3371 113.885 44.1307 114.075 43.983C114.266 43.8333 114.474 43.7292 114.7 43.6705C114.927 43.6098 115.15 43.5795 115.37 43.5795C115.51 43.5795 115.671 43.5966 115.853 43.6307C116.037 43.6629 116.214 43.7301 116.384 43.8324C116.557 43.9347 116.7 44.089 116.813 44.2955C116.927 44.5019 116.984 44.7784 116.984 45.125V48H116.313V47.4091H116.279C116.234 47.5038 116.158 47.6051 116.052 47.7131C115.946 47.821 115.805 47.9129 115.629 47.9886C115.452 48.0644 115.237 48.1023 114.984 48.1023ZM115.086 47.5C115.351 47.5 115.575 47.4479 115.756 47.3438C115.94 47.2396 116.078 47.1051 116.171 46.9403C116.266 46.7756 116.313 46.6023 116.313 46.4205V45.8068C116.285 45.8409 116.222 45.8722 116.126 45.9006C116.031 45.9271 115.921 45.9508 115.796 45.9716C115.673 45.9905 115.553 46.0076 115.435 46.0227C115.32 46.036 115.226 46.0473 115.154 46.0568C114.98 46.0795 114.817 46.1165 114.665 46.1676C114.516 46.2169 114.395 46.2917 114.302 46.392C114.211 46.4905 114.165 46.625 114.165 46.7955C114.165 47.0284 114.252 47.2045 114.424 47.3239C114.598 47.4413 114.819 47.5 115.086 47.5ZM120.105 43.6364V44.2045H117.844V43.6364H120.105ZM118.503 42.5909H119.173V46.75C119.173 46.9394 119.201 47.0814 119.256 47.1761C119.313 47.2689 119.384 47.3314 119.472 47.3636C119.561 47.3939 119.654 47.4091 119.753 47.4091C119.827 47.4091 119.887 47.4053 119.935 47.3977C119.982 47.3883 120.02 47.3807 120.048 47.375L120.185 47.9773C120.139 47.9943 120.076 48.0114 119.994 48.0284C119.913 48.0473 119.81 48.0568 119.685 48.0568C119.495 48.0568 119.31 48.0161 119.128 47.9347C118.948 47.8532 118.798 47.7292 118.679 47.5625C118.562 47.3958 118.503 47.1856 118.503 46.9318V42.5909ZM121.114 48V43.6364H121.784V48H121.114ZM121.455 42.9091C121.324 42.9091 121.211 42.8646 121.116 42.7756C121.024 42.6866 120.977 42.5795 120.977 42.4545C120.977 42.3295 121.024 42.2225 121.116 42.1335C121.211 42.0445 121.324 42 121.455 42C121.585 42 121.697 42.0445 121.79 42.1335C121.884 42.2225 121.932 42.3295 121.932 42.4545C121.932 42.5795 121.884 42.6866 121.79 42.7756C121.697 42.8646 121.585 42.9091 121.455 42.9091ZM124.785 48.0909C124.391 48.0909 124.045 47.9972 123.748 47.8097C123.452 47.6222 123.221 47.3598 123.055 47.0227C122.89 46.6856 122.808 46.2917 122.808 45.8409C122.808 45.3864 122.89 44.9896 123.055 44.6506C123.221 44.3116 123.452 44.0483 123.748 43.8608C124.045 43.6733 124.391 43.5795 124.785 43.5795C125.179 43.5795 125.523 43.6733 125.819 43.8608C126.116 44.0483 126.347 44.3116 126.512 44.6506C126.679 44.9896 126.762 45.3864 126.762 45.8409C126.762 46.2917 126.679 46.6856 126.512 47.0227C126.347 47.3598 126.116 47.6222 125.819 47.8097C125.523 47.9972 125.179 48.0909 124.785 48.0909ZM124.785 47.4886C125.084 47.4886 125.33 47.4119 125.523 47.2585C125.717 47.1051 125.86 46.9034 125.952 46.6534C126.045 46.4034 126.092 46.1326 126.092 45.8409C126.092 45.5492 126.045 45.2775 125.952 45.0256C125.86 44.7737 125.717 44.5701 125.523 44.4148C125.33 44.2595 125.084 44.1818 124.785 44.1818C124.486 44.1818 124.239 44.2595 124.046 44.4148C123.853 44.5701 123.71 44.7737 123.617 45.0256C123.524 45.2775 123.478 45.5492 123.478 45.8409C123.478 46.1326 123.524 46.4034 123.617 46.6534C123.71 46.9034 123.853 47.1051 124.046 47.2585C124.239 47.4119 124.486 47.4886 124.785 47.4886ZM128.456 45.375V48H127.786V43.6364H128.433V44.3182H128.49C128.592 44.0966 128.748 43.9186 128.956 43.7841C129.164 43.6477 129.433 43.5795 129.763 43.5795C130.058 43.5795 130.317 43.6402 130.538 43.7614C130.76 43.8807 130.932 44.0625 131.055 44.3068C131.179 44.5492 131.24 44.8561 131.24 45.2273V48H130.57V45.2727C130.57 44.9299 130.481 44.6629 130.303 44.4716C130.125 44.2784 129.88 44.1818 129.57 44.1818C129.356 44.1818 129.164 44.2282 128.996 44.321C128.829 44.4138 128.697 44.5492 128.601 44.7273C128.504 44.9053 128.456 45.1212 128.456 45.375ZM132.954 48.0455C132.814 48.0455 132.693 47.9953 132.593 47.8949C132.493 47.7945 132.442 47.6742 132.442 47.5341C132.442 47.3939 132.493 47.2737 132.593 47.1733C132.693 47.0729 132.814 47.0227 132.954 47.0227C133.094 47.0227 133.214 47.0729 133.315 47.1733C133.415 47.2737 133.465 47.3939 133.465 47.5341C133.465 47.6269 133.442 47.7121 133.394 47.7898C133.349 47.8674 133.287 47.9299 133.21 47.9773C133.134 48.0227 133.049 48.0455 132.954 48.0455ZM132.954 44.8068C132.814 44.8068 132.693 44.7566 132.593 44.6562C132.493 44.5559 132.442 44.4356 132.442 44.2955C132.442 44.1553 132.493 44.035 132.593 43.9347C132.693 43.8343 132.814 43.7841 132.954 43.7841C133.094 43.7841 133.214 43.8343 133.315 43.9347C133.415 44.035 133.465 44.1553 133.465 44.2955C133.465 44.3883 133.442 44.4735 133.394 44.5511C133.349 44.6288 133.287 44.6913 133.21 44.7386C133.134 44.7841 133.049 44.8068 132.954 44.8068ZM108.89 54H108.186C108.144 53.7973 108.071 53.6193 107.967 53.4659C107.865 53.3125 107.74 53.1837 107.592 53.0795C107.446 52.9735 107.284 52.8939 107.106 52.8409C106.928 52.7879 106.743 52.7614 106.549 52.7614C106.197 52.7614 105.878 52.8504 105.592 53.0284C105.308 53.2064 105.082 53.4688 104.913 53.8153C104.746 54.1619 104.663 54.5871 104.663 55.0909C104.663 55.5947 104.746 56.0199 104.913 56.3665C105.082 56.7131 105.308 56.9754 105.592 57.1534C105.878 57.3314 106.197 57.4205 106.549 57.4205C106.743 57.4205 106.928 57.3939 107.106 57.3409C107.284 57.2879 107.446 57.2093 107.592 57.1051C107.74 56.9991 107.865 56.8693 107.967 56.7159C108.071 56.5606 108.144 56.3826 108.186 56.1818H108.89C108.837 56.4792 108.741 56.7453 108.6 56.9801C108.46 57.215 108.286 57.4148 108.078 57.5795C107.869 57.7424 107.636 57.8665 107.376 57.9517C107.118 58.0369 106.843 58.0795 106.549 58.0795C106.053 58.0795 105.612 57.9583 105.225 57.7159C104.839 57.4735 104.535 57.1288 104.314 56.6818C104.092 56.2348 103.981 55.7045 103.981 55.0909C103.981 54.4773 104.092 53.947 104.314 53.5C104.535 53.053 104.839 52.7083 105.225 52.4659C105.612 52.2235 106.053 52.1023 106.549 52.1023C106.843 52.1023 107.118 52.1449 107.376 52.2301C107.636 52.3153 107.869 52.4403 108.078 52.6051C108.286 52.768 108.46 52.9669 108.6 53.2017C108.741 53.4347 108.837 53.7008 108.89 54ZM111.222 58.1023C110.945 58.1023 110.694 58.0502 110.469 57.946C110.244 57.84 110.065 57.6875 109.932 57.4886C109.8 57.2879 109.733 57.0455 109.733 56.7614C109.733 56.5114 109.783 56.3087 109.881 56.1534C109.98 55.9962 110.111 55.8731 110.276 55.7841C110.441 55.6951 110.623 55.6288 110.821 55.5852C111.022 55.5398 111.224 55.5038 111.426 55.4773C111.692 55.4432 111.907 55.4176 112.071 55.4006C112.238 55.3816 112.359 55.3504 112.435 55.3068C112.513 55.2633 112.551 55.1875 112.551 55.0795V55.0568C112.551 54.7765 112.475 54.5587 112.321 54.4034C112.17 54.2481 111.94 54.1705 111.631 54.1705C111.311 54.1705 111.06 54.2405 110.878 54.3807C110.696 54.5208 110.569 54.6705 110.495 54.8295L109.858 54.6023C109.972 54.3371 110.123 54.1307 110.313 53.983C110.504 53.8333 110.712 53.7292 110.938 53.6705C111.165 53.6098 111.389 53.5795 111.608 53.5795C111.748 53.5795 111.909 53.5966 112.091 53.6307C112.275 53.6629 112.452 53.7301 112.623 53.8324C112.795 53.9347 112.938 54.089 113.051 54.2955C113.165 54.5019 113.222 54.7784 113.222 55.125V58H112.551V57.4091H112.517C112.472 57.5038 112.396 57.6051 112.29 57.7131C112.184 57.821 112.043 57.9129 111.867 57.9886C111.691 58.0644 111.476 58.1023 111.222 58.1023ZM111.324 57.5C111.589 57.5 111.813 57.4479 111.995 57.3438C112.178 57.2396 112.317 57.1051 112.409 56.9403C112.504 56.7756 112.551 56.6023 112.551 56.4205V55.8068C112.523 55.8409 112.461 55.8722 112.364 55.9006C112.269 55.9271 112.159 55.9508 112.034 55.9716C111.911 55.9905 111.791 56.0076 111.674 56.0227C111.558 56.036 111.464 56.0473 111.392 56.0568C111.218 56.0795 111.055 56.1165 110.904 56.1676C110.754 56.2169 110.633 56.2917 110.54 56.392C110.449 56.4905 110.404 56.625 110.404 56.7955C110.404 57.0284 110.49 57.2045 110.662 57.3239C110.837 57.4413 111.057 57.5 111.324 57.5ZM115.116 55.375V58H114.446V53.6364H115.093V54.3182H115.15C115.252 54.0966 115.408 53.9186 115.616 53.7841C115.824 53.6477 116.093 53.5795 116.423 53.5795C116.718 53.5795 116.977 53.6402 117.199 53.7614C117.42 53.8807 117.592 54.0625 117.716 54.3068C117.839 54.5492 117.9 54.8561 117.9 55.2273V58H117.23V55.2727C117.23 54.9299 117.141 54.6629 116.963 54.4716C116.785 54.2784 116.54 54.1818 116.23 54.1818C116.016 54.1818 115.824 54.2282 115.656 54.321C115.489 54.4138 115.358 54.5492 115.261 54.7273C115.164 54.9053 115.116 55.1212 115.116 55.375ZM120.409 58.1023C120.133 58.1023 119.882 58.0502 119.657 57.946C119.431 57.84 119.252 57.6875 119.12 57.4886C118.987 57.2879 118.921 57.0455 118.921 56.7614C118.921 56.5114 118.97 56.3087 119.069 56.1534C119.167 55.9962 119.299 55.8731 119.463 55.7841C119.628 55.6951 119.81 55.6288 120.009 55.5852C120.21 55.5398 120.411 55.5038 120.614 55.4773C120.879 55.4432 121.094 55.4176 121.259 55.4006C121.426 55.3816 121.547 55.3504 121.623 55.3068C121.7 55.2633 121.739 55.1875 121.739 55.0795V55.0568C121.739 54.7765 121.662 54.5587 121.509 54.4034C121.357 54.2481 121.127 54.1705 120.819 54.1705C120.498 54.1705 120.248 54.2405 120.066 54.3807C119.884 54.5208 119.756 54.6705 119.682 54.8295L119.046 54.6023C119.159 54.3371 119.311 54.1307 119.5 53.983C119.692 53.8333 119.9 53.7292 120.125 53.6705C120.353 53.6098 120.576 53.5795 120.796 53.5795C120.936 53.5795 121.097 53.5966 121.279 53.6307C121.462 53.6629 121.64 53.7301 121.81 53.8324C121.982 53.9347 122.125 54.089 122.239 54.2955C122.353 54.5019 122.409 54.7784 122.409 55.125V58H121.739V57.4091H121.705C121.659 57.5038 121.584 57.6051 121.478 57.7131C121.372 57.821 121.23 57.9129 121.054 57.9886C120.878 58.0644 120.663 58.1023 120.409 58.1023ZM120.512 57.5C120.777 57.5 121 57.4479 121.182 57.3438C121.366 57.2396 121.504 57.1051 121.597 56.9403C121.692 56.7756 121.739 56.6023 121.739 56.4205V55.8068C121.711 55.8409 121.648 55.8722 121.551 55.9006C121.457 55.9271 121.347 55.9508 121.222 55.9716C121.099 55.9905 120.979 56.0076 120.861 56.0227C120.746 56.036 120.652 56.0473 120.58 56.0568C120.406 56.0795 120.243 56.1165 120.091 56.1676C119.942 56.2169 119.82 56.2917 119.728 56.392C119.637 56.4905 119.591 56.625 119.591 56.7955C119.591 57.0284 119.677 57.2045 119.85 57.3239C120.024 57.4413 120.245 57.5 120.512 57.5ZM125.281 58.0909C124.917 58.0909 124.596 57.9991 124.318 57.8153C124.039 57.6297 123.822 57.3684 123.664 57.0312C123.507 56.6922 123.429 56.2917 123.429 55.8295C123.429 55.3712 123.507 54.9735 123.664 54.6364C123.822 54.2992 124.04 54.0388 124.321 53.8551C124.601 53.6714 124.925 53.5795 125.292 53.5795C125.576 53.5795 125.801 53.6269 125.966 53.7216C126.132 53.8144 126.259 53.9205 126.346 54.0398C126.435 54.1572 126.504 54.2538 126.554 54.3295H126.61V52.1818H127.281V58H126.633V57.3295H126.554C126.504 57.4091 126.434 57.5095 126.343 57.6307C126.252 57.75 126.123 57.857 125.954 57.9517C125.786 58.0445 125.561 58.0909 125.281 58.0909ZM125.372 57.4886C125.641 57.4886 125.868 57.4186 126.054 57.2784C126.239 57.1364 126.38 56.9403 126.477 56.6903C126.574 56.4384 126.622 56.1477 126.622 55.8182C126.622 55.4924 126.574 55.2074 126.48 54.9631C126.385 54.7169 126.245 54.5256 126.059 54.3892C125.874 54.2509 125.645 54.1818 125.372 54.1818C125.088 54.1818 124.851 54.2547 124.662 54.4006C124.474 54.5445 124.333 54.7405 124.238 54.9886C124.145 55.2348 124.099 55.5114 124.099 55.8182C124.099 56.1288 124.146 56.411 124.241 56.6648C124.338 56.9167 124.48 57.1174 124.667 57.267C124.857 57.4148 125.092 57.4886 125.372 57.4886ZM129.886 58.1023C129.609 58.1023 129.359 58.0502 129.133 57.946C128.908 57.84 128.729 57.6875 128.596 57.4886C128.464 57.2879 128.397 57.0455 128.397 56.7614C128.397 56.5114 128.447 56.3087 128.545 56.1534C128.644 55.9962 128.775 55.8731 128.94 55.7841C129.105 55.6951 129.287 55.6288 129.485 55.5852C129.686 55.5398 129.888 55.5038 130.091 55.4773C130.356 55.4432 130.571 55.4176 130.735 55.4006C130.902 55.3816 131.023 55.3504 131.099 55.3068C131.177 55.2633 131.216 55.1875 131.216 55.0795V55.0568C131.216 54.7765 131.139 54.5587 130.985 54.4034C130.834 54.2481 130.604 54.1705 130.295 54.1705C129.975 54.1705 129.724 54.2405 129.542 54.3807C129.36 54.5208 129.233 54.6705 129.159 54.8295L128.522 54.6023C128.636 54.3371 128.788 54.1307 128.977 53.983C129.168 53.8333 129.377 53.7292 129.602 53.6705C129.829 53.6098 130.053 53.5795 130.272 53.5795C130.413 53.5795 130.574 53.5966 130.755 53.6307C130.939 53.6629 131.116 53.7301 131.287 53.8324C131.459 53.9347 131.602 54.089 131.716 54.2955C131.829 54.5019 131.886 54.7784 131.886 55.125V58H131.216V57.4091H131.181C131.136 57.5038 131.06 57.6051 130.954 57.7131C130.848 57.821 130.707 57.9129 130.531 57.9886C130.355 58.0644 130.14 58.1023 129.886 58.1023ZM129.988 57.5C130.253 57.5 130.477 57.4479 130.659 57.3438C130.842 57.2396 130.981 57.1051 131.074 56.9403C131.168 56.7756 131.216 56.6023 131.216 56.4205V55.8068C131.187 55.8409 131.125 55.8722 131.028 55.9006C130.933 55.9271 130.824 55.9508 130.699 55.9716C130.575 55.9905 130.455 56.0076 130.338 56.0227C130.222 56.036 130.128 56.0473 130.056 56.0568C129.882 56.0795 129.719 56.1165 129.568 56.1676C129.418 56.2169 129.297 56.2917 129.204 56.392C129.113 56.4905 129.068 56.625 129.068 56.7955C129.068 57.0284 129.154 57.2045 129.326 57.3239C129.501 57.4413 129.721 57.5 129.988 57.5Z" fill="black"/>
<path d="M12.4077 38V32.1818H15.8963V32.8068H13.1122V34.7727H15.6349V35.3977H13.1122V38H12.4077ZM17.0121 38V33.6364H17.6825V38H17.0121ZM17.353 32.9091C17.2223 32.9091 17.1096 32.8646 17.0149 32.7756C16.9221 32.6866 16.8757 32.5795 16.8757 32.4545C16.8757 32.3295 16.9221 32.2225 17.0149 32.1335C17.1096 32.0445 17.2223 32 17.353 32C17.4837 32 17.5954 32.0445 17.6882 32.1335C17.7829 32.2225 17.8303 32.3295 17.8303 32.4545C17.8303 32.5795 17.7829 32.6866 17.6882 32.7756C17.5954 32.8646 17.4837 32.9091 17.353 32.9091ZM18.9105 38V33.6364H19.5582V34.2955H19.6037C19.6832 34.0795 19.8272 33.9044 20.0355 33.7699C20.2438 33.6354 20.4787 33.5682 20.7401 33.5682C20.7893 33.5682 20.8509 33.5691 20.9247 33.571C20.9986 33.5729 21.0545 33.5758 21.0923 33.5795V34.2614C21.0696 34.2557 21.0175 34.2472 20.9361 34.2358C20.8565 34.2225 20.7723 34.2159 20.6832 34.2159C20.4711 34.2159 20.2817 34.2604 20.1151 34.3494C19.9503 34.4366 19.8196 34.5578 19.723 34.7131C19.6283 34.8665 19.581 35.0417 19.581 35.2386V38H18.9105ZM24.978 34.6136L24.3757 34.7841C24.3378 34.6837 24.282 34.5862 24.2081 34.4915C24.1361 34.3949 24.0376 34.3153 23.9126 34.2528C23.7876 34.1903 23.6276 34.1591 23.4325 34.1591C23.1655 34.1591 22.9429 34.2206 22.7649 34.3438C22.5888 34.465 22.5007 34.6193 22.5007 34.8068C22.5007 34.9735 22.5613 35.1051 22.6825 35.2017C22.8037 35.2983 22.9931 35.3788 23.2507 35.4432L23.8984 35.6023C24.2886 35.697 24.5793 35.8419 24.7706 36.0369C24.9619 36.2301 25.0575 36.4792 25.0575 36.7841C25.0575 37.0341 24.9856 37.2576 24.8416 37.4545C24.6996 37.6515 24.5007 37.8068 24.245 37.9205C23.9893 38.0341 23.692 38.0909 23.353 38.0909C22.9079 38.0909 22.5395 37.9943 22.2479 37.8011C21.9562 37.608 21.7715 37.3258 21.6939 36.9545L22.3303 36.7955C22.3909 37.0303 22.5054 37.2064 22.674 37.3239C22.8445 37.4413 23.067 37.5 23.3416 37.5C23.6541 37.5 23.9022 37.4337 24.0859 37.3011C24.2715 37.1667 24.3643 37.0057 24.3643 36.8182C24.3643 36.6667 24.3113 36.5398 24.2053 36.4375C24.0992 36.3333 23.9363 36.2557 23.7166 36.2045L22.9893 36.0341C22.5897 35.9394 22.2962 35.7926 22.1087 35.5938C21.9231 35.393 21.8303 35.142 21.8303 34.8409C21.8303 34.5947 21.8994 34.3769 22.0376 34.1875C22.1778 33.9981 22.3681 33.8494 22.6087 33.7415C22.8511 33.6335 23.1257 33.5795 23.4325 33.5795C23.8643 33.5795 24.2034 33.6742 24.4496 33.8636C24.6977 34.053 24.8738 34.303 24.978 34.6136ZM27.9645 33.6364V34.2045H25.7031V33.6364H27.9645ZM26.3622 32.5909H27.0327V36.75C27.0327 36.9394 27.0601 37.0814 27.1151 37.1761C27.1719 37.2689 27.2438 37.3314 27.331 37.3636C27.42 37.3939 27.5137 37.4091 27.6122 37.4091C27.6861 37.4091 27.7467 37.4053 27.794 37.3977C27.8414 37.3883 27.8793 37.3807 27.9077 37.375L28.044 37.9773C27.9986 37.9943 27.9351 38.0114 27.8537 38.0284C27.7723 38.0473 27.669 38.0568 27.544 38.0568C27.3546 38.0568 27.169 38.0161 26.9872 37.9347C26.8073 37.8532 26.6577 37.7292 26.5384 37.5625C26.4209 37.3958 26.3622 37.1856 26.3622 36.9318V32.5909ZM31.3168 35.1932V35.8182H28.7713V35.1932H31.3168ZM34.3942 33.6364V34.2045H32.1328V33.6364H34.3942ZM32.7919 32.5909H33.4624V36.75C33.4624 36.9394 33.4898 37.0814 33.5447 37.1761C33.6016 37.2689 33.6735 37.3314 33.7607 37.3636C33.8497 37.3939 33.9434 37.4091 34.0419 37.4091C34.1158 37.4091 34.1764 37.4053 34.2237 37.3977C34.2711 37.3883 34.3089 37.3807 34.3374 37.375L34.4737 37.9773C34.4283 37.9943 34.3648 38.0114 34.2834 38.0284C34.2019 38.0473 34.0987 38.0568 33.9737 38.0568C33.7843 38.0568 33.5987 38.0161 33.4169 37.9347C33.237 37.8532 33.0874 37.7292 32.968 37.5625C32.8506 37.3958 32.7919 37.1856 32.7919 36.9318V32.5909ZM35.4027 38V33.6364H36.0732V38H35.4027ZM35.7436 32.9091C35.6129 32.9091 35.5002 32.8646 35.4055 32.7756C35.3127 32.6866 35.2663 32.5795 35.2663 32.4545C35.2663 32.3295 35.3127 32.2225 35.4055 32.1335C35.5002 32.0445 35.6129 32 35.7436 32C35.8743 32 35.986 32.0445 36.0788 32.1335C36.1735 32.2225 36.2209 32.3295 36.2209 32.4545C36.2209 32.5795 36.1735 32.6866 36.0788 32.7756C35.986 32.8646 35.8743 32.9091 35.7436 32.9091ZM37.3011 38V33.6364H37.9489V34.3182H38.0057C38.0966 34.0852 38.2434 33.9044 38.446 33.7756C38.6487 33.6449 38.892 33.5795 39.1761 33.5795C39.464 33.5795 39.7036 33.6449 39.8949 33.7756C40.0881 33.9044 40.2386 34.0852 40.3466 34.3182H40.392C40.5038 34.0928 40.6714 33.9138 40.8949 33.7812C41.1184 33.6468 41.3864 33.5795 41.6989 33.5795C42.089 33.5795 42.4081 33.7017 42.6562 33.946C42.9044 34.1884 43.0284 34.5663 43.0284 35.0795V38H42.358V35.0795C42.358 34.7576 42.2699 34.5275 42.0938 34.3892C41.9176 34.2509 41.7102 34.1818 41.4716 34.1818C41.1648 34.1818 40.9271 34.2746 40.7585 34.4602C40.59 34.6439 40.5057 34.8769 40.5057 35.1591V38H39.8239V35.0114C39.8239 34.7633 39.7434 34.5634 39.5824 34.4119C39.4214 34.2585 39.214 34.1818 38.9602 34.1818C38.786 34.1818 38.6231 34.2282 38.4716 34.321C38.322 34.4138 38.2008 34.5426 38.108 34.7074C38.017 34.8703 37.9716 35.0587 37.9716 35.2727V38H37.3011ZM46.0838 38.0909C45.6634 38.0909 45.3007 37.9981 44.9957 37.8125C44.6927 37.625 44.4588 37.3636 44.294 37.0284C44.1312 36.6913 44.0497 36.2992 44.0497 35.8523C44.0497 35.4053 44.1312 35.0114 44.294 34.6705C44.4588 34.3277 44.688 34.0606 44.9815 33.8693C45.277 33.6761 45.6217 33.5795 46.0156 33.5795C46.2429 33.5795 46.4673 33.6174 46.6889 33.6932C46.9105 33.7689 47.1122 33.892 47.294 34.0625C47.4759 34.2311 47.6207 34.4545 47.7287 34.733C47.8366 35.0114 47.8906 35.3542 47.8906 35.7614V36.0455H44.527V35.4659H47.2088C47.2088 35.2197 47.1596 35 47.0611 34.8068C46.9645 34.6136 46.8262 34.4612 46.6463 34.3494C46.4683 34.2377 46.258 34.1818 46.0156 34.1818C45.7486 34.1818 45.5175 34.2481 45.3224 34.3807C45.1293 34.5114 44.9806 34.6818 44.8764 34.892C44.7723 35.1023 44.7202 35.3277 44.7202 35.5682V35.9545C44.7202 36.2841 44.777 36.5634 44.8906 36.7926C45.0062 37.0199 45.1662 37.1932 45.3707 37.3125C45.5753 37.4299 45.813 37.4886 46.0838 37.4886C46.2599 37.4886 46.419 37.464 46.5611 37.4148C46.705 37.3636 46.8291 37.2879 46.9332 37.1875C47.0374 37.0852 47.1179 36.9583 47.1747 36.8068L47.8224 36.9886C47.7543 37.2083 47.6397 37.4015 47.4787 37.5682C47.3177 37.733 47.1188 37.8617 46.8821 37.9545C46.6454 38.0455 46.3793 38.0909 46.0838 38.0909ZM20.5724 43.6364L18.9588 48H18.277L16.6634 43.6364H17.3906L18.5952 47.1136H18.6406L19.8452 43.6364H20.5724ZM21.4574 48V43.6364H22.1278V48H21.4574ZM21.7983 42.9091C21.6676 42.9091 21.5549 42.8646 21.4602 42.7756C21.3674 42.6866 21.321 42.5795 21.321 42.4545C21.321 42.3295 21.3674 42.2225 21.4602 42.1335C21.5549 42.0445 21.6676 42 21.7983 42C21.929 42 22.0407 42.0445 22.1335 42.1335C22.2282 42.2225 22.2756 42.3295 22.2756 42.4545C22.2756 42.5795 22.2282 42.6866 22.1335 42.7756C22.0407 42.8646 21.929 42.9091 21.7983 42.9091ZM26.4467 44.6136L25.8445 44.7841C25.8066 44.6837 25.7507 44.5862 25.6768 44.4915C25.6049 44.3949 25.5064 44.3153 25.3814 44.2528C25.2564 44.1903 25.0964 44.1591 24.9013 44.1591C24.6342 44.1591 24.4117 44.2206 24.2337 44.3438C24.0575 44.465 23.9695 44.6193 23.9695 44.8068C23.9695 44.9735 24.0301 45.1051 24.1513 45.2017C24.2725 45.2983 24.4619 45.3788 24.7195 45.4432L25.3672 45.6023C25.7573 45.697 26.0481 45.8419 26.2393 46.0369C26.4306 46.2301 26.5263 46.4792 26.5263 46.7841C26.5263 47.0341 26.4543 47.2576 26.3104 47.4545C26.1683 47.6515 25.9695 47.8068 25.7138 47.9205C25.4581 48.0341 25.1607 48.0909 24.8217 48.0909C24.3767 48.0909 24.0083 47.9943 23.7166 47.8011C23.425 47.608 23.2403 47.3258 23.1626 46.9545L23.799 46.7955C23.8596 47.0303 23.9742 47.2064 24.1428 47.3239C24.3132 47.4413 24.5357 47.5 24.8104 47.5C25.1229 47.5 25.371 47.4337 25.5547 47.3011C25.7403 47.1667 25.8331 47.0057 25.8331 46.8182C25.8331 46.6667 25.7801 46.5398 25.674 46.4375C25.5679 46.3333 25.4051 46.2557 25.1854 46.2045L24.4581 46.0341C24.0585 45.9394 23.7649 45.7926 23.5774 45.5938C23.3918 45.393 23.299 45.142 23.299 44.8409C23.299 44.5947 23.3681 44.3769 23.5064 44.1875C23.6465 43.9981 23.8369 43.8494 24.0774 43.7415C24.3198 43.6335 24.5945 43.5795 24.9013 43.5795C25.3331 43.5795 25.6721 43.6742 25.9183 43.8636C26.1664 44.053 26.3426 44.303 26.4467 44.6136ZM27.5355 48V43.6364H28.206V48H27.5355ZM27.8764 42.9091C27.7457 42.9091 27.633 42.8646 27.5384 42.7756C27.4455 42.6866 27.3991 42.5795 27.3991 42.4545C27.3991 42.3295 27.4455 42.2225 27.5384 42.1335C27.633 42.0445 27.7457 42 27.8764 42C28.0071 42 28.1188 42.0445 28.2116 42.1335C28.3063 42.2225 28.3537 42.3295 28.3537 42.4545C28.3537 42.5795 28.3063 42.6866 28.2116 42.7756C28.1188 42.8646 28.0071 42.9091 27.8764 42.9091ZM31.3317 43.6364V44.2045H29.0703V43.6364H31.3317ZM29.7294 42.5909H30.3999V46.75C30.3999 46.9394 30.4273 47.0814 30.4822 47.1761C30.5391 47.2689 30.611 47.3314 30.6982 47.3636C30.7872 47.3939 30.8809 47.4091 30.9794 47.4091C31.0533 47.4091 31.1139 47.4053 31.1612 47.3977C31.2086 47.3883 31.2464 47.3807 31.2749 47.375L31.4112 47.9773C31.3658 47.9943 31.3023 48.0114 31.2209 48.0284C31.1394 48.0473 31.0362 48.0568 30.9112 48.0568C30.7218 48.0568 30.5362 48.0161 30.3544 47.9347C30.1745 47.8532 30.0249 47.7292 29.9055 47.5625C29.7881 47.3958 29.7294 47.1856 29.7294 46.9318V42.5909ZM34.0661 48.0909C33.6721 48.0909 33.3265 47.9972 33.0291 47.8097C32.7337 47.6222 32.5026 47.3598 32.3359 47.0227C32.1712 46.6856 32.0888 46.2917 32.0888 45.8409C32.0888 45.3864 32.1712 44.9896 32.3359 44.6506C32.5026 44.3116 32.7337 44.0483 33.0291 43.8608C33.3265 43.6733 33.6721 43.5795 34.0661 43.5795C34.46 43.5795 34.8047 43.6733 35.1001 43.8608C35.3975 44.0483 35.6286 44.3116 35.7933 44.6506C35.96 44.9896 36.0433 45.3864 36.0433 45.8409C36.0433 46.2917 35.96 46.6856 35.7933 47.0227C35.6286 47.3598 35.3975 47.6222 35.1001 47.8097C34.8047 47.9972 34.46 48.0909 34.0661 48.0909ZM34.0661 47.4886C34.3653 47.4886 34.6115 47.4119 34.8047 47.2585C34.9979 47.1051 35.1409 46.9034 35.2337 46.6534C35.3265 46.4034 35.3729 46.1326 35.3729 45.8409C35.3729 45.5492 35.3265 45.2775 35.2337 45.0256C35.1409 44.7737 34.9979 44.5701 34.8047 44.4148C34.6115 44.2595 34.3653 44.1818 34.0661 44.1818C33.7668 44.1818 33.5206 44.2595 33.3274 44.4148C33.1342 44.5701 32.9912 44.7737 32.8984 45.0256C32.8056 45.2775 32.7592 45.5492 32.7592 45.8409C32.7592 46.1326 32.8056 46.4034 32.8984 46.6534C32.9912 46.9034 33.1342 47.1051 33.3274 47.2585C33.5206 47.4119 33.7668 47.4886 34.0661 47.4886ZM37.0668 48V43.6364H37.7145V44.2955H37.7599C37.8395 44.0795 37.9834 43.9044 38.1918 43.7699C38.4001 43.6354 38.6349 43.5682 38.8963 43.5682C38.9455 43.5682 39.0071 43.5691 39.081 43.571C39.1548 43.5729 39.2107 43.5758 39.2486 43.5795V44.2614C39.2259 44.2557 39.1738 44.2472 39.0923 44.2358C39.0128 44.2225 38.9285 44.2159 38.8395 44.2159C38.6274 44.2159 38.438 44.2604 38.2713 44.3494C38.1065 44.4366 37.9759 44.5578 37.8793 44.7131C37.7846 44.8665 37.7372 45.0417 37.7372 45.2386V48H37.0668ZM43.1342 44.6136L42.532 44.7841C42.4941 44.6837 42.4382 44.5862 42.3643 44.4915C42.2924 44.3949 42.1939 44.3153 42.0689 44.2528C41.9439 44.1903 41.7839 44.1591 41.5888 44.1591C41.3217 44.1591 41.0992 44.2206 40.9212 44.3438C40.745 44.465 40.657 44.6193 40.657 44.8068C40.657 44.9735 40.7176 45.1051 40.8388 45.2017C40.96 45.2983 41.1494 45.3788 41.407 45.4432L42.0547 45.6023C42.4448 45.697 42.7356 45.8419 42.9268 46.0369C43.1181 46.2301 43.2138 46.4792 43.2138 46.7841C43.2138 47.0341 43.1418 47.2576 42.9979 47.4545C42.8558 47.6515 42.657 47.8068 42.4013 47.9205C42.1456 48.0341 41.8482 48.0909 41.5092 48.0909C41.0642 48.0909 40.6958 47.9943 40.4041 47.8011C40.1125 47.608 39.9278 47.3258 39.8501 46.9545L40.4865 46.7955C40.5471 47.0303 40.6617 47.2064 40.8303 47.3239C41.0007 47.4413 41.2232 47.5 41.4979 47.5C41.8104 47.5 42.0585 47.4337 42.2422 47.3011C42.4278 47.1667 42.5206 47.0057 42.5206 46.8182C42.5206 46.6667 42.4676 46.5398 42.3615 46.4375C42.2554 46.3333 42.0926 46.2557 41.8729 46.2045L41.1456 46.0341C40.746 45.9394 40.4524 45.7926 40.2649 45.5938C40.0793 45.393 39.9865 45.142 39.9865 44.8409C39.9865 44.5947 40.0556 44.3769 40.1939 44.1875C40.334 43.9981 40.5244 43.8494 40.7649 43.7415C41.0073 43.6335 41.282 43.5795 41.5888 43.5795C42.0206 43.5795 42.3596 43.6742 42.6058 43.8636C42.8539 44.053 43.0301 44.303 43.1342 44.6136Z" fill="black"/>
<path d="M30 13C32.7614 13 35 10.7614 35 8C35 5.23858 32.7614 3 30 3C27.2386 3 25 5.23858 25 8C25 10.7614 27.2386 13 30 13Z" stroke="#4F4F4F" stroke-width="2"/>
<path d="M35.0001 15H35.3521C36.0831 15.0002 36.789 15.2674 37.337 15.7513C37.885 16.2352 38.2374 16.9026 38.3281 17.628L38.7191 20.752C38.7542 21.0334 38.7291 21.3191 38.6455 21.5901C38.5618 21.8611 38.4214 22.1112 38.2337 22.3238C38.046 22.5364 37.8152 22.7066 37.5566 22.8232C37.2981 22.9398 37.0177 23.0001 36.7341 23H23.2661C22.9824 23.0001 22.7021 22.9398 22.4435 22.8232C22.185 22.7066 21.9542 22.5364 21.7664 22.3238C21.5787 22.1112 21.4383 21.8611 21.3547 21.5901C21.271 21.3191 21.2459 21.0334 21.2811 20.752L21.6711 17.628C21.7618 16.9022 22.1145 16.2346 22.6629 15.7506C23.2113 15.2667 23.9176 14.9997 24.6491 15H25.0001" stroke="#4F4F4F" stroke-width="2" stroke-linecap="round" stroke-linejoin="round"/>
<path d="M182.474 32.1818L184.202 37.0795H184.27L185.997 32.1818H186.736L184.599 38H183.872L181.736 32.1818H182.474ZM187.551 38V33.6364H188.222V38H187.551ZM187.892 32.9091C187.761 32.9091 187.649 32.8646 187.554 32.7756C187.461 32.6866 187.415 32.5795 187.415 32.4545C187.415 32.3295 187.461 32.2225 187.554 32.1335C187.649 32.0445 187.761 32 187.892 32C188.023 32 188.134 32.0445 188.227 32.1335C188.322 32.2225 188.369 32.3295 188.369 32.4545C188.369 32.5795 188.322 32.6866 188.227 32.7756C188.134 32.8646 188.023 32.9091 187.892 32.9091ZM192.54 34.6136L191.938 34.7841C191.9 34.6837 191.844 34.5862 191.771 34.4915C191.699 34.3949 191.6 34.3153 191.475 34.2528C191.35 34.1903 191.19 34.1591 190.995 34.1591C190.728 34.1591 190.505 34.2206 190.327 34.3438C190.151 34.465 190.063 34.6193 190.063 34.8068C190.063 34.9735 190.124 35.1051 190.245 35.2017C190.366 35.2983 190.556 35.3788 190.813 35.4432L191.461 35.6023C191.851 35.697 192.142 35.8419 192.333 36.0369C192.524 36.2301 192.62 36.4792 192.62 36.7841C192.62 37.0341 192.548 37.2576 192.404 37.4545C192.262 37.6515 192.063 37.8068 191.808 37.9205C191.552 38.0341 191.254 38.0909 190.915 38.0909C190.47 38.0909 190.102 37.9943 189.81 37.8011C189.519 37.608 189.334 37.3258 189.256 36.9545L189.893 36.7955C189.953 37.0303 190.068 37.2064 190.237 37.3239C190.407 37.4413 190.629 37.5 190.904 37.5C191.217 37.5 191.465 37.4337 191.648 37.3011C191.834 37.1667 191.927 37.0057 191.927 36.8182C191.927 36.6667 191.874 36.5398 191.768 36.4375C191.662 36.3333 191.499 36.2557 191.279 36.2045L190.552 36.0341C190.152 35.9394 189.859 35.7926 189.671 35.5938C189.486 35.393 189.393 35.142 189.393 34.8409C189.393 34.5947 189.462 34.3769 189.6 34.1875C189.74 33.9981 189.931 33.8494 190.171 33.7415C190.414 33.6335 190.688 33.5795 190.995 33.5795C191.427 33.5795 191.766 33.6742 192.012 33.8636C192.26 34.053 192.436 34.303 192.54 34.6136ZM193.629 38V33.6364H194.3V38H193.629ZM193.97 32.9091C193.839 32.9091 193.727 32.8646 193.632 32.7756C193.539 32.6866 193.493 32.5795 193.493 32.4545C193.493 32.3295 193.539 32.2225 193.632 32.1335C193.727 32.0445 193.839 32 193.97 32C194.101 32 194.213 32.0445 194.305 32.1335C194.4 32.2225 194.447 32.3295 194.447 32.4545C194.447 32.5795 194.4 32.6866 194.305 32.7756C194.213 32.8646 194.101 32.9091 193.97 32.9091ZM197.425 33.6364V34.2045H195.164V33.6364H197.425ZM195.823 32.5909H196.494V36.75C196.494 36.9394 196.521 37.0814 196.576 37.1761C196.633 37.2689 196.705 37.3314 196.792 37.3636C196.881 37.3939 196.975 37.4091 197.073 37.4091C197.147 37.4091 197.208 37.4053 197.255 37.3977C197.302 37.3883 197.34 37.3807 197.369 37.375L197.505 37.9773C197.46 37.9943 197.396 38.0114 197.315 38.0284C197.233 38.0473 197.13 38.0568 197.005 38.0568C196.816 38.0568 196.63 38.0161 196.448 37.9347C196.268 37.8532 196.119 37.7292 195.999 37.5625C195.882 37.3958 195.823 37.1856 195.823 36.9318V32.5909ZM200.16 38.0909C199.766 38.0909 199.42 37.9972 199.123 37.8097C198.827 37.6222 198.596 37.3598 198.43 37.0227C198.265 36.6856 198.183 36.2917 198.183 35.8409C198.183 35.3864 198.265 34.9896 198.43 34.6506C198.596 34.3116 198.827 34.0483 199.123 33.8608C199.42 33.6733 199.766 33.5795 200.16 33.5795C200.554 33.5795 200.898 33.6733 201.194 33.8608C201.491 34.0483 201.722 34.3116 201.887 34.6506C202.054 34.9896 202.137 35.3864 202.137 35.8409C202.137 36.2917 202.054 36.6856 201.887 37.0227C201.722 37.3598 201.491 37.6222 201.194 37.8097C200.898 37.9972 200.554 38.0909 200.16 38.0909ZM200.16 37.4886C200.459 37.4886 200.705 37.4119 200.898 37.2585C201.092 37.1051 201.235 36.9034 201.327 36.6534C201.42 36.4034 201.467 36.1326 201.467 35.8409C201.467 35.5492 201.42 35.2775 201.327 35.0256C201.235 34.7737 201.092 34.5701 200.898 34.4148C200.705 34.2595 200.459 34.1818 200.16 34.1818C199.861 34.1818 199.614 34.2595 199.421 34.4148C199.228 34.5701 199.085 34.7737 198.992 35.0256C198.899 35.2775 198.853 35.5492 198.853 35.8409C198.853 36.1326 198.899 36.4034 198.992 36.6534C199.085 36.9034 199.228 37.1051 199.421 37.2585C199.614 37.4119 199.861 37.4886 200.16 37.4886ZM203.161 38V33.6364H203.808V34.2955H203.854C203.933 34.0795 204.077 33.9044 204.286 33.7699C204.494 33.6354 204.729 33.5682 204.99 33.5682C205.039 33.5682 205.101 33.5691 205.175 33.571C205.249 33.5729 205.304 33.5758 205.342 33.5795V34.2614C205.32 34.2557 205.268 34.2472 205.186 34.2358C205.107 34.2225 205.022 34.2159 204.933 34.2159C204.721 34.2159 204.532 34.2604 204.365 34.3494C204.2 34.4366 204.07 34.5578 203.973 34.7131C203.878 34.8665 203.831 35.0417 203.831 35.2386V38H203.161ZM209.228 34.6136L208.626 34.7841C208.588 34.6837 208.532 34.5862 208.458 34.4915C208.386 34.3949 208.288 34.3153 208.163 34.2528C208.038 34.1903 207.878 34.1591 207.683 34.1591C207.415 34.1591 207.193 34.2206 207.015 34.3438C206.839 34.465 206.751 34.6193 206.751 34.8068C206.751 34.9735 206.811 35.1051 206.933 35.2017C207.054 35.2983 207.243 35.3788 207.501 35.4432L208.148 35.6023C208.539 35.697 208.829 35.8419 209.021 36.0369C209.212 36.2301 209.308 36.4792 209.308 36.7841C209.308 37.0341 209.236 37.2576 209.092 37.4545C208.95 37.6515 208.751 37.8068 208.495 37.9205C208.239 38.0341 207.942 38.0909 207.603 38.0909C207.158 38.0909 206.79 37.9943 206.498 37.8011C206.206 37.608 206.022 37.3258 205.944 36.9545L206.58 36.7955C206.641 37.0303 206.755 37.2064 206.924 37.3239C207.094 37.4413 207.317 37.5 207.592 37.5C207.904 37.5 208.152 37.4337 208.336 37.3011C208.522 37.1667 208.614 37.0057 208.614 36.8182C208.614 36.6667 208.561 36.5398 208.455 36.4375C208.349 36.3333 208.186 36.2557 207.967 36.2045L207.239 36.0341C206.84 35.9394 206.546 35.7926 206.359 35.5938C206.173 35.393 206.08 35.142 206.08 34.8409C206.08 34.5947 206.149 34.3769 206.288 34.1875C206.428 33.9981 206.618 33.8494 206.859 33.7415C207.101 33.6335 207.376 33.5795 207.683 33.5795C208.114 33.5795 208.453 33.6742 208.7 33.8636C208.948 34.053 209.124 34.303 209.228 34.6136ZM214.51 33.6364V34.2045H212.158V33.6364H214.51ZM212.862 38V33.0341C212.862 32.7841 212.921 32.5758 213.038 32.4091C213.156 32.2424 213.308 32.1174 213.496 32.0341C213.683 31.9508 213.881 31.9091 214.089 31.9091C214.254 31.9091 214.389 31.9223 214.493 31.9489C214.597 31.9754 214.675 32 214.726 32.0227L214.533 32.6023C214.499 32.5909 214.451 32.5767 214.391 32.5597C214.332 32.5426 214.254 32.5341 214.158 32.5341C213.936 32.5341 213.776 32.59 213.678 32.7017C213.581 32.8134 213.533 32.9773 213.533 33.1932V38H212.862ZM215.45 38V33.6364H216.097V34.2955H216.143C216.222 34.0795 216.366 33.9044 216.575 33.7699C216.783 33.6354 217.018 33.5682 217.279 33.5682C217.328 33.5682 217.39 33.5691 217.464 33.571C217.538 33.5729 217.594 33.5758 217.631 33.5795V34.2614C217.609 34.2557 217.557 34.2472 217.475 34.2358C217.396 34.2225 217.311 34.2159 217.222 34.2159C217.01 34.2159 216.821 34.2604 216.654 34.3494C216.489 34.4366 216.359 34.5578 216.262 34.7131C216.167 34.8665 216.12 35.0417 216.12 35.2386V38H215.45ZM220.066 38.0909C219.672 38.0909 219.326 37.9972 219.029 37.8097C218.734 37.6222 218.503 37.3598 218.336 37.0227C218.171 36.6856 218.089 36.2917 218.089 35.8409C218.089 35.3864 218.171 34.9896 218.336 34.6506C218.503 34.3116 218.734 34.0483 219.029 33.8608C219.326 33.6733 219.672 33.5795 220.066 33.5795C220.46 33.5795 220.805 33.6733 221.1 33.8608C221.397 34.0483 221.629 34.3116 221.793 34.6506C221.96 34.9896 222.043 35.3864 222.043 35.8409C222.043 36.2917 221.96 36.6856 221.793 37.0227C221.629 37.3598 221.397 37.6222 221.1 37.8097C220.805 37.9972 220.46 38.0909 220.066 38.0909ZM220.066 37.4886C220.365 37.4886 220.612 37.4119 220.805 37.2585C220.998 37.1051 221.141 36.9034 221.234 36.6534C221.326 36.4034 221.373 36.1326 221.373 35.8409C221.373 35.5492 221.326 35.2775 221.234 35.0256C221.141 34.7737 220.998 34.5701 220.805 34.4148C220.612 34.2595 220.365 34.1818 220.066 34.1818C219.767 34.1818 219.521 34.2595 219.327 34.4148C219.134 34.5701 218.991 34.7737 218.898 35.0256C218.806 35.2775 218.759 35.5492 218.759 35.8409C218.759 36.1326 218.806 36.4034 218.898 36.6534C218.991 36.9034 219.134 37.1051 219.327 37.2585C219.521 37.4119 219.767 37.4886 220.066 37.4886ZM223.067 38V33.6364H223.714V34.3182H223.771C223.862 34.0852 224.009 33.9044 224.212 33.7756C224.414 33.6449 224.658 33.5795 224.942 33.5795C225.23 33.5795 225.469 33.6449 225.661 33.7756C225.854 33.9044 226.004 34.0852 226.112 34.3182H226.158C226.269 34.0928 226.437 33.9138 226.661 33.7812C226.884 33.6468 227.152 33.5795 227.464 33.5795C227.855 33.5795 228.174 33.7017 228.422 33.946C228.67 34.1884 228.794 34.5663 228.794 35.0795V38H228.124V35.0795C228.124 34.7576 228.036 34.5275 227.859 34.3892C227.683 34.2509 227.476 34.1818 227.237 34.1818C226.93 34.1818 226.693 34.2746 226.524 34.4602C226.356 34.6439 226.271 34.8769 226.271 35.1591V38H225.589V35.0114C225.589 34.7633 225.509 34.5634 225.348 34.4119C225.187 34.2585 224.98 34.1818 224.726 34.1818C224.552 34.1818 224.389 34.2282 224.237 34.321C224.088 34.4138 223.966 34.5426 223.874 34.7074C223.783 34.8703 223.737 35.0587 223.737 35.2727V38H223.067ZM233.418 38L231.827 32.1818H232.543L233.759 36.9205H233.815L235.054 32.1818H235.849L237.088 36.9205H237.145L238.361 32.1818H239.077L237.486 38H236.759L235.474 33.3636H235.429L234.145 38H233.418ZM241.287 38.0909C240.866 38.0909 240.504 37.9981 240.199 37.8125C239.896 37.625 239.662 37.3636 239.497 37.0284C239.334 36.6913 239.253 36.2992 239.253 35.8523C239.253 35.4053 239.334 35.0114 239.497 34.6705C239.662 34.3277 239.891 34.0606 240.185 33.8693C240.48 33.6761 240.825 33.5795 241.219 33.5795C241.446 33.5795 241.67 33.6174 241.892 33.6932C242.114 33.7689 242.315 33.892 242.497 34.0625C242.679 34.2311 242.824 34.4545 242.932 34.733C243.04 35.0114 243.094 35.3542 243.094 35.7614V36.0455H239.73V35.4659H242.412C242.412 35.2197 242.363 35 242.264 34.8068C242.168 34.6136 242.029 34.4612 241.849 34.3494C241.671 34.2377 241.461 34.1818 241.219 34.1818C240.952 34.1818 240.721 34.2481 240.526 34.3807C240.332 34.5114 240.184 34.6818 240.08 34.892C239.975 35.1023 239.923 35.3277 239.923 35.5682V35.9545C239.923 36.2841 239.98 36.5634 240.094 36.7926C240.209 37.0199 240.369 37.1932 240.574 37.3125C240.778 37.4299 241.016 37.4886 241.287 37.4886C241.463 37.4886 241.622 37.464 241.764 37.4148C241.908 37.3636 242.032 37.2879 242.136 37.1875C242.241 37.0852 242.321 36.9583 242.378 36.8068L243.026 36.9886C242.957 37.2083 242.843 37.4015 242.682 37.5682C242.521 37.733 242.322 37.8617 242.085 37.9545C241.848 38.0455 241.582 38.0909 241.287 38.0909ZM244.205 38V32.1818H244.875V34.3295H244.932C244.981 34.2538 245.049 34.1572 245.136 34.0398C245.225 33.9205 245.352 33.8144 245.517 33.7216C245.684 33.6269 245.909 33.5795 246.193 33.5795C246.561 33.5795 246.884 33.6714 247.165 33.8551C247.445 34.0388 247.664 34.2992 247.821 34.6364C247.978 34.9735 248.057 35.3712 248.057 35.8295C248.057 36.2917 247.978 36.6922 247.821 37.0312C247.664 37.3684 247.446 37.6297 247.168 37.8153C246.889 37.9991 246.568 38.0909 246.205 38.0909C245.924 38.0909 245.7 38.0445 245.531 37.9517C245.363 37.857 245.233 37.75 245.142 37.6307C245.051 37.5095 244.981 37.4091 244.932 37.3295H244.852V38H244.205ZM244.864 35.8182C244.864 36.1477 244.912 36.4384 245.009 36.6903C245.105 36.9403 245.246 37.1364 245.432 37.2784C245.617 37.4186 245.845 37.4886 246.114 37.4886C246.394 37.4886 246.628 37.4148 246.815 37.267C247.005 37.1174 247.147 36.9167 247.241 36.6648C247.338 36.411 247.386 36.1288 247.386 35.8182C247.386 35.5114 247.339 35.2348 247.244 34.9886C247.152 34.7405 247.01 34.5445 246.821 34.4006C246.634 34.2547 246.398 34.1818 246.114 34.1818C245.841 34.1818 245.612 34.2509 245.426 34.3892C245.241 34.5256 245.1 34.7169 245.006 34.9631C244.911 35.2074 244.864 35.4924 244.864 35.8182ZM181.129 48H179.333V42.1818H181.208C181.773 42.1818 182.256 42.2983 182.657 42.5312C183.059 42.7623 183.367 43.0947 183.581 43.5284C183.795 43.9602 183.902 44.4773 183.902 45.0795C183.902 45.6856 183.794 46.2074 183.578 46.6449C183.362 47.0805 183.047 47.4157 182.635 47.6506C182.222 47.8835 181.72 48 181.129 48ZM180.038 47.375H181.083C181.565 47.375 181.963 47.2822 182.279 47.0966C182.596 46.911 182.832 46.6468 182.987 46.304C183.142 45.9612 183.22 45.553 183.22 45.0795C183.22 44.6098 183.143 44.2055 182.99 43.8665C182.836 43.5256 182.607 43.2642 182.302 43.0824C181.997 42.8987 181.618 42.8068 181.163 42.8068H180.038V47.375ZM186.822 48.0909C186.402 48.0909 186.039 47.9981 185.734 47.8125C185.431 47.625 185.197 47.3636 185.032 47.0284C184.869 46.6913 184.788 46.2992 184.788 45.8523C184.788 45.4053 184.869 45.0114 185.032 44.6705C185.197 44.3277 185.426 44.0606 185.72 43.8693C186.015 43.6761 186.36 43.5795 186.754 43.5795C186.981 43.5795 187.206 43.6174 187.427 43.6932C187.649 43.7689 187.85 43.892 188.032 44.0625C188.214 44.2311 188.359 44.4545 188.467 44.733C188.575 45.0114 188.629 45.3542 188.629 45.7614V46.0455H185.265V45.4659H187.947C187.947 45.2197 187.898 45 187.799 44.8068C187.703 44.6136 187.565 44.4612 187.385 44.3494C187.207 44.2377 186.996 44.1818 186.754 44.1818C186.487 44.1818 186.256 44.2481 186.061 44.3807C185.868 44.5114 185.719 44.6818 185.615 44.892C185.511 45.1023 185.458 45.3277 185.458 45.5682V45.9545C185.458 46.2841 185.515 46.5634 185.629 46.7926C185.744 47.0199 185.904 47.1932 186.109 47.3125C186.314 47.4299 186.551 47.4886 186.822 47.4886C186.998 47.4886 187.157 47.464 187.299 47.4148C187.443 47.3636 187.567 47.2879 187.672 47.1875C187.776 47.0852 187.856 46.9583 187.913 46.8068L188.561 46.9886C188.493 47.2083 188.378 47.4015 188.217 47.5682C188.056 47.733 187.857 47.8617 187.62 47.9545C187.384 48.0455 187.118 48.0909 186.822 48.0909ZM192.74 44.6136L192.137 44.7841C192.1 44.6837 192.044 44.5862 191.97 44.4915C191.898 44.3949 191.799 44.3153 191.674 44.2528C191.549 44.1903 191.389 44.1591 191.194 44.1591C190.927 44.1591 190.705 44.2206 190.527 44.3438C190.35 44.465 190.262 44.6193 190.262 44.8068C190.262 44.9735 190.323 45.1051 190.444 45.2017C190.565 45.2983 190.755 45.3788 191.012 45.4432L191.66 45.6023C192.05 45.697 192.341 45.8419 192.532 46.0369C192.724 46.2301 192.819 46.4792 192.819 46.7841C192.819 47.0341 192.747 47.2576 192.603 47.4545C192.461 47.6515 192.262 47.8068 192.007 47.9205C191.751 48.0341 191.454 48.0909 191.115 48.0909C190.67 48.0909 190.301 47.9943 190.01 47.8011C189.718 47.608 189.533 47.3258 189.456 46.9545L190.092 46.7955C190.153 47.0303 190.267 47.2064 190.436 47.3239C190.606 47.4413 190.829 47.5 191.103 47.5C191.416 47.5 191.664 47.4337 191.848 47.3011C192.033 47.1667 192.126 47.0057 192.126 46.8182C192.126 46.6667 192.073 46.5398 191.967 46.4375C191.861 46.3333 191.698 46.2557 191.478 46.2045L190.751 46.0341C190.351 45.9394 190.058 45.7926 189.87 45.5938C189.685 45.393 189.592 45.142 189.592 44.8409C189.592 44.5947 189.661 44.3769 189.799 44.1875C189.94 43.9981 190.13 43.8494 190.37 43.7415C190.613 43.6335 190.887 43.5795 191.194 43.5795C191.626 43.5795 191.965 43.6742 192.211 43.8636C192.459 44.053 192.636 44.303 192.74 44.6136ZM193.828 48V43.6364H194.499V48H193.828ZM194.169 42.9091C194.039 42.9091 193.926 42.8646 193.831 42.7756C193.739 42.6866 193.692 42.5795 193.692 42.4545C193.692 42.3295 193.739 42.2225 193.831 42.1335C193.926 42.0445 194.039 42 194.169 42C194.3 42 194.412 42.0445 194.505 42.1335C194.599 42.2225 194.647 42.3295 194.647 42.4545C194.647 42.5795 194.599 42.6866 194.505 42.7756C194.412 42.8646 194.3 42.9091 194.169 42.9091ZM197.488 49.7273C197.164 49.7273 196.886 49.6856 196.653 49.6023C196.42 49.5208 196.226 49.4129 196.071 49.2784C195.917 49.1458 195.795 49.0038 195.704 48.8523L196.238 48.4773C196.299 48.5568 196.376 48.6477 196.468 48.75C196.561 48.8542 196.688 48.9441 196.849 49.0199C197.012 49.0975 197.225 49.1364 197.488 49.1364C197.841 49.1364 198.131 49.0511 198.36 48.8807C198.59 48.7102 198.704 48.4432 198.704 48.0795V47.1932H198.647C198.598 47.2727 198.528 47.3712 198.437 47.4886C198.348 47.6042 198.219 47.7074 198.051 47.7983C197.884 47.8873 197.659 47.9318 197.375 47.9318C197.022 47.9318 196.706 47.8485 196.426 47.6818C196.147 47.5152 195.927 47.2727 195.764 46.9545C195.603 46.6364 195.522 46.25 195.522 45.7955C195.522 45.3485 195.601 44.9593 195.758 44.6278C195.915 44.2945 196.134 44.0369 196.414 43.8551C196.695 43.6714 197.019 43.5795 197.386 43.5795C197.67 43.5795 197.895 43.6269 198.062 43.7216C198.231 43.8144 198.359 43.9205 198.449 44.0398C198.539 44.1572 198.609 44.2538 198.659 44.3295H198.727V43.6364H199.375V48.125C199.375 48.5 199.289 48.8049 199.119 49.0398C198.95 49.2765 198.723 49.4498 198.437 49.5597C198.153 49.6714 197.837 49.7273 197.488 49.7273ZM197.466 47.3295C197.734 47.3295 197.962 47.268 198.147 47.1449C198.333 47.0218 198.474 46.8447 198.571 46.6136C198.667 46.3826 198.716 46.1061 198.716 45.7841C198.716 45.4697 198.668 45.1922 198.574 44.9517C198.479 44.7112 198.339 44.5227 198.153 44.3864C197.967 44.25 197.738 44.1818 197.466 44.1818C197.181 44.1818 196.945 44.2538 196.755 44.3977C196.568 44.5417 196.427 44.7348 196.332 44.9773C196.239 45.2197 196.193 45.4886 196.193 45.7841C196.193 46.0871 196.24 46.3551 196.335 46.5881C196.431 46.8191 196.574 47.0009 196.761 47.1335C196.95 47.2642 197.185 47.3295 197.466 47.3295ZM201.272 45.375V48H200.602V43.6364H201.25V44.3182H201.306C201.409 44.0966 201.564 43.9186 201.772 43.7841C201.981 43.6477 202.25 43.5795 202.579 43.5795C202.875 43.5795 203.133 43.6402 203.355 43.7614C203.576 43.8807 203.749 44.0625 203.872 44.3068C203.995 44.5492 204.056 44.8561 204.056 45.2273V48H203.386V45.2727C203.386 44.9299 203.297 44.6629 203.119 44.4716C202.941 44.2784 202.697 44.1818 202.386 44.1818C202.172 44.1818 201.981 44.2282 201.812 44.321C201.645 44.4138 201.514 44.5492 201.417 44.7273C201.321 44.9053 201.272 45.1212 201.272 45.375ZM209.588 41.9091L207.713 48.875H207.1L208.975 41.9091H209.588ZM216.542 42.1818H217.247V46.0341C217.247 46.4318 217.153 46.7869 216.966 47.0994C216.78 47.41 216.518 47.6553 216.179 47.8352C215.84 48.0133 215.442 48.1023 214.985 48.1023C214.529 48.1023 214.131 48.0133 213.792 47.8352C213.453 47.6553 213.19 47.41 213.002 47.0994C212.817 46.7869 212.724 46.4318 212.724 46.0341V42.1818H213.429V45.9773C213.429 46.2614 213.491 46.5142 213.616 46.7358C213.741 46.9555 213.919 47.1288 214.15 47.2557C214.383 47.3807 214.662 47.4432 214.985 47.4432C215.309 47.4432 215.588 47.3807 215.821 47.2557C216.054 47.1288 216.232 46.9555 216.355 46.7358C216.48 46.5142 216.542 46.2614 216.542 45.9773V42.1818ZM218.995 42.1818L220.495 44.6023H220.54L222.04 42.1818H222.87L221.04 45.0909L222.87 48H222.04L220.54 45.625H220.495L218.995 48H218.165L220.04 45.0909L218.165 42.1818H218.995ZM227.832 48H226.037V42.1818H227.912C228.476 42.1818 228.959 42.2983 229.36 42.5312C229.762 42.7623 230.07 43.0947 230.284 43.5284C230.498 43.9602 230.605 44.4773 230.605 45.0795C230.605 45.6856 230.497 46.2074 230.281 46.6449C230.065 47.0805 229.751 47.4157 229.338 47.6506C228.925 47.8835 228.423 48 227.832 48ZM226.741 47.375H227.787C228.268 47.375 228.666 47.2822 228.983 47.0966C229.299 46.911 229.535 46.6468 229.69 46.304C229.845 45.9612 229.923 45.553 229.923 45.0795C229.923 44.6098 229.846 44.2055 229.693 43.8665C229.539 43.5256 229.31 43.2642 229.005 43.0824C228.7 42.8987 228.321 42.8068 227.866 42.8068H226.741V47.375ZM233.525 48.0909C233.105 48.0909 232.742 47.9981 232.437 47.8125C232.134 47.625 231.9 47.3636 231.735 47.0284C231.573 46.6913 231.491 46.2992 231.491 45.8523C231.491 45.4053 231.573 45.0114 231.735 44.6705C231.9 44.3277 232.129 44.0606 232.423 43.8693C232.718 43.6761 233.063 43.5795 233.457 43.5795C233.684 43.5795 233.909 43.6174 234.13 43.6932C234.352 43.7689 234.554 43.892 234.735 44.0625C234.917 44.2311 235.062 44.4545 235.17 44.733C235.278 45.0114 235.332 45.3542 235.332 45.7614V46.0455H231.968V45.4659H234.65C234.65 45.2197 234.601 45 234.502 44.8068C234.406 44.6136 234.268 44.4612 234.088 44.3494C233.91 44.2377 233.699 44.1818 233.457 44.1818C233.19 44.1818 232.959 44.2481 232.764 44.3807C232.571 44.5114 232.422 44.6818 232.318 44.892C232.214 45.1023 232.162 45.3277 232.162 45.5682V45.9545C232.162 46.2841 232.218 46.5634 232.332 46.7926C232.448 47.0199 232.608 47.1932 232.812 47.3125C233.017 47.4299 233.254 47.4886 233.525 47.4886C233.701 47.4886 233.86 47.464 234.002 47.4148C234.146 47.3636 234.27 47.2879 234.375 47.1875C234.479 47.0852 234.559 46.9583 234.616 46.8068L235.264 46.9886C235.196 47.2083 235.081 47.4015 234.92 47.5682C234.759 47.733 234.56 47.8617 234.324 47.9545C234.087 48.0455 233.821 48.0909 233.525 48.0909ZM239.443 44.6136L238.841 44.7841C238.803 44.6837 238.747 44.5862 238.673 44.4915C238.601 44.3949 238.502 44.3153 238.377 44.2528C238.252 44.1903 238.092 44.1591 237.897 44.1591C237.63 44.1591 237.408 44.2206 237.23 44.3438C237.054 44.465 236.966 44.6193 236.966 44.8068C236.966 44.9735 237.026 45.1051 237.147 45.2017C237.269 45.2983 237.458 45.3788 237.716 45.4432L238.363 45.6023C238.753 45.697 239.044 45.8419 239.235 46.0369C239.427 46.2301 239.522 46.4792 239.522 46.7841C239.522 47.0341 239.45 47.2576 239.306 47.4545C239.164 47.6515 238.966 47.8068 238.71 47.9205C238.454 48.0341 238.157 48.0909 237.818 48.0909C237.373 48.0909 237.004 47.9943 236.713 47.8011C236.421 47.608 236.236 47.3258 236.159 46.9545L236.795 46.7955C236.856 47.0303 236.97 47.2064 237.139 47.3239C237.309 47.4413 237.532 47.5 237.806 47.5C238.119 47.5 238.367 47.4337 238.551 47.3011C238.736 47.1667 238.829 47.0057 238.829 46.8182C238.829 46.6667 238.776 46.5398 238.67 46.4375C238.564 46.3333 238.401 46.2557 238.181 46.2045L237.454 46.0341C237.055 45.9394 236.761 45.7926 236.574 45.5938C236.388 45.393 236.295 45.142 236.295 44.8409C236.295 44.5947 236.364 44.3769 236.502 44.1875C236.643 43.9981 236.833 43.8494 237.074 43.7415C237.316 43.6335 237.591 43.5795 237.897 43.5795C238.329 43.5795 238.668 43.6742 238.914 43.8636C239.163 44.053 239.339 44.303 239.443 44.6136ZM240.532 48V43.6364H241.202V48H240.532ZM240.873 42.9091C240.742 42.9091 240.629 42.8646 240.534 42.7756C240.442 42.6866 240.395 42.5795 240.395 42.4545C240.395 42.3295 240.442 42.2225 240.534 42.1335C240.629 42.0445 240.742 42 240.873 42C241.003 42 241.115 42.0445 241.208 42.1335C241.302 42.2225 241.35 42.3295 241.35 42.4545C241.35 42.5795 241.302 42.6866 241.208 42.7756C241.115 42.8646 241.003 42.9091 240.873 42.9091ZM244.191 49.7273C243.868 49.7273 243.589 49.6856 243.356 49.6023C243.123 49.5208 242.929 49.4129 242.774 49.2784C242.62 49.1458 242.498 49.0038 242.407 48.8523L242.941 48.4773C243.002 48.5568 243.079 48.6477 243.172 48.75C243.264 48.8542 243.391 48.9441 243.552 49.0199C243.715 49.0975 243.928 49.1364 244.191 49.1364C244.544 49.1364 244.834 49.0511 245.064 48.8807C245.293 48.7102 245.407 48.4432 245.407 48.0795V47.1932H245.35C245.301 47.2727 245.231 47.3712 245.14 47.4886C245.051 47.6042 244.922 47.7074 244.754 47.7983C244.587 47.8873 244.362 47.9318 244.078 47.9318C243.725 47.9318 243.409 47.8485 243.129 47.6818C242.85 47.5152 242.63 47.2727 242.467 46.9545C242.306 46.6364 242.225 46.25 242.225 45.7955C242.225 45.3485 242.304 44.9593 242.461 44.6278C242.618 44.2945 242.837 44.0369 243.118 43.8551C243.398 43.6714 243.722 43.5795 244.089 43.5795C244.373 43.5795 244.599 43.6269 244.765 43.7216C244.934 43.8144 245.063 43.9205 245.152 44.0398C245.243 44.1572 245.313 44.2538 245.362 44.3295H245.43V43.6364H246.078V48.125C246.078 48.5 245.993 48.8049 245.822 49.0398C245.654 49.2765 245.426 49.4498 245.14 49.5597C244.856 49.6714 244.54 49.7273 244.191 49.7273ZM244.169 47.3295C244.438 47.3295 244.665 47.268 244.85 47.1449C245.036 47.0218 245.177 46.8447 245.274 46.6136C245.37 46.3826 245.419 46.1061 245.419 45.7841C245.419 45.4697 245.371 45.1922 245.277 44.9517C245.182 44.7112 245.042 44.5227 244.856 44.3864C244.671 44.25 244.441 44.1818 244.169 44.1818C243.885 44.1818 243.648 44.2538 243.458 44.3977C243.271 44.5417 243.13 44.7348 243.035 44.9773C242.942 45.2197 242.896 45.4886 242.896 45.7841C242.896 46.0871 242.943 46.3551 243.038 46.5881C243.135 46.8191 243.277 47.0009 243.464 47.1335C243.654 47.2642 243.888 47.3295 244.169 47.3295ZM247.975 45.375V48H247.305V43.6364H247.953V44.3182H248.01C248.112 44.0966 248.267 43.9186 248.475 43.7841C248.684 43.6477 248.953 43.5795 249.282 43.5795C249.578 43.5795 249.836 43.6402 250.058 43.7614C250.279 43.8807 250.452 44.0625 250.575 44.3068C250.698 44.5492 250.76 44.8561 250.76 45.2273V48H250.089V45.2727C250.089 44.9299 250 44.6629 249.822 44.4716C249.644 44.2784 249.4 44.1818 249.089 44.1818C248.875 44.1818 248.684 44.2282 248.515 44.321C248.349 44.4138 248.217 44.5492 248.12 44.7273C248.024 44.9053 247.975 45.1212 247.975 45.375ZM193.251 58V52.1818H193.922V54.3295H193.979C194.028 54.2538 194.096 54.1572 194.183 54.0398C194.272 53.9205 194.399 53.8144 194.564 53.7216C194.731 53.6269 194.956 53.5795 195.24 53.5795C195.607 53.5795 195.931 53.6714 196.212 53.8551C196.492 54.0388 196.711 54.2992 196.868 54.6364C197.025 54.9735 197.104 55.3712 197.104 55.8295C197.104 56.2917 197.025 56.6922 196.868 57.0312C196.711 57.3684 196.493 57.6297 196.214 57.8153C195.936 57.9991 195.615 58.0909 195.251 58.0909C194.971 58.0909 194.747 58.0445 194.578 57.9517C194.41 57.857 194.28 57.75 194.189 57.6307C194.098 57.5095 194.028 57.4091 193.979 57.3295H193.899V58H193.251ZM193.911 55.8182C193.911 56.1477 193.959 56.4384 194.055 56.6903C194.152 56.9403 194.293 57.1364 194.479 57.2784C194.664 57.4186 194.892 57.4886 195.161 57.4886C195.441 57.4886 195.675 57.4148 195.862 57.267C196.052 57.1174 196.194 56.9167 196.288 56.6648C196.385 56.411 196.433 56.1288 196.433 55.8182C196.433 55.5114 196.386 55.2348 196.291 54.9886C196.198 54.7405 196.057 54.5445 195.868 54.4006C195.68 54.2547 195.445 54.1818 195.161 54.1818C194.888 54.1818 194.659 54.2509 194.473 54.3892C194.287 54.5256 194.147 54.7169 194.053 54.9631C193.958 55.2074 193.911 55.4924 193.911 55.8182ZM199.413 58.1023C199.137 58.1023 198.886 58.0502 198.661 57.946C198.435 57.84 198.256 57.6875 198.124 57.4886C197.991 57.2879 197.925 57.0455 197.925 56.7614C197.925 56.5114 197.974 56.3087 198.072 56.1534C198.171 55.9962 198.303 55.8731 198.467 55.7841C198.632 55.6951 198.814 55.6288 199.013 55.5852C199.214 55.5398 199.415 55.5038 199.618 55.4773C199.883 55.4432 200.098 55.4176 200.263 55.4006C200.429 55.3816 200.551 55.3504 200.626 55.3068C200.704 55.2633 200.743 55.1875 200.743 55.0795V55.0568C200.743 54.7765 200.666 54.5587 200.513 54.4034C200.361 54.2481 200.131 54.1705 199.822 54.1705C199.502 54.1705 199.251 54.2405 199.07 54.3807C198.888 54.5208 198.76 54.6705 198.686 54.8295L198.05 54.6023C198.163 54.3371 198.315 54.1307 198.504 53.983C198.696 53.8333 198.904 53.7292 199.129 53.6705C199.357 53.6098 199.58 53.5795 199.8 53.5795C199.94 53.5795 200.101 53.5966 200.283 53.6307C200.466 53.6629 200.643 53.7301 200.814 53.8324C200.986 53.9347 201.129 54.089 201.243 54.2955C201.357 54.5019 201.413 54.7784 201.413 55.125V58H200.743V57.4091H200.709C200.663 57.5038 200.588 57.6051 200.482 57.7131C200.375 57.821 200.234 57.9129 200.058 57.9886C199.882 58.0644 199.667 58.1023 199.413 58.1023ZM199.516 57.5C199.781 57.5 200.004 57.4479 200.186 57.3438C200.37 57.2396 200.508 57.1051 200.601 56.9403C200.696 56.7756 200.743 56.6023 200.743 56.4205V55.8068C200.714 55.8409 200.652 55.8722 200.555 55.9006C200.461 55.9271 200.351 55.9508 200.226 55.9716C200.103 55.9905 199.982 56.0076 199.865 56.0227C199.75 56.036 199.656 56.0473 199.584 56.0568C199.41 56.0795 199.247 56.1165 199.095 56.1676C198.946 56.2169 198.824 56.2917 198.732 56.392C198.641 56.4905 198.595 56.625 198.595 56.7955C198.595 57.0284 198.681 57.2045 198.854 57.3239C199.028 57.4413 199.249 57.5 199.516 57.5ZM204.41 58.0909C204.001 58.0909 203.648 57.9943 203.353 57.8011C203.058 57.608 202.83 57.3419 202.671 57.0028C202.512 56.6638 202.433 56.2765 202.433 55.8409C202.433 55.3977 202.514 55.0066 202.677 54.6676C202.842 54.3267 203.071 54.0606 203.364 53.8693C203.66 53.6761 204.004 53.5795 204.398 53.5795C204.705 53.5795 204.982 53.6364 205.228 53.75C205.474 53.8636 205.676 54.0227 205.833 54.2273C205.99 54.4318 206.088 54.6705 206.126 54.9432H205.455C205.404 54.7443 205.29 54.5682 205.114 54.4148C204.94 54.2595 204.705 54.1818 204.41 54.1818C204.148 54.1818 203.919 54.25 203.722 54.3864C203.527 54.5208 203.375 54.7112 203.265 54.9574C203.157 55.2017 203.103 55.4886 203.103 55.8182C203.103 56.1553 203.156 56.4489 203.262 56.6989C203.37 56.9489 203.522 57.143 203.717 57.2812C203.914 57.4195 204.145 57.4886 204.41 57.4886C204.584 57.4886 204.742 57.4583 204.884 57.3977C205.026 57.3371 205.147 57.25 205.245 57.1364C205.344 57.0227 205.414 56.8864 205.455 56.7273H206.126C206.088 56.9848 205.994 57.2169 205.844 57.4233C205.697 57.6278 205.501 57.7907 205.256 57.9119C205.014 58.0312 204.732 58.0909 204.41 58.0909ZM207.731 56.4091L207.719 55.5795H207.856L209.765 53.6364H210.594L208.56 55.6932H208.504L207.731 56.4091ZM207.106 58V52.1818H207.776V58H207.106ZM209.879 58L208.174 55.8409L208.651 55.375L210.731 58H209.879ZM213.039 59.7273C212.715 59.7273 212.437 59.6856 212.204 59.6023C211.971 59.5208 211.777 59.4129 211.621 59.2784C211.468 59.1458 211.346 59.0038 211.255 58.8523L211.789 58.4773C211.85 58.5568 211.926 58.6477 212.019 58.75C212.112 58.8542 212.239 58.9441 212.4 59.0199C212.563 59.0975 212.776 59.1364 213.039 59.1364C213.391 59.1364 213.682 59.0511 213.911 58.8807C214.14 58.7102 214.255 58.4432 214.255 58.0795V57.1932H214.198C214.149 57.2727 214.079 57.3712 213.988 57.4886C213.899 57.6042 213.77 57.7074 213.602 57.7983C213.435 57.8873 213.21 57.9318 212.925 57.9318C212.573 57.9318 212.257 57.8485 211.977 57.6818C211.698 57.5152 211.478 57.2727 211.315 56.9545C211.154 56.6364 211.073 56.25 211.073 55.7955C211.073 55.3485 211.152 54.9593 211.309 54.6278C211.466 54.2945 211.685 54.0369 211.965 53.8551C212.246 53.6714 212.569 53.5795 212.937 53.5795C213.221 53.5795 213.446 53.6269 213.613 53.7216C213.781 53.8144 213.91 53.9205 213.999 54.0398C214.09 54.1572 214.16 54.2538 214.21 54.3295H214.278V53.6364H214.925V58.125C214.925 58.5 214.84 58.8049 214.67 59.0398C214.501 59.2765 214.274 59.4498 213.988 59.5597C213.704 59.6714 213.388 59.7273 213.039 59.7273ZM213.016 57.3295C213.285 57.3295 213.513 57.268 213.698 57.1449C213.884 57.0218 214.025 56.8447 214.121 56.6136C214.218 56.3826 214.266 56.1061 214.266 55.7841C214.266 55.4697 214.219 55.1922 214.124 54.9517C214.03 54.7112 213.889 54.5227 213.704 54.3864C213.518 54.25 213.289 54.1818 213.016 54.1818C212.732 54.1818 212.496 54.2538 212.306 54.3977C212.119 54.5417 211.978 54.7348 211.883 54.9773C211.79 55.2197 211.744 55.4886 211.744 55.7841C211.744 56.0871 211.791 56.3551 211.886 56.5881C211.982 56.8191 212.124 57.0009 212.312 57.1335C212.501 57.2642 212.736 57.3295 213.016 57.3295ZM216.153 58V53.6364H216.8V54.2955H216.846C216.925 54.0795 217.069 53.9044 217.278 53.7699C217.486 53.6354 217.721 53.5682 217.982 53.5682C218.031 53.5682 218.093 53.5691 218.167 53.571C218.241 53.5729 218.297 53.5758 218.335 53.5795V54.2614C218.312 54.2557 218.26 54.2472 218.178 54.2358C218.099 54.2225 218.014 54.2159 217.925 54.2159C217.713 54.2159 217.524 54.2604 217.357 54.3494C217.192 54.4366 217.062 54.5578 216.965 54.7131C216.871 54.8665 216.823 55.0417 216.823 55.2386V58H216.153ZM220.769 58.0909C220.375 58.0909 220.03 57.9972 219.732 57.8097C219.437 57.6222 219.206 57.3598 219.039 57.0227C218.874 56.6856 218.792 56.2917 218.792 55.8409C218.792 55.3864 218.874 54.9896 219.039 54.6506C219.206 54.3116 219.437 54.0483 219.732 53.8608C220.03 53.6733 220.375 53.5795 220.769 53.5795C221.163 53.5795 221.508 53.6733 221.803 53.8608C222.101 54.0483 222.332 54.3116 222.496 54.6506C222.663 54.9896 222.746 55.3864 222.746 55.8409C222.746 56.2917 222.663 56.6856 222.496 57.0227C222.332 57.3598 222.101 57.6222 221.803 57.8097C221.508 57.9972 221.163 58.0909 220.769 58.0909ZM220.769 57.4886C221.068 57.4886 221.315 57.4119 221.508 57.2585C221.701 57.1051 221.844 56.9034 221.937 56.6534C222.03 56.4034 222.076 56.1326 222.076 55.8409C222.076 55.5492 222.03 55.2775 221.937 55.0256C221.844 54.7737 221.701 54.5701 221.508 54.4148C221.315 54.2595 221.068 54.1818 220.769 54.1818C220.47 54.1818 220.224 54.2595 220.031 54.4148C219.837 54.5701 219.694 54.7737 219.602 55.0256C219.509 55.2775 219.462 55.5492 219.462 55.8409C219.462 56.1326 219.509 56.4034 219.602 56.6534C219.694 56.9034 219.837 57.1051 220.031 57.2585C220.224 57.4119 220.47 57.4886 220.769 57.4886ZM226.52 56.2159V53.6364H227.19V58H226.52V57.2614H226.474C226.372 57.483 226.213 57.6714 225.997 57.8267C225.781 57.9801 225.509 58.0568 225.179 58.0568C224.906 58.0568 224.664 57.9972 224.452 57.8778C224.24 57.7566 224.073 57.5748 223.952 57.3324C223.83 57.0881 223.77 56.7803 223.77 56.4091V53.6364H224.44V56.3636C224.44 56.6818 224.529 56.9356 224.707 57.125C224.887 57.3144 225.116 57.4091 225.395 57.4091C225.562 57.4091 225.731 57.3665 225.903 57.2812C226.078 57.196 226.223 57.0653 226.341 56.8892C226.46 56.7131 226.52 56.4886 226.52 56.2159ZM229.089 55.375V58H228.418V53.6364H229.066V54.3182H229.123C229.225 54.0966 229.38 53.9186 229.589 53.7841C229.797 53.6477 230.066 53.5795 230.396 53.5795C230.691 53.5795 230.95 53.6402 231.171 53.7614C231.393 53.8807 231.565 54.0625 231.688 54.3068C231.811 54.5492 231.873 54.8561 231.873 55.2273V58H231.202V55.2727C231.202 54.9299 231.113 54.6629 230.935 54.4716C230.757 54.2784 230.513 54.1818 230.202 54.1818C229.988 54.1818 229.797 54.2282 229.629 54.321C229.462 54.4138 229.33 54.5492 229.234 54.7273C229.137 54.9053 229.089 55.1212 229.089 55.375ZM234.746 58.0909C234.382 58.0909 234.061 57.9991 233.783 57.8153C233.504 57.6297 233.286 57.3684 233.129 57.0312C232.972 56.6922 232.893 56.2917 232.893 55.8295C232.893 55.3712 232.972 54.9735 233.129 54.6364C233.286 54.2992 233.505 54.0388 233.786 53.8551C234.066 53.6714 234.39 53.5795 234.757 53.5795C235.041 53.5795 235.266 53.6269 235.43 53.7216C235.597 53.8144 235.724 53.9205 235.811 54.0398C235.9 54.1572 235.969 54.2538 236.018 54.3295H236.075V52.1818H236.746V58H236.098V57.3295H236.018C235.969 57.4091 235.899 57.5095 235.808 57.6307C235.717 57.75 235.588 57.857 235.419 57.9517C235.25 58.0445 235.026 58.0909 234.746 58.0909ZM234.837 57.4886C235.106 57.4886 235.333 57.4186 235.518 57.2784C235.704 57.1364 235.845 56.9403 235.942 56.6903C236.038 56.4384 236.087 56.1477 236.087 55.8182C236.087 55.4924 236.039 55.2074 235.945 54.9631C235.85 54.7169 235.71 54.5256 235.524 54.3892C235.339 54.2509 235.109 54.1818 234.837 54.1818C234.553 54.1818 234.316 54.2547 234.126 54.4006C233.939 54.5445 233.798 54.7405 233.703 54.9886C233.61 55.2348 233.564 55.5114 233.564 55.8182C233.564 56.1288 233.611 56.411 233.706 56.6648C233.803 56.9167 233.945 57.1174 234.132 57.267C234.321 57.4148 234.556 57.4886 234.837 57.4886Z" fill="black"/>
<path d="M207.414 1L199 9.414V6.586L204.586 1H207.414ZM202 25H205V21.586L201.61 24.976C201.738 24.992 201.87 25 202 25V25ZM225.414 25H225V22.586L231 16.586V19.414L225.414 25ZM231 12.414L224.804 18.61C224.608 17.9338 224.272 17.3067 223.816 16.77L231 9.586V12.414V12.414ZM220 17C220.394 16.9995 220.784 17.0767 221.149 17.2273C221.513 17.3779 221.844 17.5988 222.122 17.8775C222.401 18.1562 222.622 18.4871 222.773 18.8513C222.923 19.2155 223.001 19.6059 223 20V25H221V20C221 19.7348 220.895 19.4804 220.707 19.2929C220.52 19.1054 220.265 19 220 19H210C209.735 19 209.48 19.1054 209.293 19.2929C209.105 19.4804 209 19.7348 209 20V25H207V20C207.001 19.2045 207.317 18.4418 207.879 17.8793C208.442 17.3168 209.205 17.0005 210 17H220ZM214.444 14.97C213.571 14.8709 212.74 14.5444 212.032 14.0232C211.325 13.502 210.767 12.8044 210.414 12C210.08 11.2353 209.944 10.399 210.018 9.568C210.104 8.57747 210.483 7.63497 211.107 6.86093C211.731 6.08688 212.571 5.51644 213.521 5.22248C214.471 4.92852 215.487 4.9244 216.439 5.21063C217.391 5.49686 218.236 6.06045 218.866 6.8294C219.497 7.59835 219.883 8.53773 219.977 9.52754C220.071 10.5173 219.867 11.5126 219.393 12.3862C218.918 13.2598 218.194 13.972 217.312 14.4319C216.431 14.8918 215.432 15.0784 214.444 14.968V14.97ZM215 13C215.796 13 216.559 12.6839 217.121 12.1213C217.684 11.5587 218 10.7956 218 10C218 9.20435 217.684 8.44129 217.121 7.87868C216.559 7.31607 215.796 7 215 7C214.204 7 213.441 7.31607 212.879 7.87868C212.316 8.44129 212 9.20435 212 10C212 10.7956 212.316 11.5587 212.879 12.1213C213.441 12.6839 214.204 13 215 13ZM199.24 23.176L208.928 13.486C208.561 12.8488 208.298 12.1576 208.148 11.438L199 20.586V22C199 22.418 199.086 22.814 199.24 23.176V23.176ZM218.486 3.928C217.849 3.56142 217.158 3.29815 216.438 3.148L218.586 1H221.414L218.486 3.928ZM221.638 7.776C221.414 7.10774 221.091 6.47725 220.678 5.906L225.588 1H228C228.132 1 228.26 1.008 228.39 1.026L221.638 7.776V7.776ZM219.9 15C220.78 14.14 221.432 13.05 221.76 11.826L230.764 2.826C230.916 3.186 231.004 3.582 231.004 4V5.414L221.258 15.158C220.848 15.0532 220.426 15.0001 220.002 15H219.902H219.9ZM199 16.414L214.414 1H211.586L199 13.586V16.414V16.414Z" fill="#4F4F4F"/>
<path d="M153 17L157 13M171 5H153H171ZM171 5L167 9L171 5ZM171 5L167 1L171 5ZM153 17H171H153ZM153 17L157 21L153 17Z" stroke="#4F4F4F" stroke-width="2" stroke-linecap="round" stroke-linejoin="round"/>
<path d="M65 17L69 13M83 5H65H83ZM83 5L79 9L83 5ZM83 5L79 1L83 5ZM65 17H83H65ZM65 17L69 21L65 17Z" stroke="#4F4F4F" stroke-width="2" stroke-linecap="round" stroke-linejoin="round"/>
</svg>
